M48
;Layer_Color=9474304
;FILE_FORMAT=4:2
METRIC
;TYPE=PLATED
T1F00S00C0.30
T2F00S00C0.50
T3F00S00C0.70
T4F00S00C0.85
T5F00S00C0.86
T6F00S00C1.00
T7F00S00C3.00
%
T01
X000445Y001445
X000600Y001408
X000755
X000945
X000940Y001110
X000880Y001020
X001285Y000954
Y001304
Y001620
Y001980
Y002340
Y002662
Y003020
Y003191
Y003361
Y003720
X000635Y003910
X001925Y003947
X002570Y003870
Y003735
Y003550
X002690Y003950
X002820
X003010Y003280
X002950Y002610
X002848
X002747
X002647
X002546
X002446
X002340
X001950Y002556
Y002432
Y002309
Y002185
Y002061
Y001938
Y001814
Y001691
Y001567
Y001444
Y001320
X002195Y001542
Y002000
X001950Y002679
Y002803
Y002926
Y003050
X003350Y002610
X003450
X003550
X003650
X003751
X003740Y002460
Y003575
Y003775
X003047Y001306
X002870
X002770Y001390
X002852Y000510
X002676
X002500
X002330
X002400Y000290
Y000160
X002600Y000290
X003028Y000510
X003204
X003380
X003556Y000509
X003732Y000510
X001495Y000585
X000490Y001610
X000272Y001660
X000550Y002060
X004490Y001934
X004420Y002280
X004490Y002663
X004420Y003010
X004490Y003400
X004420Y003741
X004620Y003756
X004893Y003669
X005430Y003767
X005500Y003870
X005580Y003967
Y003460
Y003360
X005414Y003213
Y003091
X005580Y002950
Y002820
X005460Y002350
X005410Y002180
X005414Y001750
X005570Y001650
X005696
X005814
X005932
X006051
X006169
X006287
X006480Y000770
X006406Y000590
X006225
X006044
X005862
X005681
X005500
X005728Y000770
X007050Y000780
X007270Y000800
X007690Y000770
X007470Y002200
Y002360
X007180Y002370
X007110Y002140
X007220Y003280
X007030Y003330
Y003770
X007680Y003210
Y003010
X006220Y003030
X005430Y003567
X004876Y002836
X004870Y002290
X004890Y002090
X004830Y001240
X004350Y001620
X004010Y000670
X004489Y004135
X004567Y004297
X004420Y004528
X004490Y004926
X004529Y005680
X004610
X004700Y005750
X004447Y005680
X004366
X004284
X004203
X004121
X004040
X005600Y005269
X005414Y004736
X005430Y004020
X005870Y004130
X006000Y004380
X006390Y004680
X006960Y004890
X007460Y004020
X003740Y004280
Y004390
Y004510
X003650Y004600
X003090Y004510
X002850Y004590
X002610Y004510
X002070Y004820
X001285Y004754
Y004620
Y004406
Y004130
Y005102
Y005450
X001493Y005725
X002350Y005870
X002440
X002529
X002617
X002706
X002794
X002883
X002971
X003060
X003200Y005620
X003445Y005577
X003545
X003576Y006080
X003751
X000600Y004767
X000530Y004660
X000330Y004330
T02
X002540Y001550
X002200Y002134
X004655Y001940
X004855
Y001680
X004655
Y002413
X004855
Y002673
X004655
Y003147
X004855
Y003407
X004655
Y003880
X004855
X007400Y002000
X007600
X007800
X008000
X007980Y004290
Y004510
X007170Y005040
X005950Y005150
X004855Y004930
X004655
Y004670
X004855
Y004140
X004655
T03
X000332Y002210
X000532
Y002410
X000332
Y002610
X000532
Y002810
X000332
Y003010
X000532
Y003210
X000332
Y003410
X000532
Y003610
X000332
Y003810
X000532
X008232
X008432
Y003610
X008232
Y003410
X008432
Y003210
X008232
Y003010
X008432
Y002810
X008232
Y002610
X008432
Y002410
X008232
Y002210
X008432
Y004010
X008232
X000532
X000332
T04
X000432Y002110
X008332
Y004110
X000432
T05
X005000Y005710
X005200
X005400
X005600
X005800
Y005910
X005600
X005400
X005200
X005000
X006000
Y005710
T06
X004755Y001810
Y002543
Y003277
Y004010
Y004800
T07
X001882Y000310
X006882
Y005910
X001882
M30
