G04*
G04 #@! TF.GenerationSoftware,Altium Limited,Altium Designer,20.1.10 (176)*
G04*
G04 Layer_Color=16711935*
%FSAX42Y42*%
%MOMM*%
G71*
G04*
G04 #@! TF.SameCoordinates,1BA63ED6-0030-4306-BA36-9B072EE6F18F*
G04*
G04*
G04 #@! TF.FilePolarity,Negative*
G04*
G01*
G75*
%ADD16C,0.20*%
%ADD17R,1.83X1.02*%
%ADD18R,1.70X0.70*%
%ADD19R,1.00X1.50*%
%ADD20R,3.40X2.80*%
%ADD21R,1.50X1.00*%
%ADD28C,1.20*%
%ADD29C,0.20*%
%ADD30C,1.70*%
%ADD31C,1.00*%
%ADD32C,1.57*%
%ADD33R,1.57X1.57*%
%ADD34C,0.80*%
%ADD35C,5.60*%
G04:AMPARAMS|DCode=85|XSize=2.2mm|YSize=2.2mm|CornerRadius=0.6mm|HoleSize=0mm|Usage=FLASHONLY|Rotation=180.000|XOffset=0mm|YOffset=0mm|HoleType=Round|Shape=RoundedRectangle|*
%AMROUNDEDRECTD85*
21,1,2.20,1.00,0,0,180.0*
21,1,1.00,2.20,0,0,180.0*
1,1,1.20,-0.50,0.50*
1,1,1.20,0.50,0.50*
1,1,1.20,0.50,-0.50*
1,1,1.20,-0.50,-0.50*
%
%ADD85ROUNDEDRECTD85*%
%ADD86R,2.20X2.20*%
%ADD87O,1.02X2.70*%
%ADD88R,1.02X2.70*%
%ADD89R,3.25X4.27*%
%ADD90R,1.73X0.84*%
%ADD91O,1.73X0.84*%
G04:AMPARAMS|DCode=92|XSize=3.25mm|YSize=0.91mm|CornerRadius=0.28mm|HoleSize=0mm|Usage=FLASHONLY|Rotation=90.000|XOffset=0mm|YOffset=0mm|HoleType=Round|Shape=RoundedRectangle|*
%AMROUNDEDRECTD92*
21,1,3.25,0.36,0,0,90.0*
21,1,2.69,0.91,0,0,90.0*
1,1,0.56,0.18,1.35*
1,1,0.56,0.18,-1.35*
1,1,0.56,-0.18,-1.35*
1,1,0.56,-0.18,1.35*
%
%ADD92ROUNDEDRECTD92*%
%ADD93R,0.91X3.25*%
%ADD94R,3.25X0.91*%
D16*
X004037Y006060D02*
G03*
X004730Y006060I000346J000200D01*
G01*
Y000160D02*
G03*
X004037Y000160I-000346J-000200D01*
G01*
X001807Y006210D02*
G03*
X001595Y006122I000000J-000300D01*
G01*
Y000098D02*
G03*
X001807Y000010I000212J000212D01*
G01*
X008683Y004486D02*
G03*
X008595Y004698I-000300J-000000D01*
G01*
Y001522D02*
G03*
X008683Y001734I-000212J000212D01*
G01*
X004989Y006210D02*
G03*
X004730Y006060I000000J-000300D01*
G01*
X004037Y006060D02*
G03*
X003777Y006210I-000260J-000150D01*
G01*
X007171Y006122D02*
G03*
X006959Y006210I-000212J-000212D01*
G01*
Y000010D02*
G03*
X007171Y000098I-000000J000300D01*
G01*
X004730Y000160D02*
G03*
X004989Y000010I000260J000150D01*
G01*
X003777D02*
G03*
X004037Y000160I000000J000300D01*
G01*
X000171Y004698D02*
G03*
X000083Y004486I000212J-000212D01*
G01*
Y001734D02*
G03*
X000171Y001522I000300J000000D01*
G01*
X001595Y000098D01*
X000171Y004698D02*
X001595Y006122D01*
X007171Y000098D02*
X008595Y001522D01*
X007171Y006122D02*
X008595Y004698D01*
X004989Y006210D02*
X006959D01*
X004989Y000010D02*
X006959D01*
X001807Y006210D02*
X003777D01*
X001807Y000010D02*
X003777D01*
X008683Y001734D02*
Y004486D01*
X000083Y001734D02*
Y004486D01*
D17*
X000707Y002610D02*
D03*
Y002210D02*
D03*
Y002410D02*
D03*
Y002810D02*
D03*
Y003610D02*
D03*
Y003210D02*
D03*
Y003010D02*
D03*
Y003410D02*
D03*
Y004010D02*
D03*
Y003810D02*
D03*
X000157D02*
D03*
Y003210D02*
D03*
Y003010D02*
D03*
Y003410D02*
D03*
Y003610D02*
D03*
Y002810D02*
D03*
Y002610D02*
D03*
Y002210D02*
D03*
Y002410D02*
D03*
Y004010D02*
D03*
D18*
X000597Y004010D02*
D03*
Y003810D02*
D03*
Y003610D02*
D03*
Y003410D02*
D03*
Y003210D02*
D03*
Y003010D02*
D03*
Y002810D02*
D03*
Y002610D02*
D03*
Y002410D02*
D03*
X000267Y004010D02*
D03*
Y003810D02*
D03*
Y003610D02*
D03*
Y003410D02*
D03*
Y003210D02*
D03*
Y003010D02*
D03*
Y002810D02*
D03*
Y002610D02*
D03*
Y002410D02*
D03*
Y002210D02*
D03*
X000597D02*
D03*
D19*
X004740Y002180D02*
D03*
X004550D02*
D03*
X004740Y002920D02*
D03*
X004550D02*
D03*
X004740Y003620D02*
D03*
X004550D02*
D03*
X004740Y004440D02*
D03*
X004550D02*
D03*
X001380Y005450D02*
D03*
X001570D02*
D03*
X001380Y005102D02*
D03*
X001570D02*
D03*
X001380Y004754D02*
D03*
X001570D02*
D03*
X001380Y004406D02*
D03*
X001570D02*
D03*
X002350Y001830D02*
D03*
X002540D02*
D03*
X002350Y001663D02*
D03*
X002540D02*
D03*
X002209Y005162D02*
D03*
X002019D02*
D03*
X000945Y001873D02*
D03*
X000755D02*
D03*
X001380Y004057D02*
D03*
X001570D02*
D03*
X001380Y003709D02*
D03*
X001570D02*
D03*
X001380Y003361D02*
D03*
X001570D02*
D03*
X001380Y003013D02*
D03*
X001570D02*
D03*
X001380Y002665D02*
D03*
X001570D02*
D03*
X001380Y002317D02*
D03*
X001570D02*
D03*
X001380Y001969D02*
D03*
X001570D02*
D03*
X001380Y001620D02*
D03*
X001570D02*
D03*
X001380Y001272D02*
D03*
X001570D02*
D03*
X001380Y000924D02*
D03*
X001570D02*
D03*
X006030Y003694D02*
D03*
X005840D02*
D03*
Y003518D02*
D03*
X006030D02*
D03*
Y003343D02*
D03*
X005840D02*
D03*
X006030Y003870D02*
D03*
X005840D02*
D03*
X002972Y000833D02*
D03*
X003162D02*
D03*
Y001000D02*
D03*
X002972D02*
D03*
X000945Y002040D02*
D03*
X000755D02*
D03*
Y001538D02*
D03*
X000945D02*
D03*
X000755Y001705D02*
D03*
X000945D02*
D03*
X001570Y004580D02*
D03*
X001380D02*
D03*
Y004231D02*
D03*
X001570D02*
D03*
Y001098D02*
D03*
X001380D02*
D03*
X001570Y002491D02*
D03*
X001380D02*
D03*
X001570Y001446D02*
D03*
X001380D02*
D03*
X001570Y002143D02*
D03*
X001380D02*
D03*
X001570Y001794D02*
D03*
X001380D02*
D03*
X001570Y002839D02*
D03*
X001380D02*
D03*
X001570Y003535D02*
D03*
X001380D02*
D03*
X001570Y000750D02*
D03*
X001380D02*
D03*
X001570Y005276D02*
D03*
X001380D02*
D03*
X001570Y004928D02*
D03*
X001380D02*
D03*
X001570Y003883D02*
D03*
X001380D02*
D03*
X001570Y003187D02*
D03*
X001380D02*
D03*
D20*
X003970Y002132D02*
D03*
Y001370D02*
D03*
X002550Y002134D02*
D03*
Y001372D02*
D03*
D21*
X000272Y001780D02*
D03*
Y001970D02*
D03*
X005230Y005490D02*
D03*
Y005301D02*
D03*
X007170Y004470D02*
D03*
Y004280D02*
D03*
X004210Y005130D02*
D03*
Y004940D02*
D03*
X004040Y004940D02*
D03*
Y005129D02*
D03*
X002140Y000820D02*
D03*
Y001010D02*
D03*
X000920Y004170D02*
D03*
Y003980D02*
D03*
X007170Y004632D02*
D03*
Y004822D02*
D03*
X002195Y001840D02*
D03*
Y001650D02*
D03*
X003317Y000820D02*
D03*
Y001010D02*
D03*
X003485D02*
D03*
Y000820D02*
D03*
X006704Y004470D02*
D03*
Y004280D02*
D03*
X006937Y004470D02*
D03*
Y004280D02*
D03*
X006471Y004279D02*
D03*
Y004469D02*
D03*
X003700Y005300D02*
D03*
Y005490D02*
D03*
X003870Y005300D02*
D03*
Y005490D02*
D03*
X004040Y005300D02*
D03*
Y005490D02*
D03*
X004210Y005300D02*
D03*
Y005490D02*
D03*
X004380Y005300D02*
D03*
Y005490D02*
D03*
X004550Y005300D02*
D03*
Y005490D02*
D03*
X004720Y005300D02*
D03*
Y005490D02*
D03*
X004890D02*
D03*
Y005300D02*
D03*
X005060Y005301D02*
D03*
Y005490D02*
D03*
X002369Y001010D02*
D03*
Y000820D02*
D03*
X008030Y003010D02*
D03*
Y003200D02*
D03*
Y002620D02*
D03*
Y002810D02*
D03*
D28*
X008232Y002210D02*
D03*
X008432D02*
D03*
X008232Y002410D02*
D03*
X008432D02*
D03*
X008232Y002610D02*
D03*
X008432D02*
D03*
X008232Y002810D02*
D03*
X008432D02*
D03*
Y004010D02*
D03*
X008232D02*
D03*
X008432Y003810D02*
D03*
X008232D02*
D03*
X008432Y003610D02*
D03*
X008232D02*
D03*
X008432Y003410D02*
D03*
X008232D02*
D03*
X008432Y003210D02*
D03*
X008232D02*
D03*
X008432Y003010D02*
D03*
X008232D02*
D03*
X000532Y002210D02*
D03*
X000332D02*
D03*
X000532Y002410D02*
D03*
X000332D02*
D03*
X000532Y002610D02*
D03*
X000332D02*
D03*
X000532Y002810D02*
D03*
X000332D02*
D03*
Y004010D02*
D03*
X000532D02*
D03*
X000332Y003810D02*
D03*
X000532D02*
D03*
X000332Y003610D02*
D03*
X000532D02*
D03*
X000332Y003410D02*
D03*
X000532D02*
D03*
X000332Y003210D02*
D03*
X000532D02*
D03*
X000332Y003010D02*
D03*
X000532D02*
D03*
D29*
X008332Y004110D02*
D03*
Y002110D02*
D03*
X000432Y004110D02*
D03*
Y002110D02*
D03*
D30*
X004755Y001810D02*
D03*
Y002543D02*
D03*
Y003277D02*
D03*
Y004010D02*
D03*
Y004800D02*
D03*
D31*
X004655Y001940D02*
D03*
X004855D02*
D03*
Y001680D02*
D03*
X004655D02*
D03*
Y002413D02*
D03*
X004855D02*
D03*
Y002673D02*
D03*
X004655D02*
D03*
Y003407D02*
D03*
X004855D02*
D03*
Y003147D02*
D03*
X004655D02*
D03*
Y003880D02*
D03*
X004855D02*
D03*
Y004140D02*
D03*
X004655D02*
D03*
Y004670D02*
D03*
X004855D02*
D03*
Y004930D02*
D03*
X004655D02*
D03*
X002200Y002134D02*
D03*
D32*
X005800Y005910D02*
D03*
Y005710D02*
D03*
X005600Y005910D02*
D03*
Y005710D02*
D03*
X005400Y005910D02*
D03*
Y005710D02*
D03*
X005200Y005910D02*
D03*
Y005710D02*
D03*
X005000Y005910D02*
D03*
X006000D02*
D03*
Y005710D02*
D03*
D33*
X005000D02*
D03*
D34*
X000600Y001408D02*
D03*
X000755D02*
D03*
X007800Y001870D02*
D03*
X002870Y001306D02*
D03*
X003047D02*
D03*
D35*
X006882Y000310D02*
D03*
X001882D02*
D03*
Y005910D02*
D03*
X006882D02*
D03*
D85*
X006960Y005186D02*
D03*
D86*
X006560D02*
D03*
X006960Y004678D02*
D03*
X006560D02*
D03*
D87*
X007098Y001100D02*
D03*
X005728D02*
D03*
D88*
X007225D02*
D03*
X007725D02*
D03*
X007850D02*
D03*
Y002770D02*
D03*
X007725D02*
D03*
X007098D02*
D03*
X007225D02*
D03*
X005855Y001100D02*
D03*
X006355D02*
D03*
X006480D02*
D03*
Y002770D02*
D03*
X006355D02*
D03*
X005728D02*
D03*
X005855D02*
D03*
D89*
X004755Y001810D02*
D03*
Y002543D02*
D03*
Y003277D02*
D03*
Y004010D02*
D03*
Y004800D02*
D03*
D90*
X004467Y001619D02*
D03*
Y001746D02*
D03*
Y001873D02*
D03*
Y002000D02*
D03*
X005050Y001619D02*
D03*
Y001746D02*
D03*
Y001873D02*
D03*
Y002606D02*
D03*
Y002479D02*
D03*
Y002352D02*
D03*
X004467Y002733D02*
D03*
Y002606D02*
D03*
Y002479D02*
D03*
Y002352D02*
D03*
Y003086D02*
D03*
Y003213D02*
D03*
Y003340D02*
D03*
Y003467D02*
D03*
X005050Y003086D02*
D03*
Y003213D02*
D03*
Y003340D02*
D03*
Y004073D02*
D03*
Y003946D02*
D03*
Y003819D02*
D03*
X004467Y004200D02*
D03*
Y004073D02*
D03*
Y003946D02*
D03*
Y003819D02*
D03*
X005050Y004863D02*
D03*
Y004736D02*
D03*
Y004609D02*
D03*
X004467Y004990D02*
D03*
Y004863D02*
D03*
Y004736D02*
D03*
Y004609D02*
D03*
D91*
X005050Y002000D02*
D03*
Y002733D02*
D03*
Y003467D02*
D03*
Y004200D02*
D03*
Y004990D02*
D03*
D92*
X003050Y002960D02*
D03*
D93*
X002950D02*
D03*
X002850D02*
D03*
X002750D02*
D03*
X002650D02*
D03*
X002550D02*
D03*
X002450D02*
D03*
X002350D02*
D03*
Y004890D02*
D03*
X002450D02*
D03*
X002550D02*
D03*
X002650D02*
D03*
X002750D02*
D03*
X002850D02*
D03*
X002950D02*
D03*
X003050D02*
D03*
X003150D02*
D03*
X003250D02*
D03*
X003450D02*
D03*
X003550D02*
D03*
X003650D02*
D03*
X003750D02*
D03*
X003850D02*
D03*
X003350D02*
D03*
X003150Y002960D02*
D03*
X003250D02*
D03*
X003350D02*
D03*
X003450D02*
D03*
X003550D02*
D03*
X003650D02*
D03*
X003750D02*
D03*
X003850D02*
D03*
D94*
X002135Y003975D02*
D03*
Y004075D02*
D03*
Y004175D02*
D03*
Y004275D02*
D03*
Y004375D02*
D03*
Y004475D02*
D03*
Y004575D02*
D03*
Y004675D02*
D03*
X004065D02*
D03*
Y004575D02*
D03*
Y004475D02*
D03*
Y004375D02*
D03*
Y004275D02*
D03*
Y004175D02*
D03*
Y004075D02*
D03*
Y003975D02*
D03*
Y003875D02*
D03*
Y003775D02*
D03*
Y003575D02*
D03*
Y003475D02*
D03*
Y003375D02*
D03*
Y003275D02*
D03*
Y003175D02*
D03*
Y003675D02*
D03*
X002135Y003875D02*
D03*
Y003775D02*
D03*
Y003675D02*
D03*
Y003575D02*
D03*
Y003475D02*
D03*
Y003375D02*
D03*
Y003275D02*
D03*
Y003175D02*
D03*
M02*
