G04*
G04 #@! TF.GenerationSoftware,Altium Limited,Altium Designer,20.1.10 (176)*
G04*
G04 Layer_Physical_Order=4*
G04 Layer_Color=16737819*
%FSAX42Y42*%
%MOMM*%
G71*
G04*
G04 #@! TF.SameCoordinates,1BA63ED6-0030-4306-BA36-9B072EE6F18F*
G04*
G04*
G04 #@! TF.FilePolarity,Positive*
G04*
G01*
G75*
%ADD16C,0.20*%
%ADD36R,1.63X0.81*%
%ADD37R,1.50X0.50*%
%ADD38R,0.80X1.30*%
%ADD39R,3.20X2.60*%
%ADD40R,1.30X0.80*%
%ADD47C,0.50*%
%ADD48C,0.25*%
%ADD49C,0.30*%
%ADD53C,1.00*%
%ADD54C,1.50*%
%ADD55C,0.80*%
%ADD56C,1.37*%
%ADD57R,1.37X1.37*%
%ADD58C,0.60*%
%ADD59C,0.70*%
%ADD60C,5.40*%
%ADD74C,0.20*%
G04:AMPARAMS|DCode=75|XSize=2mm|YSize=2mm|CornerRadius=0.5mm|HoleSize=0mm|Usage=FLASHONLY|Rotation=180.000|XOffset=0mm|YOffset=0mm|HoleType=Round|Shape=RoundedRectangle|*
%AMROUNDEDRECTD75*
21,1,2.00,1.00,0,0,180.0*
21,1,1.00,2.00,0,0,180.0*
1,1,1.00,-0.50,0.50*
1,1,1.00,0.50,0.50*
1,1,1.00,0.50,-0.50*
1,1,1.00,-0.50,-0.50*
%
%ADD75ROUNDEDRECTD75*%
%ADD76R,2.00X2.00*%
%ADD77O,0.81X2.50*%
%ADD78R,0.81X2.50*%
%ADD79R,3.05X4.06*%
%ADD80R,1.52X0.64*%
%ADD81O,1.52X0.64*%
G04:AMPARAMS|DCode=82|XSize=3.05mm|YSize=0.71mm|CornerRadius=0.18mm|HoleSize=0mm|Usage=FLASHONLY|Rotation=90.000|XOffset=0mm|YOffset=0mm|HoleType=Round|Shape=RoundedRectangle|*
%AMROUNDEDRECTD82*
21,1,3.05,0.36,0,0,90.0*
21,1,2.69,0.71,0,0,90.0*
1,1,0.36,0.18,1.35*
1,1,0.36,0.18,-1.35*
1,1,0.36,-0.18,-1.35*
1,1,0.36,-0.18,1.35*
%
%ADD82ROUNDEDRECTD82*%
%ADD83R,0.71X3.05*%
%ADD84R,3.05X0.71*%
G36*
X004989Y006180D02*
X006750D01*
X006753Y006170D01*
X006728Y006156D01*
X006701Y006137D01*
X006677Y006115D01*
X006655Y006091D01*
X006636Y006065D01*
X006621Y006036D01*
X006608Y006006D01*
X006599Y005975D01*
X006594Y005943D01*
X006592Y005910D01*
X006594Y005877D01*
X006599Y005845D01*
X006608Y005814D01*
X006621Y005784D01*
X006636Y005755D01*
X006655Y005729D01*
X006677Y005705D01*
X006701Y005683D01*
X006728Y005664D01*
X006756Y005648D01*
X006786Y005636D01*
X006818Y005627D01*
X006850Y005621D01*
X006882Y005620D01*
X006915Y005621D01*
X006947Y005627D01*
X006978Y005636D01*
X007008Y005648D01*
X007037Y005664D01*
X007063Y005683D01*
X007088Y005705D01*
X007109Y005729D01*
X007128Y005755D01*
X007144Y005784D01*
X007157Y005814D01*
X007166Y005845D01*
X007171Y005877D01*
X007173Y005910D01*
X007171Y005943D01*
X007166Y005975D01*
X007157Y006006D01*
X007144Y006036D01*
X007128Y006065D01*
X007109Y006091D01*
X007088Y006115D01*
X007063Y006137D01*
X007037Y006156D01*
X007031Y006159D01*
X007035Y006168D01*
X007048Y006165D01*
X007076Y006153D01*
X007102Y006139D01*
X007127Y006121D01*
X007142Y006107D01*
X007149Y006101D01*
X007149Y006101D01*
X008574Y004676D01*
X008574Y004676D01*
X008574Y004676D01*
X008580Y004669D01*
X008594Y004654D01*
X008611Y004629D01*
X008626Y004603D01*
X008638Y004575D01*
X008646Y004546D01*
X008651Y004516D01*
X008653Y004487D01*
X008653Y004486D01*
Y001734D01*
X008653Y001733D01*
X008651Y001704D01*
X008646Y001674D01*
X008638Y001645D01*
X008626Y001617D01*
X008611Y001591D01*
X008594Y001566D01*
X008580Y001551D01*
X008574Y001544D01*
X008574Y001544D01*
X007156Y000126D01*
X007149Y000119D01*
X007142Y000113D01*
X007127Y000099D01*
X007102Y000081D01*
X007076Y000067D01*
X007048Y000055D01*
X007035Y000052D01*
X007031Y000061D01*
X007037Y000064D01*
X007063Y000083D01*
X007088Y000105D01*
X007109Y000129D01*
X007128Y000155D01*
X007144Y000184D01*
X007157Y000214D01*
X007166Y000245D01*
X007171Y000277D01*
X007173Y000310D01*
X007171Y000343D01*
X007166Y000375D01*
X007157Y000406D01*
X007144Y000436D01*
X007128Y000465D01*
X007109Y000491D01*
X007088Y000515D01*
X007063Y000537D01*
X007037Y000556D01*
X007008Y000572D01*
X006978Y000584D01*
X006947Y000593D01*
X006915Y000599D01*
X006882Y000600D01*
X006850Y000599D01*
X006818Y000593D01*
X006786Y000584D01*
X006756Y000572D01*
X006728Y000556D01*
X006701Y000537D01*
X006677Y000515D01*
X006655Y000491D01*
X006636Y000465D01*
X006621Y000436D01*
X006608Y000406D01*
X006599Y000375D01*
X006594Y000343D01*
X006592Y000310D01*
X006594Y000277D01*
X006599Y000245D01*
X006608Y000214D01*
X006621Y000184D01*
X006636Y000155D01*
X006655Y000129D01*
X006677Y000105D01*
X006701Y000083D01*
X006728Y000064D01*
X006753Y000050D01*
X006750Y000040D01*
X004989D01*
X004988Y000040D01*
X004959Y000042D01*
X004929Y000047D01*
X004900Y000055D01*
X004872Y000067D01*
X004845Y000081D01*
X004821Y000099D01*
X004798Y000119D01*
X004778Y000142D01*
X004761Y000166D01*
X004756Y000175D01*
X004756Y000175D01*
X004756Y000175D01*
X004735Y000207D01*
X004713Y000237D01*
X004687Y000264D01*
X004660Y000290D01*
X004630Y000313D01*
X004598Y000333D01*
X004565Y000350D01*
X004530Y000364D01*
X004494Y000376D01*
X004458Y000384D01*
X004420Y000389D01*
X004383Y000390D01*
X004345Y000389D01*
X004308Y000384D01*
X004271Y000376D01*
X004236Y000364D01*
X004201Y000350D01*
X004168Y000333D01*
X004136Y000313D01*
X004106Y000290D01*
X004078Y000264D01*
X004053Y000237D01*
X004030Y000207D01*
X004010Y000175D01*
X004010Y000175D01*
X004010Y000175D01*
X004005Y000166D01*
X003988Y000142D01*
X003967Y000119D01*
X003945Y000099D01*
X003920Y000081D01*
X003894Y000067D01*
X003866Y000055D01*
X003837Y000047D01*
X003807Y000042D01*
X003778Y000040D01*
X003777Y000040D01*
X002014D01*
X002012Y000050D01*
X002037Y000064D01*
X002063Y000083D01*
X002088Y000105D01*
X002109Y000129D01*
X002128Y000155D01*
X002144Y000184D01*
X002157Y000214D01*
X002166Y000245D01*
X002171Y000277D01*
X002173Y000310D01*
X002171Y000343D01*
X002166Y000374D01*
X002175Y000376D01*
X002184Y000347D01*
X002185Y000344D01*
X002187Y000341D01*
X002187Y000340D01*
X002187Y000340D01*
X002189Y000337D01*
X002191Y000335D01*
X002191Y000335D01*
X002192Y000334D01*
X002192Y000334D01*
X002192Y000334D01*
X002195Y000331D01*
X002197Y000329D01*
X002199Y000328D01*
X002204Y000324D01*
X002204Y000324D01*
X002204Y000324D01*
X002211Y000321D01*
X002211Y000321D01*
X002219Y000320D01*
X002348D01*
X002354Y000310D01*
X002351Y000303D01*
X002350Y000290D01*
X002351Y000277D01*
X002356Y000265D01*
X002364Y000254D01*
X002375Y000246D01*
X002387Y000241D01*
X002400Y000240D01*
X002413Y000241D01*
X002425Y000246D01*
X002436Y000254D01*
X002444Y000265D01*
X002449Y000277D01*
X002450Y000290D01*
X002449Y000303D01*
X002444Y000315D01*
X002436Y000326D01*
X002428Y000332D01*
X002427Y000341D01*
X002427Y000341D01*
X002426Y000349D01*
X002425Y000350D01*
X002432Y000360D01*
X002470Y000361D01*
X002550Y000293D01*
X002550Y000290D01*
X002551Y000277D01*
X002556Y000265D01*
X002564Y000254D01*
X002575Y000246D01*
X002587Y000241D01*
X002600Y000240D01*
X002613Y000241D01*
X002625Y000246D01*
X002636Y000254D01*
X002644Y000265D01*
X002649Y000277D01*
X002650Y000290D01*
X002649Y000303D01*
X002644Y000315D01*
X002636Y000326D01*
X002625Y000334D01*
X002613Y000339D01*
X002600Y000340D01*
X002589Y000339D01*
X002501Y000414D01*
X002498Y000416D01*
X002496Y000417D01*
X002495Y000418D01*
X002494Y000418D01*
X002491Y000419D01*
X002489Y000420D01*
X002488Y000421D01*
X002487Y000421D01*
X002484Y000421D01*
X002481Y000421D01*
X002390Y000420D01*
X002275D01*
X002240Y000489D01*
X002240Y000490D01*
X002236Y000499D01*
X002215Y000533D01*
X002192Y000564D01*
X002166Y000593D01*
X002136Y000620D01*
X002105Y000643D01*
X002071Y000663D01*
X002036Y000680D01*
X001999Y000693D01*
X001961Y000703D01*
X001922Y000709D01*
X001882Y000711D01*
X001882Y000711D01*
X001877Y000710D01*
X001873Y000720D01*
X002041Y000888D01*
X002050Y000883D01*
X002050Y000877D01*
Y000833D01*
X002127D01*
Y000885D01*
X002059D01*
X002052Y000885D01*
X002047Y000894D01*
X002103Y000950D01*
X002225D01*
Y001070D01*
X002055D01*
Y000988D01*
X001812Y000744D01*
X001806Y000744D01*
X001768Y000735D01*
X001732Y000724D01*
X001696Y000709D01*
X001662Y000691D01*
X001639Y000677D01*
X001630Y000681D01*
Y000835D01*
X001630D01*
Y000839D01*
X001630D01*
Y000966D01*
X001793Y001129D01*
X001797Y001135D01*
X001800Y001142D01*
X001801Y001150D01*
Y001252D01*
X001896Y001347D01*
X001905Y001341D01*
X001901Y001333D01*
X001900Y001320D01*
X001901Y001307D01*
X001906Y001295D01*
X001914Y001284D01*
X001925Y001276D01*
X001937Y001271D01*
X001950Y001270D01*
X001963Y001271D01*
X001975Y001276D01*
X001986Y001284D01*
X001990Y001290D01*
X002180D01*
X002339Y001131D01*
Y001070D01*
X002318D01*
X002316Y001070D01*
X002314Y001070D01*
X002284D01*
Y000950D01*
X002454D01*
Y001070D01*
X002400D01*
Y001143D01*
X002399Y001151D01*
X002396Y001158D01*
X002391Y001165D01*
X002214Y001341D01*
X002208Y001346D01*
X002200Y001349D01*
X002192Y001350D01*
X001990D01*
X001986Y001356D01*
X001975Y001364D01*
X001963Y001369D01*
X001950Y001370D01*
X001937Y001369D01*
X001929Y001365D01*
X001923Y001374D01*
X001943Y001394D01*
X001950Y001393D01*
X001963Y001395D01*
X001975Y001400D01*
X001986Y001408D01*
X001994Y001418D01*
X001999Y001431D01*
X002000Y001444D01*
X001999Y001457D01*
X001994Y001469D01*
X001986Y001479D01*
X001975Y001487D01*
X001963Y001492D01*
X001950Y001494D01*
X001937Y001492D01*
X001929Y001489D01*
X001923Y001497D01*
X001943Y001518D01*
X001950Y001517D01*
X001963Y001518D01*
X001975Y001523D01*
X001986Y001531D01*
X001994Y001542D01*
X001999Y001554D01*
X002000Y001567D01*
X001999Y001580D01*
X001994Y001592D01*
X001986Y001603D01*
X001975Y001611D01*
X001963Y001616D01*
X001950Y001618D01*
X001937Y001616D01*
X001925Y001611D01*
X001914Y001603D01*
X001906Y001592D01*
X001901Y001580D01*
X001900Y001567D01*
X001900Y001560D01*
X001643Y001302D01*
X001630D01*
Y001351D01*
X001630Y001357D01*
X001630Y001367D01*
Y001471D01*
X001641D01*
X001649Y001472D01*
X001657Y001475D01*
X001663Y001480D01*
X001843Y001660D01*
X001910D01*
X001914Y001655D01*
X001925Y001647D01*
X001937Y001642D01*
X001950Y001640D01*
X001963Y001642D01*
X001975Y001647D01*
X001986Y001655D01*
X001994Y001665D01*
X001999Y001678D01*
X002000Y001691D01*
X001999Y001704D01*
X001994Y001716D01*
X001986Y001726D01*
X001975Y001734D01*
X001963Y001739D01*
X001950Y001741D01*
X001937Y001739D01*
X001925Y001734D01*
X001914Y001726D01*
X001910Y001721D01*
X001831D01*
X001823Y001720D01*
X001816Y001717D01*
X001809Y001712D01*
X001640Y001543D01*
X001630Y001547D01*
Y001699D01*
X001630Y001705D01*
X001630Y001715D01*
Y001879D01*
X001630D01*
Y001884D01*
X001630D01*
Y001932D01*
X001655D01*
X001794Y001793D01*
X001801Y001788D01*
X001808Y001785D01*
X001816Y001784D01*
X001910D01*
X001914Y001779D01*
X001925Y001771D01*
X001937Y001766D01*
X001950Y001764D01*
X001963Y001766D01*
X001975Y001771D01*
X001986Y001779D01*
X001994Y001789D01*
X001999Y001801D01*
X002000Y001814D01*
X001999Y001827D01*
X001994Y001840D01*
X001986Y001850D01*
X001975Y001858D01*
X001963Y001863D01*
X001950Y001865D01*
X001937Y001863D01*
X001925Y001858D01*
X001914Y001850D01*
X001910Y001845D01*
X001828D01*
X001689Y001984D01*
X001682Y001989D01*
X001675Y001992D01*
X001667Y001993D01*
X001630D01*
Y002048D01*
X001630Y002054D01*
X001630Y002064D01*
Y002176D01*
X001639Y002180D01*
X001895Y001924D01*
X001901Y001919D01*
X001904Y001918D01*
X001906Y001913D01*
X001914Y001902D01*
X001925Y001894D01*
X001937Y001889D01*
X001950Y001887D01*
X001963Y001889D01*
X001975Y001894D01*
X001986Y001902D01*
X001994Y001913D01*
X001999Y001925D01*
X002000Y001938D01*
X001999Y001951D01*
X001994Y001963D01*
X001986Y001974D01*
X001975Y001982D01*
X001963Y001987D01*
X001950Y001988D01*
X001937Y001987D01*
X001925Y001982D01*
X001924Y001981D01*
X001630Y002274D01*
Y002350D01*
X001639Y002354D01*
X001906Y002087D01*
X001901Y002074D01*
X001900Y002061D01*
X001901Y002048D01*
X001906Y002036D01*
X001914Y002026D01*
X001925Y002018D01*
X001937Y002013D01*
X001950Y002011D01*
X001963Y002013D01*
X001975Y002018D01*
X001986Y002026D01*
X001994Y002036D01*
X001999Y002048D01*
X002000Y002061D01*
X001999Y002074D01*
X001994Y002087D01*
X001986Y002097D01*
X001975Y002105D01*
X001969Y002108D01*
X001969Y002109D01*
X001964Y002115D01*
X001954Y002125D01*
X001957Y002136D01*
X001963Y002136D01*
X001975Y002141D01*
X001986Y002149D01*
X001994Y002160D01*
X001999Y002172D01*
X002000Y002185D01*
X001999Y002198D01*
X001994Y002210D01*
X001986Y002221D01*
X001975Y002229D01*
X001970Y002231D01*
X001969Y002235D01*
X001964Y002242D01*
X001956Y002249D01*
X001960Y002259D01*
X001963Y002260D01*
X001975Y002265D01*
X001986Y002273D01*
X001994Y002283D01*
X001999Y002296D01*
X002000Y002309D01*
X001999Y002322D01*
X001994Y002334D01*
X001986Y002344D01*
X001975Y002352D01*
X001963Y002357D01*
X001950Y002359D01*
X001943Y002358D01*
X001923Y002378D01*
X001929Y002387D01*
X001937Y002383D01*
X001950Y002382D01*
X001963Y002383D01*
X001975Y002388D01*
X001986Y002396D01*
X001994Y002407D01*
X001999Y002419D01*
X002000Y002432D01*
X001999Y002445D01*
X001994Y002457D01*
X001986Y002468D01*
X001975Y002476D01*
X001963Y002481D01*
X001950Y002483D01*
X001943Y002482D01*
X001923Y002502D01*
X001929Y002510D01*
X001937Y002507D01*
X001950Y002505D01*
X001963Y002507D01*
X001975Y002512D01*
X001986Y002520D01*
X001994Y002530D01*
X001999Y002543D01*
X002000Y002556D01*
X001999Y002569D01*
X001994Y002581D01*
X001986Y002591D01*
X001975Y002599D01*
X001963Y002604D01*
X001950Y002606D01*
X001943Y002605D01*
X001923Y002626D01*
X001929Y002634D01*
X001937Y002631D01*
X001950Y002629D01*
X001963Y002631D01*
X001975Y002636D01*
X001986Y002644D01*
X001994Y002654D01*
X001999Y002666D01*
X002000Y002679D01*
X001999Y002692D01*
X001994Y002705D01*
X001986Y002715D01*
X001975Y002723D01*
X001963Y002728D01*
X001950Y002730D01*
X001943Y002729D01*
X001923Y002749D01*
X001929Y002758D01*
X001937Y002754D01*
X001950Y002752D01*
X001963Y002754D01*
X001975Y002759D01*
X001986Y002767D01*
X001994Y002778D01*
X001999Y002790D01*
X002000Y002803D01*
X001999Y002816D01*
X001994Y002828D01*
X001986Y002839D01*
X001975Y002847D01*
X001963Y002852D01*
X001950Y002853D01*
X001943Y002852D01*
X001923Y002873D01*
X001929Y002881D01*
X001937Y002878D01*
X001950Y002876D01*
X001963Y002878D01*
X001975Y002883D01*
X001986Y002891D01*
X001994Y002901D01*
X001999Y002913D01*
X002000Y002926D01*
X001999Y002939D01*
X001994Y002952D01*
X001986Y002962D01*
X001975Y002970D01*
X001963Y002975D01*
X001950Y002977D01*
X001943Y002976D01*
X001923Y002996D01*
X001929Y003005D01*
X001937Y003001D01*
X001950Y003000D01*
X001963Y003001D01*
X001975Y003006D01*
X001986Y003014D01*
X001994Y003025D01*
X001999Y003037D01*
X002000Y003050D01*
X001999Y003063D01*
X001994Y003075D01*
X001986Y003086D01*
X001975Y003094D01*
X001963Y003099D01*
X001950Y003100D01*
X001943Y003100D01*
X001928Y003115D01*
Y003174D01*
X001927Y003182D01*
X001924Y003189D01*
X001919Y003195D01*
X001871Y003243D01*
Y003523D01*
X001870Y003531D01*
X001867Y003538D01*
X001862Y003545D01*
X001830Y003576D01*
Y003855D01*
X001829Y003863D01*
X001826Y003870D01*
X001821Y003876D01*
X001790Y003907D01*
Y004490D01*
X001789Y004498D01*
X001786Y004505D01*
X001781Y004512D01*
X001728Y004565D01*
Y004832D01*
X001727Y004840D01*
X001724Y004847D01*
X001719Y004853D01*
X001670Y004902D01*
Y005260D01*
X001669Y005268D01*
X001666Y005275D01*
X001661Y005281D01*
X001645Y005297D01*
X001639Y005302D01*
X001632Y005305D01*
X001630Y005305D01*
Y005361D01*
X001630D01*
Y005365D01*
X001630D01*
Y005535D01*
X001510D01*
Y005365D01*
X001510D01*
Y005361D01*
X001510D01*
Y005191D01*
X001510D01*
Y005187D01*
X001510D01*
Y005017D01*
X001510D01*
Y005013D01*
X001510D01*
Y004849D01*
X001510Y004843D01*
X001510D01*
Y004839D01*
X001510D01*
Y004669D01*
X001510D01*
Y004665D01*
X001510D01*
Y004501D01*
X001510Y004495D01*
X001510D01*
Y004491D01*
X001510D01*
Y004321D01*
X001510D01*
Y004316D01*
X001510D01*
Y004152D01*
X001510Y004146D01*
X001510D01*
Y004142D01*
X001510D01*
Y003972D01*
X001510D01*
Y003968D01*
X001510D01*
Y003804D01*
X001510Y003798D01*
X001510D01*
Y003794D01*
X001510D01*
Y003624D01*
X001510D01*
Y003620D01*
X001510D01*
Y003456D01*
X001510Y003450D01*
X001510D01*
Y003446D01*
X001510D01*
Y003276D01*
X001510D01*
Y003272D01*
X001510D01*
Y003108D01*
X001510Y003102D01*
X001510D01*
Y003098D01*
X001510D01*
Y002928D01*
X001510D01*
Y002924D01*
X001510D01*
Y002760D01*
X001510Y002754D01*
X001510D01*
Y002750D01*
X001510D01*
Y002580D01*
X001510D01*
Y002576D01*
X001510D01*
Y002412D01*
X001510Y002406D01*
X001510D01*
Y002402D01*
X001510D01*
Y002232D01*
X001510D01*
Y002228D01*
X001510D01*
Y002064D01*
X001510Y002058D01*
X001510Y002048D01*
Y001884D01*
X001510D01*
Y001879D01*
X001510D01*
Y001715D01*
X001510Y001709D01*
X001510Y001699D01*
Y001535D01*
X001510D01*
Y001531D01*
X001510D01*
Y001367D01*
X001510Y001361D01*
X001510Y001351D01*
Y001187D01*
X001510D01*
Y001183D01*
X001510D01*
Y001013D01*
X001510Y001013D01*
Y001009D01*
X001510D01*
X001510Y001003D01*
Y000839D01*
X001510D01*
Y000835D01*
X001510D01*
Y000665D01*
X001607D01*
X001610Y000656D01*
X001599Y000647D01*
X001572Y000623D01*
X001527D01*
X001520Y000629D01*
X001508Y000634D01*
X001495Y000635D01*
X001482Y000634D01*
X001470Y000629D01*
X001459Y000620D01*
X001451Y000610D01*
X001446Y000598D01*
X001444Y000585D01*
X001446Y000572D01*
X001451Y000560D01*
X001454Y000555D01*
X001449Y000545D01*
X001354D01*
X000493Y001407D01*
Y001440D01*
X000498Y001444D01*
X000506Y001455D01*
X000511Y001467D01*
X000513Y001480D01*
X000511Y001493D01*
X000506Y001505D01*
X000498Y001516D01*
X000488Y001524D01*
X000476Y001529D01*
X000462Y001530D01*
X000449Y001529D01*
X000443Y001526D01*
X000433Y001532D01*
Y001572D01*
X000443Y001578D01*
X000448Y001576D01*
X000450Y001576D01*
Y001630D01*
Y001684D01*
X000448Y001684D01*
X000443Y001682D01*
X000433Y001688D01*
Y001940D01*
X000443Y001950D01*
X000450Y001950D01*
X000463Y001951D01*
X000475Y001956D01*
X000486Y001964D01*
X000494Y001975D01*
X000499Y001987D01*
X000500Y002000D01*
X000499Y002013D01*
X000494Y002025D01*
X000486Y002036D01*
X000475Y002044D01*
X000468Y002047D01*
X000467Y002058D01*
X000477Y002065D01*
X000484Y002075D01*
X000490Y002086D01*
X000494Y002098D01*
X000495Y002110D01*
X000494Y002122D01*
X000490Y002134D01*
X000484Y002145D01*
X000482Y002147D01*
X000489Y002154D01*
X000493Y002151D01*
X000505Y002145D01*
X000518Y002141D01*
X000532Y002140D01*
X000546Y002141D01*
X000559Y002145D01*
X000571Y002151D01*
X000582Y002160D01*
X000586Y002165D01*
X000606D01*
Y002149D01*
X000808D01*
Y002271D01*
X000606D01*
Y002255D01*
X000586D01*
X000582Y002260D01*
X000571Y002268D01*
X000559Y002275D01*
X000546Y002279D01*
X000532Y002280D01*
X000518Y002279D01*
X000505Y002275D01*
X000493Y002268D01*
X000482Y002260D01*
X000474Y002249D01*
X000467Y002237D01*
X000463Y002224D01*
X000462Y002210D01*
X000463Y002196D01*
X000467Y002183D01*
X000474Y002171D01*
X000477Y002167D01*
X000470Y002160D01*
X000467Y002162D01*
X000456Y002168D01*
X000444Y002171D01*
X000432Y002173D01*
X000420Y002171D01*
X000408Y002168D01*
X000397Y002162D01*
X000395Y002160D01*
X000388Y002167D01*
X000391Y002171D01*
X000397Y002183D01*
X000401Y002196D01*
X000403Y002210D01*
X000401Y002224D01*
X000397Y002237D01*
X000391Y002249D01*
X000382Y002260D01*
X000371Y002268D01*
X000359Y002275D01*
X000346Y002279D01*
X000332Y002280D01*
X000318Y002279D01*
X000305Y002275D01*
X000293Y002268D01*
X000282Y002260D01*
X000279Y002255D01*
X000258D01*
Y002271D01*
X000091D01*
Y002349D01*
X000258D01*
Y002365D01*
X000279D01*
X000282Y002360D01*
X000293Y002351D01*
X000305Y002345D01*
X000318Y002341D01*
X000332Y002340D01*
X000346Y002341D01*
X000359Y002345D01*
X000371Y002351D01*
X000382Y002360D01*
X000391Y002371D01*
X000397Y002383D01*
X000401Y002396D01*
X000403Y002410D01*
X000401Y002424D01*
X000397Y002437D01*
X000391Y002449D01*
X000382Y002460D01*
X000371Y002468D01*
X000359Y002475D01*
X000346Y002479D01*
X000332Y002480D01*
X000318Y002479D01*
X000305Y002475D01*
X000293Y002468D01*
X000282Y002460D01*
X000279Y002455D01*
X000258D01*
Y002471D01*
X000091D01*
Y002549D01*
X000258D01*
Y002565D01*
X000279D01*
X000282Y002560D01*
X000293Y002551D01*
X000305Y002545D01*
X000318Y002541D01*
X000332Y002540D01*
X000346Y002541D01*
X000359Y002545D01*
X000371Y002551D01*
X000382Y002560D01*
X000388Y002568D01*
X000400Y002570D01*
X000474Y002497D01*
X000480Y002492D01*
X000488Y002488D01*
X000496Y002487D01*
X000497Y002486D01*
X000496Y002476D01*
X000490Y002473D01*
X000479Y002463D01*
X000469Y002452D01*
X000462Y002439D01*
X000458Y002425D01*
X000458Y002423D01*
X000532D01*
Y002410D01*
X000545D01*
Y002335D01*
X000547Y002336D01*
X000561Y002340D01*
X000574Y002347D01*
X000586Y002356D01*
X000588Y002359D01*
X000601D01*
Y002344D01*
X000695D01*
Y002410D01*
Y002476D01*
X000601D01*
Y002460D01*
X000588D01*
X000586Y002463D01*
X000574Y002473D01*
X000566Y002477D01*
X000569Y002487D01*
X000984D01*
X001010Y002461D01*
Y002136D01*
X001010Y002133D01*
X001007Y002130D01*
X000958Y002130D01*
Y002053D01*
X001010D01*
Y002105D01*
X001015Y002108D01*
X001020Y002109D01*
X001037Y002092D01*
Y001859D01*
X001038Y001851D01*
X001042Y001843D01*
X001047Y001836D01*
X001097Y001785D01*
Y001463D01*
X001099Y001454D01*
X001102Y001446D01*
X001107Y001439D01*
X001137Y001409D01*
Y001176D01*
X001138Y001168D01*
X001142Y001160D01*
X001147Y001153D01*
X001187Y001113D01*
Y000847D01*
X001188Y000839D01*
X001192Y000831D01*
X001197Y000824D01*
X001292Y000729D01*
X001299Y000724D01*
X001306Y000721D01*
X001315Y000720D01*
X001320D01*
Y000665D01*
X001440D01*
Y000835D01*
X001440D01*
Y000839D01*
X001440D01*
Y001009D01*
X001440D01*
Y001013D01*
X001440D01*
Y001183D01*
X001440D01*
Y001187D01*
X001440D01*
Y001357D01*
X001440D01*
Y001361D01*
X001440D01*
Y001531D01*
X001440D01*
Y001535D01*
X001440D01*
Y001705D01*
X001440D01*
Y001709D01*
X001440D01*
Y001879D01*
X001440D01*
Y001884D01*
X001440D01*
Y002054D01*
X001440D01*
Y002058D01*
X001440D01*
Y002228D01*
X001440D01*
Y002232D01*
X001440D01*
Y002402D01*
X001440D01*
Y002406D01*
X001440D01*
Y002570D01*
X001440Y002576D01*
X001440D01*
Y002580D01*
X001440D01*
Y002750D01*
X001440D01*
Y002754D01*
X001440D01*
Y002918D01*
X001440Y002924D01*
X001440D01*
Y002928D01*
X001440D01*
Y003098D01*
X001440D01*
Y003102D01*
X001440D01*
Y003266D01*
X001440Y003272D01*
X001440D01*
Y003276D01*
X001440D01*
Y003446D01*
X001440D01*
Y003450D01*
X001440D01*
Y003620D01*
X001440D01*
Y003624D01*
X001440D01*
Y003794D01*
X001440D01*
Y003798D01*
X001440D01*
Y003968D01*
X001440D01*
Y003972D01*
X001440D01*
Y004136D01*
X001440Y004142D01*
X001440D01*
Y004146D01*
X001440D01*
Y004311D01*
X001440Y004316D01*
X001440D01*
Y004321D01*
X001440D01*
Y004491D01*
X001440D01*
Y004495D01*
X001440D01*
Y004665D01*
X001440D01*
Y004669D01*
X001440D01*
Y004839D01*
X001440D01*
Y004843D01*
X001440D01*
Y005013D01*
X001440D01*
Y005017D01*
X001440D01*
Y005187D01*
X001440D01*
Y005191D01*
X001440D01*
Y005355D01*
X001440Y005361D01*
X001440Y005371D01*
Y005535D01*
X001320D01*
Y005497D01*
X001311Y005493D01*
X001310Y005494D01*
X001298Y005499D01*
X001285Y005500D01*
X001272Y005499D01*
X001260Y005494D01*
X001249Y005486D01*
X001241Y005475D01*
X001236Y005463D01*
X001235Y005450D01*
X001236Y005437D01*
X001241Y005425D01*
X001249Y005414D01*
X001260Y005406D01*
X001272Y005401D01*
X001285Y005400D01*
X001298Y005401D01*
X001310Y005406D01*
X001311Y005407D01*
X001320Y005403D01*
Y005371D01*
X001320Y005365D01*
X001320Y005355D01*
Y005283D01*
X001154Y005117D01*
X001149Y005111D01*
X001146Y005103D01*
X001145Y005094D01*
Y004548D01*
X001107Y004510D01*
X001102Y004504D01*
X001098Y004496D01*
X001097Y004487D01*
Y004270D01*
X001059Y004231D01*
X001054Y004224D01*
X001050Y004216D01*
X001049Y004208D01*
Y003880D01*
X001017Y003848D01*
X001017Y003848D01*
X001012Y003843D01*
X000808D01*
Y003871D01*
X000816Y003877D01*
X000825D01*
X000833Y003878D01*
X000841Y003882D01*
X000848Y003887D01*
X000881Y003920D01*
X001005D01*
Y004040D01*
X000835D01*
Y003966D01*
X000818Y003950D01*
X000808Y003954D01*
Y004071D01*
X000606D01*
Y004055D01*
X000586D01*
X000582Y004060D01*
X000573Y004067D01*
Y004178D01*
X000573Y004178D01*
X000571Y004188D01*
X000568Y004196D01*
X000562Y004203D01*
X000562Y004203D01*
X000495Y004270D01*
Y004355D01*
X000688Y004547D01*
X000688Y004547D01*
X000795Y004654D01*
X000795Y004654D01*
X000801Y004662D01*
X000804Y004670D01*
X000805Y004679D01*
Y005075D01*
X001305Y005575D01*
X001623D01*
X001698Y005500D01*
X001698Y005500D01*
X001705Y005494D01*
X001714Y005491D01*
X001723Y005490D01*
X001723Y005490D01*
X002042D01*
X002042Y005490D01*
X002051Y005491D01*
X002059Y005494D01*
X002067Y005500D01*
X002292Y005726D01*
X002292Y005726D01*
X002298Y005733D01*
X002301Y005741D01*
X002303Y005751D01*
X002303Y005751D01*
Y005935D01*
X002317Y005950D01*
X003476D01*
X003476Y005950D01*
X003485Y005951D01*
X003494Y005954D01*
X003501Y005960D01*
X003551Y006010D01*
X003551Y006010D01*
X003564Y006011D01*
X003576Y006016D01*
X003587Y006024D01*
X003595Y006035D01*
X003600Y006047D01*
X003602Y006060D01*
X003600Y006073D01*
X003595Y006085D01*
X003587Y006096D01*
X003576Y006104D01*
X003564Y006109D01*
X003551Y006110D01*
X003538Y006109D01*
X003526Y006104D01*
X003516Y006096D01*
X003508Y006085D01*
X003503Y006073D01*
X003501Y006060D01*
X003501Y006060D01*
X003462Y006020D01*
X003418D01*
X003413Y006030D01*
X003414Y006032D01*
X003420Y006046D01*
X003420Y006047D01*
X003311D01*
X003312Y006046D01*
X003317Y006032D01*
X003319Y006030D01*
X003314Y006020D01*
X003225D01*
X003220Y006030D01*
X003224Y006035D01*
X003229Y006047D01*
X003230Y006060D01*
X003229Y006073D01*
X003224Y006085D01*
X003216Y006096D01*
X003205Y006104D01*
X003193Y006109D01*
X003180Y006110D01*
X003167Y006109D01*
X003155Y006104D01*
X003144Y006096D01*
X003144Y006095D01*
X002297D01*
X002297Y006095D01*
X002288Y006094D01*
X002280Y006091D01*
X002272Y006085D01*
X002272Y006085D01*
X002192Y006005D01*
X002187Y005998D01*
X002183Y005989D01*
X002182Y005980D01*
X002182Y005980D01*
Y005924D01*
X002172Y005924D01*
X002171Y005943D01*
X002166Y005975D01*
X002157Y006006D01*
X002144Y006036D01*
X002128Y006065D01*
X002109Y006091D01*
X002088Y006115D01*
X002063Y006137D01*
X002037Y006156D01*
X002012Y006170D01*
X002014Y006180D01*
X003767D01*
X003767Y006180D01*
X003777Y006180D01*
X003786Y006179D01*
X003807Y006178D01*
X003837Y006173D01*
X003866Y006165D01*
X003894Y006153D01*
X003920Y006139D01*
X003945Y006121D01*
X003967Y006101D01*
X003988Y006078D01*
X004005Y006054D01*
X004010Y006045D01*
X004010Y006045D01*
X004030Y006013D01*
X004053Y005983D01*
X004078Y005956D01*
X004106Y005930D01*
X004136Y005907D01*
X004168Y005887D01*
X004201Y005870D01*
X004236Y005856D01*
X004268Y005845D01*
X004267Y005835D01*
X004080D01*
X003958Y005957D01*
Y006024D01*
X003958Y006024D01*
X003966Y006035D01*
X003971Y006047D01*
X003973Y006060D01*
X003971Y006073D01*
X003966Y006085D01*
X003958Y006096D01*
X003948Y006104D01*
X003936Y006109D01*
X003922Y006110D01*
X003909Y006109D01*
X003897Y006104D01*
X003887Y006096D01*
X003879Y006085D01*
X003874Y006073D01*
X003872Y006060D01*
X003874Y006047D01*
X003879Y006035D01*
X003887Y006024D01*
X003887Y006024D01*
Y005943D01*
X003887Y005942D01*
X003888Y005933D01*
X003892Y005925D01*
X003898Y005918D01*
X004021Y005795D01*
X004017Y005785D01*
X003950D01*
X003772Y005963D01*
Y006024D01*
X003773Y006024D01*
X003781Y006035D01*
X003786Y006047D01*
X003787Y006060D01*
X003786Y006073D01*
X003781Y006085D01*
X003773Y006096D01*
X003762Y006104D01*
X003750Y006109D01*
X003737Y006110D01*
X003724Y006109D01*
X003712Y006104D01*
X003701Y006096D01*
X003693Y006085D01*
X003688Y006073D01*
X003686Y006060D01*
X003688Y006047D01*
X003693Y006035D01*
X003701Y006024D01*
X003702Y006024D01*
Y005948D01*
X003702Y005948D01*
X003703Y005939D01*
X003706Y005930D01*
X003712Y005923D01*
X003910Y005725D01*
X003910Y005725D01*
X003916Y005720D01*
X003916Y005717D01*
X003913Y005710D01*
X003770D01*
X003762Y005709D01*
X003755Y005706D01*
X003749Y005701D01*
X003679Y005631D01*
X003674Y005625D01*
X003671Y005618D01*
X003670Y005610D01*
Y005550D01*
X003615D01*
Y005430D01*
X003775D01*
X003785Y005430D01*
Y005430D01*
X003785D01*
Y005430D01*
X003945D01*
X003955Y005430D01*
Y005430D01*
X003955D01*
Y005430D01*
X004115D01*
X004125Y005430D01*
Y005430D01*
X004125D01*
Y005430D01*
X004285D01*
X004295Y005430D01*
Y005430D01*
X004295D01*
Y005430D01*
X004455D01*
X004465Y005430D01*
Y005430D01*
X004465D01*
Y005430D01*
X004625D01*
X004635Y005430D01*
Y005430D01*
X004635D01*
Y005430D01*
X004795D01*
X004805Y005430D01*
Y005430D01*
X004805D01*
Y005430D01*
X004975D01*
X004975Y005431D01*
X005140D01*
Y005425D01*
X005217D01*
Y005490D01*
X005230D01*
Y005503D01*
X005320D01*
Y005556D01*
X005233D01*
Y005622D01*
X005236Y005623D01*
X005252Y005631D01*
X005267Y005643D01*
X005279Y005658D01*
X005287Y005674D01*
X005293Y005692D01*
X005293Y005697D01*
X005200D01*
X005107D01*
X005107Y005692D01*
X005113Y005674D01*
X005121Y005658D01*
X005133Y005643D01*
X005148Y005631D01*
X005164Y005623D01*
X005167Y005622D01*
Y005556D01*
X005140D01*
Y005551D01*
X005095D01*
Y005650D01*
X005095Y005650D01*
X005094Y005659D01*
X005091Y005668D01*
X005089Y005670D01*
Y005799D01*
X004911D01*
Y005745D01*
X004862D01*
X004832Y005775D01*
X004825Y005781D01*
X004816Y005784D01*
X004807Y005785D01*
X004807Y005785D01*
X004736D01*
X004736Y005786D01*
X004725Y005794D01*
X004717Y005797D01*
X004714Y005808D01*
X004935Y006030D01*
X006155D01*
X006392Y005793D01*
Y005645D01*
X006392Y005645D01*
X006393Y005636D01*
X006397Y005628D01*
X006402Y005620D01*
X006440Y005583D01*
X006440Y005583D01*
X006447Y005577D01*
X006447Y005577D01*
X006622Y005403D01*
X006622Y005403D01*
X006629Y005397D01*
X006638Y005393D01*
X006647Y005392D01*
X007367D01*
X008515Y004245D01*
Y003633D01*
X008505Y003632D01*
X008502Y003639D01*
X008495Y003652D01*
X008486Y003663D01*
X008475Y003673D01*
X008461Y003680D01*
X008447Y003684D01*
X008445Y003684D01*
Y003610D01*
Y003535D01*
X008447Y003536D01*
X008461Y003540D01*
X008475Y003547D01*
X008486Y003556D01*
X008495Y003568D01*
X008502Y003581D01*
X008505Y003588D01*
X008515Y003587D01*
Y003433D01*
X008505Y003432D01*
X008502Y003439D01*
X008495Y003452D01*
X008486Y003463D01*
X008475Y003473D01*
X008461Y003480D01*
X008447Y003484D01*
X008445Y003484D01*
Y003410D01*
Y003335D01*
X008447Y003336D01*
X008461Y003340D01*
X008475Y003347D01*
X008486Y003356D01*
X008495Y003368D01*
X008502Y003381D01*
X008505Y003388D01*
X008515Y003387D01*
Y002542D01*
X008450Y002478D01*
X008446Y002479D01*
X008432Y002480D01*
X008419Y002479D01*
X008406Y002475D01*
X008393Y002468D01*
X008383Y002460D01*
X008374Y002449D01*
X008372Y002445D01*
X008293D01*
X008291Y002449D01*
X008282Y002460D01*
X008272Y002468D01*
X008259Y002475D01*
X008246Y002479D01*
X008232Y002480D01*
X008219Y002479D01*
X008206Y002475D01*
X008193Y002468D01*
X008183Y002460D01*
X008174Y002449D01*
X008168Y002437D01*
X008164Y002424D01*
X008162Y002410D01*
X008164Y002396D01*
X008168Y002383D01*
X008174Y002371D01*
X008183Y002360D01*
X008193Y002351D01*
X008206Y002345D01*
X008219Y002341D01*
X008232Y002340D01*
X008246Y002341D01*
X008259Y002345D01*
X008272Y002351D01*
X008282Y002360D01*
X008291Y002371D01*
X008293Y002375D01*
X008372D01*
X008374Y002371D01*
X008383Y002360D01*
X008393Y002351D01*
X008406Y002345D01*
X008419Y002341D01*
X008432Y002340D01*
X008446Y002341D01*
X008459Y002345D01*
X008472Y002351D01*
X008482Y002360D01*
X008491Y002371D01*
X008497Y002383D01*
X008501Y002396D01*
X008503Y002410D01*
X008501Y002424D01*
X008500Y002428D01*
X008555Y002483D01*
X008565Y002479D01*
Y002342D01*
X008482Y002260D01*
X008482Y002260D01*
X008472Y002268D01*
X008459Y002275D01*
X008446Y002279D01*
X008432Y002280D01*
X008419Y002279D01*
X008406Y002275D01*
X008393Y002268D01*
X008383Y002260D01*
X008374Y002249D01*
X008372Y002245D01*
X008293D01*
X008291Y002249D01*
X008282Y002260D01*
X008272Y002268D01*
X008259Y002275D01*
X008246Y002279D01*
X008232Y002280D01*
X008219Y002279D01*
X008206Y002275D01*
X008193Y002268D01*
X008183Y002260D01*
X008174Y002249D01*
X008168Y002237D01*
X008164Y002224D01*
X008162Y002210D01*
X008164Y002196D01*
X008168Y002183D01*
X008174Y002171D01*
X008183Y002160D01*
X008193Y002151D01*
X008206Y002145D01*
X008219Y002141D01*
X008232Y002140D01*
X008246Y002141D01*
X008259Y002145D01*
X008272Y002151D01*
X008275Y002154D01*
X008282Y002147D01*
X008280Y002145D01*
X008274Y002134D01*
X008271Y002122D01*
X008270Y002110D01*
X008271Y002098D01*
X008274Y002086D01*
X008280Y002075D01*
X008288Y002065D01*
X008298Y002058D01*
X008308Y002052D01*
X008320Y002048D01*
X008332Y002047D01*
X008345Y002048D01*
X008357Y002052D01*
X008367Y002058D01*
X008377Y002065D01*
X008385Y002075D01*
X008391Y002086D01*
X008394Y002098D01*
X008395Y002110D01*
X008394Y002122D01*
X008391Y002134D01*
X008385Y002145D01*
X008383Y002147D01*
X008390Y002154D01*
X008393Y002151D01*
X008406Y002145D01*
X008419Y002141D01*
X008432Y002140D01*
X008446Y002141D01*
X008459Y002145D01*
X008472Y002151D01*
X008482Y002160D01*
X008491Y002171D01*
X008494Y002177D01*
X008500Y002179D01*
X008508Y002185D01*
X008625Y002302D01*
X008625Y002302D01*
X008631Y002310D01*
X008634Y002318D01*
X008635Y002327D01*
X008635Y002327D01*
Y004280D01*
X008635Y004280D01*
X008634Y004289D01*
X008631Y004298D01*
X008625Y004305D01*
X008625Y004305D01*
X007427Y005502D01*
X007420Y005508D01*
X007412Y005512D01*
X007403Y005513D01*
X007402Y005513D01*
X006682D01*
X006512Y005682D01*
Y005829D01*
X006511Y005838D01*
X006508Y005846D01*
X006502Y005854D01*
X006502Y005854D01*
X006216Y006140D01*
X006208Y006146D01*
X006200Y006149D01*
X006191Y006150D01*
X006191Y006150D01*
X004900D01*
X004891Y006149D01*
X004882Y006146D01*
X004875Y006140D01*
X004875Y006140D01*
X004746Y006011D01*
X004738Y006017D01*
X004756Y006045D01*
X004756Y006045D01*
X004761Y006054D01*
X004778Y006078D01*
X004798Y006101D01*
X004821Y006121D01*
X004845Y006139D01*
X004872Y006153D01*
X004900Y006165D01*
X004929Y006173D01*
X004959Y006178D01*
X004988Y006180D01*
X004989Y006180D01*
D02*
G37*
G36*
X001733Y006159D02*
X001728Y006156D01*
X001701Y006137D01*
X001677Y006115D01*
X001655Y006091D01*
X001636Y006065D01*
X001621Y006036D01*
X001608Y006006D01*
X001599Y005975D01*
X001594Y005943D01*
X001592Y005910D01*
X001594Y005877D01*
X001599Y005845D01*
X001608Y005814D01*
X001621Y005784D01*
X001636Y005755D01*
X001655Y005729D01*
X001677Y005705D01*
X001701Y005683D01*
X001728Y005664D01*
X001756Y005648D01*
X001786Y005636D01*
X001818Y005627D01*
X001850Y005621D01*
X001869Y005620D01*
X001869Y005610D01*
X001758D01*
X001684Y005685D01*
X001676Y005691D01*
X001668Y005694D01*
X001659Y005695D01*
X001659Y005695D01*
X001551D01*
X001544Y005705D01*
X001546Y005711D01*
X001547Y005712D01*
X001438D01*
X001439Y005711D01*
X001441Y005705D01*
X001434Y005695D01*
X001270D01*
X001270Y005695D01*
X001260Y005694D01*
X001252Y005691D01*
X001245Y005685D01*
X001245Y005685D01*
X000695Y005135D01*
X000689Y005128D01*
X000686Y005120D01*
X000685Y005110D01*
X000685Y005110D01*
Y004715D01*
X000385Y004415D01*
X000379Y004408D01*
X000376Y004399D01*
X000375Y004390D01*
X000375Y004390D01*
Y004378D01*
X000365Y004373D01*
X000358Y004378D01*
X000344Y004384D01*
X000343Y004384D01*
Y004330D01*
Y004276D01*
X000344Y004276D01*
X000358Y004282D01*
X000365Y004287D01*
X000375Y004282D01*
Y004267D01*
X000307Y004199D01*
X000302Y004192D01*
X000298Y004183D01*
X000297Y004174D01*
X000297Y004174D01*
Y004070D01*
X000293Y004068D01*
X000282Y004060D01*
X000279Y004055D01*
X000258D01*
Y004071D01*
X000091D01*
Y004457D01*
X000098Y004460D01*
X000104Y004464D01*
X000109Y004471D01*
X000111Y004476D01*
X000112Y004478D01*
X000113Y004486D01*
X000113Y004496D01*
X000115Y004516D01*
X000120Y004546D01*
X000128Y004575D01*
X000140Y004603D01*
X000154Y004629D01*
X000172Y004654D01*
X000185Y004669D01*
X000192Y004676D01*
X000199Y004684D01*
X001616Y006101D01*
X001616Y006101D01*
X001624Y006107D01*
X001639Y006121D01*
X001664Y006139D01*
X001690Y006153D01*
X001718Y006165D01*
X001729Y006168D01*
X001733Y006159D01*
D02*
G37*
%LPC*%
G36*
X003378Y006114D02*
Y006073D01*
X003420D01*
X003420Y006074D01*
X003414Y006088D01*
X003405Y006100D01*
X003394Y006108D01*
X003380Y006114D01*
X003378Y006114D01*
D02*
G37*
G36*
X003353D02*
X003351Y006114D01*
X003338Y006108D01*
X003326Y006100D01*
X003317Y006088D01*
X003312Y006074D01*
X003311Y006073D01*
X003353D01*
Y006114D01*
D02*
G37*
G36*
X005613Y006003D02*
Y005923D01*
X005693D01*
X005693Y005928D01*
X005687Y005946D01*
X005679Y005962D01*
X005667Y005977D01*
X005652Y005989D01*
X005636Y005997D01*
X005618Y006003D01*
X005613Y006003D01*
D02*
G37*
G36*
X005587Y006003D02*
X005582Y006003D01*
X005564Y005997D01*
X005548Y005989D01*
X005533Y005977D01*
X005521Y005962D01*
X005513Y005946D01*
X005507Y005928D01*
X005507Y005923D01*
X005587D01*
Y006003D01*
D02*
G37*
G36*
X003060Y005920D02*
X003047Y005919D01*
X003035Y005914D01*
X003024Y005906D01*
X003016Y005895D01*
X003016Y005895D01*
X003005D01*
X003005Y005895D01*
X002997Y005906D01*
X002987Y005914D01*
X002974Y005919D01*
X002961Y005920D01*
X002948Y005919D01*
X002936Y005914D01*
X002926Y005906D01*
X002918Y005895D01*
X002918Y005895D01*
X002907D01*
X002907Y005895D01*
X002899Y005906D01*
X002888Y005914D01*
X002876Y005919D01*
X002863Y005920D01*
X002850Y005919D01*
X002838Y005914D01*
X002827Y005906D01*
X002819Y005895D01*
X002819Y005895D01*
X002808D01*
X002808Y005895D01*
X002800Y005906D01*
X002790Y005914D01*
X002777Y005919D01*
X002764Y005920D01*
X002751Y005919D01*
X002739Y005914D01*
X002729Y005906D01*
X002721Y005895D01*
X002720Y005895D01*
X002710D01*
X002709Y005895D01*
X002701Y005906D01*
X002691Y005914D01*
X002679Y005919D01*
X002666Y005920D01*
X002653Y005919D01*
X002640Y005914D01*
X002630Y005906D01*
X002622Y005895D01*
X002622Y005895D01*
X002611D01*
X002611Y005895D01*
X002603Y005906D01*
X002592Y005914D01*
X002580Y005919D01*
X002567Y005920D01*
X002554Y005919D01*
X002542Y005914D01*
X002531Y005906D01*
X002523Y005895D01*
X002523Y005895D01*
X002512D01*
X002512Y005895D01*
X002504Y005906D01*
X002494Y005914D01*
X002482Y005919D01*
X002469Y005920D01*
X002456Y005919D01*
X002443Y005914D01*
X002433Y005906D01*
X002425Y005895D01*
X002425Y005895D01*
X002414D01*
X002414Y005895D01*
X002406Y005906D01*
X002395Y005914D01*
X002383Y005919D01*
X002370Y005920D01*
X002357Y005919D01*
X002345Y005914D01*
X002334Y005906D01*
X002326Y005895D01*
X002321Y005883D01*
X002320Y005870D01*
X002321Y005857D01*
X002326Y005845D01*
X002334Y005834D01*
X002335Y005834D01*
Y005635D01*
X002335Y005635D01*
X002336Y005626D01*
X002339Y005617D01*
X002345Y005610D01*
X002715Y005240D01*
Y005076D01*
X002711Y005068D01*
X002663D01*
Y004890D01*
X002637D01*
Y005068D01*
X002595D01*
Y005100D01*
X002594Y005112D01*
X002589Y005123D01*
X002582Y005132D01*
X002520Y005194D01*
X002511Y005201D01*
X002500Y005206D01*
X002488Y005207D01*
X002269D01*
Y005247D01*
X002149D01*
Y005077D01*
X002269D01*
Y005117D01*
X002469D01*
X002505Y005081D01*
Y005062D01*
X002294D01*
Y004731D01*
X001963D01*
Y004619D01*
Y004519D01*
Y004419D01*
Y004319D01*
Y004219D01*
Y004119D01*
Y003994D01*
X001953Y003989D01*
X001950Y003991D01*
X001938Y003996D01*
X001925Y003998D01*
X001912Y003996D01*
X001900Y003991D01*
X001889Y003983D01*
X001881Y003973D01*
X001876Y003961D01*
X001875Y003947D01*
X001876Y003934D01*
X001881Y003922D01*
X001889Y003912D01*
X001900Y003904D01*
X001912Y003899D01*
X001925Y003897D01*
X001938Y003899D01*
X001950Y003904D01*
X001953Y003906D01*
X001963Y003901D01*
Y003836D01*
X001957D01*
Y003788D01*
X002135D01*
Y003762D01*
X001957D01*
Y003714D01*
X001963D01*
Y003619D01*
Y003519D01*
Y003419D01*
Y003319D01*
Y003219D01*
Y003119D01*
X002294D01*
Y002788D01*
X002310D01*
Y002650D01*
X002304Y002646D01*
X002296Y002635D01*
X002291Y002623D01*
X002290Y002610D01*
X002291Y002597D01*
X002296Y002585D01*
X002304Y002574D01*
X002315Y002566D01*
X002327Y002561D01*
X002340Y002560D01*
X002353Y002561D01*
X002365Y002566D01*
X002376Y002574D01*
X002384Y002585D01*
X002388Y002594D01*
X002398D01*
X002402Y002585D01*
X002410Y002574D01*
X002420Y002566D01*
X002433Y002561D01*
X002446Y002560D01*
X002459Y002561D01*
X002471Y002566D01*
X002481Y002574D01*
X002489Y002585D01*
X002490Y002587D01*
X002501D01*
X002502Y002585D01*
X002510Y002574D01*
X002521Y002566D01*
X002533Y002561D01*
X002546Y002560D01*
X002559Y002561D01*
X002571Y002566D01*
X002582Y002574D01*
X002590Y002585D01*
X002591Y002588D01*
X002602D01*
X002603Y002585D01*
X002611Y002574D01*
X002621Y002566D01*
X002634Y002561D01*
X002647Y002560D01*
X002660Y002561D01*
X002672Y002566D01*
X002682Y002574D01*
X002690Y002585D01*
X002692Y002588D01*
X002702D01*
X002704Y002585D01*
X002712Y002574D01*
X002722Y002566D01*
X002734Y002561D01*
X002747Y002560D01*
X002761Y002561D01*
X002773Y002566D01*
X002783Y002574D01*
X002791Y002585D01*
X002792Y002588D01*
X002803D01*
X002804Y002585D01*
X002812Y002574D01*
X002823Y002566D01*
X002835Y002561D01*
X002848Y002560D01*
X002861Y002561D01*
X002873Y002566D01*
X002884Y002574D01*
X002892Y002585D01*
X002894Y002589D01*
X002904D01*
X002906Y002585D01*
X002914Y002574D01*
X002925Y002566D01*
X002937Y002561D01*
X002950Y002560D01*
X002963Y002561D01*
X002975Y002566D01*
X002986Y002574D01*
X002994Y002585D01*
X002999Y002597D01*
X003000Y002610D01*
X002999Y002623D01*
X002994Y002635D01*
X002986Y002646D01*
X002985Y002646D01*
Y002788D01*
X003006D01*
Y002788D01*
X003016Y002791D01*
X003022Y002789D01*
X003032Y002787D01*
X003068D01*
X003078Y002789D01*
X003079Y002789D01*
X003089Y002782D01*
Y002782D01*
X003137D01*
Y002960D01*
X003163D01*
Y002782D01*
X003211D01*
X003215Y002774D01*
Y002645D01*
X003100Y002530D01*
X003100Y002530D01*
X003087Y002529D01*
X003075Y002524D01*
X003064Y002516D01*
X003056Y002505D01*
X003051Y002493D01*
X003050Y002480D01*
X003051Y002467D01*
X003056Y002455D01*
X003064Y002444D01*
X003075Y002436D01*
X003087Y002431D01*
X003100Y002430D01*
X003113Y002431D01*
X003125Y002436D01*
X003136Y002444D01*
X003144Y002455D01*
X003149Y002467D01*
X003150Y002480D01*
X003150Y002480D01*
X003275Y002605D01*
X003275Y002605D01*
X003281Y002612D01*
X003284Y002621D01*
X003285Y002630D01*
X003285Y002630D01*
Y002788D01*
X003315D01*
Y002646D01*
X003314Y002646D01*
X003306Y002635D01*
X003301Y002623D01*
X003300Y002610D01*
X003301Y002597D01*
X003306Y002585D01*
X003314Y002574D01*
X003325Y002566D01*
X003337Y002561D01*
X003350Y002560D01*
X003363Y002561D01*
X003375Y002566D01*
X003386Y002574D01*
X003394Y002585D01*
X003395Y002587D01*
X003405D01*
X003406Y002585D01*
X003414Y002574D01*
X003425Y002566D01*
X003437Y002561D01*
X003450Y002560D01*
X003463Y002561D01*
X003475Y002566D01*
X003486Y002574D01*
X003494Y002585D01*
X003495Y002587D01*
X003505D01*
X003506Y002585D01*
X003514Y002574D01*
X003525Y002566D01*
X003537Y002561D01*
X003550Y002560D01*
X003563Y002561D01*
X003575Y002566D01*
X003586Y002574D01*
X003594Y002585D01*
X003595Y002587D01*
X003605D01*
X003606Y002585D01*
X003614Y002574D01*
X003625Y002566D01*
X003637Y002561D01*
X003650Y002560D01*
X003663Y002561D01*
X003675Y002566D01*
X003686Y002574D01*
X003694Y002585D01*
X003695Y002588D01*
X003706D01*
X003707Y002585D01*
X003715Y002574D01*
X003726Y002566D01*
X003738Y002561D01*
X003751Y002560D01*
X003764Y002561D01*
X003776Y002566D01*
X003786Y002574D01*
X003794Y002585D01*
X003800Y002597D01*
X003801Y002610D01*
X003800Y002623D01*
X003794Y002635D01*
X003786Y002646D01*
X003786Y002646D01*
Y002788D01*
X003906D01*
Y003119D01*
X004237D01*
Y003219D01*
Y003319D01*
Y003419D01*
Y003519D01*
Y003614D01*
X004243D01*
Y003662D01*
X004065D01*
X003887D01*
Y003614D01*
X003879Y003610D01*
X003776D01*
X003776Y003611D01*
X003765Y003619D01*
X003753Y003624D01*
X003740Y003625D01*
X003727Y003624D01*
X003715Y003619D01*
X003704Y003611D01*
X003696Y003600D01*
X003691Y003588D01*
X003690Y003575D01*
X003691Y003562D01*
X003696Y003550D01*
X003704Y003539D01*
X003715Y003531D01*
X003727Y003526D01*
X003740Y003525D01*
X003753Y003526D01*
X003765Y003531D01*
X003776Y003539D01*
X003776Y003540D01*
X003893D01*
Y003419D01*
Y003319D01*
Y003219D01*
Y003132D01*
X003211D01*
Y003138D01*
X003185D01*
Y003370D01*
X003184Y003379D01*
X003181Y003388D01*
X003175Y003395D01*
X003175Y003395D01*
X002995Y003575D01*
X002988Y003581D01*
X002979Y003584D01*
X002970Y003585D01*
X002970Y003585D01*
X002613D01*
X002610Y003590D01*
X002598Y003598D01*
X002584Y003604D01*
X002583Y003604D01*
Y003550D01*
Y003496D01*
X002584Y003496D01*
X002598Y003502D01*
X002610Y003510D01*
X002613Y003515D01*
X002955D01*
X003115Y003355D01*
Y003138D01*
X003089D01*
X003085Y003146D01*
Y003240D01*
X003084Y003249D01*
X003081Y003258D01*
X003075Y003265D01*
X003075Y003265D01*
X003060Y003280D01*
X003060Y003280D01*
X003059Y003293D01*
X003054Y003305D01*
X003046Y003316D01*
X003035Y003324D01*
X003023Y003329D01*
X003010Y003330D01*
X002997Y003329D01*
X002985Y003324D01*
X002974Y003316D01*
X002966Y003305D01*
X002961Y003293D01*
X002960Y003280D01*
X002961Y003267D01*
X002966Y003255D01*
X002974Y003244D01*
X002985Y003236D01*
X002997Y003231D01*
X003010Y003230D01*
X003015Y003221D01*
Y003134D01*
X003006Y003132D01*
X003006Y003132D01*
X003006Y003132D01*
X002307D01*
Y003219D01*
Y003319D01*
Y003419D01*
Y003519D01*
Y003619D01*
Y003714D01*
X002313D01*
Y003740D01*
X002333D01*
X002510Y003563D01*
X002557D01*
Y003615D01*
X002372Y003800D01*
X002365Y003806D01*
X002357Y003809D01*
X002348Y003810D01*
X002347Y003810D01*
X002313D01*
Y003836D01*
X002321Y003840D01*
X002415D01*
X002520Y003735D01*
X002520Y003735D01*
X002521Y003722D01*
X002526Y003710D01*
X002534Y003699D01*
X002545Y003691D01*
X002557Y003686D01*
X002570Y003685D01*
X002583Y003686D01*
X002595Y003691D01*
X002606Y003699D01*
X002614Y003710D01*
X002619Y003722D01*
X002620Y003735D01*
X002619Y003748D01*
X002614Y003760D01*
X002606Y003771D01*
X002595Y003779D01*
X002583Y003784D01*
X002570Y003785D01*
X002570Y003785D01*
X002529Y003826D01*
X002536Y003833D01*
X002545Y003826D01*
X002557Y003821D01*
X002570Y003820D01*
X002583Y003821D01*
X002595Y003826D01*
X002606Y003834D01*
X002614Y003845D01*
X002619Y003857D01*
X002620Y003870D01*
X002619Y003883D01*
X002614Y003895D01*
X002606Y003906D01*
X002603Y003908D01*
Y004040D01*
X002602Y004048D01*
X002598Y004056D01*
X002593Y004063D01*
X002458Y004198D01*
X002451Y004203D01*
X002443Y004207D01*
X002435Y004208D01*
X002307D01*
Y004240D01*
X002490D01*
X002655Y004075D01*
Y003986D01*
X002654Y003986D01*
X002646Y003975D01*
X002641Y003963D01*
X002640Y003950D01*
X002641Y003937D01*
X002646Y003925D01*
X002654Y003914D01*
X002665Y003906D01*
X002677Y003901D01*
X002690Y003900D01*
X002703Y003901D01*
X002715Y003906D01*
X002726Y003914D01*
X002734Y003925D01*
X002739Y003937D01*
X002740Y003950D01*
X002739Y003963D01*
X002734Y003975D01*
X002726Y003986D01*
X002725Y003986D01*
Y004090D01*
X002725Y004090D01*
X002724Y004099D01*
X002721Y004108D01*
X002715Y004115D01*
X002715Y004115D01*
X002530Y004300D01*
X002523Y004306D01*
X002514Y004309D01*
X002505Y004310D01*
X002505Y004310D01*
X002307D01*
Y004340D01*
X002560D01*
X002785Y004115D01*
Y003986D01*
X002784Y003986D01*
X002776Y003975D01*
X002771Y003963D01*
X002770Y003950D01*
X002771Y003937D01*
X002776Y003925D01*
X002784Y003914D01*
X002795Y003906D01*
X002807Y003901D01*
X002820Y003900D01*
X002833Y003901D01*
X002845Y003906D01*
X002856Y003914D01*
X002864Y003925D01*
X002869Y003937D01*
X002870Y003950D01*
X002869Y003963D01*
X002864Y003975D01*
X002856Y003986D01*
X002855Y003986D01*
Y004130D01*
X002855Y004130D01*
X002854Y004139D01*
X002851Y004148D01*
X002845Y004155D01*
X002845Y004155D01*
X002600Y004400D01*
X002593Y004406D01*
X002584Y004409D01*
X002575Y004410D01*
X002575Y004410D01*
X002307D01*
Y004519D01*
Y004619D01*
Y004718D01*
X002505D01*
Y004570D01*
X002506Y004558D01*
X002511Y004547D01*
X002518Y004538D01*
X002563Y004493D01*
X002566Y004485D01*
X002574Y004474D01*
X002585Y004466D01*
X002597Y004461D01*
X002610Y004460D01*
X002623Y004461D01*
X002635Y004466D01*
X002646Y004474D01*
X002654Y004485D01*
X002659Y004497D01*
X002660Y004510D01*
X002659Y004523D01*
X002654Y004535D01*
X002646Y004546D01*
X002635Y004554D01*
X002627Y004557D01*
X002595Y004589D01*
Y004653D01*
X002605Y004654D01*
X002606Y004648D01*
X002611Y004637D01*
X002618Y004628D01*
X002688Y004558D01*
X002697Y004551D01*
X002708Y004546D01*
X002720Y004545D01*
X002818D01*
X002822Y004542D01*
X002836Y004536D01*
X002837Y004536D01*
Y004590D01*
X002863D01*
Y004536D01*
X002864Y004536D01*
X002878Y004542D01*
X002882Y004545D01*
X002980D01*
X002992Y004546D01*
X003003Y004551D01*
X003012Y004558D01*
X003082Y004628D01*
X003082Y004628D01*
X003089Y004637D01*
X003094Y004648D01*
X003095Y004654D01*
X003105Y004653D01*
Y004589D01*
X003073Y004557D01*
X003065Y004554D01*
X003054Y004546D01*
X003046Y004535D01*
X003041Y004523D01*
X003040Y004510D01*
X003041Y004497D01*
X003046Y004485D01*
X003054Y004474D01*
X003065Y004466D01*
X003077Y004461D01*
X003090Y004460D01*
X003103Y004461D01*
X003115Y004466D01*
X003126Y004474D01*
X003134Y004485D01*
X003137Y004493D01*
X003182Y004538D01*
X003189Y004547D01*
X003191Y004552D01*
X003194Y004558D01*
X003195Y004570D01*
Y004718D01*
X003689D01*
Y004712D01*
X003699D01*
X003703Y004703D01*
X003663Y004663D01*
Y004613D01*
X003713D01*
X003775Y004675D01*
X003775Y004675D01*
X003781Y004682D01*
X003784Y004691D01*
X003785Y004700D01*
Y004712D01*
X003805D01*
Y004639D01*
X003723Y004557D01*
X003715Y004554D01*
X003704Y004546D01*
X003696Y004535D01*
X003691Y004523D01*
X003690Y004510D01*
X003691Y004497D01*
X003696Y004485D01*
X003704Y004474D01*
X003715Y004466D01*
X003727Y004461D01*
X003740Y004460D01*
X003753Y004461D01*
X003765Y004466D01*
X003776Y004474D01*
X003784Y004485D01*
X003787Y004493D01*
X003882Y004588D01*
X003883Y004589D01*
X003893Y004585D01*
Y004519D01*
Y004425D01*
X003776D01*
X003776Y004426D01*
X003765Y004434D01*
X003753Y004439D01*
X003740Y004440D01*
X003727Y004439D01*
X003715Y004434D01*
X003704Y004426D01*
X003696Y004415D01*
X003691Y004403D01*
X003690Y004390D01*
X003691Y004377D01*
X003696Y004365D01*
X003704Y004354D01*
X003715Y004346D01*
X003727Y004341D01*
X003736Y004340D01*
Y004330D01*
X003727Y004329D01*
X003715Y004324D01*
X003704Y004316D01*
X003696Y004305D01*
X003691Y004293D01*
X003690Y004280D01*
X003691Y004267D01*
X003696Y004255D01*
X003704Y004244D01*
X003715Y004236D01*
X003727Y004231D01*
X003740Y004230D01*
X003753Y004231D01*
X003765Y004236D01*
X003776Y004244D01*
X003776Y004245D01*
X003893D01*
Y004119D01*
Y004019D01*
Y003919D01*
Y003836D01*
X003887D01*
Y003808D01*
X003785D01*
X003780Y003815D01*
X003768Y003823D01*
X003754Y003829D01*
X003753Y003829D01*
Y003775D01*
Y003721D01*
X003754Y003721D01*
X003768Y003727D01*
X003780Y003735D01*
X003785Y003742D01*
X003887D01*
Y003688D01*
X004065D01*
X004243D01*
Y003714D01*
Y003762D01*
X004065D01*
Y003788D01*
X004243D01*
Y003836D01*
X004237D01*
Y003919D01*
Y004019D01*
Y004119D01*
Y004219D01*
Y004319D01*
Y004419D01*
Y004519D01*
Y004619D01*
Y004731D01*
X003906D01*
Y004895D01*
X003955D01*
Y004879D01*
X004125D01*
X004125Y004880D01*
X004231D01*
X004280Y004831D01*
X004289Y004824D01*
X004300Y004819D01*
X004312Y004818D01*
X004371D01*
Y004811D01*
X004564D01*
Y004915D01*
X004546D01*
X004540Y004922D01*
X004540Y004926D01*
X004540Y004931D01*
X004546Y004938D01*
X004564D01*
Y005042D01*
X004523D01*
Y005116D01*
X004534Y005127D01*
X005180D01*
X005188Y005128D01*
X005196Y005132D01*
X005203Y005137D01*
X005253Y005187D01*
X005258Y005194D01*
X005262Y005202D01*
X005263Y005210D01*
Y005240D01*
X005315D01*
Y005360D01*
X005263D01*
X005262Y005369D01*
X005258Y005377D01*
X005253Y005384D01*
X005246Y005389D01*
X005238Y005392D01*
X005230Y005393D01*
X005222Y005392D01*
X005214Y005389D01*
X005207Y005384D01*
X005202Y005377D01*
X005198Y005369D01*
X005197Y005360D01*
X005155D01*
X005145Y005360D01*
Y005361D01*
X005145D01*
Y005360D01*
X004975D01*
X004975Y005360D01*
X004815D01*
X004805Y005360D01*
Y005360D01*
X004805D01*
Y005360D01*
X004645D01*
X004635Y005360D01*
Y005360D01*
X004635D01*
Y005360D01*
X004475D01*
X004465Y005360D01*
Y005360D01*
X004465D01*
Y005360D01*
X004305D01*
X004295Y005360D01*
Y005360D01*
X004295D01*
Y005360D01*
X004135D01*
X004125Y005360D01*
Y005360D01*
X004125D01*
Y005360D01*
X003965D01*
X003955Y005360D01*
Y005360D01*
X003955D01*
Y005360D01*
X003795D01*
X003785Y005360D01*
Y005360D01*
X003785D01*
Y005360D01*
X003615D01*
Y005240D01*
X003775D01*
X003785Y005240D01*
Y005240D01*
X003785D01*
Y005240D01*
X003945D01*
X003955Y005240D01*
Y005240D01*
X003955D01*
Y005240D01*
X004115D01*
X004125Y005240D01*
Y005240D01*
X004125D01*
Y005240D01*
X004285D01*
X004295Y005240D01*
Y005240D01*
X004295D01*
Y005240D01*
X004455D01*
X004465Y005240D01*
Y005240D01*
X004465D01*
Y005240D01*
X004625D01*
X004635Y005240D01*
Y005240D01*
X004635D01*
Y005240D01*
X004795D01*
X004805Y005240D01*
Y005240D01*
X004805D01*
Y005240D01*
X004975D01*
X004975Y005240D01*
X005135D01*
X005145Y005240D01*
Y005240D01*
X005145D01*
Y005240D01*
X005197D01*
Y005224D01*
X005166Y005193D01*
X004520D01*
X004512Y005192D01*
X004504Y005188D01*
X004497Y005183D01*
X004467Y005153D01*
X004462Y005146D01*
X004458Y005138D01*
X004457Y005130D01*
Y005042D01*
X004371D01*
Y004938D01*
X004434D01*
X004440Y004931D01*
X004440Y004926D01*
X004440Y004922D01*
X004434Y004915D01*
X004371D01*
Y004908D01*
X004331D01*
X004295Y004944D01*
Y005000D01*
X004125D01*
X004125Y004999D01*
X003955D01*
Y004985D01*
X003906D01*
Y005062D01*
X003811D01*
Y005068D01*
X003791D01*
X003788Y005078D01*
X003805Y005095D01*
X003950D01*
Y005064D01*
X004027D01*
Y005129D01*
Y005195D01*
X003950D01*
Y005165D01*
X003790D01*
X003781Y005164D01*
X003772Y005161D01*
X003765Y005155D01*
X003765Y005155D01*
X003725Y005115D01*
X003719Y005108D01*
X003716Y005099D01*
X003715Y005090D01*
X003715Y005090D01*
Y005068D01*
X003689D01*
Y005062D01*
X003677D01*
X003677Y005064D01*
X003673Y005073D01*
X003668Y005080D01*
X003668Y005080D01*
X003095Y005652D01*
Y005834D01*
X003096Y005834D01*
X003104Y005845D01*
X003109Y005857D01*
X003110Y005870D01*
X003109Y005883D01*
X003104Y005895D01*
X003096Y005906D01*
X003085Y005914D01*
X003073Y005919D01*
X003060Y005920D01*
D02*
G37*
G36*
X006000Y005999D02*
X005983Y005997D01*
X005966Y005992D01*
X005951Y005984D01*
X005937Y005973D01*
X005926Y005959D01*
X005918Y005944D01*
X005913Y005927D01*
X005911Y005910D01*
X005913Y005893D01*
X005918Y005876D01*
X005926Y005861D01*
X005937Y005847D01*
X005951Y005836D01*
X005966Y005828D01*
X005983Y005823D01*
X006000Y005821D01*
X006017Y005823D01*
X006034Y005828D01*
X006049Y005836D01*
X006063Y005847D01*
X006074Y005861D01*
X006082Y005876D01*
X006087Y005893D01*
X006089Y005910D01*
X006087Y005927D01*
X006082Y005944D01*
X006074Y005959D01*
X006063Y005973D01*
X006049Y005984D01*
X006034Y005992D01*
X006017Y005997D01*
X006000Y005999D01*
D02*
G37*
G36*
X005800D02*
X005783Y005997D01*
X005766Y005992D01*
X005751Y005984D01*
X005737Y005973D01*
X005726Y005959D01*
X005718Y005944D01*
X005713Y005927D01*
X005711Y005910D01*
X005713Y005893D01*
X005718Y005876D01*
X005726Y005861D01*
X005737Y005847D01*
X005751Y005836D01*
X005766Y005828D01*
X005783Y005823D01*
X005800Y005821D01*
X005817Y005823D01*
X005834Y005828D01*
X005849Y005836D01*
X005863Y005847D01*
X005874Y005861D01*
X005882Y005876D01*
X005887Y005893D01*
X005889Y005910D01*
X005887Y005927D01*
X005882Y005944D01*
X005874Y005959D01*
X005863Y005973D01*
X005849Y005984D01*
X005834Y005992D01*
X005817Y005997D01*
X005800Y005999D01*
D02*
G37*
G36*
X005400D02*
X005383Y005997D01*
X005366Y005992D01*
X005351Y005984D01*
X005337Y005973D01*
X005326Y005959D01*
X005318Y005944D01*
X005313Y005927D01*
X005311Y005910D01*
X005313Y005893D01*
X005318Y005876D01*
X005326Y005861D01*
X005337Y005847D01*
X005351Y005836D01*
X005366Y005828D01*
X005383Y005823D01*
X005400Y005821D01*
X005417Y005823D01*
X005434Y005828D01*
X005449Y005836D01*
X005463Y005847D01*
X005474Y005861D01*
X005482Y005876D01*
X005487Y005893D01*
X005489Y005910D01*
X005487Y005927D01*
X005482Y005944D01*
X005474Y005959D01*
X005463Y005973D01*
X005449Y005984D01*
X005434Y005992D01*
X005417Y005997D01*
X005400Y005999D01*
D02*
G37*
G36*
X005200D02*
X005183Y005997D01*
X005166Y005992D01*
X005151Y005984D01*
X005137Y005973D01*
X005126Y005959D01*
X005118Y005944D01*
X005113Y005927D01*
X005111Y005910D01*
X005113Y005893D01*
X005118Y005876D01*
X005126Y005861D01*
X005137Y005847D01*
X005151Y005836D01*
X005166Y005828D01*
X005183Y005823D01*
X005200Y005821D01*
X005217Y005823D01*
X005234Y005828D01*
X005249Y005836D01*
X005263Y005847D01*
X005274Y005861D01*
X005282Y005876D01*
X005287Y005893D01*
X005289Y005910D01*
X005287Y005927D01*
X005282Y005944D01*
X005274Y005959D01*
X005263Y005973D01*
X005249Y005984D01*
X005234Y005992D01*
X005217Y005997D01*
X005200Y005999D01*
D02*
G37*
G36*
X005000D02*
X004983Y005997D01*
X004966Y005992D01*
X004951Y005984D01*
X004937Y005973D01*
X004926Y005959D01*
X004918Y005944D01*
X004913Y005927D01*
X004911Y005910D01*
X004913Y005893D01*
X004918Y005876D01*
X004926Y005861D01*
X004937Y005847D01*
X004951Y005836D01*
X004966Y005828D01*
X004983Y005823D01*
X005000Y005821D01*
X005017Y005823D01*
X005034Y005828D01*
X005049Y005836D01*
X005063Y005847D01*
X005074Y005861D01*
X005082Y005876D01*
X005087Y005893D01*
X005089Y005910D01*
X005087Y005927D01*
X005082Y005944D01*
X005074Y005959D01*
X005063Y005973D01*
X005049Y005984D01*
X005034Y005992D01*
X005017Y005997D01*
X005000Y005999D01*
D02*
G37*
G36*
X005587Y005897D02*
X005507D01*
X005507Y005892D01*
X005513Y005874D01*
X005521Y005858D01*
X005533Y005843D01*
X005548Y005831D01*
X005564Y005823D01*
X005582Y005817D01*
X005587Y005817D01*
Y005897D01*
D02*
G37*
G36*
X005693D02*
X005613D01*
Y005817D01*
X005618Y005817D01*
X005636Y005823D01*
X005652Y005831D01*
X005667Y005843D01*
X005679Y005858D01*
X005687Y005874D01*
X005693Y005892D01*
X005693Y005897D01*
D02*
G37*
G36*
X005613Y005803D02*
Y005723D01*
X005693D01*
X005693Y005728D01*
X005687Y005746D01*
X005679Y005762D01*
X005667Y005777D01*
X005652Y005789D01*
X005636Y005797D01*
X005618Y005803D01*
X005613Y005803D01*
D02*
G37*
G36*
X005587D02*
X005582Y005803D01*
X005564Y005797D01*
X005548Y005789D01*
X005533Y005777D01*
X005521Y005762D01*
X005513Y005746D01*
X005507Y005728D01*
X005507Y005723D01*
X005587D01*
Y005803D01*
D02*
G37*
G36*
X005213D02*
Y005723D01*
X005293D01*
X005293Y005728D01*
X005287Y005746D01*
X005279Y005762D01*
X005267Y005777D01*
X005252Y005789D01*
X005236Y005797D01*
X005218Y005803D01*
X005213Y005803D01*
D02*
G37*
G36*
X005187D02*
X005182Y005803D01*
X005164Y005797D01*
X005148Y005789D01*
X005133Y005777D01*
X005121Y005762D01*
X005113Y005746D01*
X005107Y005728D01*
X005107Y005723D01*
X005187D01*
Y005803D01*
D02*
G37*
G36*
X005413D02*
Y005723D01*
X005493D01*
X005493Y005728D01*
X005487Y005746D01*
X005479Y005762D01*
X005467Y005777D01*
X005452Y005789D01*
X005436Y005797D01*
X005418Y005803D01*
X005413Y005803D01*
D02*
G37*
G36*
X005387Y005803D02*
X005382Y005803D01*
X005364Y005797D01*
X005348Y005789D01*
X005333Y005777D01*
X005321Y005762D01*
X005313Y005746D01*
X005307Y005728D01*
X005307Y005723D01*
X005387D01*
Y005803D01*
D02*
G37*
G36*
X006000Y005799D02*
X005983Y005797D01*
X005966Y005792D01*
X005951Y005784D01*
X005937Y005773D01*
X005926Y005759D01*
X005918Y005744D01*
X005913Y005727D01*
X005911Y005710D01*
X005913Y005693D01*
X005918Y005676D01*
X005926Y005661D01*
X005937Y005647D01*
X005951Y005636D01*
X005966Y005628D01*
X005983Y005623D01*
X006000Y005621D01*
X006017Y005623D01*
X006034Y005628D01*
X006049Y005636D01*
X006063Y005647D01*
X006074Y005661D01*
X006082Y005676D01*
X006087Y005693D01*
X006089Y005710D01*
X006087Y005727D01*
X006082Y005744D01*
X006074Y005759D01*
X006063Y005773D01*
X006049Y005784D01*
X006034Y005792D01*
X006017Y005797D01*
X006000Y005799D01*
D02*
G37*
G36*
X005800D02*
X005783Y005797D01*
X005766Y005792D01*
X005751Y005784D01*
X005737Y005773D01*
X005726Y005759D01*
X005718Y005744D01*
X005713Y005727D01*
X005711Y005710D01*
X005713Y005693D01*
X005718Y005676D01*
X005726Y005661D01*
X005737Y005647D01*
X005751Y005636D01*
X005766Y005628D01*
X005783Y005623D01*
X005800Y005621D01*
X005817Y005623D01*
X005834Y005628D01*
X005849Y005636D01*
X005863Y005647D01*
X005874Y005661D01*
X005882Y005676D01*
X005887Y005693D01*
X005889Y005710D01*
X005887Y005727D01*
X005882Y005744D01*
X005874Y005759D01*
X005863Y005773D01*
X005849Y005784D01*
X005834Y005792D01*
X005817Y005797D01*
X005800Y005799D01*
D02*
G37*
G36*
X005493Y005697D02*
X005413D01*
Y005617D01*
X005418Y005617D01*
X005436Y005623D01*
X005452Y005631D01*
X005467Y005643D01*
X005479Y005658D01*
X005487Y005674D01*
X005493Y005692D01*
X005493Y005697D01*
D02*
G37*
G36*
X005693Y005697D02*
X005613D01*
Y005617D01*
X005618Y005617D01*
X005636Y005623D01*
X005652Y005631D01*
X005667Y005643D01*
X005679Y005658D01*
X005687Y005674D01*
X005693Y005692D01*
X005693Y005697D01*
D02*
G37*
G36*
X005587D02*
X005507D01*
X005507Y005692D01*
X005513Y005674D01*
X005521Y005658D01*
X005533Y005643D01*
X005548Y005631D01*
X005564Y005623D01*
X005582Y005617D01*
X005587Y005617D01*
Y005697D01*
D02*
G37*
G36*
X005387Y005697D02*
X005307D01*
X005307Y005692D01*
X005313Y005674D01*
X005321Y005658D01*
X005333Y005643D01*
X005348Y005631D01*
X005364Y005623D01*
X005382Y005617D01*
X005387Y005617D01*
Y005697D01*
D02*
G37*
G36*
X003532Y005631D02*
X003531Y005631D01*
X003517Y005626D01*
X003505Y005617D01*
X003498Y005606D01*
X003496Y005606D01*
X003493Y005605D01*
X003486Y005606D01*
X003480Y005613D01*
X003470Y005621D01*
X003458Y005626D01*
X003445Y005628D01*
X003432Y005626D01*
X003419Y005621D01*
X003409Y005613D01*
X003401Y005602D01*
X003396Y005590D01*
X003394Y005577D01*
X003396Y005564D01*
X003401Y005552D01*
X003409Y005542D01*
X003419Y005534D01*
X003432Y005528D01*
X003445Y005527D01*
X003458Y005528D01*
X003470Y005534D01*
X003480Y005542D01*
X003486Y005549D01*
X003493Y005549D01*
X003496Y005549D01*
X003498Y005548D01*
X003505Y005538D01*
X003517Y005529D01*
X003531Y005523D01*
X003532Y005523D01*
Y005577D01*
Y005631D01*
D02*
G37*
G36*
X003558D02*
Y005590D01*
X003599D01*
X003599Y005592D01*
X003593Y005605D01*
X003585Y005617D01*
X003573Y005626D01*
X003559Y005631D01*
X003558Y005631D01*
D02*
G37*
G36*
X003599Y005565D02*
X003558D01*
Y005523D01*
X003559Y005523D01*
X003573Y005529D01*
X003585Y005538D01*
X003593Y005549D01*
X003599Y005563D01*
X003599Y005565D01*
D02*
G37*
G36*
X005320Y005478D02*
X005243D01*
Y005425D01*
X005320D01*
Y005478D01*
D02*
G37*
G36*
X005613Y005323D02*
Y005282D01*
X005654D01*
X005654Y005283D01*
X005648Y005297D01*
X005640Y005308D01*
X005628Y005317D01*
X005614Y005323D01*
X005613Y005323D01*
D02*
G37*
G36*
X005587D02*
X005586Y005323D01*
X005572Y005317D01*
X005560Y005308D01*
X005552Y005297D01*
X005546Y005283D01*
X005546Y005282D01*
X005587D01*
Y005323D01*
D02*
G37*
G36*
X005654Y005256D02*
X005613D01*
Y005215D01*
X005614Y005215D01*
X005628Y005220D01*
X005640Y005229D01*
X005648Y005241D01*
X005654Y005254D01*
X005654Y005256D01*
D02*
G37*
G36*
X005587D02*
X005546D01*
X005546Y005254D01*
X005552Y005241D01*
X005560Y005229D01*
X005572Y005220D01*
X005586Y005215D01*
X005587Y005215D01*
Y005256D01*
D02*
G37*
G36*
X006680Y005306D02*
X006440D01*
Y005195D01*
X005971D01*
X005963Y005199D01*
X005950Y005200D01*
X005937Y005199D01*
X005925Y005194D01*
X005914Y005186D01*
X005906Y005175D01*
X005901Y005163D01*
X005900Y005150D01*
X005901Y005137D01*
X005905Y005129D01*
Y004966D01*
X005906Y004954D01*
X005911Y004943D01*
X005918Y004934D01*
X006386Y004465D01*
Y004410D01*
X006556D01*
Y004529D01*
X006450D01*
X005995Y004984D01*
Y005105D01*
X006440D01*
Y005066D01*
X006680D01*
Y005306D01*
D02*
G37*
G36*
X002085Y005252D02*
X002032D01*
Y005175D01*
X002085D01*
Y005252D01*
D02*
G37*
G36*
X002007D02*
X001954D01*
Y005175D01*
X002007D01*
Y005252D01*
D02*
G37*
G36*
X004300Y005195D02*
X004223D01*
Y005143D01*
X004300D01*
Y005195D01*
D02*
G37*
G36*
Y005117D02*
X004223D01*
Y005065D01*
X004300D01*
Y005117D01*
D02*
G37*
G36*
X004197Y005195D02*
X004120D01*
Y005195D01*
X004053D01*
Y005129D01*
Y005064D01*
X004130D01*
Y005065D01*
X004197D01*
Y005130D01*
Y005195D01*
D02*
G37*
G36*
X006973Y004944D02*
Y004903D01*
X007014D01*
X007014Y004904D01*
X007008Y004918D01*
X007000Y004930D01*
X006988Y004938D01*
X006974Y004944D01*
X006973Y004944D01*
D02*
G37*
G36*
X006947D02*
X006946Y004944D01*
X006932Y004938D01*
X006920Y004930D01*
X006912Y004918D01*
X006906Y004904D01*
X006906Y004903D01*
X006947D01*
Y004944D01*
D02*
G37*
G36*
X002085Y005149D02*
X002019D01*
X001954D01*
Y005072D01*
X001984D01*
Y004875D01*
X001984Y004875D01*
X001985Y004866D01*
X001989Y004858D01*
X001994Y004850D01*
X002012Y004833D01*
X002124D01*
X002124Y004834D01*
X002118Y004848D01*
X002110Y004860D01*
X002098Y004868D01*
X002084Y004874D01*
X002070Y004876D01*
X002069Y004876D01*
X002055Y004890D01*
Y005072D01*
X002085D01*
Y005149D01*
D02*
G37*
G36*
X004933Y005029D02*
X004768D01*
Y004813D01*
X004933D01*
Y005029D01*
D02*
G37*
G36*
X004742D02*
X004577D01*
Y004813D01*
X004742D01*
Y005029D01*
D02*
G37*
G36*
X007010Y005307D02*
X006910D01*
X006896Y005305D01*
X006883Y005301D01*
X006871Y005295D01*
X006860Y005286D01*
X006852Y005275D01*
X006845Y005263D01*
X006841Y005250D01*
X006840Y005236D01*
Y005136D01*
X006841Y005123D01*
X006845Y005109D01*
X006852Y005097D01*
X006860Y005086D01*
X006871Y005078D01*
X006883Y005071D01*
X006896Y005067D01*
X006910Y005066D01*
X007010D01*
X007024Y005067D01*
X007037Y005071D01*
X007049Y005078D01*
X007060Y005086D01*
X007068Y005097D01*
X007071Y005102D01*
X007125D01*
Y004882D01*
X007085D01*
Y004804D01*
X007005D01*
Y004858D01*
X007008Y004862D01*
X007014Y004876D01*
X007014Y004877D01*
X006906D01*
X006906Y004876D01*
X006912Y004862D01*
X006915Y004858D01*
Y004804D01*
X006835D01*
Y004691D01*
X006960D01*
Y004666D01*
X006835D01*
Y004553D01*
X006915D01*
Y004535D01*
X006847D01*
Y004515D01*
X006794D01*
Y004535D01*
X006717D01*
Y004470D01*
Y004405D01*
X006794D01*
Y004425D01*
X006847D01*
Y004405D01*
X006924D01*
Y004470D01*
X006950D01*
Y004405D01*
X007027D01*
Y004425D01*
X007080D01*
Y004405D01*
X007157D01*
Y004470D01*
X007170D01*
Y004483D01*
X007260D01*
Y004535D01*
X007215D01*
Y004567D01*
X007260D01*
Y004620D01*
X007170D01*
Y004632D01*
X007157D01*
Y004698D01*
X007085D01*
Y004762D01*
X007255D01*
Y004882D01*
X007215D01*
Y005112D01*
X007216Y005112D01*
X007224Y005122D01*
X007229Y005134D01*
X007230Y005147D01*
X007229Y005160D01*
X007224Y005173D01*
X007216Y005183D01*
X007205Y005191D01*
X007193Y005196D01*
X007180Y005198D01*
X007167Y005196D01*
X007159Y005193D01*
X007080D01*
Y005236D01*
X007079Y005250D01*
X007075Y005263D01*
X007068Y005275D01*
X007060Y005286D01*
X007049Y005295D01*
X007037Y005301D01*
X007024Y005305D01*
X007010Y005307D01*
D02*
G37*
G36*
X005094Y005042D02*
X005006D01*
X004992Y005040D01*
X004979Y005035D01*
X004969Y005027D01*
X004960Y005016D01*
X004955Y005004D01*
X004953Y004990D01*
X004955Y004976D01*
X004960Y004964D01*
X004969Y004953D01*
X004979Y004945D01*
X004992Y004940D01*
X005006Y004938D01*
X005094D01*
X005108Y004940D01*
X005121Y004945D01*
X005131Y004953D01*
X005133Y004955D01*
X005425D01*
X005545Y004835D01*
Y004795D01*
X005535Y004795D01*
X005534Y004799D01*
X005531Y004808D01*
X005525Y004815D01*
X005452Y004888D01*
X005445Y004894D01*
X005436Y004897D01*
X005427Y004898D01*
X005427Y004898D01*
X005146D01*
Y004915D01*
X004954D01*
Y004811D01*
X005146D01*
Y004828D01*
X005412D01*
X005462Y004778D01*
X005462Y004772D01*
X005451Y004769D01*
X005449Y004772D01*
X005439Y004780D01*
X005427Y004785D01*
X005414Y004787D01*
X005401Y004785D01*
X005389Y004780D01*
X005378Y004772D01*
X005378Y004771D01*
X005146D01*
Y004788D01*
X004954D01*
Y004684D01*
X005146D01*
Y004701D01*
X005378D01*
X005378Y004700D01*
X005389Y004692D01*
X005401Y004687D01*
X005414Y004686D01*
X005427Y004687D01*
X005439Y004692D01*
X005449Y004700D01*
X005455Y004707D01*
X005465Y004704D01*
Y004120D01*
X005146D01*
Y004125D01*
X004954D01*
Y004021D01*
X005146D01*
Y004050D01*
X005378D01*
X005384Y004040D01*
X005381Y004033D01*
X005380Y004020D01*
X005380Y004016D01*
X005342Y003979D01*
X005146D01*
Y003998D01*
X004954D01*
Y003894D01*
X005146D01*
Y003913D01*
X005356D01*
X005364Y003914D01*
X005372Y003918D01*
X005379Y003923D01*
X005426Y003970D01*
X005430Y003970D01*
X005443Y003971D01*
X005455Y003976D01*
X005456Y003977D01*
X005465Y003972D01*
Y003906D01*
X005464Y003906D01*
X005456Y003895D01*
X005451Y003883D01*
X005450Y003870D01*
X005451Y003857D01*
X005456Y003845D01*
X005464Y003834D01*
X005465Y003834D01*
Y003821D01*
X005455Y003816D01*
X005444Y003821D01*
X005443Y003821D01*
Y003767D01*
Y003712D01*
X005444Y003713D01*
X005455Y003717D01*
X005465Y003712D01*
Y003615D01*
X005456Y003610D01*
X005455Y003610D01*
X005443Y003616D01*
X005430Y003617D01*
X005417Y003616D01*
X005405Y003610D01*
X005394Y003602D01*
X005386Y003592D01*
X005381Y003580D01*
X005380Y003567D01*
X005381Y003554D01*
X005386Y003542D01*
X005394Y003531D01*
X005405Y003523D01*
X005417Y003518D01*
X005430Y003516D01*
X005443Y003518D01*
X005455Y003523D01*
X005456Y003524D01*
X005465Y003519D01*
Y003375D01*
X005146D01*
Y003391D01*
X004954D01*
Y003288D01*
X005146D01*
Y003304D01*
X005465D01*
Y003245D01*
X005455Y003241D01*
X005449Y003248D01*
X005439Y003256D01*
X005427Y003261D01*
X005414Y003263D01*
X005401Y003261D01*
X005389Y003256D01*
X005378Y003248D01*
X005376Y003245D01*
X005146D01*
Y003264D01*
X004954D01*
Y003161D01*
X005146D01*
Y003180D01*
X005376D01*
X005378Y003177D01*
X005389Y003169D01*
X005401Y003164D01*
X005414Y003162D01*
X005427Y003164D01*
X005439Y003169D01*
X005449Y003177D01*
X005455Y003184D01*
X005465Y003181D01*
Y003132D01*
X005455Y003129D01*
X005453Y003131D01*
X005442Y003140D01*
X005428Y003145D01*
X005426Y003145D01*
Y003091D01*
Y003037D01*
X005428Y003037D01*
X005442Y003043D01*
X005453Y003052D01*
X005455Y003054D01*
X005465Y003050D01*
Y002642D01*
X005146D01*
Y002658D01*
X004954D01*
Y002555D01*
X005146D01*
Y002571D01*
X005465D01*
Y002410D01*
X005463Y002406D01*
X005452Y002404D01*
X005354Y002503D01*
X005347Y002508D01*
X005339Y002511D01*
X005331Y002512D01*
X005146D01*
Y002531D01*
X004954D01*
Y002474D01*
X004942Y002462D01*
X004933Y002466D01*
Y002531D01*
X004768D01*
Y002315D01*
X004817D01*
X004823Y002306D01*
X004821Y002303D01*
X004820Y002290D01*
X004821Y002277D01*
X004826Y002265D01*
X004834Y002254D01*
X004845Y002246D01*
X004857Y002241D01*
X004870Y002240D01*
X004883Y002241D01*
X004895Y002246D01*
X004906Y002254D01*
X004913Y002264D01*
X004919Y002265D01*
X004926Y002268D01*
X004933Y002274D01*
X004955Y002295D01*
X005037D01*
Y002352D01*
Y002409D01*
X004995D01*
X004991Y002419D01*
X005000Y002428D01*
X005146D01*
Y002447D01*
X005317D01*
X005410Y002354D01*
X005410Y002350D01*
X005411Y002337D01*
X005416Y002325D01*
X005424Y002314D01*
X005435Y002306D01*
X005447Y002301D01*
X005460Y002300D01*
X005473Y002301D01*
X005480Y002304D01*
X005490Y002298D01*
Y002030D01*
X005368Y001908D01*
X005146D01*
Y001925D01*
X004954D01*
Y001821D01*
X005146D01*
Y001838D01*
X005383D01*
X005383Y001838D01*
X005392Y001839D01*
X005401Y001842D01*
X005408Y001848D01*
X005550Y001990D01*
X005550Y001990D01*
X005556Y001997D01*
X005559Y002006D01*
X005560Y002015D01*
X005560Y002015D01*
Y002377D01*
X005560Y002377D01*
X005559Y002386D01*
X005556Y002395D01*
X005550Y002402D01*
X005535Y002417D01*
Y002606D01*
Y002780D01*
X005541Y002783D01*
X005545Y002784D01*
X005555Y002776D01*
X005567Y002771D01*
X005580Y002770D01*
X005593Y002771D01*
X005605Y002776D01*
X005616Y002784D01*
X005624Y002795D01*
X005629Y002807D01*
X005630Y002820D01*
X005630Y002820D01*
X005658Y002848D01*
X005667Y002844D01*
Y002625D01*
X005784D01*
X005792Y002625D01*
X005799Y002625D01*
X005916D01*
Y002915D01*
X005799D01*
X005792Y002915D01*
X005782Y002915D01*
X005775Y002922D01*
Y003051D01*
X005884Y003160D01*
X007675D01*
X007677Y003160D01*
X007680Y003160D01*
X007693Y003161D01*
X007705Y003166D01*
X007716Y003174D01*
X007724Y003185D01*
X007729Y003197D01*
X007730Y003210D01*
X007729Y003223D01*
X007724Y003235D01*
X007716Y003246D01*
X007705Y003254D01*
X007693Y003259D01*
X007680Y003260D01*
X007667Y003259D01*
X007655Y003254D01*
X007651Y003250D01*
X007279D01*
X007272Y003260D01*
X007274Y003266D01*
X007274Y003267D01*
X007166D01*
X007166Y003266D01*
X007168Y003260D01*
X007161Y003250D01*
X006105D01*
X006095Y003252D01*
X006095Y003260D01*
Y003330D01*
X006030D01*
X005965D01*
X005965Y003252D01*
X005955Y003250D01*
X005907D01*
X005900Y003258D01*
Y003428D01*
X005900D01*
Y003433D01*
X005900D01*
Y003603D01*
X005900D01*
Y003609D01*
X005900D01*
Y003779D01*
X005900D01*
Y003785D01*
X005900D01*
Y003955D01*
X005780D01*
Y003905D01*
X005640D01*
X005640Y003905D01*
X005631Y003904D01*
X005622Y003901D01*
X005615Y003895D01*
X005615Y003895D01*
X005555Y003835D01*
X005549Y003828D01*
X005546Y003819D01*
X005545Y003815D01*
X005535Y003815D01*
Y003834D01*
X005536Y003834D01*
X005544Y003845D01*
X005549Y003857D01*
X005550Y003870D01*
X005549Y003883D01*
X005544Y003895D01*
X005536Y003906D01*
X005535Y003906D01*
Y003926D01*
X005541Y003930D01*
X005545Y003930D01*
X005555Y003923D01*
X005567Y003918D01*
X005580Y003916D01*
X005593Y003918D01*
X005605Y003923D01*
X005616Y003931D01*
X005624Y003942D01*
X005629Y003954D01*
X005630Y003967D01*
X005629Y003980D01*
X005624Y003992D01*
X005616Y004002D01*
X005615Y004003D01*
Y004850D01*
X005615Y004850D01*
X005614Y004859D01*
X005611Y004868D01*
X005605Y004875D01*
X005605Y004875D01*
X005465Y005015D01*
X005458Y005021D01*
X005449Y005024D01*
X005440Y005025D01*
X005440Y005025D01*
X005133D01*
X005131Y005027D01*
X005121Y005035D01*
X005108Y005040D01*
X005094Y005042D01*
D02*
G37*
G36*
X002124Y004807D02*
X002083D01*
Y004766D01*
X002084Y004766D01*
X002098Y004772D01*
X002110Y004780D01*
X002118Y004792D01*
X002124Y004806D01*
X002124Y004807D01*
D02*
G37*
G36*
X002057D02*
X002016D01*
X002016Y004806D01*
X002022Y004792D01*
X002030Y004780D01*
X002042Y004772D01*
X002056Y004766D01*
X002057Y004766D01*
Y004807D01*
D02*
G37*
G36*
X006680Y004798D02*
X006440D01*
Y004714D01*
X006427D01*
X006426Y004716D01*
X006415Y004724D01*
X006403Y004729D01*
X006390Y004730D01*
X006377Y004729D01*
X006365Y004724D01*
X006354Y004716D01*
X006346Y004705D01*
X006341Y004693D01*
X006340Y004680D01*
X006341Y004667D01*
X006346Y004655D01*
X006354Y004644D01*
X006365Y004636D01*
X006377Y004631D01*
X006390Y004630D01*
X006403Y004631D01*
X006415Y004636D01*
X006424Y004643D01*
X006440D01*
Y004558D01*
X006680D01*
Y004798D01*
D02*
G37*
G36*
X007260Y004698D02*
X007183D01*
Y004645D01*
X007260D01*
Y004698D01*
D02*
G37*
G36*
X005152Y004666D02*
X005063D01*
Y004622D01*
X005152D01*
Y004666D01*
D02*
G37*
G36*
X003637Y004654D02*
X003636Y004654D01*
X003622Y004648D01*
X003610Y004640D01*
X003602Y004628D01*
X003596Y004614D01*
X003596Y004613D01*
X003637D01*
Y004654D01*
D02*
G37*
G36*
X004564Y004661D02*
X004371D01*
Y004557D01*
X004371Y004557D01*
X004371D01*
X004374Y004547D01*
X004371Y004541D01*
X004370Y004528D01*
X004371Y004515D01*
X004376Y004503D01*
X004384Y004492D01*
X004395Y004484D01*
X004407Y004479D01*
X004420Y004478D01*
X004433Y004479D01*
X004445Y004484D01*
X004456Y004492D01*
X004464Y004503D01*
X004469Y004515D01*
X004470Y004528D01*
X004469Y004541D01*
X004466Y004547D01*
X004473Y004557D01*
X004528D01*
X004530Y004557D01*
X004532Y004557D01*
X004564D01*
Y004661D01*
D02*
G37*
G36*
X005152Y004596D02*
X005063D01*
Y004552D01*
X005152D01*
Y004596D01*
D02*
G37*
G36*
X004933Y004787D02*
X004755D01*
X004577D01*
Y004571D01*
X004722D01*
Y004530D01*
X004675D01*
Y004453D01*
X004740D01*
X004805D01*
Y004530D01*
X004788D01*
Y004571D01*
X004933D01*
Y004576D01*
X004948D01*
Y004552D01*
X005037D01*
Y004609D01*
Y004666D01*
X004948D01*
Y004642D01*
X004933D01*
Y004787D01*
D02*
G37*
G36*
X003704Y004587D02*
X003663D01*
Y004546D01*
X003664Y004546D01*
X003678Y004552D01*
X003690Y004560D01*
X003698Y004572D01*
X003704Y004586D01*
X003704Y004587D01*
D02*
G37*
G36*
X003637D02*
X003596D01*
X003596Y004586D01*
X003602Y004572D01*
X003610Y004560D01*
X003622Y004552D01*
X003636Y004546D01*
X003637Y004546D01*
Y004587D01*
D02*
G37*
G36*
X006691Y004535D02*
X006614D01*
Y004483D01*
X006691D01*
Y004535D01*
D02*
G37*
G36*
X007980Y004580D02*
X007966Y004579D01*
X007953Y004575D01*
X007941Y004568D01*
X007930Y004560D01*
X007922Y004549D01*
X007915Y004537D01*
X007911Y004524D01*
X007910Y004510D01*
X007911Y004496D01*
X007915Y004483D01*
X007922Y004471D01*
X007930Y004460D01*
X007941Y004452D01*
X007953Y004445D01*
X007966Y004441D01*
X007980Y004440D01*
X007994Y004441D01*
X008007Y004445D01*
X008019Y004452D01*
X008030Y004460D01*
X008038Y004471D01*
X008045Y004483D01*
X008049Y004496D01*
X008050Y004510D01*
X008049Y004524D01*
X008045Y004537D01*
X008038Y004549D01*
X008030Y004560D01*
X008019Y004568D01*
X008007Y004575D01*
X007994Y004579D01*
X007980Y004580D01*
D02*
G37*
G36*
X007260Y004457D02*
X007183D01*
Y004405D01*
X007260D01*
Y004457D01*
D02*
G37*
G36*
X006691D02*
X006614D01*
Y004405D01*
X006691D01*
Y004457D01*
D02*
G37*
G36*
X004805Y004427D02*
X004753D01*
Y004350D01*
X004805D01*
Y004427D01*
D02*
G37*
G36*
X004727D02*
X004675D01*
Y004350D01*
X004727D01*
Y004427D01*
D02*
G37*
G36*
X007980Y004360D02*
X007966Y004359D01*
X007953Y004355D01*
X007941Y004348D01*
X007930Y004340D01*
X007923Y004330D01*
X007255D01*
Y004340D01*
X007085D01*
Y004220D01*
X007255D01*
Y004240D01*
X007931D01*
X007941Y004232D01*
X007953Y004225D01*
X007966Y004221D01*
X007980Y004220D01*
X007994Y004221D01*
X008007Y004225D01*
X008019Y004232D01*
X008030Y004240D01*
X008038Y004251D01*
X008045Y004263D01*
X008049Y004276D01*
X008050Y004290D01*
X008049Y004304D01*
X008045Y004317D01*
X008038Y004329D01*
X008030Y004340D01*
X008019Y004348D01*
X008007Y004355D01*
X007994Y004359D01*
X007980Y004360D01*
D02*
G37*
G36*
X006000Y004430D02*
X005987Y004429D01*
X005975Y004424D01*
X005964Y004416D01*
X005956Y004405D01*
X005951Y004393D01*
X005950Y004380D01*
X005951Y004367D01*
X005956Y004355D01*
X005964Y004344D01*
X005975Y004336D01*
X005983Y004333D01*
X006068Y004247D01*
X006068Y004247D01*
X006078Y004240D01*
X006089Y004236D01*
X006101Y004234D01*
X006386D01*
Y004219D01*
X006556D01*
Y004234D01*
X006619D01*
Y004220D01*
X006789D01*
Y004234D01*
X006852D01*
Y004220D01*
X007022D01*
Y004340D01*
X006852D01*
Y004325D01*
X006789D01*
Y004340D01*
X006619D01*
Y004325D01*
X006556D01*
Y004340D01*
X006386D01*
Y004325D01*
X006119D01*
X006047Y004397D01*
X006044Y004405D01*
X006036Y004416D01*
X006025Y004424D01*
X006013Y004429D01*
X006000Y004430D01*
D02*
G37*
G36*
X001010Y004235D02*
X000933D01*
Y004183D01*
X001010D01*
Y004235D01*
D02*
G37*
G36*
X000907D02*
X000830D01*
Y004183D01*
X000907D01*
Y004235D01*
D02*
G37*
G36*
X004610Y004525D02*
X004490D01*
Y004448D01*
X004463Y004420D01*
X004457Y004413D01*
X004454Y004406D01*
X004453Y004397D01*
Y004252D01*
X004371D01*
Y004148D01*
X004433D01*
X004440Y004141D01*
X004439Y004135D01*
X004439Y004132D01*
X004433Y004125D01*
X004371D01*
Y004021D01*
X004564D01*
Y004125D01*
X004546D01*
X004539Y004132D01*
X004540Y004135D01*
X004539Y004141D01*
X004546Y004148D01*
X004564D01*
Y004234D01*
X004574Y004243D01*
X004575Y004243D01*
X004577Y004238D01*
Y004023D01*
X004755D01*
X004933D01*
Y004213D01*
X004942Y004217D01*
X004954Y004205D01*
X004953Y004200D01*
X004955Y004186D01*
X004960Y004174D01*
X004969Y004163D01*
X004979Y004155D01*
X004992Y004150D01*
X005006Y004148D01*
X005094D01*
X005108Y004150D01*
X005121Y004155D01*
X005131Y004163D01*
X005140Y004174D01*
X005145Y004186D01*
X005147Y004200D01*
X005145Y004214D01*
X005140Y004226D01*
X005131Y004237D01*
X005121Y004245D01*
X005108Y004250D01*
X005094Y004252D01*
X005006D01*
X005000Y004252D01*
X004961Y004291D01*
X004954Y004296D01*
X004947Y004299D01*
X004938Y004300D01*
X004618D01*
X004616Y004311D01*
X004611Y004323D01*
X004603Y004333D01*
X004593Y004341D01*
X004583Y004345D01*
X004585Y004355D01*
X004610D01*
Y004525D01*
D02*
G37*
G36*
X005883Y004184D02*
Y004143D01*
X005924D01*
X005924Y004144D01*
X005918Y004158D01*
X005910Y004170D01*
X005898Y004178D01*
X005884Y004184D01*
X005883Y004184D01*
D02*
G37*
G36*
X005857D02*
X005856Y004184D01*
X005842Y004178D01*
X005830Y004170D01*
X005822Y004158D01*
X005816Y004144D01*
X005816Y004143D01*
X005857D01*
Y004184D01*
D02*
G37*
G36*
X001010Y004157D02*
X000933D01*
Y004105D01*
X001010D01*
Y004157D01*
D02*
G37*
G36*
X000907D02*
X000830D01*
Y004105D01*
X000907D01*
Y004157D01*
D02*
G37*
G36*
X005857Y004117D02*
X005816D01*
X005816Y004116D01*
X005822Y004102D01*
X005830Y004090D01*
X005842Y004082D01*
X005856Y004076D01*
X005857Y004076D01*
Y004117D01*
D02*
G37*
G36*
X008332Y004173D02*
X008320Y004171D01*
X008308Y004168D01*
X008298Y004162D01*
X008288Y004154D01*
X008280Y004145D01*
X008274Y004134D01*
X008271Y004122D01*
X008270Y004110D01*
X008271Y004098D01*
X008274Y004086D01*
X008280Y004075D01*
X008282Y004072D01*
X008275Y004065D01*
X008272Y004068D01*
X008259Y004075D01*
X008246Y004079D01*
X008232Y004080D01*
X008219Y004079D01*
X008206Y004075D01*
X008193Y004068D01*
X008183Y004060D01*
X008174Y004049D01*
X008168Y004037D01*
X008164Y004024D01*
X008162Y004010D01*
X008164Y003996D01*
X008168Y003983D01*
X008174Y003971D01*
X008183Y003960D01*
X008193Y003951D01*
X008206Y003945D01*
X008219Y003941D01*
X008232Y003940D01*
X008246Y003941D01*
X008259Y003945D01*
X008272Y003951D01*
X008282Y003960D01*
X008286Y003965D01*
X008379D01*
X008383Y003960D01*
X008393Y003951D01*
X008406Y003945D01*
X008419Y003941D01*
X008432Y003940D01*
X008446Y003941D01*
X008459Y003945D01*
X008472Y003951D01*
X008482Y003960D01*
X008491Y003971D01*
X008497Y003983D01*
X008501Y003996D01*
X008503Y004010D01*
X008501Y004024D01*
X008497Y004037D01*
X008491Y004049D01*
X008482Y004060D01*
X008472Y004068D01*
X008459Y004075D01*
X008446Y004079D01*
X008432Y004080D01*
X008419Y004079D01*
X008406Y004075D01*
X008393Y004068D01*
X008390Y004065D01*
X008383Y004072D01*
X008385Y004075D01*
X008391Y004086D01*
X008394Y004098D01*
X008395Y004110D01*
X008394Y004122D01*
X008391Y004134D01*
X008385Y004145D01*
X008377Y004154D01*
X008367Y004162D01*
X008357Y004168D01*
X008345Y004171D01*
X008332Y004173D01*
D02*
G37*
G36*
X007473Y004074D02*
Y004033D01*
X007514D01*
X007514Y004034D01*
X007508Y004048D01*
X007500Y004060D01*
X007488Y004068D01*
X007474Y004074D01*
X007473Y004074D01*
D02*
G37*
G36*
X007447D02*
X007446Y004074D01*
X007432Y004068D01*
X007420Y004060D01*
X007412Y004048D01*
X007406Y004034D01*
X007406Y004033D01*
X007447D01*
Y004074D01*
D02*
G37*
G36*
X007514Y004007D02*
X007473D01*
Y003966D01*
X007474Y003966D01*
X007488Y003972D01*
X007500Y003980D01*
X007508Y003992D01*
X007514Y004006D01*
X007514Y004007D01*
D02*
G37*
G36*
X007447D02*
X007406D01*
X007406Y004006D01*
X007412Y003992D01*
X007420Y003980D01*
X007432Y003972D01*
X007446Y003966D01*
X007447Y003966D01*
Y004007D01*
D02*
G37*
G36*
X005929Y004117D02*
X005883D01*
Y004071D01*
X005984Y003970D01*
X005980Y003960D01*
X005965D01*
Y003883D01*
X006030D01*
X006095D01*
Y003960D01*
X006063D01*
Y003970D01*
X006062Y003978D01*
X006058Y003986D01*
X006053Y003993D01*
X005929Y004117D01*
D02*
G37*
G36*
X008432Y003880D02*
X008419Y003879D01*
X008406Y003875D01*
X008393Y003868D01*
X008383Y003860D01*
X008379Y003855D01*
X008286D01*
X008282Y003860D01*
X008272Y003868D01*
X008259Y003875D01*
X008246Y003879D01*
X008232Y003880D01*
X008219Y003879D01*
X008206Y003875D01*
X008193Y003868D01*
X008183Y003860D01*
X008174Y003849D01*
X008168Y003837D01*
X008164Y003824D01*
X008162Y003810D01*
X008164Y003796D01*
X008168Y003783D01*
X008174Y003771D01*
X008183Y003760D01*
X008193Y003751D01*
X008206Y003745D01*
X008219Y003741D01*
X008232Y003740D01*
X008246Y003741D01*
X008259Y003745D01*
X008272Y003751D01*
X008282Y003760D01*
X008286Y003765D01*
X008379D01*
X008383Y003760D01*
X008393Y003751D01*
X008406Y003745D01*
X008419Y003741D01*
X008432Y003740D01*
X008446Y003741D01*
X008459Y003745D01*
X008472Y003751D01*
X008482Y003760D01*
X008491Y003771D01*
X008497Y003783D01*
X008501Y003796D01*
X008503Y003810D01*
X008501Y003824D01*
X008497Y003837D01*
X008491Y003849D01*
X008482Y003860D01*
X008472Y003868D01*
X008459Y003875D01*
X008446Y003879D01*
X008432Y003880D01*
D02*
G37*
G36*
X005152Y003876D02*
X005063D01*
Y003832D01*
X005152D01*
Y003876D01*
D02*
G37*
G36*
X003727Y003829D02*
X003726Y003829D01*
X003712Y003823D01*
X003700Y003815D01*
X003692Y003803D01*
X003686Y003789D01*
X003686Y003788D01*
X003727D01*
Y003829D01*
D02*
G37*
G36*
X005417Y003821D02*
X005416Y003821D01*
X005402Y003815D01*
X005390Y003806D01*
X005382Y003795D01*
X005376Y003781D01*
X005376Y003779D01*
X005417D01*
Y003821D01*
D02*
G37*
G36*
X005152Y003806D02*
X005063D01*
Y003762D01*
X005152D01*
Y003806D01*
D02*
G37*
G36*
X004933Y003997D02*
X004768D01*
Y003781D01*
X004933D01*
Y003786D01*
X004948D01*
Y003762D01*
X005037D01*
Y003819D01*
Y003876D01*
X004948D01*
Y003852D01*
X004933D01*
Y003997D01*
D02*
G37*
G36*
X003727Y003762D02*
X003686D01*
X003686Y003761D01*
X003692Y003747D01*
X003700Y003735D01*
X003712Y003727D01*
X003726Y003721D01*
X003727Y003721D01*
Y003762D01*
D02*
G37*
G36*
X005417Y003754D02*
X005376D01*
X005376Y003752D01*
X005382Y003739D01*
X005390Y003727D01*
X005402Y003718D01*
X005416Y003713D01*
X005417Y003712D01*
Y003754D01*
D02*
G37*
G36*
X006095Y003857D02*
X006030D01*
X005965D01*
Y003780D01*
Y003707D01*
X006030D01*
X006095D01*
Y003780D01*
Y003857D01*
D02*
G37*
G36*
X004564Y004788D02*
X004371D01*
Y004771D01*
X004367Y004770D01*
X004358Y004767D01*
X004351Y004761D01*
X004351Y004761D01*
X004295Y004705D01*
X004289Y004698D01*
X004286Y004689D01*
X004285Y004680D01*
X004285Y004680D01*
Y003946D01*
Y003670D01*
X004285Y003670D01*
X004285Y003670D01*
Y003210D01*
X004285Y003210D01*
X004285Y003210D01*
Y002480D01*
Y001790D01*
X004285Y001790D01*
X004286Y001781D01*
X004289Y001772D01*
X004295Y001765D01*
X004335Y001725D01*
X004335Y001725D01*
X004342Y001719D01*
X004351Y001716D01*
X004360Y001715D01*
X004371D01*
Y001694D01*
X004564D01*
Y001798D01*
X004371D01*
Y001798D01*
X004365Y001795D01*
X004355Y001805D01*
Y002445D01*
X004371D01*
Y002428D01*
X004564D01*
Y002531D01*
X004371D01*
Y002515D01*
X004355D01*
Y003177D01*
X004371D01*
Y003161D01*
X004564D01*
Y003264D01*
X004371D01*
Y003248D01*
X004355D01*
Y003641D01*
X004447D01*
X004447Y003641D01*
X004456Y003642D01*
X004465Y003645D01*
X004472Y003651D01*
X004481Y003660D01*
X004490Y003656D01*
Y003595D01*
X004490Y003592D01*
Y003518D01*
X004371D01*
Y003415D01*
X004432D01*
X004440Y003405D01*
X004440Y003400D01*
X004440Y003399D01*
X004433Y003391D01*
X004371D01*
Y003288D01*
X004564D01*
Y003391D01*
X004547D01*
X004540Y003399D01*
X004540Y003400D01*
X004540Y003405D01*
X004548Y003415D01*
X004564D01*
Y003518D01*
X004555D01*
Y003535D01*
X004610D01*
Y003697D01*
X004620Y003706D01*
X004620Y003706D01*
X004633Y003707D01*
X004645Y003712D01*
X004656Y003720D01*
X004664Y003731D01*
X004669Y003743D01*
X004670Y003756D01*
X004669Y003769D01*
X004668Y003771D01*
X004674Y003781D01*
X004742D01*
Y003997D01*
X004577D01*
Y003785D01*
X004564D01*
Y003871D01*
X004371D01*
Y003767D01*
X004371Y003767D01*
X004371D01*
X004373Y003757D01*
X004371Y003754D01*
X004370Y003741D01*
X004371Y003728D01*
X004374Y003721D01*
X004368Y003711D01*
X004355D01*
Y003911D01*
X004371D01*
Y003894D01*
X004564D01*
Y003998D01*
X004371D01*
Y003981D01*
X004355D01*
Y004665D01*
X004374Y004684D01*
X004564D01*
Y004788D01*
D02*
G37*
G36*
X004805Y003710D02*
X004753D01*
Y003633D01*
X004805D01*
Y003710D01*
D02*
G37*
G36*
X004727D02*
X004675D01*
Y003633D01*
X004727D01*
Y003710D01*
D02*
G37*
G36*
X008420Y003684D02*
X008418Y003684D01*
X008404Y003680D01*
X008390Y003673D01*
X008379Y003663D01*
X008370Y003652D01*
X008363Y003639D01*
X008358Y003625D01*
X008358Y003623D01*
X008420D01*
Y003684D01*
D02*
G37*
G36*
X008245D02*
Y003623D01*
X008307D01*
X008307Y003625D01*
X008302Y003639D01*
X008295Y003652D01*
X008286Y003663D01*
X008275Y003673D01*
X008261Y003680D01*
X008247Y003684D01*
X008245Y003684D01*
D02*
G37*
G36*
X008220D02*
X008218Y003684D01*
X008204Y003680D01*
X008190Y003673D01*
X008179Y003663D01*
X008170Y003652D01*
X008163Y003639D01*
X008158Y003625D01*
X008158Y003623D01*
X008220D01*
Y003684D01*
D02*
G37*
G36*
X007700Y003670D02*
X007687Y003669D01*
X007675Y003664D01*
X007664Y003656D01*
X007656Y003645D01*
X007651Y003633D01*
X007650Y003620D01*
X007651Y003607D01*
X007656Y003595D01*
X007664Y003584D01*
X007675Y003576D01*
X007687Y003571D01*
X007700Y003570D01*
X007713Y003571D01*
X007725Y003576D01*
X007736Y003584D01*
X007744Y003595D01*
X007749Y003607D01*
X007750Y003620D01*
X007749Y003633D01*
X007744Y003645D01*
X007736Y003656D01*
X007725Y003664D01*
X007713Y003669D01*
X007700Y003670D01*
D02*
G37*
G36*
X008420Y003597D02*
X008358D01*
X008358Y003595D01*
X008363Y003581D01*
X008370Y003568D01*
X008379Y003556D01*
X008390Y003547D01*
X008404Y003540D01*
X008418Y003536D01*
X008420Y003535D01*
Y003597D01*
D02*
G37*
G36*
X008307D02*
X008245D01*
Y003535D01*
X008247Y003536D01*
X008261Y003540D01*
X008275Y003547D01*
X008286Y003556D01*
X008295Y003568D01*
X008302Y003581D01*
X008307Y003595D01*
X008307Y003597D01*
D02*
G37*
G36*
X008220D02*
X008158D01*
X008158Y003595D01*
X008163Y003581D01*
X008170Y003568D01*
X008179Y003556D01*
X008190Y003547D01*
X008204Y003540D01*
X008218Y003536D01*
X008220Y003535D01*
Y003597D01*
D02*
G37*
G36*
X006095Y003681D02*
X006030D01*
X005965D01*
Y003604D01*
Y003531D01*
X006030D01*
X006095D01*
Y003604D01*
Y003681D01*
D02*
G37*
G36*
X004893Y003719D02*
X004880Y003718D01*
X004868Y003713D01*
X004858Y003705D01*
X004850Y003694D01*
X004845Y003682D01*
X004843Y003669D01*
X004845Y003656D01*
X004850Y003644D01*
X004858Y003633D01*
X004861Y003631D01*
Y003579D01*
X004862Y003570D01*
X004865Y003562D01*
X004870Y003556D01*
X004911Y003515D01*
X004908Y003505D01*
X004773D01*
Y003530D01*
X004805D01*
Y003607D01*
X004740D01*
X004675D01*
Y003530D01*
X004707D01*
Y003505D01*
X004577D01*
Y003289D01*
X004755D01*
X004933D01*
Y003480D01*
X004942Y003484D01*
X004954Y003472D01*
X004953Y003467D01*
X004955Y003453D01*
X004960Y003441D01*
X004969Y003430D01*
X004979Y003421D01*
X004992Y003416D01*
X005006Y003414D01*
X005094D01*
X005108Y003416D01*
X005121Y003421D01*
X005131Y003430D01*
X005140Y003441D01*
X005145Y003453D01*
X005147Y003467D01*
X005145Y003480D01*
X005140Y003493D01*
X005131Y003504D01*
X005121Y003512D01*
X005108Y003517D01*
X005094Y003519D01*
X005006D01*
X005000Y003518D01*
X004926Y003592D01*
Y003631D01*
X004929Y003633D01*
X004937Y003644D01*
X004942Y003656D01*
X004944Y003669D01*
X004942Y003682D01*
X004937Y003694D01*
X004929Y003705D01*
X004919Y003713D01*
X004906Y003718D01*
X004893Y003719D01*
D02*
G37*
G36*
X002557Y003537D02*
X002516D01*
X002516Y003536D01*
X002522Y003522D01*
X002530Y003510D01*
X002542Y003502D01*
X002556Y003496D01*
X002557Y003496D01*
Y003537D01*
D02*
G37*
G36*
X008420Y003484D02*
X008418Y003484D01*
X008404Y003480D01*
X008390Y003473D01*
X008379Y003463D01*
X008370Y003452D01*
X008363Y003439D01*
X008358Y003425D01*
X008358Y003423D01*
X008420D01*
Y003484D01*
D02*
G37*
G36*
X008245D02*
Y003423D01*
X008307D01*
X008307Y003425D01*
X008302Y003439D01*
X008295Y003452D01*
X008286Y003463D01*
X008275Y003473D01*
X008261Y003480D01*
X008247Y003484D01*
X008245Y003484D01*
D02*
G37*
G36*
X008220D02*
X008218Y003484D01*
X008204Y003480D01*
X008190Y003473D01*
X008179Y003463D01*
X008170Y003452D01*
X008163Y003439D01*
X008158Y003425D01*
X008158Y003423D01*
X008220D01*
Y003484D01*
D02*
G37*
G36*
X006095Y003506D02*
X006030D01*
X005965D01*
Y003428D01*
Y003355D01*
X006030D01*
X006095D01*
Y003428D01*
Y003506D01*
D02*
G37*
G36*
X008420Y003397D02*
X008358D01*
X008358Y003395D01*
X008363Y003381D01*
X008370Y003368D01*
X008379Y003356D01*
X008390Y003347D01*
X008404Y003340D01*
X008418Y003336D01*
X008420Y003335D01*
Y003397D01*
D02*
G37*
G36*
X008307D02*
X008245D01*
Y003335D01*
X008247Y003336D01*
X008261Y003340D01*
X008275Y003347D01*
X008286Y003356D01*
X008295Y003368D01*
X008302Y003381D01*
X008307Y003395D01*
X008307Y003397D01*
D02*
G37*
G36*
X008220D02*
X008158D01*
X008158Y003395D01*
X008163Y003381D01*
X008170Y003368D01*
X008179Y003356D01*
X008190Y003347D01*
X008204Y003340D01*
X008218Y003336D01*
X008220Y003335D01*
Y003397D01*
D02*
G37*
G36*
X007233Y003334D02*
Y003293D01*
X007274D01*
X007274Y003294D01*
X007268Y003308D01*
X007260Y003320D01*
X007248Y003328D01*
X007234Y003334D01*
X007233Y003334D01*
D02*
G37*
G36*
X007207D02*
X007206Y003334D01*
X007192Y003328D01*
X007180Y003320D01*
X007172Y003308D01*
X007166Y003294D01*
X007166Y003293D01*
X007207D01*
Y003334D01*
D02*
G37*
G36*
X007030Y003380D02*
X007017Y003379D01*
X007005Y003374D01*
X006994Y003366D01*
X006986Y003355D01*
X006981Y003343D01*
X006980Y003330D01*
X006981Y003317D01*
X006986Y003305D01*
X006994Y003294D01*
X007005Y003286D01*
X007017Y003281D01*
X007030Y003280D01*
X007043Y003281D01*
X007055Y003286D01*
X007066Y003294D01*
X007074Y003305D01*
X007079Y003317D01*
X007080Y003330D01*
X007079Y003343D01*
X007074Y003355D01*
X007066Y003366D01*
X007055Y003374D01*
X007043Y003379D01*
X007030Y003380D01*
D02*
G37*
G36*
X008432Y003280D02*
X008419Y003279D01*
X008406Y003275D01*
X008393Y003268D01*
X008383Y003260D01*
X008379Y003255D01*
X008286D01*
X008282Y003260D01*
X008272Y003268D01*
X008259Y003275D01*
X008246Y003279D01*
X008232Y003280D01*
X008219Y003279D01*
X008206Y003275D01*
X008193Y003268D01*
X008183Y003260D01*
X008175Y003250D01*
X008115D01*
Y003260D01*
X007945D01*
Y003140D01*
X008115D01*
Y003160D01*
X008183D01*
X008193Y003151D01*
X008206Y003145D01*
X008219Y003141D01*
X008232Y003140D01*
X008246Y003141D01*
X008259Y003145D01*
X008272Y003151D01*
X008282Y003160D01*
X008286Y003165D01*
X008379D01*
X008383Y003160D01*
X008393Y003151D01*
X008406Y003145D01*
X008419Y003141D01*
X008432Y003140D01*
X008446Y003141D01*
X008459Y003145D01*
X008472Y003151D01*
X008482Y003160D01*
X008491Y003171D01*
X008497Y003183D01*
X008501Y003196D01*
X008503Y003210D01*
X008501Y003224D01*
X008497Y003237D01*
X008491Y003249D01*
X008482Y003260D01*
X008472Y003268D01*
X008459Y003275D01*
X008446Y003279D01*
X008432Y003280D01*
D02*
G37*
G36*
X005401Y003145D02*
X005399Y003145D01*
X005386Y003140D01*
X005374Y003131D01*
X005369Y003124D01*
X005152D01*
Y003143D01*
X005063D01*
Y003086D01*
Y003029D01*
X005152D01*
Y003058D01*
X005369D01*
X005374Y003052D01*
X005386Y003043D01*
X005399Y003037D01*
X005401Y003037D01*
Y003091D01*
Y003145D01*
D02*
G37*
G36*
X008432Y003080D02*
X008419Y003079D01*
X008406Y003075D01*
X008393Y003068D01*
X008383Y003060D01*
X008379Y003055D01*
X008286D01*
X008282Y003060D01*
X008272Y003068D01*
X008259Y003075D01*
X008246Y003079D01*
X008232Y003080D01*
X008219Y003079D01*
X008206Y003075D01*
X008193Y003068D01*
X008183Y003060D01*
X008179Y003055D01*
X008115D01*
Y003070D01*
X007945D01*
Y002950D01*
X008115D01*
Y002965D01*
X008179D01*
X008183Y002960D01*
X008193Y002951D01*
X008206Y002945D01*
X008219Y002941D01*
X008232Y002940D01*
X008246Y002941D01*
X008259Y002945D01*
X008272Y002951D01*
X008282Y002960D01*
X008286Y002965D01*
X008379D01*
X008383Y002960D01*
X008393Y002951D01*
X008406Y002945D01*
X008419Y002941D01*
X008432Y002940D01*
X008446Y002941D01*
X008459Y002945D01*
X008472Y002951D01*
X008482Y002960D01*
X008491Y002971D01*
X008497Y002983D01*
X008501Y002996D01*
X008503Y003010D01*
X008501Y003024D01*
X008497Y003037D01*
X008491Y003049D01*
X008482Y003060D01*
X008472Y003068D01*
X008459Y003075D01*
X008446Y003079D01*
X008432Y003080D01*
D02*
G37*
G36*
X004742Y003264D02*
X004577D01*
Y003048D01*
X004742D01*
Y003264D01*
D02*
G37*
G36*
X006233Y003084D02*
Y003043D01*
X006274D01*
X006274Y003044D01*
X006268Y003058D01*
X006260Y003070D01*
X006248Y003078D01*
X006234Y003084D01*
X006233Y003084D01*
D02*
G37*
G36*
X006207D02*
X006206Y003084D01*
X006192Y003078D01*
X006180Y003070D01*
X006172Y003058D01*
X006166Y003044D01*
X006166Y003043D01*
X006207D01*
Y003084D01*
D02*
G37*
G36*
X004933Y003264D02*
X004768D01*
Y003048D01*
X004933D01*
Y003053D01*
X004948D01*
Y003029D01*
X005037D01*
Y003086D01*
Y003143D01*
X004948D01*
Y003118D01*
X004933D01*
Y003264D01*
D02*
G37*
G36*
X006274Y003017D02*
X006233D01*
Y002976D01*
X006234Y002976D01*
X006248Y002982D01*
X006260Y002990D01*
X006268Y003002D01*
X006274Y003016D01*
X006274Y003017D01*
D02*
G37*
G36*
X006207D02*
X006166D01*
X006166Y003016D01*
X006172Y003002D01*
X006180Y002990D01*
X006192Y002982D01*
X006206Y002976D01*
X006207Y002976D01*
Y003017D01*
D02*
G37*
G36*
X007680Y003060D02*
X007667Y003059D01*
X007659Y003055D01*
X006509D01*
X006498Y003054D01*
X006487Y003049D01*
X006477Y003042D01*
X006448Y003013D01*
X006441Y003003D01*
X006436Y002992D01*
X006435Y002981D01*
Y002922D01*
X006428Y002915D01*
X006419Y002915D01*
X006409Y002915D01*
X006294D01*
Y002625D01*
X006409D01*
X006416Y002625D01*
X006426Y002625D01*
X006541D01*
Y002915D01*
X006525D01*
Y002962D01*
X006528Y002965D01*
X007659D01*
X007667Y002961D01*
X007680Y002960D01*
X007693Y002961D01*
X007705Y002966D01*
X007716Y002974D01*
X007724Y002985D01*
X007729Y002997D01*
X007730Y003010D01*
X007729Y003023D01*
X007724Y003035D01*
X007716Y003046D01*
X007705Y003054D01*
X007693Y003059D01*
X007680Y003060D01*
D02*
G37*
G36*
X004564Y003137D02*
X004371D01*
Y003034D01*
X004371D01*
X004374Y003030D01*
X004371Y003023D01*
X004370Y003010D01*
X004371Y002997D01*
X004376Y002985D01*
X004384Y002974D01*
X004395Y002966D01*
X004407Y002961D01*
X004420Y002960D01*
X004433Y002961D01*
X004445Y002966D01*
X004456Y002974D01*
X004464Y002985D01*
X004469Y002997D01*
X004470Y003010D01*
X004469Y003023D01*
X004468Y003026D01*
X004473Y003034D01*
X004564D01*
Y003137D01*
D02*
G37*
G36*
X004805Y003010D02*
X004753D01*
Y002933D01*
X004805D01*
Y003010D01*
D02*
G37*
G36*
X004727D02*
X004675D01*
Y002933D01*
X004727D01*
Y003010D01*
D02*
G37*
G36*
X008432Y002880D02*
X008419Y002879D01*
X008406Y002875D01*
X008393Y002868D01*
X008383Y002860D01*
X008379Y002855D01*
X008286D01*
X008282Y002860D01*
X008272Y002868D01*
X008259Y002875D01*
X008246Y002879D01*
X008232Y002880D01*
X008219Y002879D01*
X008206Y002875D01*
X008193Y002868D01*
X008183Y002860D01*
X008179Y002855D01*
X008115D01*
Y002870D01*
X007945D01*
Y002750D01*
X008115D01*
Y002765D01*
X008179D01*
X008183Y002760D01*
X008193Y002751D01*
X008206Y002745D01*
X008219Y002741D01*
X008232Y002740D01*
X008246Y002741D01*
X008259Y002745D01*
X008272Y002751D01*
X008282Y002760D01*
X008286Y002765D01*
X008379D01*
X008383Y002760D01*
X008393Y002751D01*
X008406Y002745D01*
X008419Y002741D01*
X008432Y002740D01*
X008446Y002741D01*
X008459Y002745D01*
X008472Y002751D01*
X008482Y002760D01*
X008491Y002771D01*
X008497Y002783D01*
X008501Y002796D01*
X008503Y002810D01*
X008501Y002824D01*
X008497Y002837D01*
X008491Y002849D01*
X008482Y002860D01*
X008472Y002868D01*
X008459Y002875D01*
X008446Y002879D01*
X008432Y002880D01*
D02*
G37*
G36*
X004805Y002907D02*
X004740D01*
X004675D01*
Y002830D01*
X004707D01*
Y002772D01*
X004577D01*
Y002556D01*
X004755D01*
X004933D01*
Y002747D01*
X004942Y002750D01*
X004954Y002738D01*
X004953Y002733D01*
X004955Y002720D01*
X004960Y002707D01*
X004969Y002696D01*
X004979Y002688D01*
X004992Y002683D01*
X005006Y002681D01*
X005094D01*
X005108Y002683D01*
X005121Y002688D01*
X005131Y002696D01*
X005140Y002707D01*
X005145Y002720D01*
X005147Y002733D01*
X005145Y002747D01*
X005140Y002759D01*
X005131Y002770D01*
X005121Y002779D01*
X005108Y002784D01*
X005094Y002786D01*
X005006D01*
X005000Y002785D01*
X004926Y002860D01*
X004919Y002865D01*
X004916Y002866D01*
X004912Y002872D01*
X004901Y002880D01*
X004889Y002885D01*
X004876Y002887D01*
X004863Y002885D01*
X004851Y002880D01*
X004840Y002872D01*
X004832Y002862D01*
X004827Y002849D01*
X004825Y002836D01*
X004827Y002823D01*
X004832Y002811D01*
X004840Y002801D01*
X004851Y002793D01*
X004863Y002788D01*
X004876Y002786D01*
X004889Y002788D01*
X004900Y002792D01*
X004911Y002781D01*
X004908Y002772D01*
X004773D01*
Y002830D01*
X004805D01*
Y002907D01*
D02*
G37*
G36*
X008432Y002680D02*
X008419Y002679D01*
X008406Y002675D01*
X008393Y002668D01*
X008383Y002660D01*
X008379Y002655D01*
X008286D01*
X008282Y002660D01*
X008272Y002668D01*
X008259Y002675D01*
X008246Y002679D01*
X008232Y002680D01*
X008219Y002679D01*
X008206Y002675D01*
X008193Y002668D01*
X008184Y002660D01*
X008115D01*
Y002680D01*
X007945D01*
Y002560D01*
X008115D01*
Y002570D01*
X008175D01*
X008183Y002560D01*
X008193Y002551D01*
X008206Y002545D01*
X008219Y002541D01*
X008232Y002540D01*
X008246Y002541D01*
X008259Y002545D01*
X008272Y002551D01*
X008282Y002560D01*
X008286Y002565D01*
X008379D01*
X008383Y002560D01*
X008393Y002551D01*
X008406Y002545D01*
X008419Y002541D01*
X008432Y002540D01*
X008446Y002541D01*
X008459Y002545D01*
X008472Y002551D01*
X008482Y002560D01*
X008491Y002571D01*
X008497Y002583D01*
X008501Y002596D01*
X008503Y002610D01*
X008501Y002624D01*
X008497Y002637D01*
X008491Y002649D01*
X008482Y002660D01*
X008472Y002668D01*
X008459Y002675D01*
X008446Y002679D01*
X008432Y002680D01*
D02*
G37*
G36*
X007161Y002915D02*
X007154Y002915D01*
X007037D01*
Y002625D01*
X007053D01*
Y002599D01*
X007054Y002588D01*
X007059Y002577D01*
X007066Y002567D01*
X007185Y002448D01*
X007185Y002448D01*
X007195Y002441D01*
X007206Y002436D01*
X007217Y002435D01*
X007217Y002435D01*
X007599D01*
X007607Y002431D01*
X007620Y002430D01*
X007633Y002431D01*
X007645Y002436D01*
X007656Y002444D01*
X007664Y002455D01*
X007669Y002467D01*
X007670Y002480D01*
X007669Y002493D01*
X007664Y002505D01*
X007656Y002516D01*
X007645Y002524D01*
X007633Y002529D01*
X007620Y002530D01*
X007607Y002529D01*
X007599Y002525D01*
X007236D01*
X007146Y002615D01*
X007151Y002625D01*
X007161Y002625D01*
X007169Y002625D01*
X007286D01*
Y002915D01*
X007169D01*
X007161Y002915D01*
D02*
G37*
G36*
X004610Y003005D02*
X004490D01*
Y002946D01*
X004486Y002943D01*
X004467Y002924D01*
X004462Y002917D01*
X004458Y002909D01*
X004457Y002901D01*
Y002785D01*
X004371D01*
Y002682D01*
X004434D01*
X004441Y002672D01*
X004440Y002663D01*
X004436Y002658D01*
X004371D01*
Y002555D01*
X004564D01*
Y002658D01*
X004544D01*
X004540Y002663D01*
X004539Y002672D01*
X004546Y002682D01*
X004564D01*
Y002785D01*
X004523D01*
Y002835D01*
X004610D01*
Y003005D01*
D02*
G37*
G36*
X000814Y002476D02*
X000720D01*
Y002423D01*
X000814D01*
Y002476D01*
D02*
G37*
G36*
X007789Y002915D02*
X007779Y002915D01*
X007664D01*
Y002625D01*
X007779D01*
X007786Y002625D01*
X007798Y002625D01*
X007805Y002618D01*
Y002491D01*
X007779Y002465D01*
X007775Y002464D01*
X007765Y002456D01*
X007757Y002445D01*
X007752Y002433D01*
X007750Y002420D01*
X007752Y002407D01*
X007757Y002395D01*
X007765Y002384D01*
X007775Y002376D01*
X007787Y002371D01*
X007800Y002370D01*
X007814Y002371D01*
X007826Y002376D01*
X007836Y002384D01*
X007844Y002395D01*
X007849Y002407D01*
X007849Y002407D01*
X007882Y002440D01*
X007889Y002450D01*
X007891Y002454D01*
X007894Y002460D01*
X007895Y002472D01*
X007895Y002472D01*
Y002625D01*
X007911D01*
Y002915D01*
X007796D01*
X007789Y002915D01*
D02*
G37*
G36*
X000814Y002397D02*
X000720D01*
Y002344D01*
X000814D01*
Y002397D01*
D02*
G37*
G36*
X000520Y002397D02*
X000458D01*
X000458Y002395D01*
X000462Y002381D01*
X000469Y002368D01*
X000479Y002356D01*
X000490Y002347D01*
X000503Y002340D01*
X000517Y002336D01*
X000520Y002335D01*
Y002397D01*
D02*
G37*
G36*
X004742Y002531D02*
X004577D01*
Y002315D01*
X004742D01*
Y002531D01*
D02*
G37*
G36*
X004564Y002404D02*
X004371D01*
Y002301D01*
X004371Y002301D01*
X004371D01*
X004371Y002291D01*
X004370Y002280D01*
X004371Y002267D01*
X004376Y002255D01*
X004384Y002244D01*
X004395Y002236D01*
X004407Y002231D01*
X004420Y002230D01*
X004433Y002231D01*
X004445Y002236D01*
X004456Y002244D01*
X004464Y002255D01*
X004469Y002267D01*
X004470Y002280D01*
X004469Y002291D01*
X004475Y002301D01*
X004564D01*
Y002404D01*
D02*
G37*
G36*
X004805Y002270D02*
X004753D01*
Y002193D01*
X004805D01*
Y002270D01*
D02*
G37*
G36*
X005423Y002234D02*
Y002193D01*
X005464D01*
X005464Y002194D01*
X005458Y002208D01*
X005450Y002220D01*
X005438Y002228D01*
X005424Y002234D01*
X005423Y002234D01*
D02*
G37*
G36*
X005152Y002409D02*
X005063D01*
Y002352D01*
Y002295D01*
X005152D01*
Y002320D01*
X005224D01*
X005351Y002193D01*
X005397D01*
Y002239D01*
X005261Y002376D01*
X005254Y002381D01*
X005246Y002384D01*
X005238Y002385D01*
X005152D01*
Y002409D01*
D02*
G37*
G36*
X004727Y002270D02*
X004675D01*
Y002193D01*
X004727D01*
Y002270D01*
D02*
G37*
G36*
X002730Y002284D02*
X002370D01*
Y002179D01*
X002239D01*
X002233Y002184D01*
X002223Y002190D01*
X002212Y002193D01*
X002200Y002194D01*
X002188Y002193D01*
X002177Y002190D01*
X002167Y002184D01*
X002157Y002177D01*
X002150Y002167D01*
X002144Y002157D01*
X002141Y002146D01*
X002140Y002134D01*
X002141Y002122D01*
X002144Y002111D01*
X002150Y002100D01*
X002157Y002091D01*
X002167Y002084D01*
X002177Y002078D01*
X002188Y002075D01*
X002200Y002074D01*
X002212Y002075D01*
X002223Y002078D01*
X002233Y002084D01*
X002239Y002089D01*
X002370D01*
Y001984D01*
X002495D01*
Y001915D01*
X002480D01*
Y001745D01*
Y001578D01*
X002483D01*
X002488Y001569D01*
X002486Y001564D01*
X002485Y001550D01*
X002486Y001536D01*
X002488Y001532D01*
X002481Y001522D01*
X002370D01*
Y001222D01*
X002657D01*
X002660Y001222D01*
X002663Y001222D01*
X002730D01*
Y001345D01*
X002740Y001350D01*
X002745Y001346D01*
X002757Y001341D01*
X002770Y001340D01*
X002783Y001341D01*
X002795Y001346D01*
X002806Y001354D01*
X002814Y001365D01*
X002819Y001377D01*
X002820Y001390D01*
X002819Y001403D01*
X002814Y001415D01*
X002806Y001426D01*
X002795Y001434D01*
X002783Y001439D01*
X002770Y001440D01*
X002757Y001439D01*
X002745Y001434D01*
X002740Y001430D01*
X002730Y001435D01*
Y001522D01*
X002599D01*
X002592Y001532D01*
X002594Y001536D01*
X002595Y001550D01*
X002594Y001564D01*
X002592Y001569D01*
X002597Y001578D01*
X002600D01*
Y001745D01*
Y001915D01*
X002585D01*
Y001984D01*
X002730D01*
Y002089D01*
X002927D01*
Y001338D01*
X002924Y001337D01*
X002917Y001336D01*
X002910Y001346D01*
X002898Y001355D01*
X002884Y001360D01*
X002883Y001360D01*
Y001306D01*
Y001252D01*
X002884Y001252D01*
X002898Y001258D01*
X002910Y001267D01*
X002917Y001276D01*
X002924Y001275D01*
X002927Y001274D01*
Y001085D01*
X002912D01*
Y000915D01*
Y000748D01*
X003032D01*
Y000915D01*
Y001085D01*
X003018D01*
Y001248D01*
X003028Y001254D01*
X003033Y001252D01*
X003035Y001252D01*
Y001306D01*
Y001360D01*
X003033Y001360D01*
X003028Y001358D01*
X003018Y001365D01*
Y002089D01*
X003790D01*
Y001982D01*
X004150D01*
Y002282D01*
X003790D01*
Y002179D01*
X002730D01*
Y002284D01*
D02*
G37*
G36*
X005464Y002167D02*
X005423D01*
Y002126D01*
X005424Y002126D01*
X005438Y002132D01*
X005450Y002140D01*
X005458Y002152D01*
X005464Y002166D01*
X005464Y002167D01*
D02*
G37*
G36*
X005397D02*
X005356D01*
X005356Y002166D01*
X005362Y002152D01*
X005370Y002140D01*
X005382Y002132D01*
X005396Y002126D01*
X005397Y002126D01*
Y002167D01*
D02*
G37*
G36*
X000815Y002125D02*
X000695D01*
Y002070D01*
X000599D01*
X000599Y002073D01*
X000594Y002085D01*
X000586Y002096D01*
X000575Y002104D01*
X000563Y002109D01*
X000550Y002110D01*
X000537Y002109D01*
X000525Y002104D01*
X000514Y002096D01*
X000506Y002085D01*
X000501Y002073D01*
X000500Y002060D01*
X000501Y002047D01*
X000506Y002035D01*
X000514Y002024D01*
X000525Y002016D01*
X000537Y002011D01*
X000550Y002010D01*
X000563Y002011D01*
X000567Y002013D01*
X000573Y002011D01*
X000581Y002010D01*
X000695D01*
Y001955D01*
X000695D01*
Y001903D01*
X000567D01*
X000559Y001902D01*
X000552Y001899D01*
X000546Y001894D01*
X000521Y001870D01*
X000514Y001870D01*
X000501Y001869D01*
X000489Y001864D01*
X000479Y001856D01*
X000471Y001845D01*
X000466Y001833D01*
X000464Y001820D01*
X000466Y001807D01*
X000471Y001795D01*
X000479Y001784D01*
X000489Y001776D01*
X000501Y001771D01*
X000514Y001770D01*
X000528Y001771D01*
X000540Y001776D01*
X000550Y001784D01*
X000558Y001795D01*
X000563Y001807D01*
X000565Y001820D01*
X000564Y001827D01*
X000580Y001842D01*
X000695D01*
Y001790D01*
X000695D01*
Y001663D01*
X000693Y001661D01*
X000687Y001659D01*
X000681Y001654D01*
X000569Y001542D01*
X000564Y001535D01*
X000561Y001528D01*
X000560Y001520D01*
Y001437D01*
X000556Y001433D01*
X000551Y001421D01*
X000550Y001408D01*
X000551Y001395D01*
X000556Y001383D01*
X000564Y001372D01*
X000575Y001364D01*
X000587Y001359D01*
X000600Y001357D01*
X000613Y001359D01*
X000625Y001364D01*
X000636Y001372D01*
X000644Y001383D01*
X000649Y001395D01*
X000650Y001408D01*
X000649Y001421D01*
X000644Y001433D01*
X000636Y001443D01*
X000625Y001451D01*
X000620Y001454D01*
Y001508D01*
X000686Y001573D01*
X000695Y001569D01*
Y001453D01*
X000715D01*
X000718Y001446D01*
X000719Y001443D01*
X000712Y001433D01*
X000706Y001421D01*
X000705Y001408D01*
X000706Y001395D01*
X000712Y001383D01*
X000720Y001372D01*
X000730Y001364D01*
X000742Y001359D01*
X000755Y001357D01*
X000768Y001359D01*
X000780Y001364D01*
X000791Y001372D01*
X000799Y001383D01*
X000804Y001395D01*
X000806Y001408D01*
X000804Y001421D01*
X000799Y001433D01*
X000791Y001443D01*
X000792Y001446D01*
X000795Y001453D01*
X000815D01*
Y001620D01*
Y001788D01*
X000815D01*
Y001958D01*
X000815D01*
Y002125D01*
D02*
G37*
G36*
X000932Y002130D02*
X000880D01*
Y002053D01*
X000932D01*
Y002130D01*
D02*
G37*
G36*
X004805Y002167D02*
X004740D01*
X004675D01*
Y002090D01*
X004707D01*
Y002039D01*
X004577D01*
Y001823D01*
X004755D01*
X004933D01*
Y002008D01*
X004942Y002012D01*
X004953Y002000D01*
X004953Y002000D01*
X004955Y001986D01*
X004960Y001974D01*
X004969Y001963D01*
X004979Y001955D01*
X004992Y001950D01*
X005006Y001948D01*
X005094D01*
X005108Y001950D01*
X005121Y001955D01*
X005131Y001963D01*
X005140Y001974D01*
X005145Y001986D01*
X005147Y002000D01*
X005145Y002014D01*
X005140Y002026D01*
X005131Y002037D01*
X005121Y002045D01*
X005108Y002050D01*
X005094Y002052D01*
X005006D01*
X004995Y002051D01*
X004940Y002106D01*
X004936Y002109D01*
X004934Y002115D01*
X004926Y002126D01*
X004915Y002134D01*
X004903Y002139D01*
X004890Y002140D01*
X004877Y002139D01*
X004865Y002134D01*
X004854Y002126D01*
X004846Y002115D01*
X004841Y002103D01*
X004840Y002090D01*
X004841Y002077D01*
X004846Y002065D01*
X004854Y002054D01*
X004862Y002049D01*
X004858Y002039D01*
X004773D01*
Y002090D01*
X004805D01*
Y002167D01*
D02*
G37*
G36*
X001010Y002027D02*
X000880D01*
Y001950D01*
X000880D01*
Y001885D01*
X000945D01*
X001011D01*
Y001963D01*
X001010D01*
Y002027D01*
D02*
G37*
G36*
X004610Y002265D02*
X004490D01*
Y002208D01*
X004484Y002203D01*
X004467Y002186D01*
X004461Y002179D01*
X004458Y002171D01*
X004457Y002162D01*
Y002052D01*
X004371D01*
Y001948D01*
X004431D01*
X004440Y001938D01*
X004440Y001934D01*
X004440Y001932D01*
X004433Y001925D01*
X004371D01*
Y001821D01*
X004564D01*
Y001925D01*
X004547D01*
X004540Y001932D01*
X004540Y001934D01*
X004540Y001938D01*
X004549Y001948D01*
X004564D01*
Y002052D01*
X004522D01*
Y002095D01*
X004610D01*
Y002265D01*
D02*
G37*
G36*
X007800Y001920D02*
X007787Y001919D01*
X007775Y001914D01*
X007764Y001906D01*
X007756Y001895D01*
X007751Y001883D01*
X007750Y001870D01*
X007751Y001857D01*
X007756Y001845D01*
X007764Y001834D01*
X007775Y001826D01*
X007787Y001821D01*
X007800Y001820D01*
X007813Y001821D01*
X007825Y001826D01*
X007836Y001834D01*
X007844Y001845D01*
X007849Y001857D01*
X007850Y001870D01*
X007849Y001883D01*
X007844Y001895D01*
X007836Y001906D01*
X007825Y001914D01*
X007813Y001919D01*
X007800Y001920D01*
D02*
G37*
G36*
X005414Y001800D02*
X005401Y001799D01*
X005389Y001794D01*
X005378Y001786D01*
X005373Y001779D01*
X005146D01*
Y001798D01*
X004954D01*
Y001694D01*
X005146D01*
Y001713D01*
X005380D01*
X005389Y001706D01*
X005401Y001701D01*
X005414Y001700D01*
X005427Y001701D01*
X005439Y001706D01*
X005449Y001714D01*
X005457Y001725D01*
X005462Y001737D01*
X005464Y001750D01*
X005462Y001763D01*
X005457Y001775D01*
X005449Y001786D01*
X005439Y001794D01*
X005427Y001799D01*
X005414Y001800D01*
D02*
G37*
G36*
X001011Y001860D02*
X000945D01*
X000880D01*
Y001796D01*
X000880D01*
Y001718D01*
X001010D01*
Y001782D01*
X001011D01*
Y001860D01*
D02*
G37*
G36*
X004371Y001671D02*
X004361Y001669D01*
X004350Y001670D01*
X004337Y001669D01*
X004325Y001664D01*
X004314Y001656D01*
X004306Y001645D01*
X004301Y001633D01*
X004300Y001620D01*
X004301Y001607D01*
X004306Y001595D01*
X004314Y001584D01*
X004325Y001576D01*
X004337Y001571D01*
X004350Y001570D01*
X004361Y001571D01*
X004371Y001567D01*
Y001567D01*
X004564D01*
Y001671D01*
X004371D01*
X004371Y001671D01*
D02*
G37*
G36*
X002183Y001715D02*
X002105D01*
Y001663D01*
X002183D01*
Y001715D01*
D02*
G37*
G36*
X005582Y001704D02*
Y001650D01*
X005557D01*
Y001704D01*
X005555Y001704D01*
X005542Y001698D01*
X005530Y001690D01*
X005521Y001678D01*
X005516Y001664D01*
X005514Y001654D01*
X005152D01*
Y001676D01*
X005063D01*
Y001619D01*
Y001562D01*
X005152D01*
Y001584D01*
X005531D01*
X005531Y001584D01*
X005540Y001585D01*
X005548Y001588D01*
X005555Y001594D01*
X005565Y001590D01*
X005810Y001346D01*
Y001250D01*
X005789D01*
Y001220D01*
X005779Y001218D01*
X005779Y001218D01*
X005771Y001227D01*
X005762Y001235D01*
X005751Y001241D01*
X005740Y001244D01*
X005728Y001245D01*
X005716Y001244D01*
X005705Y001241D01*
X005694Y001235D01*
X005685Y001227D01*
X005677Y001218D01*
X005672Y001208D01*
X005668Y001196D01*
X005667Y001184D01*
Y001016D01*
X005668Y001004D01*
X005672Y000992D01*
X005677Y000982D01*
X005683Y000975D01*
Y000791D01*
X005679Y000783D01*
X005678Y000770D01*
X005679Y000757D01*
X005684Y000745D01*
X005692Y000734D01*
X005703Y000726D01*
X005715Y000721D01*
X005728Y000720D01*
X005741Y000721D01*
X005753Y000726D01*
X005764Y000734D01*
X005772Y000745D01*
X005777Y000757D01*
X005778Y000770D01*
X005777Y000783D01*
X005773Y000791D01*
Y000975D01*
X005779Y000981D01*
X005789Y000978D01*
Y000950D01*
X005842D01*
Y001100D01*
X005868D01*
Y000950D01*
X005915D01*
Y000855D01*
X005750Y000690D01*
X005654D01*
X005645Y000689D01*
X005637Y000686D01*
X005629Y000680D01*
X005629Y000680D01*
X005575Y000625D01*
X005536D01*
X005536Y000626D01*
X005525Y000634D01*
X005513Y000639D01*
X005500Y000640D01*
X005487Y000639D01*
X005475Y000634D01*
X005464Y000626D01*
X005456Y000615D01*
X005451Y000603D01*
X005450Y000590D01*
X005451Y000577D01*
X005456Y000565D01*
X005464Y000554D01*
X005475Y000546D01*
X005487Y000541D01*
X005500Y000540D01*
X005513Y000541D01*
X005525Y000546D01*
X005536Y000554D01*
X005536Y000555D01*
X005589D01*
X005589Y000555D01*
X005598Y000556D01*
X005607Y000559D01*
X005614Y000565D01*
X005623Y000574D01*
X005635Y000571D01*
X005638Y000565D01*
X005646Y000554D01*
X005656Y000546D01*
X005668Y000541D01*
X005681Y000540D01*
X005694Y000541D01*
X005706Y000546D01*
X005717Y000554D01*
X005717Y000555D01*
X005770D01*
X005770Y000555D01*
X005779Y000556D01*
X005788Y000559D01*
X005795Y000565D01*
X005804Y000575D01*
X005816Y000572D01*
X005819Y000565D01*
X005827Y000554D01*
X005837Y000546D01*
X005849Y000541D01*
X005862Y000540D01*
X005875Y000541D01*
X005888Y000546D01*
X005898Y000554D01*
X005906Y000565D01*
X005911Y000577D01*
X005913Y000590D01*
X005913Y000590D01*
X006105Y000782D01*
X006115Y000778D01*
Y000711D01*
X006044Y000640D01*
X006044Y000640D01*
X006031Y000639D01*
X006018Y000634D01*
X006008Y000626D01*
X006000Y000615D01*
X005995Y000603D01*
X005993Y000590D01*
X005995Y000577D01*
X006000Y000565D01*
X006008Y000554D01*
X006018Y000546D01*
X006031Y000541D01*
X006044Y000540D01*
X006057Y000541D01*
X006069Y000546D01*
X006079Y000554D01*
X006087Y000565D01*
X006092Y000577D01*
X006094Y000590D01*
X006094Y000590D01*
X006171Y000668D01*
X006181Y000663D01*
Y000620D01*
X006181Y000620D01*
X006182Y000616D01*
X006181Y000615D01*
X006176Y000603D01*
X006174Y000590D01*
X006176Y000577D01*
X006181Y000565D01*
X006189Y000554D01*
X006200Y000546D01*
X006212Y000541D01*
X006225Y000540D01*
X006238Y000541D01*
X006250Y000546D01*
X006260Y000554D01*
X006268Y000565D01*
X006274Y000577D01*
X006275Y000590D01*
X006274Y000603D01*
X006268Y000615D01*
X006260Y000626D01*
X006252Y000632D01*
Y000681D01*
X006261Y000685D01*
X006356Y000590D01*
X006356Y000590D01*
X006357Y000577D01*
X006362Y000565D01*
X006370Y000554D01*
X006381Y000546D01*
X006393Y000541D01*
X006406Y000540D01*
X006419Y000541D01*
X006431Y000546D01*
X006442Y000554D01*
X006450Y000565D01*
X006455Y000577D01*
X006456Y000590D01*
X006455Y000603D01*
X006450Y000615D01*
X006442Y000626D01*
X006431Y000634D01*
X006419Y000639D01*
X006406Y000640D01*
X006406Y000640D01*
X006305Y000741D01*
Y000955D01*
X006409D01*
X006416Y000955D01*
X006428Y000955D01*
X006435Y000948D01*
Y000791D01*
X006431Y000783D01*
X006430Y000770D01*
X006431Y000757D01*
X006436Y000745D01*
X006444Y000734D01*
X006455Y000726D01*
X006467Y000721D01*
X006480Y000720D01*
X006493Y000721D01*
X006505Y000726D01*
X006516Y000734D01*
X006524Y000745D01*
X006529Y000757D01*
X006530Y000770D01*
X006529Y000783D01*
X006525Y000791D01*
Y000955D01*
X006541D01*
Y001245D01*
X006426D01*
X006419Y001245D01*
X006409Y001245D01*
X006305D01*
Y001603D01*
X006313Y001606D01*
X006323Y001614D01*
X006331Y001625D01*
X006336Y001637D01*
X006338Y001650D01*
X006336Y001663D01*
X006331Y001675D01*
X006323Y001686D01*
X006313Y001694D01*
X006300Y001699D01*
X006287Y001700D01*
X006274Y001699D01*
X006262Y001694D01*
X006252Y001686D01*
X006244Y001675D01*
X006239Y001663D01*
X006237Y001650D01*
X006238Y001641D01*
X006236Y001639D01*
X006227Y001638D01*
X006219Y001646D01*
X006219Y001650D01*
X006218Y001663D01*
X006213Y001675D01*
X006205Y001686D01*
X006194Y001694D01*
X006182Y001699D01*
X006169Y001700D01*
X006156Y001699D01*
X006144Y001694D01*
X006133Y001686D01*
X006125Y001675D01*
X006120Y001663D01*
X006119Y001650D01*
X006119Y001646D01*
X006110Y001641D01*
X006101Y001650D01*
X006101Y001650D01*
X006099Y001663D01*
X006094Y001675D01*
X006086Y001686D01*
X006076Y001694D01*
X006064Y001699D01*
X006051Y001700D01*
X006038Y001699D01*
X006026Y001694D01*
X006015Y001686D01*
X006007Y001675D01*
X006002Y001663D01*
X006000Y001650D01*
X006001Y001646D01*
X005991Y001641D01*
X005983Y001650D01*
X005983Y001650D01*
X005981Y001663D01*
X005976Y001675D01*
X005968Y001686D01*
X005958Y001694D01*
X005945Y001699D01*
X005932Y001700D01*
X005919Y001699D01*
X005907Y001694D01*
X005897Y001686D01*
X005889Y001675D01*
X005884Y001663D01*
X005882Y001650D01*
X005883Y001646D01*
X005873Y001641D01*
X005865Y001650D01*
X005865Y001650D01*
X005863Y001663D01*
X005858Y001675D01*
X005850Y001686D01*
X005839Y001694D01*
X005827Y001699D01*
X005814Y001700D01*
X005801Y001699D01*
X005789Y001694D01*
X005778Y001686D01*
X005770Y001675D01*
X005765Y001663D01*
X005764Y001650D01*
X005763Y001650D01*
X005754Y001646D01*
X005746Y001654D01*
X005745Y001663D01*
X005740Y001675D01*
X005731Y001686D01*
X005721Y001694D01*
X005709Y001699D01*
X005696Y001700D01*
X005683Y001699D01*
X005671Y001694D01*
X005660Y001686D01*
X005652Y001675D01*
X005647Y001663D01*
X005646Y001652D01*
X005640Y001649D01*
X005636Y001648D01*
X005624Y001660D01*
X005624Y001664D01*
X005618Y001678D01*
X005609Y001690D01*
X005598Y001698D01*
X005584Y001704D01*
X005582Y001704D01*
D02*
G37*
G36*
X000475Y001684D02*
Y001643D01*
X000517D01*
X000516Y001644D01*
X000511Y001658D01*
X000502Y001670D01*
X000490Y001678D01*
X000477Y001684D01*
X000475Y001684D01*
D02*
G37*
G36*
X005037Y001676D02*
X004948D01*
Y001632D01*
X005037D01*
Y001676D01*
D02*
G37*
G36*
X004933Y001797D02*
X004768D01*
Y001581D01*
X004933D01*
Y001797D01*
D02*
G37*
G36*
X004742D02*
X004577D01*
Y001581D01*
X004742D01*
Y001797D01*
D02*
G37*
G36*
X000517Y001617D02*
X000475D01*
Y001576D01*
X000477Y001576D01*
X000490Y001582D01*
X000502Y001590D01*
X000511Y001602D01*
X000516Y001616D01*
X000517Y001617D01*
D02*
G37*
G36*
X002415Y001650D02*
X002363D01*
Y001572D01*
X002415D01*
Y001650D01*
D02*
G37*
G36*
X002195Y002050D02*
X002182Y002049D01*
X002170Y002044D01*
X002160Y002036D01*
X002152Y002025D01*
X002147Y002013D01*
X002145Y002000D01*
X002147Y001987D01*
X002152Y001975D01*
X002160Y001964D01*
X002160Y001964D01*
Y001900D01*
X002110D01*
Y001780D01*
X002280D01*
Y001780D01*
X002290Y001779D01*
Y001753D01*
X002285D01*
Y001715D01*
X002208D01*
Y001650D01*
X002195D01*
Y001637D01*
X002105D01*
Y001585D01*
X002146D01*
X002151Y001575D01*
X002147Y001570D01*
X002141Y001556D01*
X002141Y001555D01*
X002249D01*
X002249Y001556D01*
X002244Y001570D01*
X002240Y001575D01*
X002245Y001585D01*
X002285D01*
Y001572D01*
X002337D01*
Y001663D01*
X002350D01*
Y001675D01*
X002415D01*
Y001753D01*
X002410D01*
Y001915D01*
X002290D01*
Y001901D01*
X002280Y001900D01*
Y001900D01*
X002231D01*
Y001964D01*
X002231Y001964D01*
X002239Y001975D01*
X002244Y001987D01*
X002246Y002000D01*
X002244Y002013D01*
X002239Y002025D01*
X002231Y002036D01*
X002220Y002044D01*
X002208Y002049D01*
X002195Y002050D01*
D02*
G37*
G36*
X005037Y001606D02*
X004948D01*
Y001562D01*
X005037D01*
Y001606D01*
D02*
G37*
G36*
X001010Y001692D02*
X000880D01*
Y001615D01*
Y001550D01*
X001010D01*
Y001615D01*
Y001692D01*
D02*
G37*
G36*
X002249Y001529D02*
X002208D01*
Y001488D01*
X002210Y001488D01*
X002223Y001494D01*
X002235Y001502D01*
X002244Y001514D01*
X002249Y001527D01*
X002249Y001529D01*
D02*
G37*
G36*
X002183D02*
X002141D01*
X002141Y001527D01*
X002147Y001514D01*
X002156Y001502D01*
X002167Y001494D01*
X002181Y001488D01*
X002183Y001488D01*
Y001529D01*
D02*
G37*
G36*
X001010Y001525D02*
X000880D01*
Y001447D01*
X000893D01*
X000898Y001437D01*
X000897Y001436D01*
X000891Y001422D01*
X000891Y001420D01*
X000999D01*
X000999Y001422D01*
X000993Y001436D01*
X000992Y001437D01*
X000997Y001447D01*
X001010D01*
Y001525D01*
D02*
G37*
G36*
X000999Y001395D02*
X000958D01*
Y001354D01*
X000959Y001354D01*
X000973Y001359D01*
X000985Y001368D01*
X000993Y001380D01*
X000999Y001393D01*
X000999Y001395D01*
D02*
G37*
G36*
X000932D02*
X000891D01*
X000891Y001393D01*
X000897Y001380D01*
X000905Y001368D01*
X000917Y001359D01*
X000931Y001354D01*
X000932Y001354D01*
Y001395D01*
D02*
G37*
G36*
X003060Y001360D02*
Y001319D01*
X003102D01*
X003101Y001321D01*
X003096Y001334D01*
X003087Y001346D01*
X003075Y001355D01*
X003062Y001360D01*
X003060Y001360D01*
D02*
G37*
G36*
X002857D02*
X002856Y001360D01*
X002842Y001355D01*
X002830Y001346D01*
X002822Y001334D01*
X002816Y001321D01*
X002816Y001319D01*
X002857D01*
Y001360D01*
D02*
G37*
G36*
X004843Y001294D02*
Y001253D01*
X004884D01*
X004884Y001254D01*
X004878Y001268D01*
X004870Y001280D01*
X004858Y001288D01*
X004844Y001294D01*
X004843Y001294D01*
D02*
G37*
G36*
X004817D02*
X004816Y001294D01*
X004802Y001288D01*
X004790Y001280D01*
X004782Y001268D01*
X004776Y001254D01*
X004776Y001253D01*
X004817D01*
Y001294D01*
D02*
G37*
G36*
X003102Y001293D02*
X003060D01*
Y001252D01*
X003062Y001252D01*
X003075Y001258D01*
X003087Y001267D01*
X003096Y001278D01*
X003101Y001292D01*
X003102Y001293D01*
D02*
G37*
G36*
X002857D02*
X002816D01*
X002816Y001292D01*
X002822Y001278D01*
X002830Y001267D01*
X002842Y001258D01*
X002856Y001252D01*
X002857Y001252D01*
Y001293D01*
D02*
G37*
G36*
X007212Y001250D02*
X007159D01*
Y001220D01*
X007149Y001218D01*
X007149Y001218D01*
X007141Y001227D01*
X007132Y001235D01*
X007121Y001241D01*
X007110Y001244D01*
X007098Y001245D01*
X007086Y001244D01*
X007075Y001241D01*
X007064Y001235D01*
X007055Y001227D01*
X007047Y001218D01*
X007042Y001208D01*
X007038Y001196D01*
X007037Y001184D01*
Y001016D01*
X007038Y001004D01*
X007042Y000992D01*
X007047Y000982D01*
X007053Y000975D01*
Y000791D01*
X007049Y000783D01*
X007048Y000770D01*
X007049Y000757D01*
X007054Y000745D01*
X007062Y000734D01*
X007073Y000726D01*
X007085Y000721D01*
X007098Y000720D01*
X007111Y000721D01*
X007123Y000726D01*
X007134Y000734D01*
X007142Y000745D01*
X007147Y000757D01*
X007148Y000770D01*
X007147Y000783D01*
X007143Y000791D01*
Y000975D01*
X007149Y000981D01*
X007159Y000978D01*
Y000950D01*
X007180D01*
Y000802D01*
X007177Y000798D01*
X007171Y000784D01*
X007171Y000783D01*
X007279D01*
X007279Y000784D01*
X007273Y000798D01*
X007270Y000802D01*
Y000950D01*
X007291D01*
Y001087D01*
X007225D01*
Y001100D01*
X007212D01*
Y001250D01*
D02*
G37*
G36*
X004884Y001227D02*
X004843D01*
Y001186D01*
X004844Y001186D01*
X004858Y001192D01*
X004870Y001200D01*
X004878Y001212D01*
X004884Y001226D01*
X004884Y001227D01*
D02*
G37*
G36*
X004817D02*
X004776D01*
X004776Y001226D01*
X004782Y001212D01*
X004790Y001200D01*
X004802Y001192D01*
X004816Y001186D01*
X004817Y001186D01*
Y001227D01*
D02*
G37*
G36*
X007291Y001250D02*
X007238D01*
Y001113D01*
X007291D01*
Y001250D01*
D02*
G37*
G36*
X004150Y001520D02*
X003790D01*
Y001220D01*
X003935D01*
Y001135D01*
X003846Y001046D01*
X003570D01*
Y001070D01*
X003232D01*
Y001070D01*
X003222Y001071D01*
Y001085D01*
X003102D01*
Y000915D01*
Y000748D01*
X003222D01*
Y000760D01*
X003232Y000760D01*
Y000760D01*
X003570D01*
Y000785D01*
X003845D01*
X003960Y000670D01*
X003960Y000670D01*
X003961Y000657D01*
X003966Y000645D01*
X003974Y000634D01*
X003985Y000626D01*
X003997Y000621D01*
X004010Y000620D01*
X004023Y000621D01*
X004035Y000626D01*
X004046Y000634D01*
X004054Y000645D01*
X004059Y000657D01*
X004060Y000670D01*
X004059Y000683D01*
X004054Y000695D01*
X004046Y000706D01*
X004035Y000714D01*
X004023Y000719D01*
X004010Y000720D01*
X004010Y000720D01*
X003884Y000845D01*
X003877Y000851D01*
X003869Y000855D01*
X003860Y000856D01*
X003860Y000856D01*
X003570D01*
Y000880D01*
X003232D01*
Y000880D01*
X003222Y000881D01*
Y000950D01*
X003232Y000950D01*
Y000950D01*
X003570D01*
Y000975D01*
X003860D01*
X003860Y000975D01*
X003870Y000976D01*
X003878Y000980D01*
X003885Y000986D01*
X003995Y001095D01*
X003995Y001095D01*
X004001Y001102D01*
X004004Y001111D01*
X004005Y001120D01*
X004005Y001120D01*
Y001220D01*
X004150D01*
Y001520D01*
D02*
G37*
G36*
X002153Y000885D02*
Y000833D01*
X002230D01*
Y000885D01*
X002153D01*
D02*
G37*
G36*
X007789Y001245D02*
X007779Y001245D01*
X007664D01*
Y000955D01*
X007779D01*
X007786Y000955D01*
X007797Y000955D01*
X007801Y000945D01*
X007673Y000817D01*
X007665Y000814D01*
X007654Y000806D01*
X007646Y000795D01*
X007641Y000783D01*
X007640Y000770D01*
X007641Y000757D01*
X007646Y000745D01*
X007654Y000734D01*
X007665Y000726D01*
X007677Y000721D01*
X007690Y000720D01*
X007703Y000721D01*
X007715Y000726D01*
X007726Y000734D01*
X007734Y000745D01*
X007737Y000753D01*
X007884Y000899D01*
X007891Y000909D01*
X007895Y000920D01*
X007897Y000932D01*
Y000955D01*
X007911D01*
Y001245D01*
X007796D01*
X007789Y001245D01*
D02*
G37*
G36*
X007279Y000757D02*
X007238D01*
Y000716D01*
X007239Y000716D01*
X007253Y000722D01*
X007265Y000730D01*
X007273Y000742D01*
X007279Y000756D01*
X007279Y000757D01*
D02*
G37*
G36*
X007212D02*
X007171D01*
X007171Y000756D01*
X007177Y000742D01*
X007185Y000730D01*
X007197Y000722D01*
X007211Y000716D01*
X007212Y000716D01*
Y000757D01*
D02*
G37*
G36*
X002343Y000564D02*
Y000523D01*
X002384D01*
X002384Y000524D01*
X002378Y000538D01*
X002370Y000550D01*
X002358Y000558D01*
X002344Y000564D01*
X002343Y000564D01*
D02*
G37*
G36*
X002230Y000807D02*
X002140D01*
X002050D01*
Y000755D01*
X002105D01*
Y000700D01*
X002105Y000700D01*
X002106Y000691D01*
X002109Y000682D01*
X002115Y000675D01*
X002267Y000523D01*
X002317D01*
Y000573D01*
X002175Y000715D01*
Y000755D01*
X002230D01*
Y000807D01*
D02*
G37*
G36*
X002454Y000880D02*
X002284D01*
Y000760D01*
X002324D01*
Y000641D01*
X002325Y000629D01*
X002330Y000618D01*
X002337Y000609D01*
X002453Y000493D01*
X002456Y000485D01*
X002464Y000474D01*
X002475Y000466D01*
X002487Y000461D01*
X002500Y000460D01*
X002513Y000461D01*
X002525Y000466D01*
X002536Y000474D01*
X002536Y000475D01*
X002640D01*
X002640Y000474D01*
X002651Y000466D01*
X002663Y000461D01*
X002676Y000460D01*
X002689Y000461D01*
X002701Y000466D01*
X002712Y000474D01*
X002712Y000475D01*
X002816D01*
X002816Y000474D01*
X002827Y000466D01*
X002839Y000461D01*
X002852Y000460D01*
X002865Y000461D01*
X002877Y000466D01*
X002888Y000474D01*
X002888Y000475D01*
X002992D01*
X002992Y000474D01*
X003003Y000466D01*
X003015Y000461D01*
X003028Y000460D01*
X003041Y000461D01*
X003053Y000466D01*
X003064Y000474D01*
X003064Y000475D01*
X003168D01*
X003168Y000474D01*
X003179Y000466D01*
X003191Y000461D01*
X003204Y000460D01*
X003217Y000461D01*
X003229Y000466D01*
X003240Y000474D01*
X003240Y000475D01*
X003344D01*
X003344Y000474D01*
X003355Y000466D01*
X003367Y000461D01*
X003380Y000460D01*
X003393Y000461D01*
X003405Y000466D01*
X003416Y000474D01*
X003416Y000475D01*
X003519D01*
X003520Y000474D01*
X003531Y000466D01*
X003543Y000461D01*
X003556Y000459D01*
X003569Y000461D01*
X003581Y000466D01*
X003592Y000474D01*
X003592Y000475D01*
X003696D01*
X003697Y000474D01*
X003707Y000466D01*
X003719Y000461D01*
X003732Y000460D01*
X003745Y000461D01*
X003757Y000466D01*
X003768Y000474D01*
X003776Y000485D01*
X003781Y000497D01*
X003783Y000510D01*
X003781Y000523D01*
X003776Y000535D01*
X003768Y000546D01*
X003757Y000554D01*
X003745Y000559D01*
X003732Y000560D01*
X003719Y000559D01*
X003707Y000554D01*
X003697Y000546D01*
X003696Y000545D01*
X003591D01*
X003581Y000553D01*
X003569Y000558D01*
X003556Y000560D01*
X003543Y000558D01*
X003531Y000553D01*
X003521Y000545D01*
X003416D01*
X003416Y000546D01*
X003405Y000554D01*
X003393Y000559D01*
X003380Y000560D01*
X003367Y000559D01*
X003355Y000554D01*
X003344Y000546D01*
X003344Y000545D01*
X003240D01*
X003240Y000546D01*
X003229Y000554D01*
X003217Y000559D01*
X003204Y000560D01*
X003191Y000559D01*
X003179Y000554D01*
X003168Y000546D01*
X003168Y000545D01*
X003064D01*
X003064Y000546D01*
X003053Y000554D01*
X003041Y000559D01*
X003028Y000560D01*
X003015Y000559D01*
X003003Y000554D01*
X002992Y000546D01*
X002992Y000545D01*
X002888D01*
X002888Y000546D01*
X002877Y000554D01*
X002865Y000559D01*
X002852Y000560D01*
X002839Y000559D01*
X002827Y000554D01*
X002816Y000546D01*
X002816Y000545D01*
X002712D01*
X002712Y000546D01*
X002701Y000554D01*
X002689Y000559D01*
X002676Y000560D01*
X002663Y000559D01*
X002651Y000554D01*
X002640Y000546D01*
X002640Y000545D01*
X002536D01*
X002536Y000546D01*
X002525Y000554D01*
X002517Y000557D01*
X002415Y000659D01*
Y000760D01*
X002454D01*
Y000880D01*
D02*
G37*
G36*
X002384Y000497D02*
X002343D01*
Y000456D01*
X002344Y000456D01*
X002358Y000462D01*
X002370Y000470D01*
X002378Y000482D01*
X002384Y000496D01*
X002384Y000497D01*
D02*
G37*
G36*
X002317D02*
X002276D01*
X002276Y000496D01*
X002282Y000482D01*
X002290Y000470D01*
X002302Y000462D01*
X002316Y000456D01*
X002317Y000456D01*
Y000497D01*
D02*
G37*
G36*
X002413Y000214D02*
Y000173D01*
X002454D01*
X002454Y000174D01*
X002448Y000188D01*
X002440Y000200D01*
X002428Y000208D01*
X002414Y000214D01*
X002413Y000214D01*
D02*
G37*
G36*
X002387D02*
X002386Y000214D01*
X002372Y000208D01*
X002360Y000200D01*
X002352Y000188D01*
X002346Y000174D01*
X002346Y000173D01*
X002387D01*
Y000214D01*
D02*
G37*
G36*
X002454Y000147D02*
X002413D01*
Y000106D01*
X002414Y000106D01*
X002428Y000112D01*
X002440Y000120D01*
X002448Y000132D01*
X002454Y000146D01*
X002454Y000147D01*
D02*
G37*
G36*
X002387D02*
X002346D01*
X002346Y000146D01*
X002352Y000132D01*
X002360Y000120D01*
X002372Y000112D01*
X002386Y000106D01*
X002387Y000106D01*
Y000147D01*
D02*
G37*
G36*
X001505Y005779D02*
Y005738D01*
X001547D01*
X001546Y005739D01*
X001541Y005753D01*
X001532Y005765D01*
X001520Y005773D01*
X001507Y005779D01*
X001505Y005779D01*
D02*
G37*
G36*
X001480D02*
X001478Y005779D01*
X001465Y005773D01*
X001453Y005765D01*
X001444Y005753D01*
X001439Y005739D01*
X001438Y005738D01*
X001480D01*
Y005779D01*
D02*
G37*
G36*
X000600Y004817D02*
X000587Y004816D01*
X000575Y004810D01*
X000564Y004802D01*
X000556Y004792D01*
X000551Y004780D01*
X000550Y004767D01*
X000551Y004754D01*
X000556Y004742D01*
X000564Y004731D01*
X000575Y004723D01*
X000587Y004718D01*
X000600Y004716D01*
X000613Y004718D01*
X000625Y004723D01*
X000636Y004731D01*
X000644Y004742D01*
X000649Y004754D01*
X000650Y004767D01*
X000649Y004780D01*
X000644Y004792D01*
X000636Y004802D01*
X000625Y004810D01*
X000613Y004816D01*
X000600Y004817D01*
D02*
G37*
G36*
X000543Y004714D02*
Y004673D01*
X000584D01*
X000584Y004674D01*
X000578Y004688D01*
X000570Y004700D01*
X000558Y004708D01*
X000544Y004714D01*
X000543Y004714D01*
D02*
G37*
G36*
X000517D02*
X000516Y004714D01*
X000502Y004708D01*
X000490Y004700D01*
X000482Y004688D01*
X000476Y004674D01*
X000476Y004673D01*
X000517D01*
Y004714D01*
D02*
G37*
G36*
X000584Y004647D02*
X000543D01*
Y004606D01*
X000544Y004606D01*
X000558Y004612D01*
X000570Y004620D01*
X000578Y004632D01*
X000584Y004646D01*
X000584Y004647D01*
D02*
G37*
G36*
X000517D02*
X000476D01*
X000476Y004646D01*
X000482Y004632D01*
X000490Y004620D01*
X000502Y004612D01*
X000516Y004606D01*
X000517Y004606D01*
Y004647D01*
D02*
G37*
G36*
X000317Y004384D02*
X000316Y004384D01*
X000302Y004378D01*
X000290Y004370D01*
X000282Y004358D01*
X000276Y004344D01*
X000276Y004343D01*
X000317D01*
Y004384D01*
D02*
G37*
G36*
Y004317D02*
X000276D01*
X000276Y004316D01*
X000282Y004302D01*
X000290Y004290D01*
X000302Y004282D01*
X000316Y004276D01*
X000317Y004276D01*
Y004317D01*
D02*
G37*
%LPD*%
D16*
X001826Y000716D02*
G03*
X001585Y000592I000056J-000406D01*
G01*
X008595Y001522D02*
G03*
X008683Y001734I-000212J000212D01*
G01*
Y004486D02*
G03*
X008595Y004698I-000300J-000000D01*
G01*
X004036Y006060D02*
G03*
X003777Y006210I-000260J-000150D01*
G01*
X004036Y006060D02*
G03*
X004729Y006060I000346J000200D01*
G01*
Y000160D02*
G03*
X004036Y000160I-000346J-000200D01*
G01*
X007171Y006122D02*
G03*
X006959Y006210I-000212J-000212D01*
G01*
Y000010D02*
G03*
X007171Y000098I-000000J000300D01*
G01*
X003777Y000010D02*
G03*
X004036Y000160I000000J000300D01*
G01*
X004989Y006210D02*
G03*
X004729Y006060I000000J-000300D01*
G01*
Y000160D02*
G03*
X004989Y000010I000260J000150D01*
G01*
X001807Y006210D02*
G03*
X001595Y006122I000000J-000300D01*
G01*
Y000098D02*
G03*
X001807Y000010I000212J000212D01*
G01*
X000083Y001734D02*
G03*
X000171Y001522I000300J000000D01*
G01*
Y004698D02*
G03*
X000083Y004486I000212J-000212D01*
G01*
X001868Y000680D02*
G03*
X001579Y000522I000014J-000370D01*
G01*
X001882Y000680D02*
G03*
X001869Y000680I000000J-000286D01*
G01*
X002213Y000475D02*
G03*
X001882Y000680I-000331J-000165D01*
G01*
X001883Y000640D02*
G03*
X001609Y000496I-000000J-000330D01*
G01*
X002199Y000404D02*
G03*
X001883Y000640I-000316J-000094D01*
G01*
X000403Y001952D02*
X000450Y002000D01*
X000403Y001398D02*
Y001952D01*
X000590Y001430D02*
X000600Y001420D01*
Y001410D02*
Y001420D01*
X000755Y001680D02*
Y001705D01*
X000708Y001633D02*
X000755Y001680D01*
X000703Y001633D02*
X000708D01*
X000590Y001520D02*
X000703Y001633D01*
X000590Y001430D02*
Y001520D01*
X000755Y001538D02*
X000755Y001538D01*
Y001408D02*
Y001538D01*
X000567Y001873D02*
X000760D01*
X000514Y001820D02*
X000567Y001873D01*
X000581Y002040D02*
X000755D01*
X000561Y002060D02*
X000581Y002040D01*
X000550Y002060D02*
X000561D01*
X001826Y000716D02*
X002130Y001020D01*
X001502Y000592D02*
X001585D01*
X000462Y001394D02*
Y001480D01*
X001342Y000515D02*
X001572D01*
X000462Y001394D02*
X001342Y000515D01*
X001325Y000475D02*
X001589D01*
X000403Y001398D02*
X001325Y000475D01*
X004989Y006210D02*
X006959D01*
X001807D02*
X003777D01*
X004989Y000010D02*
X006959D01*
X001807D02*
X003777D01*
X007171Y000098D02*
X008595Y001522D01*
X000171D02*
X001595Y000098D01*
X007171Y006122D02*
X008595Y004698D01*
X000171D02*
X001595Y006122D01*
X008683Y001734D02*
Y004486D01*
X001572Y000515D02*
X001578Y000521D01*
X001578Y000521D02*
X001579Y000522D01*
X001868Y000680D02*
X001869Y000680D01*
X002213Y000475D02*
X002250Y000401D01*
X001606Y000493D02*
X001606D01*
X001608Y000494D02*
X001609Y000496D01*
X001606Y000493D02*
X001608Y000494D01*
X001589Y000475D02*
X001606Y000493D01*
X002213Y000356D02*
X002219Y000350D01*
X002199Y000404D02*
X002213Y000356D01*
X002059Y001320D02*
X002192D01*
X002369Y001010D02*
Y001143D01*
X002192Y001320D02*
X002369Y001143D01*
X001950Y001320D02*
X002059D01*
X002346Y001010D02*
X002369D01*
X002316Y001040D02*
X002346Y001010D01*
X001570Y001471D02*
Y001620D01*
Y001446D02*
Y001471D01*
Y001794D02*
Y001969D01*
Y002292D02*
Y002317D01*
Y002143D02*
Y002292D01*
Y002491D02*
Y002665D01*
Y002839D02*
Y003013D01*
Y003187D02*
Y003361D01*
Y003535D02*
Y003709D01*
Y003883D02*
Y004057D01*
Y005276D02*
Y005450D01*
Y004928D02*
Y005102D01*
Y004580D02*
Y004754D01*
Y004231D02*
Y004406D01*
Y004206D02*
Y004231D01*
X001285Y003361D02*
X001380D01*
X001641Y001501D02*
X001831Y001691D01*
X001600Y001501D02*
X001612D01*
X001570Y001471D02*
X001600Y001501D01*
X001612D02*
X001612Y001501D01*
X001641D01*
X001831Y001691D02*
X001950D01*
X001570Y001969D02*
X001576Y001963D01*
X001667D02*
X001816Y001814D01*
X001576Y001963D02*
X001667D01*
X001816Y001814D02*
X001950D01*
X001570Y002292D02*
X001916Y001946D01*
X001942D01*
X001950Y001938D01*
X001898Y003102D02*
Y003174D01*
Y003102D02*
X001950Y003050D01*
X001950Y002926D02*
X001950D01*
X001855Y003021D02*
Y003160D01*
Y003021D02*
X001950Y002926D01*
X001698Y004553D02*
X001760Y004490D01*
X001624Y005276D02*
X001640Y005260D01*
X001698Y004553D02*
Y004832D01*
X001760Y003895D02*
X001800Y003855D01*
X001640Y004889D02*
Y005260D01*
Y004889D02*
X001698Y004832D01*
X001760Y003895D02*
Y004490D01*
X001800Y003564D02*
Y003855D01*
Y003564D02*
X001841Y003523D01*
Y003231D02*
X001898Y003174D01*
X001841Y003231D02*
Y003523D01*
X001585Y002451D02*
X001942Y002093D01*
Y002069D02*
X001950Y002061D01*
X001942Y002069D02*
Y002093D01*
X001658Y002505D02*
Y002726D01*
X001570Y002814D02*
Y002839D01*
Y002814D02*
X001658Y002726D01*
X001570Y004555D02*
X001680Y004445D01*
X001570Y004555D02*
Y004580D01*
X001680Y003862D02*
Y004445D01*
X001570Y004903D02*
Y004928D01*
Y004903D02*
X001658Y004815D01*
Y004536D02*
Y004815D01*
X001720Y003878D02*
X001760Y003838D01*
Y003547D02*
Y003838D01*
X001801Y003214D02*
Y003507D01*
Y003214D02*
X001855Y003160D01*
X001760Y003547D02*
X001801Y003507D01*
X001658Y004536D02*
X001720Y004474D01*
Y003878D02*
Y004474D01*
Y003531D02*
X001761Y003490D01*
X001680Y003862D02*
X001720Y003822D01*
Y003531D02*
Y003822D01*
X001761Y003198D02*
X001815Y003143D01*
X001761Y003198D02*
Y003490D01*
X001815Y002938D02*
Y003143D01*
Y002938D02*
X001950Y002803D01*
X001773Y002906D02*
X001817Y002861D01*
Y002812D02*
Y002861D01*
X001773Y002906D02*
Y003129D01*
X001733Y002890D02*
X001777Y002845D01*
Y002728D02*
Y002845D01*
X001733Y002890D02*
Y003113D01*
X001692Y002873D02*
X001738Y002828D01*
X001692Y002873D02*
Y003096D01*
X001738Y002645D02*
Y002828D01*
X001652Y002857D02*
Y003080D01*
Y002857D02*
X001698Y002812D01*
Y002561D02*
Y002812D01*
X001942Y002193D02*
X001950Y002185D01*
X001942Y002193D02*
Y002220D01*
X001658Y002505D02*
X001942Y002220D01*
X001738Y002645D02*
X001950Y002432D01*
Y002432D02*
Y002432D01*
X001777Y002728D02*
X001950Y002556D01*
X001950D01*
X001570Y004206D02*
X001640Y004136D01*
Y003845D02*
Y004136D01*
X001680Y003514D02*
Y003805D01*
X001640Y003845D02*
X001680Y003805D01*
X001721Y003181D02*
Y003474D01*
X001680Y003514D02*
X001721Y003474D01*
Y003181D02*
X001773Y003129D01*
X001817Y002812D02*
X001950Y002679D01*
X001570Y003858D02*
Y003883D01*
Y003858D02*
X001640Y003788D01*
Y003497D02*
Y003788D01*
X001681Y003165D02*
Y003457D01*
X001640Y003497D02*
X001681Y003457D01*
Y003165D02*
X001733Y003113D01*
X001570Y003510D02*
Y003535D01*
Y003510D02*
X001641Y003440D01*
Y003148D02*
Y003440D01*
Y003148D02*
X001692Y003096D01*
X001570Y003162D02*
X001652Y003080D01*
X001698Y002561D02*
X001950Y002309D01*
X001570Y003162D02*
Y003187D01*
Y000949D02*
X001771Y001150D01*
X001570Y000924D02*
Y000949D01*
X001771Y001150D02*
Y001265D01*
X001950Y001444D01*
X001570Y001272D02*
X001655D01*
X001950Y001567D01*
X001570Y001098D02*
Y001272D01*
Y000750D02*
Y000924D01*
Y005276D02*
X001624D01*
X001380Y000924D02*
Y000924D01*
X001350Y000954D02*
X001380Y000924D01*
X001285Y000954D02*
X001350D01*
X001357Y002340D02*
X001380Y002317D01*
X001285Y002340D02*
X001357D01*
X001380Y001272D02*
Y001274D01*
X001350Y001304D02*
X001380Y001274D01*
X001285Y001304D02*
X001350D01*
X001380Y001620D02*
X001380Y001620D01*
X001285Y001620D02*
X001380D01*
X001369Y001980D02*
X001380Y001969D01*
X001285Y001980D02*
X001369D01*
X001285Y004406D02*
X001380D01*
X001368Y004045D02*
X001380Y004057D01*
X001302Y004045D02*
X001368D01*
X001285Y004062D02*
Y004130D01*
Y004062D02*
X001302Y004045D01*
X001285Y004754D02*
X001380D01*
X001285Y005102D02*
X001380D01*
X001285Y005450D02*
X001380D01*
X001370Y005440D02*
X001380Y005450D01*
X001369Y003720D02*
X001380Y003709D01*
X001285Y003720D02*
X001369D01*
X001373Y003020D02*
X001380Y003013D01*
X001285Y003020D02*
X001373D01*
X001378Y002662D02*
X001380Y002665D01*
X001285Y002662D02*
X001378D01*
X002390Y000390D02*
X002481Y000391D01*
X002256Y000390D02*
X002390D01*
X002250Y000401D02*
X002256Y000390D01*
X002487Y000386D02*
X002600Y000290D01*
X002481Y000391D02*
X002487Y000386D01*
X001495Y000585D02*
X001502Y000592D01*
X004520Y005520D02*
Y005604D01*
X003700Y005490D02*
Y005610D01*
X004040Y005490D02*
Y005568D01*
X004210Y005490D02*
Y005602D01*
X004366Y005490D02*
X004380D01*
X004366D02*
Y005680D01*
X004520Y005520D02*
X004550Y005490D01*
X004720D02*
Y005580D01*
X004890Y005490D02*
Y005590D01*
X003870Y005490D02*
Y005570D01*
X003921Y005621D01*
X004014D02*
X004015Y005620D01*
X003921Y005621D02*
X004014D01*
X004065Y005620D02*
X004121Y005677D01*
X004015Y005620D02*
X004065D01*
X004121Y005677D02*
Y005680D01*
X004447Y005677D02*
Y005680D01*
Y005677D02*
X004520Y005604D01*
X004680Y005620D02*
X004720Y005580D01*
X004610Y005680D02*
X004800D01*
X004890Y005590D01*
X003770Y005680D02*
X004040D01*
X003700Y005610D02*
X003770Y005680D01*
X004585Y005620D02*
X004680D01*
X004529Y005677D02*
X004585Y005620D01*
X004529Y005677D02*
Y005680D01*
X004210Y005602D02*
X004284Y005677D01*
Y005680D01*
X004203Y005677D02*
Y005680D01*
X004106Y005580D02*
X004203Y005677D01*
X004052Y005580D02*
X004106D01*
X004040Y005568D02*
X004052Y005580D01*
X004450Y005675D02*
Y005680D01*
X004200Y005675D02*
Y005680D01*
X003445Y005577D02*
X003453Y005569D01*
X000272Y001660D02*
Y001780D01*
X002397Y000340D02*
X002398Y000331D01*
X002385Y000350D02*
X002397Y000340D01*
X002398Y000331D02*
X002400Y000290D01*
X002219Y000350D02*
X002385D01*
D36*
X000707Y002610D02*
D03*
Y002210D02*
D03*
Y002410D02*
D03*
Y002810D02*
D03*
Y003610D02*
D03*
Y003210D02*
D03*
Y003010D02*
D03*
Y003410D02*
D03*
Y004010D02*
D03*
Y003810D02*
D03*
X000157D02*
D03*
Y003210D02*
D03*
Y003010D02*
D03*
Y003410D02*
D03*
Y003610D02*
D03*
Y002810D02*
D03*
Y002610D02*
D03*
Y002210D02*
D03*
Y002410D02*
D03*
Y004010D02*
D03*
D37*
X000597Y004010D02*
D03*
Y003810D02*
D03*
Y003610D02*
D03*
Y003410D02*
D03*
Y003210D02*
D03*
Y003010D02*
D03*
Y002810D02*
D03*
Y002610D02*
D03*
Y002410D02*
D03*
X000267Y004010D02*
D03*
Y003810D02*
D03*
Y003610D02*
D03*
Y003410D02*
D03*
Y003210D02*
D03*
Y003010D02*
D03*
Y002810D02*
D03*
Y002610D02*
D03*
Y002410D02*
D03*
Y002210D02*
D03*
X000597D02*
D03*
D38*
X004740Y002180D02*
D03*
X004550D02*
D03*
X004740Y002920D02*
D03*
X004550D02*
D03*
X004740Y003620D02*
D03*
X004550D02*
D03*
X004740Y004440D02*
D03*
X004550D02*
D03*
X001380Y005450D02*
D03*
X001570D02*
D03*
X001380Y005102D02*
D03*
X001570D02*
D03*
X001380Y004754D02*
D03*
X001570D02*
D03*
X001380Y004406D02*
D03*
X001570D02*
D03*
X002350Y001830D02*
D03*
X002540D02*
D03*
X002350Y001663D02*
D03*
X002540D02*
D03*
X002209Y005162D02*
D03*
X002019D02*
D03*
X000945Y001873D02*
D03*
X000755D02*
D03*
X001380Y004057D02*
D03*
X001570D02*
D03*
X001380Y003709D02*
D03*
X001570D02*
D03*
X001380Y003361D02*
D03*
X001570D02*
D03*
X001380Y003013D02*
D03*
X001570D02*
D03*
X001380Y002665D02*
D03*
X001570D02*
D03*
X001380Y002317D02*
D03*
X001570D02*
D03*
X001380Y001969D02*
D03*
X001570D02*
D03*
X001380Y001620D02*
D03*
X001570D02*
D03*
X001380Y001272D02*
D03*
X001570D02*
D03*
X001380Y000924D02*
D03*
X001570D02*
D03*
X006030Y003694D02*
D03*
X005840D02*
D03*
Y003518D02*
D03*
X006030D02*
D03*
Y003343D02*
D03*
X005840D02*
D03*
X006030Y003870D02*
D03*
X005840D02*
D03*
X002972Y000833D02*
D03*
X003162D02*
D03*
Y001000D02*
D03*
X002972D02*
D03*
X000945Y002040D02*
D03*
X000755D02*
D03*
Y001538D02*
D03*
X000945D02*
D03*
X000755Y001705D02*
D03*
X000945D02*
D03*
X001570Y004580D02*
D03*
X001380D02*
D03*
Y004231D02*
D03*
X001570D02*
D03*
Y001098D02*
D03*
X001380D02*
D03*
X001570Y002491D02*
D03*
X001380D02*
D03*
X001570Y001446D02*
D03*
X001380D02*
D03*
X001570Y002143D02*
D03*
X001380D02*
D03*
X001570Y001794D02*
D03*
X001380D02*
D03*
X001570Y002839D02*
D03*
X001380D02*
D03*
X001570Y003535D02*
D03*
X001380D02*
D03*
X001570Y000750D02*
D03*
X001380D02*
D03*
X001570Y005276D02*
D03*
X001380D02*
D03*
X001570Y004928D02*
D03*
X001380D02*
D03*
X001570Y003883D02*
D03*
X001380D02*
D03*
X001570Y003187D02*
D03*
X001380D02*
D03*
D39*
X003970Y002132D02*
D03*
Y001370D02*
D03*
X002550Y002134D02*
D03*
Y001372D02*
D03*
D40*
X000272Y001780D02*
D03*
Y001970D02*
D03*
X005230Y005490D02*
D03*
Y005301D02*
D03*
X007170Y004470D02*
D03*
Y004280D02*
D03*
X004210Y005130D02*
D03*
Y004940D02*
D03*
X004040Y004940D02*
D03*
Y005129D02*
D03*
X002140Y000820D02*
D03*
Y001010D02*
D03*
X000920Y004170D02*
D03*
Y003980D02*
D03*
X007170Y004632D02*
D03*
Y004822D02*
D03*
X002195Y001840D02*
D03*
Y001650D02*
D03*
X003317Y000820D02*
D03*
Y001010D02*
D03*
X003485D02*
D03*
Y000820D02*
D03*
X006704Y004470D02*
D03*
Y004280D02*
D03*
X006937Y004470D02*
D03*
Y004280D02*
D03*
X006471Y004279D02*
D03*
Y004469D02*
D03*
X003700Y005300D02*
D03*
Y005490D02*
D03*
X003870Y005300D02*
D03*
Y005490D02*
D03*
X004040Y005300D02*
D03*
Y005490D02*
D03*
X004210Y005300D02*
D03*
Y005490D02*
D03*
X004380Y005300D02*
D03*
Y005490D02*
D03*
X004550Y005300D02*
D03*
Y005490D02*
D03*
X004720Y005300D02*
D03*
Y005490D02*
D03*
X004890D02*
D03*
Y005300D02*
D03*
X005060Y005301D02*
D03*
Y005490D02*
D03*
X002369Y001010D02*
D03*
Y000820D02*
D03*
X008030Y003010D02*
D03*
Y003200D02*
D03*
Y002620D02*
D03*
Y002810D02*
D03*
D47*
X000332Y002186D02*
Y002210D01*
X000272Y002127D02*
X000332Y002186D01*
X002550Y002134D02*
X002972D01*
X007170Y004280D02*
X007175Y004285D01*
X007975D01*
X007980Y004290D01*
X002555Y001372D02*
X002660Y001267D01*
X002550Y001372D02*
X002555D01*
X002972Y001000D02*
Y002134D01*
Y000833D02*
Y001000D01*
X002540Y002124D02*
X002550Y002134D01*
X002972D02*
X003968D01*
X002200D02*
X002550D01*
X003968D02*
X003970Y002132D01*
X003861Y004940D02*
X004210D01*
X000272Y001970D02*
Y002127D01*
X008232Y002610D02*
X008432D01*
X008232Y002810D02*
X008432D01*
X008232Y003010D02*
X008432D01*
X008232Y003210D02*
X008432D01*
X002540Y001830D02*
Y002124D01*
X002195Y001840D02*
X002200Y001835D01*
X002345D02*
X002350Y001830D01*
X002344Y001656D02*
X002350Y001663D01*
X005865Y003205D02*
X007675D01*
X007680Y003210D01*
X005730Y003070D02*
X005865Y003205D01*
X002850Y004590D02*
X002980D01*
X002720D02*
X002850D01*
X006960Y004678D02*
Y004890D01*
X006446Y004469D02*
X006471D01*
X005950Y004966D02*
X006446Y004469D01*
X005950Y004966D02*
Y005150D01*
X007170Y004822D02*
Y005135D01*
X007180Y005145D01*
Y005147D01*
X006945Y004470D02*
X007170D01*
X006960Y004485D02*
Y004678D01*
X006945Y004470D02*
X006960Y004485D01*
X006937Y004470D02*
X006945D01*
X007170D02*
Y004632D01*
X006704Y004470D02*
X006937D01*
X006524Y005150D02*
X006560Y005186D01*
X005950Y005150D02*
X006524D01*
X006960Y005186D02*
X006994Y005152D01*
Y005147D02*
X007178D01*
Y005152D02*
X007180Y005150D01*
X006471Y004280D02*
X006937D01*
X006101Y004279D02*
X006471D01*
X006000Y004380D02*
X006101Y004279D01*
X006471D02*
X006471Y004280D01*
X006937D02*
X006937Y004280D01*
X002369Y000641D02*
Y000820D01*
Y000641D02*
X002500Y000510D01*
X004312Y004863D02*
X004467D01*
X004235Y004940D02*
X004312Y004863D01*
X004210Y004940D02*
X004235D01*
X007850Y002472D02*
Y002770D01*
X007800Y002423D02*
X007850Y002472D01*
X007800Y002420D02*
Y002423D01*
X007098Y002599D02*
X007217Y002480D01*
X007620D01*
X007098Y002599D02*
Y002770D01*
X007225Y000770D02*
Y001100D01*
Y000765D02*
Y000770D01*
X005855Y001100D02*
Y001365D01*
X005570Y001650D02*
X005855Y001365D01*
X007690Y000770D02*
X007852Y000932D01*
Y000980D01*
X007834Y001084D02*
X007850Y001100D01*
X006509Y003010D02*
X007680D01*
X006480Y002726D02*
Y002981D01*
X006509Y003010D01*
X005730Y002759D02*
Y003070D01*
X002550Y004890D02*
Y005100D01*
X002209Y005162D02*
X002488D01*
X002550Y005100D01*
X003850Y004929D02*
X003861Y004940D01*
X003850Y004890D02*
Y004929D01*
Y004620D02*
Y004890D01*
X003740Y004510D02*
X003850Y004620D01*
X003090Y004510D02*
X003150Y004570D01*
Y004890D01*
X002550Y004570D02*
Y004890D01*
Y004570D02*
X002610Y004510D01*
X003050Y004660D02*
Y004890D01*
X002980Y004590D02*
X003050Y004660D01*
X002650Y004660D02*
Y004890D01*
Y004660D02*
X002720Y004590D01*
X008232Y003810D02*
X008432D01*
X008232Y004010D02*
X008432D01*
X005728Y000771D02*
Y001099D01*
X006480Y000770D02*
Y001100D01*
X007098Y000770D02*
Y001098D01*
X008030Y002620D02*
X008035Y002615D01*
X008228D01*
X008232Y002610D01*
X008030Y002810D02*
X008030Y002810D01*
X008232D01*
X008232Y002810D01*
X008030Y003010D02*
X008030Y003010D01*
X008232D01*
X008232Y003010D01*
X008030Y003200D02*
X008035Y003205D01*
X008228D01*
X008232Y003210D01*
D48*
X000945Y001523D02*
X000960Y001538D01*
X000945Y001523D02*
Y001538D01*
Y001420D02*
Y001523D01*
X000950Y001705D02*
Y002035D01*
X000945Y001705D02*
Y002040D01*
Y001538D02*
Y001705D01*
Y002040D02*
X000950Y002035D01*
X000498Y002727D02*
X001053D01*
X000416Y002810D02*
X000498Y002727D01*
X000267Y002810D02*
X000416D01*
X001053Y002727D02*
X001070Y002710D01*
Y002598D02*
Y002710D01*
X000497Y002520D02*
X000997D01*
X000432Y002910D02*
X001087D01*
X000413Y003115D02*
X001104D01*
X000407Y002610D02*
X000497Y002520D01*
X000332Y002610D02*
X000407D01*
X000997Y002520D02*
X001042Y002475D01*
Y002133D02*
Y002475D01*
X000416Y003311D02*
X001101D01*
X000267Y002610D02*
X000332D01*
Y003010D02*
X000432Y002910D01*
X000267Y003010D02*
X000332D01*
X001175Y003612D02*
Y003769D01*
X000416Y003511D02*
X001075D01*
X001175Y003612D01*
X001130Y003653D02*
Y003787D01*
X001087Y003610D02*
X001130Y003653D01*
X000707Y003610D02*
X001087D01*
X001130Y003787D02*
X001172Y003829D01*
X001160Y002635D02*
Y002837D01*
X001087Y002910D02*
X001160Y002837D01*
X001115Y002616D02*
Y002777D01*
X000707Y002810D02*
X001082D01*
X001115Y002777D01*
X000710Y002607D02*
X000998D01*
X001025Y002579D02*
Y002579D01*
X000998Y002607D02*
X001025Y002579D01*
Y002579D02*
X001087Y002517D01*
Y002152D02*
Y002517D01*
X001132Y002170D02*
Y002536D01*
X001070Y002598D02*
X001132Y002536D01*
X001177Y002189D02*
Y002555D01*
X001115Y002616D02*
X001177Y002555D01*
X001222Y002208D02*
Y002573D01*
X001160Y002635D02*
X001222Y002573D01*
X001082Y003866D02*
Y004208D01*
X001040Y003825D02*
X001082Y003866D01*
X001040Y003825D02*
Y003825D01*
X000707Y003810D02*
X001025D01*
X001040Y003825D01*
X001085Y003806D02*
X001127Y003848D01*
X000417Y003710D02*
X001070D01*
X001085Y003725D01*
Y003806D01*
X001127Y003848D02*
Y004189D01*
X001172Y003829D02*
Y004171D01*
X001175Y003769D02*
X001217Y003811D01*
Y004152D01*
X001349Y004284D01*
X001220Y003750D02*
X001353Y003883D01*
X000707Y003410D02*
X001060D01*
X001220Y003570D01*
Y003750D01*
X000707Y003210D02*
X001120D01*
X001163Y003253D02*
X001259D01*
X001120Y003210D02*
X001163Y003253D01*
X001259D02*
X001259Y003253D01*
X001311D01*
X001259Y002600D02*
X001320Y002539D01*
X001380Y002491D02*
Y002511D01*
X001352Y002539D02*
X001380Y002511D01*
X001320Y002539D02*
X001352D01*
X001259Y002600D02*
X001259D01*
X001205Y002654D02*
X001259Y002600D01*
X001205Y002654D02*
Y002885D01*
X000708Y003009D02*
X001081D01*
X001205Y002885D01*
X000707Y003010D02*
X000708Y003009D01*
X001372Y003527D02*
X001380Y003535D01*
X001317Y003527D02*
X001372D01*
X001101Y003311D02*
X001317Y003527D01*
X001223Y002994D02*
Y002996D01*
Y002994D02*
X001259Y002958D01*
X001327Y002891D02*
X001352D01*
X001259Y002958D02*
X001261D01*
X001327Y002891D01*
X001380Y002839D02*
Y002864D01*
X001352Y002891D02*
X001380Y002864D01*
X001104Y003115D02*
X001223Y002996D01*
X001380Y003187D02*
Y003212D01*
X001324Y003240D02*
X001352D01*
X001380Y003212D01*
X001311Y003253D02*
X001324Y003240D01*
X000317Y003410D02*
X000416Y003311D01*
X000707Y002610D02*
X000710Y002607D01*
X001070Y001859D02*
X001130Y001799D01*
X001070Y001859D02*
Y002105D01*
X001042Y002133D02*
X001070Y002105D01*
X001170Y001176D02*
X001220Y001126D01*
X001170Y001176D02*
Y001423D01*
X001130Y001463D02*
Y001799D01*
Y001463D02*
X001170Y001423D01*
X001220Y000847D02*
X001315Y000752D01*
X001220Y000847D02*
Y001126D01*
X001120Y001873D02*
X001175Y001818D01*
X001120Y001873D02*
Y002119D01*
X001087Y002152D02*
X001120Y002119D01*
X001220Y001190D02*
Y001436D01*
X001175Y001481D02*
X001220Y001436D01*
X001175Y001481D02*
Y001818D01*
X001220Y001190D02*
X001312Y001098D01*
X001220Y001500D02*
X001274Y001446D01*
X001132Y002170D02*
X001175Y002128D01*
X001220Y001500D02*
Y001836D01*
X001175Y001881D02*
Y002128D01*
Y001881D02*
X001220Y001836D01*
X001274Y001446D02*
X001380D01*
X001177Y002189D02*
X001220Y002146D01*
Y001900D02*
X001317Y001803D01*
X001220Y001900D02*
Y002146D01*
X001378Y000752D02*
X001380Y000750D01*
X001315Y000752D02*
X001378D01*
X001222Y002208D02*
X001287Y002143D01*
X001380D01*
X000317Y003210D02*
X000413Y003115D01*
X000267Y003210D02*
X000317D01*
X001312Y001098D02*
X001380D01*
X001372Y001803D02*
X001380Y001794D01*
X001317Y001803D02*
X001372D01*
X000267Y003410D02*
X000317D01*
Y003610D02*
X000416Y003511D01*
X000267Y003610D02*
X000317D01*
Y003810D02*
X000417Y003710D01*
X000267Y003810D02*
X000317D01*
X000635Y003910D02*
X000825D01*
X000895Y003980D02*
X000920D01*
X000825Y003910D02*
X000895Y003980D01*
X004467Y004200D02*
X004486D01*
X004490Y004076D02*
Y004181D01*
X004529Y004440D02*
X004550D01*
X004486Y004200D02*
Y004397D01*
X004529Y004440D01*
X004490Y002663D02*
Y002901D01*
X004509Y002920D01*
X004490Y002611D02*
Y002663D01*
X004507Y002180D02*
X004550D01*
X004484Y002000D02*
X004490Y002006D01*
Y002162D01*
X004507Y002180D01*
X004522Y002726D02*
Y002733D01*
X004509Y002920D02*
X004550D01*
X004522Y003592D02*
X004550Y003620D01*
X004522Y003486D02*
Y003592D01*
X005230Y005301D02*
Y005360D01*
Y005210D02*
Y005301D01*
X005056Y003091D02*
X005418D01*
X005418Y003091D01*
X005050Y003086D02*
X005056Y003091D01*
X004755Y004749D02*
X004895Y004609D01*
X004755Y003959D02*
X004895Y003819D01*
X004755Y003226D02*
X004895Y003086D01*
X004755Y002493D02*
X004895Y002352D01*
X004755Y001759D02*
X004895Y001619D01*
X004938Y004267D02*
X005006Y004200D01*
X004600Y004267D02*
X004938D01*
X004567Y004297D02*
X004570D01*
X004600Y004267D01*
X004478Y004193D02*
X004490Y004181D01*
Y004926D02*
Y005130D01*
X005050Y001746D02*
X005414D01*
X001177Y005094D02*
X001351Y005267D01*
X001177Y004535D02*
Y005094D01*
X001130Y004256D02*
Y004487D01*
X001177Y004535D01*
X001082Y004208D02*
X001130Y004256D01*
X001358Y004928D02*
X001380D01*
X001175Y004469D02*
X001223Y004516D01*
Y004792D01*
X001358Y004928D01*
X001175Y004237D02*
Y004469D01*
X001127Y004189D02*
X001175Y004237D01*
X001172Y004171D02*
X001220Y004219D01*
Y004450D02*
X001376Y004606D01*
X001220Y004219D02*
Y004450D01*
X001359Y004252D02*
X001380Y004231D01*
X001353Y003883D02*
X001380D01*
X000532Y003410D02*
X000548Y003394D01*
X000617D01*
X005060Y005301D02*
X005230D01*
X004890D02*
X005060D01*
X004890Y005300D02*
X004890Y005301D01*
X006030Y003870D02*
Y003970D01*
X005870Y004130D02*
X006030Y003970D01*
X004740Y002180D02*
Y002190D01*
Y001825D02*
Y002180D01*
X004467Y001619D02*
X004467Y001619D01*
X004351Y001619D02*
X004467D01*
X004350Y001620D02*
X004351Y001619D01*
X004350Y001620D02*
X004360D01*
X003740Y003775D02*
X004065D01*
X005200Y005518D02*
Y005710D01*
Y005518D02*
X005228Y005490D01*
X005230D01*
X004490Y005130D02*
X004520Y005160D01*
X005180D01*
X005230Y005210D01*
X004755Y004749D02*
Y004800D01*
Y004467D02*
Y004749D01*
X004740Y004452D02*
X004755Y004467D01*
X004740Y003292D02*
Y003620D01*
Y003292D02*
X004755Y003277D01*
X004471Y003467D02*
X004503D01*
X004467D02*
X004471D01*
X004503D02*
X004522Y003486D01*
X004893Y003579D02*
Y003669D01*
Y003579D02*
X005006Y003467D01*
X004740Y002558D02*
Y002920D01*
Y002558D02*
X004755Y002543D01*
X004740Y001825D02*
X004755Y001810D01*
X004910Y002297D02*
X004941Y002328D01*
X004877Y002297D02*
X004910D01*
X005006Y002479D02*
X005050D01*
X004941Y002415D02*
X005006Y002479D01*
X004941Y002328D02*
Y002415D01*
X004870Y002290D02*
X004877Y002297D01*
X005331Y002479D02*
X005460Y002350D01*
X005238Y002352D02*
X005410Y002180D01*
X005050Y002352D02*
X005238D01*
X005050Y002479D02*
X005331D01*
X004895Y003086D02*
X005050D01*
X005356Y003946D02*
X005430Y004020D01*
X005050Y003946D02*
X005356D01*
X005006Y003467D02*
X005050D01*
X005006Y004200D02*
X005050D01*
X005006Y002733D02*
X005050D01*
X004903Y002836D02*
X005006Y002733D01*
X004876Y002836D02*
X004903D01*
X005000Y002000D02*
X005050D01*
X004897Y002083D02*
X004917D01*
X005000Y002000D01*
X004890Y002090D02*
X004897Y002083D01*
X004490Y004864D02*
Y004926D01*
Y004076D02*
X004493Y004073D01*
X004471Y003467D02*
X004490Y003447D01*
Y003400D02*
Y003447D01*
X004485Y002606D02*
X004490Y002611D01*
X004467Y001873D02*
X004471D01*
X004490Y001892D01*
Y001934D01*
X004484Y002000D02*
X004490Y001994D01*
Y001934D02*
Y001994D01*
X005050Y003213D02*
X005414D01*
X004895Y004609D02*
X005050D01*
X004895Y003819D02*
X005050D01*
X004755Y003959D02*
Y004010D01*
Y001759D02*
Y001810D01*
Y002493D02*
Y002543D01*
Y003226D02*
Y003277D01*
X004439Y004609D02*
X004467D01*
X004420Y004590D02*
X004439Y004609D01*
X004420Y004528D02*
Y004590D01*
X004439Y003819D02*
X004467D01*
X004420Y003800D02*
X004439Y003819D01*
X004420Y003741D02*
Y003800D01*
X004439Y003086D02*
X004467D01*
X004420Y003066D02*
X004439Y003086D01*
X004420Y003010D02*
Y003066D01*
X004439Y002352D02*
X004467D01*
X004420Y002333D02*
X004439Y002352D01*
X004420Y002280D02*
Y002333D01*
X004439Y001619D02*
X004467D01*
Y004609D02*
X004511D01*
X004530Y004590D01*
X004467Y003819D02*
X004505D01*
X004524Y003800D01*
X006030Y003518D02*
Y003694D01*
Y003870D01*
Y003343D02*
Y003518D01*
X002570Y003870D02*
Y004040D01*
X002135Y004175D02*
X002435D01*
X002570Y004040D01*
D49*
X000720Y004700D02*
Y005110D01*
X001270Y005660D01*
X001659D01*
X000410Y004390D02*
X000720Y004700D01*
X000663Y004572D02*
X000663D01*
X000770Y004679D02*
Y005090D01*
X000663Y004572D02*
X000770Y004679D01*
X000460Y004369D02*
X000663Y004572D01*
X000410Y004252D02*
Y004390D01*
X000332Y004010D02*
Y004174D01*
X000410Y004252D01*
X000460Y004256D02*
X000537Y004178D01*
X000460Y004256D02*
Y004369D01*
X000537Y004020D02*
Y004178D01*
X000770Y005090D02*
X001290Y005610D01*
X000547Y004010D02*
X000597D01*
X000537Y004020D02*
X000547Y004010D01*
X003790Y005130D02*
X004210D01*
X002348Y003775D02*
X002573Y003550D01*
Y003550D02*
Y003550D01*
X002540Y001382D02*
X002550Y001372D01*
X002540Y001382D02*
Y001550D01*
Y001663D01*
X003935Y005750D02*
X004606D01*
X003737Y005948D02*
Y006060D01*
Y005948D02*
X003935Y005750D01*
X004606D02*
X004921Y006065D01*
X006170D01*
X004900Y006115D02*
X006191D01*
X004585Y005800D02*
X004900Y006115D01*
X004065Y005800D02*
X004585D01*
X006477Y005668D02*
Y005829D01*
X006191Y006115D02*
X006477Y005829D01*
Y005668D02*
X006667Y005478D01*
X006427Y005645D02*
Y005808D01*
X006170Y006065D02*
X006427Y005808D01*
X006667Y005478D02*
X007403D01*
X008600Y004280D01*
X007382Y005428D02*
X008550Y004259D01*
X006467Y005608D02*
X006647Y005428D01*
X007382D01*
X002195Y001650D02*
X002200Y001645D01*
X002195Y001542D02*
Y001645D01*
X004055Y003575D02*
X004060Y003570D01*
X003380Y000510D02*
X003732D01*
X002650Y002603D02*
Y002960D01*
X002849Y002607D02*
Y002959D01*
X001659Y005660D02*
X001744Y005575D01*
X002195Y001840D02*
X002200Y001845D01*
X002195D02*
Y002000D01*
X003204Y000510D02*
X003380D01*
X003028D02*
X003204D01*
X002852D02*
X003028D01*
X002676D02*
X002852D01*
X002500D02*
X002676D01*
X003970Y001120D02*
Y001370D01*
X003485Y001010D02*
X003860D01*
X003970Y001120D01*
X003485Y000820D02*
X003860D01*
X003317D02*
X003485D01*
X003860D02*
X004010Y000670D01*
X003317Y001010D02*
X003485D01*
X003175Y000820D02*
X003317D01*
X003162Y000833D02*
X003175Y000820D01*
X003173Y001010D02*
X003317D01*
X003162Y001000D02*
X003173Y001010D01*
X002202Y001656D02*
X002344D01*
X002200Y001835D02*
X002345D01*
X004320Y001790D02*
Y002480D01*
Y001790D02*
X004360Y001750D01*
X004467Y002480D02*
X004467Y002479D01*
X004320Y002480D02*
Y003210D01*
Y002480D02*
X004467D01*
X003922Y005942D02*
X004065Y005800D01*
X004847Y005710D02*
X005000D01*
X004807Y005750D02*
X004847Y005710D01*
X004700Y005750D02*
X004807D01*
X003922Y005942D02*
Y006060D01*
X002302Y005985D02*
X003476D01*
X003551Y006060D01*
X002297D02*
X003180D01*
X002217Y005980D02*
X002297Y006060D01*
X005650Y002890D02*
Y003230D01*
X005580Y002820D02*
X005650Y002890D01*
Y003230D02*
X005763Y003343D01*
X005580Y003268D02*
X005695Y003383D01*
X005580Y002950D02*
Y003268D01*
X005763Y003343D02*
X005840D01*
X005695Y003383D02*
Y003485D01*
X005728Y003518D02*
X005840D01*
X005695Y003485D02*
X005728Y003518D01*
X005500Y002402D02*
Y002606D01*
Y002402D02*
X005525Y002377D01*
Y002015D02*
Y002377D01*
X005500Y002606D02*
Y003340D01*
X005050Y002606D02*
X005500D01*
X005645Y003430D02*
Y003665D01*
X005580Y003360D02*
Y003365D01*
X005645Y003430D01*
X005674Y003694D02*
X005840D01*
X005645Y003665D02*
X005674Y003694D01*
X005580Y003460D02*
Y003810D01*
X005500Y003340D02*
Y003870D01*
X005580Y003810D02*
X005640Y003870D01*
X005840D01*
X002140Y000820D02*
Y000840D01*
Y000700D02*
Y000820D01*
X006392Y004678D02*
X006560D01*
X006390Y004680D02*
X006392Y004678D01*
X002330Y000520D02*
X002330Y000520D01*
X002320Y000520D02*
X002330D01*
X002140Y000700D02*
X002320Y000520D01*
X003750Y004700D02*
Y004890D01*
X003650Y004600D02*
X003750Y004700D01*
X003050Y002960D02*
Y003240D01*
X003010Y003280D02*
X003050Y003240D01*
X002970Y003550D02*
X003150Y003370D01*
X002573Y003550D02*
X002970D01*
X003150Y002960D02*
Y003370D01*
X004065Y003675D02*
Y003775D01*
X003740Y003575D02*
X004055D01*
X004447Y003676D02*
X004521Y003750D01*
X004614D02*
X004620Y003756D01*
X004521Y003750D02*
X004614D01*
X004326Y003676D02*
X004447D01*
X004320Y003670D02*
X004326Y003676D01*
X004320Y003670D02*
Y003946D01*
Y003210D02*
Y003670D01*
X005050Y001619D02*
X005531D01*
X005562Y001650D01*
X005570D01*
X005383Y001873D02*
X005525Y002015D01*
X005062Y004085D02*
X005480D01*
X005050Y004073D02*
X005062Y004085D01*
X005580Y003967D02*
Y004850D01*
X005440Y004990D02*
X005580Y004850D01*
X005050Y004990D02*
X005440D01*
X005700Y001650D02*
X005950Y001400D01*
X005696Y001650D02*
X005700D01*
X005950Y000841D02*
Y001400D01*
X005764Y000655D02*
X005950Y000841D01*
X006219Y000596D02*
X006225Y000590D01*
X006216Y000620D02*
X006219Y000617D01*
X006169Y001646D02*
Y001650D01*
X006219Y000596D02*
Y000617D01*
X006169Y001646D02*
X006216Y001598D01*
Y000620D02*
Y001598D01*
X006088Y000815D02*
Y001495D01*
X005862Y000590D02*
X006088Y000815D01*
X005932Y001650D02*
X006088Y001495D01*
X005770Y000590D02*
X006026Y000846D01*
X005924Y001541D02*
X006026Y001438D01*
Y000846D02*
Y001438D01*
X006051Y001650D02*
X006150Y001551D01*
Y000696D02*
Y001551D01*
X006044Y000590D02*
X006150Y000696D01*
X006270Y000726D02*
X006406Y000590D01*
X006287Y001642D02*
Y001650D01*
X006270Y000726D02*
Y001625D01*
X006287Y001642D01*
X005500Y003870D02*
Y004790D01*
X005050Y003340D02*
X005500D01*
X005500Y003340D01*
X005050Y004863D02*
X005427D01*
X005500Y004790D01*
X005397Y004736D02*
X005413D01*
X005414Y004736D01*
X005050Y004736D02*
X005396D01*
X005397Y004736D01*
X005050Y001873D02*
X005383D01*
X004360Y001750D02*
X004463D01*
X004467Y001746D01*
X004320Y004680D02*
X004376Y004736D01*
X004467D01*
X004320Y003946D02*
Y004680D01*
Y003946D02*
X004467D01*
X004320Y003210D02*
X004323Y003213D01*
X004467D01*
X005060Y005490D02*
Y005650D01*
X003700Y005300D02*
X003870D01*
X004040D01*
X004210D02*
X004380D01*
X004550D01*
X004720D01*
X004890D01*
X004040D02*
X004210D01*
X005000Y005710D02*
X005060Y005650D01*
X002950Y004890D02*
Y005255D01*
X002567Y005638D02*
Y005870D01*
Y005638D02*
X002950Y005255D01*
X002850Y004890D02*
Y005250D01*
X002469Y005631D02*
Y005870D01*
Y005631D02*
X002850Y005250D01*
X002750Y004890D02*
Y005255D01*
X002370Y005635D02*
Y005870D01*
Y005635D02*
X002750Y005255D01*
X002666Y005870D02*
X002667Y005868D01*
Y005634D02*
Y005868D01*
X003060Y005638D02*
Y005870D01*
X003643Y004897D02*
X003650Y004890D01*
X003643Y004897D02*
Y005055D01*
X003060Y005638D02*
X003643Y005055D01*
X003244Y004896D02*
X003250Y004890D01*
X003244Y004896D02*
Y005058D01*
X002667Y005634D02*
X003244Y005058D01*
X003350Y004890D02*
Y005058D01*
X002770Y005637D02*
X003350Y005058D01*
X002770Y005637D02*
Y005864D01*
X002863Y005642D02*
X003450Y005055D01*
Y004890D02*
Y005055D01*
X003547Y004892D02*
Y005055D01*
Y004892D02*
X003550Y004890D01*
X002961Y005641D02*
X003547Y005055D01*
X002961Y005641D02*
Y005870D01*
X002863Y005642D02*
Y005870D01*
X002764D02*
X002770Y005864D01*
X005924Y001541D02*
X005924D01*
X005500Y000590D02*
X005589D01*
X005654Y000655D01*
X005764D01*
X005681Y000590D02*
X005770D01*
X005814Y001650D02*
X005924Y001541D01*
X006427Y005645D02*
X006465Y005608D01*
X006467D01*
X008550Y002527D02*
Y004259D01*
X008600Y002327D02*
Y004280D01*
X001290Y005610D02*
X001638D01*
X002135Y003775D02*
X002348D01*
X002135Y003875D02*
X002430D01*
X002568Y003735D02*
Y003737D01*
X002430Y003875D02*
X002568Y003737D01*
X002135Y003875D02*
Y003975D01*
X002690Y003950D02*
Y004090D01*
X002135Y004375D02*
X002575D01*
X002820Y003950D02*
Y004130D01*
X002575Y004375D02*
X002820Y004130D01*
X002135Y004275D02*
X002505D01*
X002690Y004090D01*
X002019Y004875D02*
Y005162D01*
Y004875D02*
X002070Y004825D01*
Y004820D02*
Y004825D01*
X003750Y004890D02*
Y005090D01*
X003790Y005130D01*
X001638Y005610D02*
X001723Y005525D01*
X002042D01*
X002267Y005751D01*
X001744Y005575D02*
X002021D01*
X002267Y005950D02*
X002302Y005985D01*
X002267Y005751D02*
Y005950D01*
X002217Y005771D02*
Y005980D01*
X002021Y005575D02*
X002217Y005771D01*
X008432Y002210D02*
X008483D01*
X008232D02*
X008432D01*
X008483D02*
X008600Y002327D01*
X008432Y002410D02*
X008550Y002527D01*
X008232Y002410D02*
X008432D01*
X003740Y004390D02*
X004050D01*
X003740Y004390D02*
X003740Y004390D01*
X004050D02*
X004065Y004375D01*
X003740Y004280D02*
X004060D01*
X004065Y004275D01*
X003250Y002630D02*
Y002960D01*
X003100Y002480D02*
X003250Y002630D01*
X003750Y002960D02*
X003750Y002960D01*
Y002610D02*
Y002960D01*
Y002610D02*
X003751Y002610D01*
X003650D02*
Y002960D01*
X003550Y002610D02*
Y002960D01*
X002448Y002958D02*
X002450Y002960D01*
X002448Y002612D02*
Y002958D01*
X002446Y002610D02*
X002448Y002612D01*
X002345Y002955D02*
X002350Y002960D01*
X002345Y002615D02*
Y002955D01*
X002340Y002610D02*
X002345Y002615D01*
X003450Y002620D02*
Y002960D01*
X003350Y002610D02*
Y002960D01*
X002550Y002604D02*
Y002960D01*
X002546Y002600D02*
X002550Y002604D01*
X002647Y002600D02*
X002650Y002603D01*
X002750Y002602D02*
Y002960D01*
X002747Y002600D02*
X002750Y002602D01*
X002849Y002959D02*
X002850Y002960D01*
X002848Y002606D02*
X002849Y002607D01*
X002950Y002610D02*
Y002960D01*
D53*
X008232Y002210D02*
D03*
X008432D02*
D03*
X008232Y002410D02*
D03*
X008432D02*
D03*
X008232Y002610D02*
D03*
X008432D02*
D03*
X008232Y002810D02*
D03*
X008432D02*
D03*
Y004010D02*
D03*
X008232D02*
D03*
X008432Y003810D02*
D03*
X008232D02*
D03*
X008432Y003610D02*
D03*
X008232D02*
D03*
X008432Y003410D02*
D03*
X008232D02*
D03*
X008432Y003210D02*
D03*
X008232D02*
D03*
X008432Y003010D02*
D03*
X008232D02*
D03*
X000532Y002210D02*
D03*
X000332D02*
D03*
X000532Y002410D02*
D03*
X000332D02*
D03*
X000532Y002610D02*
D03*
X000332D02*
D03*
X000532Y002810D02*
D03*
X000332D02*
D03*
Y004010D02*
D03*
X000532D02*
D03*
X000332Y003810D02*
D03*
X000532D02*
D03*
X000332Y003610D02*
D03*
X000532D02*
D03*
X000332Y003410D02*
D03*
X000532D02*
D03*
X000332Y003210D02*
D03*
X000532D02*
D03*
X000332Y003010D02*
D03*
X000532D02*
D03*
X007980Y004290D02*
D03*
Y004510D02*
D03*
D54*
X004755Y001810D02*
D03*
Y002543D02*
D03*
Y003277D02*
D03*
Y004010D02*
D03*
Y004800D02*
D03*
D55*
X004655Y001940D02*
D03*
X004855D02*
D03*
Y001680D02*
D03*
X004655D02*
D03*
Y002413D02*
D03*
X004855D02*
D03*
Y002673D02*
D03*
X004655D02*
D03*
Y003407D02*
D03*
X004855D02*
D03*
Y003147D02*
D03*
X004655D02*
D03*
Y003880D02*
D03*
X004855D02*
D03*
Y004140D02*
D03*
X004655D02*
D03*
Y004670D02*
D03*
X004855D02*
D03*
Y004930D02*
D03*
X004655D02*
D03*
X002200Y002134D02*
D03*
D56*
X005800Y005910D02*
D03*
Y005710D02*
D03*
X005600Y005910D02*
D03*
Y005710D02*
D03*
X005400Y005910D02*
D03*
Y005710D02*
D03*
X005200Y005910D02*
D03*
Y005710D02*
D03*
X005000Y005910D02*
D03*
X006000D02*
D03*
Y005710D02*
D03*
D57*
X005000D02*
D03*
D58*
X000450Y002000D02*
D03*
X000600Y001408D02*
D03*
X000755D02*
D03*
X000945D02*
D03*
X000330Y004330D02*
D03*
X000514Y001820D02*
D03*
X000550Y002060D02*
D03*
X007800Y001870D02*
D03*
X004490Y002663D02*
D03*
X004489Y004135D02*
D03*
X001285Y003191D02*
D03*
X005414Y003091D02*
D03*
X002870Y001306D02*
D03*
X003047D02*
D03*
X002195Y001542D02*
D03*
X001285Y003361D02*
D03*
X000635Y003910D02*
D03*
X001285Y005102D02*
D03*
Y003020D02*
D03*
X001950Y002556D02*
D03*
X001285Y002662D02*
D03*
X001950Y002926D02*
D03*
Y003050D02*
D03*
X001925Y003947D02*
D03*
X002770Y001390D02*
D03*
X002195Y002000D02*
D03*
X003556Y000509D02*
D03*
X007030Y003330D02*
D03*
X007220Y003280D02*
D03*
X004700Y005750D02*
D03*
X005580Y002820D02*
D03*
Y002950D02*
D03*
X006220Y003030D02*
D03*
X005580Y003360D02*
D03*
Y003460D02*
D03*
X005430Y003767D02*
D03*
Y003567D02*
D03*
X000530Y004660D02*
D03*
X004830Y001240D02*
D03*
X004350Y001620D02*
D03*
X007700Y003620D02*
D03*
X007460Y004020D02*
D03*
X006960Y004890D02*
D03*
X006390Y004680D02*
D03*
X005950Y005150D02*
D03*
X007180Y005147D02*
D03*
X006000Y004380D02*
D03*
X005600Y005269D02*
D03*
X004010Y000670D02*
D03*
X002330Y000510D02*
D03*
X001950Y001320D02*
D03*
X003650Y004600D02*
D03*
X002850Y004590D02*
D03*
X000462Y001630D02*
D03*
Y001480D02*
D03*
X003010Y003280D02*
D03*
X003740Y003775D02*
D03*
Y003575D02*
D03*
X004893Y003669D02*
D03*
X004620Y003756D02*
D03*
X005460Y002350D02*
D03*
X005410Y002180D02*
D03*
X007620Y002480D02*
D03*
X005870Y004130D02*
D03*
X005500Y003870D02*
D03*
X005430Y004020D02*
D03*
X005580Y003967D02*
D03*
X004870Y002290D02*
D03*
X007225Y000770D02*
D03*
X005570Y001650D02*
D03*
X004567Y004297D02*
D03*
X004876Y002836D02*
D03*
X004890Y002090D02*
D03*
X005414Y001750D02*
D03*
Y003213D02*
D03*
Y004736D02*
D03*
X004490Y004926D02*
D03*
Y001934D02*
D03*
Y003400D02*
D03*
X004420Y004528D02*
D03*
Y002280D02*
D03*
Y003010D02*
D03*
Y003741D02*
D03*
X001950Y002185D02*
D03*
Y001567D02*
D03*
X002950Y002610D02*
D03*
X004203Y005680D02*
D03*
X006051Y001650D02*
D03*
X006169D02*
D03*
X006287D02*
D03*
X001950Y001938D02*
D03*
X002370Y005870D02*
D03*
X003545Y005577D02*
D03*
X004121Y005680D02*
D03*
X001495Y000585D02*
D03*
X002690Y003950D02*
D03*
X004040Y005680D02*
D03*
X001950Y002432D02*
D03*
X002647Y002610D02*
D03*
X002340D02*
D03*
X001950Y002679D02*
D03*
Y001691D02*
D03*
X003445Y005577D02*
D03*
X001950Y001814D02*
D03*
X004610Y005680D02*
D03*
X002446Y002610D02*
D03*
X002820Y003950D02*
D03*
X002764Y005870D02*
D03*
X003650Y002610D02*
D03*
X001950Y001444D02*
D03*
X004447Y005680D02*
D03*
X005814Y001650D02*
D03*
X004529Y005680D02*
D03*
X003350Y002610D02*
D03*
X001950Y002309D02*
D03*
X004284Y005680D02*
D03*
X002469Y005870D02*
D03*
X002567D02*
D03*
X004366Y005680D02*
D03*
X001493Y005725D02*
D03*
X003100Y002480D02*
D03*
X003060Y005870D02*
D03*
X001950Y002061D02*
D03*
X002848Y002610D02*
D03*
X002666Y005870D02*
D03*
X005932Y001650D02*
D03*
X003751Y002610D02*
D03*
X002747D02*
D03*
X003450D02*
D03*
X001950Y002803D02*
D03*
X002570Y003870D02*
D03*
X002863Y005870D02*
D03*
X002961D02*
D03*
X003740Y004280D02*
D03*
Y004390D02*
D03*
X003550Y002610D02*
D03*
X005696Y001650D02*
D03*
X002546Y002610D02*
D03*
X003551Y006060D02*
D03*
X003737D02*
D03*
X003180D02*
D03*
X003922D02*
D03*
X003366D02*
D03*
X005862Y000590D02*
D03*
X000272Y001660D02*
D03*
X002400Y000160D02*
D03*
X000600Y004767D02*
D03*
X002570Y003550D02*
D03*
Y003735D02*
D03*
X001285Y004130D02*
D03*
Y003720D02*
D03*
X002070Y004820D02*
D03*
X003740Y004510D02*
D03*
X003090D02*
D03*
X002610D02*
D03*
X006044Y000590D02*
D03*
X006225D02*
D03*
X006406D02*
D03*
X005681D02*
D03*
X005500D02*
D03*
X001285Y005450D02*
D03*
X002500Y000510D02*
D03*
X002676D02*
D03*
X003732D02*
D03*
X003380D02*
D03*
X003204D02*
D03*
X003028D02*
D03*
X002852D02*
D03*
X002400Y000290D02*
D03*
X002600D02*
D03*
X005728Y000770D02*
D03*
X006480D02*
D03*
X007098D02*
D03*
X007690D02*
D03*
X007680Y003210D02*
D03*
Y003010D02*
D03*
X007800Y002420D02*
D03*
X001285Y004754D02*
D03*
Y004406D02*
D03*
Y001304D02*
D03*
Y001620D02*
D03*
Y001980D02*
D03*
Y002340D02*
D03*
Y000954D02*
D03*
D59*
X002540Y001550D02*
D03*
D60*
X006882Y000310D02*
D03*
X001882D02*
D03*
Y005910D02*
D03*
X006882D02*
D03*
D74*
X001578Y000521D02*
D03*
X001608Y000494D02*
D03*
X002213Y000356D02*
D03*
D75*
X006960Y005186D02*
D03*
D76*
X006560D02*
D03*
X006960Y004678D02*
D03*
X006560D02*
D03*
D77*
X007098Y001100D02*
D03*
X005728D02*
D03*
D78*
X007225D02*
D03*
X007725D02*
D03*
X007850D02*
D03*
Y002770D02*
D03*
X007725D02*
D03*
X007098D02*
D03*
X007225D02*
D03*
X005855Y001100D02*
D03*
X006355D02*
D03*
X006480D02*
D03*
Y002770D02*
D03*
X006355D02*
D03*
X005728D02*
D03*
X005855D02*
D03*
D79*
X004755Y001810D02*
D03*
Y002543D02*
D03*
Y003277D02*
D03*
Y004010D02*
D03*
Y004800D02*
D03*
D80*
X004467Y001619D02*
D03*
Y001746D02*
D03*
Y001873D02*
D03*
Y002000D02*
D03*
X005050Y001619D02*
D03*
Y001746D02*
D03*
Y001873D02*
D03*
Y002606D02*
D03*
Y002479D02*
D03*
Y002352D02*
D03*
X004467Y002733D02*
D03*
Y002606D02*
D03*
Y002479D02*
D03*
Y002352D02*
D03*
Y003086D02*
D03*
Y003213D02*
D03*
Y003340D02*
D03*
Y003467D02*
D03*
X005050Y003086D02*
D03*
Y003213D02*
D03*
Y003340D02*
D03*
Y004073D02*
D03*
Y003946D02*
D03*
Y003819D02*
D03*
X004467Y004200D02*
D03*
Y004073D02*
D03*
Y003946D02*
D03*
Y003819D02*
D03*
X005050Y004863D02*
D03*
Y004736D02*
D03*
Y004609D02*
D03*
X004467Y004990D02*
D03*
Y004863D02*
D03*
Y004736D02*
D03*
Y004609D02*
D03*
D81*
X005050Y002000D02*
D03*
Y002733D02*
D03*
Y003467D02*
D03*
Y004200D02*
D03*
Y004990D02*
D03*
D82*
X003050Y002960D02*
D03*
D83*
X002950D02*
D03*
X002850D02*
D03*
X002750D02*
D03*
X002650D02*
D03*
X002550D02*
D03*
X002450D02*
D03*
X002350D02*
D03*
Y004890D02*
D03*
X002450D02*
D03*
X002550D02*
D03*
X002650D02*
D03*
X002750D02*
D03*
X002850D02*
D03*
X002950D02*
D03*
X003050D02*
D03*
X003150D02*
D03*
X003250D02*
D03*
X003450D02*
D03*
X003550D02*
D03*
X003650D02*
D03*
X003750D02*
D03*
X003850D02*
D03*
X003350D02*
D03*
X003150Y002960D02*
D03*
X003250D02*
D03*
X003350D02*
D03*
X003450D02*
D03*
X003550D02*
D03*
X003650D02*
D03*
X003750D02*
D03*
X003850D02*
D03*
D84*
X002135Y003975D02*
D03*
Y004075D02*
D03*
Y004175D02*
D03*
Y004275D02*
D03*
Y004375D02*
D03*
Y004475D02*
D03*
Y004575D02*
D03*
Y004675D02*
D03*
X004065D02*
D03*
Y004575D02*
D03*
Y004475D02*
D03*
Y004375D02*
D03*
Y004275D02*
D03*
Y004175D02*
D03*
Y004075D02*
D03*
Y003975D02*
D03*
Y003875D02*
D03*
Y003775D02*
D03*
Y003575D02*
D03*
Y003475D02*
D03*
Y003375D02*
D03*
Y003275D02*
D03*
Y003175D02*
D03*
Y003675D02*
D03*
X002135Y003875D02*
D03*
Y003775D02*
D03*
Y003675D02*
D03*
Y003575D02*
D03*
Y003475D02*
D03*
Y003375D02*
D03*
Y003275D02*
D03*
Y003175D02*
D03*
M02*
