G04*
G04 #@! TF.GenerationSoftware,Altium Limited,Altium Designer,20.1.10 (176)*
G04*
G04 Layer_Color=8388736*
%FSAX42Y42*%
%MOMM*%
G71*
G04*
G04 #@! TF.SameCoordinates,1BA63ED6-0030-4306-BA36-9B072EE6F18F*
G04*
G04*
G04 #@! TF.FilePolarity,Negative*
G04*
G01*
G75*
%ADD16C,0.20*%
%ADD17R,1.83X1.02*%
%ADD18R,1.70X0.70*%
%ADD19R,1.00X1.50*%
%ADD20R,3.40X2.80*%
%ADD21R,1.50X1.00*%
%ADD22R,3.20X1.00*%
%ADD23O,3.20X1.00*%
%ADD24R,0.80X0.70*%
%ADD25R,3.70X0.45*%
%ADD26R,0.45X3.70*%
%ADD27O,0.45X3.70*%
%ADD28C,1.20*%
%ADD29C,0.20*%
%ADD30C,1.70*%
%ADD31C,1.00*%
%ADD32C,1.57*%
%ADD33R,1.57X1.57*%
%ADD34C,0.80*%
%ADD35C,5.60*%
D16*
X004036Y006060D02*
G03*
X004729Y006060I000346J000200D01*
G01*
Y000160D02*
G03*
X004036Y000160I-000346J-000200D01*
G01*
X008595Y001522D02*
G03*
X008683Y001734I-000212J000212D01*
G01*
Y004486D02*
G03*
X008595Y004698I-000300J-000000D01*
G01*
X007171Y006122D02*
G03*
X006959Y006210I-000212J-000212D01*
G01*
Y000010D02*
G03*
X007171Y000098I-000000J000300D01*
G01*
X004989Y006210D02*
G03*
X004729Y006060I000000J-000300D01*
G01*
Y000160D02*
G03*
X004989Y000010I000260J000150D01*
G01*
X004036Y006060D02*
G03*
X003777Y006210I-000260J-000150D01*
G01*
Y000010D02*
G03*
X004036Y000160I000000J000300D01*
G01*
X001807Y006210D02*
G03*
X001595Y006122I000000J-000300D01*
G01*
Y000098D02*
G03*
X001807Y000010I000212J000212D01*
G01*
X000083Y001734D02*
G03*
X000171Y001522I000300J000000D01*
G01*
Y004698D02*
G03*
X000083Y004486I000212J-000212D01*
G01*
X000171Y001522D02*
X001595Y000098D01*
X000171Y004698D02*
X001595Y006122D01*
X007171Y000098D02*
X008595Y001522D01*
X007171Y006122D02*
X008595Y004698D01*
X004989Y006210D02*
X006959D01*
X004989Y000010D02*
X006959D01*
X001807Y006210D02*
X003777D01*
X001807Y000010D02*
X003777D01*
X008683Y001734D02*
Y004486D01*
X000083Y001734D02*
Y004486D01*
D17*
X008057Y002610D02*
D03*
Y002210D02*
D03*
Y002410D02*
D03*
Y002810D02*
D03*
Y003610D02*
D03*
Y003210D02*
D03*
Y003010D02*
D03*
Y003410D02*
D03*
Y004010D02*
D03*
Y003810D02*
D03*
X008607D02*
D03*
Y003210D02*
D03*
Y003010D02*
D03*
Y003410D02*
D03*
Y003610D02*
D03*
Y002810D02*
D03*
Y002610D02*
D03*
Y002210D02*
D03*
Y002410D02*
D03*
Y004010D02*
D03*
D18*
X008168Y004010D02*
D03*
Y003810D02*
D03*
Y003610D02*
D03*
Y003410D02*
D03*
Y003210D02*
D03*
Y003010D02*
D03*
Y002810D02*
D03*
Y002610D02*
D03*
Y002410D02*
D03*
X008497Y004010D02*
D03*
Y003810D02*
D03*
Y003610D02*
D03*
Y003410D02*
D03*
Y003210D02*
D03*
Y003010D02*
D03*
Y002810D02*
D03*
Y002610D02*
D03*
Y002410D02*
D03*
Y002210D02*
D03*
X008168D02*
D03*
D19*
X007800Y002010D02*
D03*
X007990D02*
D03*
X007800Y003410D02*
D03*
X007990D02*
D03*
X007800Y002610D02*
D03*
X007990D02*
D03*
X007800Y003610D02*
D03*
X007990D02*
D03*
X007990Y003810D02*
D03*
X007800D02*
D03*
X007990Y004010D02*
D03*
X007800D02*
D03*
X007800Y002810D02*
D03*
X007990D02*
D03*
X007800Y003210D02*
D03*
X007990D02*
D03*
Y003010D02*
D03*
X007800D02*
D03*
X005600Y005147D02*
D03*
X005790D02*
D03*
X005599Y004980D02*
D03*
X005790D02*
D03*
X000950Y005100D02*
D03*
X001140D02*
D03*
X000950Y005275D02*
D03*
X001140D02*
D03*
X005790Y004300D02*
D03*
X005600D02*
D03*
X005790Y004470D02*
D03*
X005600D02*
D03*
X005790Y004131D02*
D03*
X005600D02*
D03*
Y004810D02*
D03*
X005790D02*
D03*
Y004640D02*
D03*
X005600D02*
D03*
D20*
X006240Y005150D02*
D03*
Y004388D02*
D03*
X007660Y005152D02*
D03*
Y004390D02*
D03*
D21*
X000272Y001780D02*
D03*
Y001970D02*
D03*
X003366Y005915D02*
D03*
Y005726D02*
D03*
X005580Y001945D02*
D03*
Y001755D02*
D03*
X000632Y004325D02*
D03*
Y004515D02*
D03*
X005580Y002110D02*
D03*
Y002300D02*
D03*
Y003760D02*
D03*
Y003570D02*
D03*
X000460Y004325D02*
D03*
Y004515D02*
D03*
X007260Y000460D02*
D03*
Y000650D02*
D03*
X003737Y005915D02*
D03*
Y005725D02*
D03*
X003922D02*
D03*
Y005915D02*
D03*
X003551Y005915D02*
D03*
Y005726D02*
D03*
X005500Y000470D02*
D03*
Y000280D02*
D03*
X005681Y000470D02*
D03*
Y000280D02*
D03*
X003180Y005915D02*
D03*
Y005725D02*
D03*
X006044Y000470D02*
D03*
Y000280D02*
D03*
X006225Y000470D02*
D03*
Y000280D02*
D03*
X006406D02*
D03*
Y000470D02*
D03*
X005862D02*
D03*
Y000280D02*
D03*
D22*
X005950Y003655D02*
D03*
X007450Y003405D02*
D03*
X005950Y003280D02*
D03*
Y002780D02*
D03*
Y003155D02*
D03*
Y002905D02*
D03*
Y003030D02*
D03*
Y003405D02*
D03*
X007450Y002905D02*
D03*
Y003030D02*
D03*
Y003155D02*
D03*
Y003280D02*
D03*
Y003530D02*
D03*
Y003655D02*
D03*
Y003780D02*
D03*
X005950Y003530D02*
D03*
Y003780D02*
D03*
Y003905D02*
D03*
X007450D02*
D03*
D23*
Y002780D02*
D03*
D24*
X003732Y000160D02*
D03*
Y000420D02*
D03*
Y000290D02*
D03*
X003556Y000160D02*
D03*
Y000420D02*
D03*
Y000290D02*
D03*
X003380Y000160D02*
D03*
Y000420D02*
D03*
Y000290D02*
D03*
X003204Y000160D02*
D03*
Y000420D02*
D03*
Y000290D02*
D03*
X003028Y000160D02*
D03*
Y000420D02*
D03*
Y000290D02*
D03*
X002852Y000160D02*
D03*
Y000420D02*
D03*
Y000290D02*
D03*
X002676D02*
D03*
Y000420D02*
D03*
Y000160D02*
D03*
X002500D02*
D03*
Y000420D02*
D03*
Y000290D02*
D03*
D25*
X005170Y004767D02*
D03*
Y004717D02*
D03*
Y004667D02*
D03*
Y004617D02*
D03*
Y004567D02*
D03*
Y004517D02*
D03*
Y004467D02*
D03*
Y004417D02*
D03*
Y004367D02*
D03*
Y004317D02*
D03*
Y004267D02*
D03*
Y004217D02*
D03*
Y004167D02*
D03*
Y004117D02*
D03*
Y004067D02*
D03*
Y004017D02*
D03*
Y003967D02*
D03*
Y003917D02*
D03*
Y003867D02*
D03*
Y003817D02*
D03*
Y003767D02*
D03*
Y003717D02*
D03*
Y003667D02*
D03*
Y003617D02*
D03*
Y003567D02*
D03*
Y003517D02*
D03*
Y003467D02*
D03*
Y003417D02*
D03*
Y003367D02*
D03*
Y003317D02*
D03*
Y003267D02*
D03*
Y003217D02*
D03*
Y003167D02*
D03*
Y003117D02*
D03*
Y003067D02*
D03*
Y003017D02*
D03*
Y002967D02*
D03*
Y002917D02*
D03*
Y002867D02*
D03*
Y002817D02*
D03*
Y002767D02*
D03*
Y002717D02*
D03*
Y002667D02*
D03*
Y002617D02*
D03*
Y002567D02*
D03*
Y002517D02*
D03*
Y002467D02*
D03*
Y002417D02*
D03*
Y002367D02*
D03*
Y002317D02*
D03*
Y002267D02*
D03*
Y002217D02*
D03*
Y002167D02*
D03*
Y002117D02*
D03*
Y002067D02*
D03*
Y002017D02*
D03*
Y001967D02*
D03*
Y001917D02*
D03*
Y001867D02*
D03*
Y001817D02*
D03*
Y001767D02*
D03*
Y001717D02*
D03*
Y001667D02*
D03*
Y001617D02*
D03*
X000920D02*
D03*
Y001667D02*
D03*
Y001717D02*
D03*
Y001767D02*
D03*
Y001817D02*
D03*
Y001867D02*
D03*
Y001917D02*
D03*
Y001967D02*
D03*
Y002017D02*
D03*
Y002067D02*
D03*
Y002117D02*
D03*
Y002167D02*
D03*
Y002217D02*
D03*
Y002267D02*
D03*
Y002317D02*
D03*
Y002367D02*
D03*
Y002417D02*
D03*
Y002467D02*
D03*
Y002517D02*
D03*
Y002567D02*
D03*
Y002617D02*
D03*
Y002667D02*
D03*
Y002717D02*
D03*
Y002767D02*
D03*
Y002817D02*
D03*
Y002867D02*
D03*
Y002917D02*
D03*
Y002967D02*
D03*
Y003017D02*
D03*
Y003067D02*
D03*
Y003117D02*
D03*
Y003167D02*
D03*
Y003217D02*
D03*
Y003267D02*
D03*
Y003317D02*
D03*
Y003367D02*
D03*
Y003417D02*
D03*
Y003467D02*
D03*
Y003517D02*
D03*
Y003567D02*
D03*
Y003617D02*
D03*
Y003667D02*
D03*
Y003717D02*
D03*
Y003767D02*
D03*
Y003817D02*
D03*
Y003867D02*
D03*
Y003917D02*
D03*
Y003967D02*
D03*
Y004017D02*
D03*
Y004067D02*
D03*
Y004117D02*
D03*
Y004167D02*
D03*
Y004217D02*
D03*
Y004267D02*
D03*
Y004317D02*
D03*
Y004367D02*
D03*
Y004417D02*
D03*
Y004467D02*
D03*
Y004517D02*
D03*
Y004567D02*
D03*
Y004617D02*
D03*
Y004667D02*
D03*
Y004717D02*
D03*
Y004767D02*
D03*
D26*
X004620Y001067D02*
D03*
X004570D02*
D03*
X004520D02*
D03*
X004470D02*
D03*
X004420D02*
D03*
X004370D02*
D03*
X004320D02*
D03*
X004270D02*
D03*
X004220D02*
D03*
X004170D02*
D03*
X004120D02*
D03*
X004070D02*
D03*
X004020D02*
D03*
X003970D02*
D03*
X003920D02*
D03*
X003870D02*
D03*
X003820D02*
D03*
X003770D02*
D03*
X003720D02*
D03*
X003670D02*
D03*
X003620D02*
D03*
X003570D02*
D03*
X003520D02*
D03*
X003470D02*
D03*
X003420D02*
D03*
X003370D02*
D03*
X003320D02*
D03*
X003270D02*
D03*
X003220D02*
D03*
X003170D02*
D03*
X003120D02*
D03*
X003070D02*
D03*
X003020D02*
D03*
X002970D02*
D03*
X002920D02*
D03*
X002870D02*
D03*
X002820D02*
D03*
X002770D02*
D03*
X002720D02*
D03*
X002670D02*
D03*
X002620D02*
D03*
X002570D02*
D03*
X002520D02*
D03*
X002470D02*
D03*
X002420D02*
D03*
X002370D02*
D03*
X002320D02*
D03*
X002270D02*
D03*
X002220D02*
D03*
X002170D02*
D03*
X002120D02*
D03*
X002070D02*
D03*
X002020D02*
D03*
X001970D02*
D03*
X001920D02*
D03*
X001870D02*
D03*
X001820D02*
D03*
X001770D02*
D03*
X001720D02*
D03*
X001670D02*
D03*
X001620D02*
D03*
X001570D02*
D03*
X001520D02*
D03*
X001470D02*
D03*
Y005317D02*
D03*
X001520D02*
D03*
X001570D02*
D03*
X001620D02*
D03*
X001670D02*
D03*
X001720D02*
D03*
X001770D02*
D03*
X001820D02*
D03*
X001870D02*
D03*
X001920D02*
D03*
X001970D02*
D03*
X002020D02*
D03*
X002070D02*
D03*
X002120D02*
D03*
X002170D02*
D03*
X002220D02*
D03*
X002270D02*
D03*
X002320D02*
D03*
X002370D02*
D03*
X002420D02*
D03*
X002470D02*
D03*
X002520D02*
D03*
X002570D02*
D03*
X002620D02*
D03*
X002670D02*
D03*
X002720D02*
D03*
X002770D02*
D03*
X002820D02*
D03*
X002870D02*
D03*
X002920D02*
D03*
X002970D02*
D03*
X003020D02*
D03*
X003070D02*
D03*
X003120D02*
D03*
X003170D02*
D03*
X003220D02*
D03*
X003270D02*
D03*
X003320D02*
D03*
X003370D02*
D03*
X003420D02*
D03*
X003470D02*
D03*
X003520D02*
D03*
X003570D02*
D03*
X003620D02*
D03*
X003670D02*
D03*
X003720D02*
D03*
X003770D02*
D03*
X003820D02*
D03*
X003870D02*
D03*
X003920D02*
D03*
X003970D02*
D03*
X004020D02*
D03*
X004070D02*
D03*
X004120D02*
D03*
X004170D02*
D03*
X004220D02*
D03*
X004270D02*
D03*
X004320D02*
D03*
X004370D02*
D03*
X004420D02*
D03*
X004470D02*
D03*
X004520D02*
D03*
X004570D02*
D03*
D27*
X004620D02*
D03*
D28*
X008232Y002210D02*
D03*
X008432D02*
D03*
X008232Y002410D02*
D03*
X008432D02*
D03*
X008232Y002610D02*
D03*
X008432D02*
D03*
X008232Y002810D02*
D03*
X008432D02*
D03*
Y004010D02*
D03*
X008232D02*
D03*
X008432Y003810D02*
D03*
X008232D02*
D03*
X008432Y003610D02*
D03*
X008232D02*
D03*
X008432Y003410D02*
D03*
X008232D02*
D03*
X008432Y003210D02*
D03*
X008232D02*
D03*
X008432Y003010D02*
D03*
X008232D02*
D03*
X000532Y002210D02*
D03*
X000332D02*
D03*
X000532Y002410D02*
D03*
X000332D02*
D03*
X000532Y002610D02*
D03*
X000332D02*
D03*
X000532Y002810D02*
D03*
X000332D02*
D03*
Y004010D02*
D03*
X000532D02*
D03*
X000332Y003810D02*
D03*
X000532D02*
D03*
X000332Y003610D02*
D03*
X000532D02*
D03*
X000332Y003410D02*
D03*
X000532D02*
D03*
X000332Y003210D02*
D03*
X000532D02*
D03*
X000332Y003010D02*
D03*
X000532D02*
D03*
D29*
X008332Y004110D02*
D03*
Y002110D02*
D03*
X000432Y004110D02*
D03*
Y002110D02*
D03*
D30*
X004755Y001810D02*
D03*
Y002543D02*
D03*
Y003277D02*
D03*
Y004010D02*
D03*
Y004800D02*
D03*
D31*
X004655Y001940D02*
D03*
X004855D02*
D03*
Y001680D02*
D03*
X004655D02*
D03*
Y002413D02*
D03*
X004855D02*
D03*
Y002673D02*
D03*
X004655D02*
D03*
Y003407D02*
D03*
X004855D02*
D03*
Y003147D02*
D03*
X004655D02*
D03*
Y003880D02*
D03*
X004855D02*
D03*
Y004140D02*
D03*
X004655D02*
D03*
Y004670D02*
D03*
X004855D02*
D03*
Y004930D02*
D03*
X004655D02*
D03*
X002200Y002134D02*
D03*
D32*
X005800Y005910D02*
D03*
Y005710D02*
D03*
X005600Y005910D02*
D03*
Y005710D02*
D03*
X005400Y005910D02*
D03*
Y005710D02*
D03*
X005200Y005910D02*
D03*
Y005710D02*
D03*
X005000Y005910D02*
D03*
X006000D02*
D03*
Y005710D02*
D03*
D33*
X005000D02*
D03*
D34*
X000600Y001408D02*
D03*
X000755D02*
D03*
X007800Y001870D02*
D03*
X002870Y001306D02*
D03*
X003047D02*
D03*
D35*
X006882Y000310D02*
D03*
X001882D02*
D03*
Y005910D02*
D03*
X006882D02*
D03*
M02*
