G04*
G04 #@! TF.GenerationSoftware,Altium Limited,Altium Designer,23.9.2 (47)*
G04*
G04 Layer_Color=65535*
%FSAX42Y42*%
%MOMM*%
G71*
G04*
G04 #@! TF.SameCoordinates,ED947BB0-FBEA-436B-BB51-AA8F8EE6EC71*
G04*
G04*
G04 #@! TF.FilePolarity,Positive*
G04*
G01*
G75*
%ADD10C,1.00*%
%ADD11C,0.15*%
%ADD12C,0.40*%
%ADD13C,0.20*%
%ADD14C,0.15*%
%ADD15C,0.25*%
%ADD16C,0.13*%
%ADD17C,0.10*%
D10*
X004880Y005317D02*
G03*
X004880Y005317I-000050J000000D01*
G01*
D11*
X006802Y002678D02*
G03*
X006650Y002678I-000076J000000D01*
G01*
X005770D02*
Y003999D01*
X007630Y002678D02*
Y003999D01*
X005770D02*
X007630D01*
X006802Y002678D02*
X007630D01*
X005770D02*
X006650D01*
D12*
X007680Y004180D02*
G03*
X007680Y004180I-000020J000000D01*
G01*
D13*
X001149Y005088D02*
X004713D01*
X001149Y001295D02*
Y005088D01*
Y001295D02*
X004942D01*
Y004860D01*
X004713Y005088D02*
X004942Y004860D01*
D14*
X005899Y002416D02*
Y002543D01*
X006217Y002416D02*
Y002543D01*
X006026Y002556D02*
X006090D01*
X006026Y002403D02*
X006090D01*
X005899Y002224D02*
Y002351D01*
X006217Y002224D02*
Y002351D01*
X006026Y002364D02*
X006090D01*
X006026Y002212D02*
X006090D01*
X005899Y002042D02*
Y002168D01*
X006217Y002042D02*
Y002168D01*
X006026Y002181D02*
X006090D01*
X006026Y002029D02*
X006090D01*
X005897Y001836D02*
Y001964D01*
X006214Y001836D02*
Y001964D01*
X006024Y001976D02*
X006087D01*
X006024Y001824D02*
X006087D01*
X000726Y001314D02*
Y001377D01*
X000574Y001314D02*
Y001377D01*
X000586Y001504D02*
X000714D01*
X000586Y001186D02*
X000714D01*
X000766Y001504D02*
X000894D01*
X000766Y001186D02*
X000894D01*
X000906Y001314D02*
Y001377D01*
X000754Y001314D02*
Y001377D01*
X000947Y001504D02*
X001073D01*
X000947Y001186D02*
X001073D01*
X001086Y001314D02*
Y001377D01*
X000934Y001314D02*
Y001377D01*
X003321Y005682D02*
X003448D01*
X003321Y005999D02*
X003448D01*
X003308Y005809D02*
Y005872D01*
X003461Y005809D02*
Y005872D01*
X003688Y005999D02*
X003815D01*
X003688Y005681D02*
X003815D01*
X003827Y005808D02*
Y005872D01*
X003675Y005808D02*
Y005872D01*
X003504Y005999D02*
X003631D01*
X003504Y005681D02*
X003631D01*
X003644Y005808D02*
Y005872D01*
X003492Y005808D02*
Y005872D01*
X008054Y003546D02*
Y003673D01*
X007736Y003546D02*
Y003673D01*
X007864Y003534D02*
X007927D01*
X007864Y003686D02*
X007927D01*
X007196Y002476D02*
Y002603D01*
X007514Y002476D02*
Y002603D01*
X007324Y002616D02*
X007387D01*
X007324Y002464D02*
X007387D01*
X008054Y003346D02*
Y003473D01*
X007736Y003346D02*
Y003473D01*
X007864Y003334D02*
X007927D01*
X007864Y003486D02*
X007927D01*
X008054Y002546D02*
Y002673D01*
X007736Y002546D02*
Y002673D01*
X007864Y002534D02*
X007927D01*
X007864Y002686D02*
X007927D01*
X007736Y003747D02*
Y003874D01*
X008054Y003747D02*
Y003874D01*
X007864Y003886D02*
X007927D01*
X007864Y003734D02*
X007927D01*
X007736Y003947D02*
Y004074D01*
X008054Y003947D02*
Y004074D01*
X007864Y004086D02*
X007927D01*
X007864Y003934D02*
X007927D01*
X008054Y002746D02*
Y002873D01*
X007736Y002746D02*
Y002873D01*
X007864Y002734D02*
X007927D01*
X007864Y002886D02*
X007927D01*
X008054Y003146D02*
Y003273D01*
X007736Y003146D02*
Y003273D01*
X007864Y003134D02*
X007927D01*
X007864Y003286D02*
X007927D01*
X007864Y003086D02*
X007927D01*
X007864Y002934D02*
X007927D01*
X007736Y002946D02*
Y003073D01*
X008054Y002946D02*
Y003073D01*
X005663Y005071D02*
X005727D01*
X005663Y005224D02*
X005727D01*
X005854Y005084D02*
Y005211D01*
X005537Y005084D02*
Y005211D01*
X005663Y004904D02*
X005726D01*
X005663Y005056D02*
X005726D01*
X005853Y004917D02*
Y005044D01*
X005536Y004917D02*
Y005044D01*
X005504Y001843D02*
Y001907D01*
X005656Y001843D02*
Y001907D01*
X005517Y001716D02*
X005644D01*
X005517Y002033D02*
X005644D01*
X005656Y002164D02*
Y002227D01*
X005504Y002164D02*
Y002227D01*
X005517Y002354D02*
X005644D01*
X005517Y002036D02*
X005644D01*
X005504Y003633D02*
Y003697D01*
X005656Y003633D02*
Y003697D01*
X005517Y003506D02*
X005644D01*
X005517Y003824D02*
X005644D01*
X001014Y005024D02*
X001077D01*
X001014Y005176D02*
X001077D01*
X001204Y005037D02*
Y005163D01*
X000886Y005037D02*
Y005163D01*
X001014Y005199D02*
X001077D01*
X001014Y005351D02*
X001077D01*
X001204Y005212D02*
Y005338D01*
X000886Y005212D02*
Y005338D01*
X005663Y004377D02*
X005726D01*
X005663Y004224D02*
X005726D01*
X005536Y004237D02*
Y004364D01*
X005853Y004237D02*
Y004364D01*
X005663Y004547D02*
X005726D01*
X005663Y004394D02*
X005726D01*
X005536Y004407D02*
Y004534D01*
X005853Y004407D02*
Y004534D01*
X005663Y004207D02*
X005726D01*
X005663Y004054D02*
X005726D01*
X005536Y004067D02*
Y004194D01*
X005853Y004067D02*
Y004194D01*
X007366Y000574D02*
Y000637D01*
X007214Y000574D02*
Y000637D01*
X007226Y000764D02*
X007354D01*
X007226Y000447D02*
X007354D01*
X005853Y004747D02*
Y004874D01*
X005536Y004747D02*
Y004874D01*
X005663Y004734D02*
X005726D01*
X005663Y004886D02*
X005726D01*
X005663Y004716D02*
X005726D01*
X005663Y004564D02*
X005726D01*
X005536Y004577D02*
Y004704D01*
X005853Y004577D02*
Y004704D01*
X004900Y005610D02*
X006100D01*
X004900D02*
Y006010D01*
X006100D01*
Y005610D02*
Y006010D01*
X005437Y000216D02*
X005563D01*
X005437Y000534D02*
X005563D01*
X005424Y000343D02*
Y000407D01*
X005576Y000343D02*
Y000407D01*
X005618Y000216D02*
X005745D01*
X005618Y000534D02*
X005745D01*
X005605Y000343D02*
Y000407D01*
X005757Y000343D02*
Y000407D01*
X005980Y000216D02*
X006107D01*
X005980Y000534D02*
X006107D01*
X005967Y000343D02*
Y000407D01*
X006120Y000343D02*
Y000407D01*
X006161Y000216D02*
X006288D01*
X006161Y000534D02*
X006288D01*
X006149Y000343D02*
Y000407D01*
X006301Y000343D02*
Y000407D01*
X006482Y000343D02*
Y000407D01*
X006330Y000343D02*
Y000407D01*
X006342Y000534D02*
X006469D01*
X006342Y000216D02*
X006469D01*
X005799D02*
X005926D01*
X005799Y000534D02*
X005926D01*
X005786Y000343D02*
Y000407D01*
X005939Y000343D02*
Y000407D01*
D15*
X003201Y005841D02*
Y005867D01*
X003162Y005816D02*
X003238D01*
X003162Y005867D02*
X003200D01*
Y005829D02*
X003238Y005867D01*
X003162D02*
X003200Y005829D01*
Y005867D02*
X003238D01*
X007425Y004288D02*
Y005381D01*
X007298Y004161D02*
X007425Y004288D01*
X006472Y004161D02*
X007298D01*
X006472Y005381D02*
X007425D01*
X006472Y004161D02*
Y005381D01*
D16*
X003124Y005686D02*
Y005788D01*
X003276Y005889D02*
Y005991D01*
Y005686D02*
Y005788D01*
X003124Y005889D02*
Y005991D01*
X003276D01*
X003124Y005686D02*
X003276D01*
D17*
X003702Y000462D02*
X003762D01*
X003771Y000200D02*
Y000250D01*
X003691Y000200D02*
Y000250D01*
X003692Y000330D02*
Y000380D01*
X003772Y000330D02*
Y000380D01*
X003702Y000117D02*
X003762D01*
X003526Y000462D02*
X003586D01*
X003595Y000200D02*
Y000250D01*
X003515Y000200D02*
Y000250D01*
X003516Y000330D02*
Y000380D01*
X003596Y000330D02*
Y000380D01*
X003526Y000117D02*
X003586D01*
X003350Y000462D02*
X003410D01*
X003419Y000200D02*
Y000250D01*
X003339Y000200D02*
Y000250D01*
X003340Y000330D02*
Y000380D01*
X003420Y000330D02*
Y000380D01*
X003350Y000117D02*
X003410D01*
X003174Y000462D02*
X003234D01*
X003243Y000200D02*
Y000250D01*
X003163Y000200D02*
Y000250D01*
X003164Y000330D02*
Y000380D01*
X003244Y000330D02*
Y000380D01*
X003174Y000117D02*
X003234D01*
X002998Y000462D02*
X003058D01*
X003067Y000200D02*
Y000250D01*
X002987Y000200D02*
Y000250D01*
X002988Y000330D02*
Y000380D01*
X003068Y000330D02*
Y000380D01*
X002998Y000117D02*
X003058D01*
X002822Y000462D02*
X002882D01*
X002891Y000200D02*
Y000250D01*
X002811Y000200D02*
Y000250D01*
X002812Y000330D02*
Y000380D01*
X002892Y000330D02*
Y000380D01*
X002822Y000117D02*
X002882D01*
X002646D02*
X002706D01*
X002716Y000330D02*
Y000380D01*
X002636Y000330D02*
Y000380D01*
X002635Y000200D02*
Y000250D01*
X002715Y000200D02*
Y000250D01*
X002646Y000462D02*
X002706D01*
X002470D02*
X002530D01*
X002539Y000200D02*
Y000250D01*
X002459Y000200D02*
Y000250D01*
X002460Y000330D02*
Y000380D01*
X002540Y000330D02*
Y000380D01*
X002470Y000117D02*
X002530D01*
X004912Y005132D02*
Y005082D01*
X004922Y005072D01*
X004942D01*
X004952Y005082D01*
Y005132D01*
X004972Y005072D02*
X004992D01*
X004982D01*
Y005132D01*
X004972Y005122D01*
X006280Y002440D02*
Y002500D01*
X006310D01*
X006320Y002490D01*
Y002470D01*
X006310Y002460D01*
X006280D01*
X006300D02*
X006320Y002440D01*
X006370D02*
Y002500D01*
X006340Y002470D01*
X006380D01*
X006400Y002490D02*
X006410Y002500D01*
X006430D01*
X006440Y002490D01*
Y002480D01*
X006430Y002470D01*
X006440Y002460D01*
Y002450D01*
X006430Y002440D01*
X006410D01*
X006400Y002450D01*
Y002460D01*
X006410Y002470D01*
X006400Y002480D01*
Y002490D01*
X006410Y002470D02*
X006430D01*
X006280Y002250D02*
Y002310D01*
X006310D01*
X006320Y002300D01*
Y002280D01*
X006310Y002270D01*
X006280D01*
X006300D02*
X006320Y002250D01*
X006370D02*
Y002310D01*
X006340Y002280D01*
X006380D01*
X006440Y002310D02*
X006420Y002300D01*
X006400Y002280D01*
Y002260D01*
X006410Y002250D01*
X006430D01*
X006440Y002260D01*
Y002270D01*
X006430Y002280D01*
X006400D01*
X006280Y002060D02*
Y002120D01*
X006310D01*
X006320Y002110D01*
Y002090D01*
X006310Y002080D01*
X006280D01*
X006300D02*
X006320Y002060D01*
X006370D02*
Y002120D01*
X006340Y002090D01*
X006380D01*
X006400Y002120D02*
X006440D01*
Y002110D01*
X006400Y002070D01*
Y002060D01*
X006280Y001870D02*
Y001930D01*
X006310D01*
X006320Y001920D01*
Y001900D01*
X006310Y001890D01*
X006280D01*
X006300D02*
X006320Y001870D01*
X006370D02*
Y001930D01*
X006340Y001900D01*
X006380D01*
X006400Y001880D02*
X006410Y001870D01*
X006430D01*
X006440Y001880D01*
Y001920D01*
X006430Y001930D01*
X006410D01*
X006400Y001920D01*
Y001910D01*
X006410Y001900D01*
X006440D01*
X007630Y001630D02*
X007650Y001590D01*
X007670Y001630D01*
X007720Y001590D02*
X007700D01*
X007690Y001600D01*
Y001620D01*
X007700Y001630D01*
X007720D01*
X007730Y001620D01*
Y001610D01*
X007690D01*
X007750Y001630D02*
Y001590D01*
Y001610D01*
X007760Y001620D01*
X007770Y001630D01*
X007780D01*
X007810Y001590D02*
Y001600D01*
X007820D01*
Y001590D01*
X007810D01*
X007860D02*
X007880D01*
X007870D01*
Y001650D01*
X007860Y001640D01*
X007910Y001590D02*
Y001600D01*
X007920D01*
Y001590D01*
X007910D01*
X007990D02*
Y001650D01*
X007960Y001620D01*
X008000D01*
X007976Y004642D02*
X008016Y004582D01*
Y004642D02*
X007976Y004582D01*
X008036D02*
X008056D01*
X008046D01*
Y004642D01*
X008036Y004632D01*
X003265Y006080D02*
Y006140D01*
X003295D01*
X003305Y006130D01*
Y006110D01*
X003295Y006100D01*
X003265D01*
X003285D02*
X003305Y006080D01*
X003325D02*
X003345D01*
X003335D01*
Y006140D01*
X003325Y006130D01*
X003375D02*
X003385Y006140D01*
X003405D01*
X003415Y006130D01*
Y006090D01*
X003405Y006080D01*
X003385D01*
X003375Y006090D01*
Y006130D01*
X003110Y006140D02*
Y006080D01*
X003140D01*
X003150Y006090D01*
Y006130D01*
X003140Y006140D01*
X003110D01*
X003170Y006080D02*
X003190D01*
X003180D01*
Y006140D01*
X003170Y006130D01*
X003765Y000540D02*
X003705D01*
Y000570D01*
X003715Y000580D01*
X003735D01*
X003745Y000570D01*
Y000540D01*
Y000560D02*
X003765Y000580D01*
X003705Y000640D02*
Y000620D01*
Y000630D01*
X003755D01*
X003765Y000620D01*
Y000610D01*
X003755Y000600D01*
X003715Y000660D02*
X003705Y000670D01*
Y000690D01*
X003715Y000700D01*
X003725D01*
X003735Y000690D01*
X003745Y000700D01*
X003755D01*
X003765Y000690D01*
Y000670D01*
X003755Y000660D01*
X003745D01*
X003735Y000670D01*
X003725Y000660D01*
X003715D01*
X003735Y000670D02*
Y000690D01*
X003590Y000540D02*
X003530D01*
Y000570D01*
X003540Y000580D01*
X003560D01*
X003570Y000570D01*
Y000540D01*
Y000560D02*
X003590Y000580D01*
X003530Y000640D02*
Y000620D01*
Y000630D01*
X003580D01*
X003590Y000620D01*
Y000610D01*
X003580Y000600D01*
X003530Y000660D02*
Y000700D01*
X003540D01*
X003580Y000660D01*
X003590D01*
X003415Y000540D02*
X003355D01*
Y000570D01*
X003365Y000580D01*
X003385D01*
X003395Y000570D01*
Y000540D01*
Y000560D02*
X003415Y000580D01*
X003355Y000640D02*
Y000620D01*
Y000630D01*
X003405D01*
X003415Y000620D01*
Y000610D01*
X003405Y000600D01*
X003355Y000700D02*
X003365Y000680D01*
X003385Y000660D01*
X003405D01*
X003415Y000670D01*
Y000690D01*
X003405Y000700D01*
X003395D01*
X003385Y000690D01*
Y000660D01*
X003240Y000540D02*
X003180D01*
Y000570D01*
X003190Y000580D01*
X003210D01*
X003220Y000570D01*
Y000540D01*
Y000560D02*
X003240Y000580D01*
X003180Y000640D02*
Y000620D01*
Y000630D01*
X003230D01*
X003240Y000620D01*
Y000610D01*
X003230Y000600D01*
X003180Y000700D02*
Y000660D01*
X003210D01*
X003200Y000680D01*
Y000690D01*
X003210Y000700D01*
X003230D01*
X003240Y000690D01*
Y000670D01*
X003230Y000660D01*
X003065Y000540D02*
X003005D01*
Y000570D01*
X003015Y000580D01*
X003035D01*
X003045Y000570D01*
Y000540D01*
Y000560D02*
X003065Y000580D01*
X003005Y000640D02*
Y000620D01*
Y000630D01*
X003055D01*
X003065Y000620D01*
Y000610D01*
X003055Y000600D01*
X003065Y000690D02*
X003005D01*
X003035Y000660D01*
Y000700D01*
X002890Y000540D02*
X002830D01*
Y000570D01*
X002840Y000580D01*
X002860D01*
X002870Y000570D01*
Y000540D01*
Y000560D02*
X002890Y000580D01*
X002830Y000640D02*
Y000620D01*
Y000630D01*
X002880D01*
X002890Y000620D01*
Y000610D01*
X002880Y000600D01*
X002840Y000660D02*
X002830Y000670D01*
Y000690D01*
X002840Y000700D01*
X002850D01*
X002860Y000690D01*
Y000680D01*
Y000690D01*
X002870Y000700D01*
X002880D01*
X002890Y000690D01*
Y000670D01*
X002880Y000660D01*
X002715Y000540D02*
X002655D01*
Y000570D01*
X002665Y000580D01*
X002685D01*
X002695Y000570D01*
Y000540D01*
Y000560D02*
X002715Y000580D01*
X002655Y000640D02*
Y000620D01*
Y000630D01*
X002705D01*
X002715Y000620D01*
Y000610D01*
X002705Y000600D01*
X002715Y000700D02*
Y000660D01*
X002675Y000700D01*
X002665D01*
X002655Y000690D01*
Y000670D01*
X002665Y000660D01*
X002540Y000538D02*
X002480D01*
Y000568D01*
X002490Y000578D01*
X002510D01*
X002520Y000568D01*
Y000538D01*
Y000558D02*
X002540Y000578D01*
X002480Y000638D02*
Y000618D01*
Y000628D01*
X002530D01*
X002540Y000618D01*
Y000608D01*
X002530Y000598D01*
X002540Y000658D02*
Y000678D01*
Y000668D01*
X002480D01*
X002490Y000658D01*
X007706Y003978D02*
X007656D01*
Y004003D01*
X007665Y004012D01*
X007681D01*
X007690Y004003D01*
Y003978D01*
Y003995D02*
X007706Y004012D01*
Y004062D02*
Y004028D01*
X007673Y004062D01*
X007665D01*
X007656Y004053D01*
Y004037D01*
X007665Y004028D01*
X007706Y003792D02*
X007656D01*
Y003817D01*
X007665Y003825D01*
X007681D01*
X007690Y003817D01*
Y003792D01*
Y003808D02*
X007706Y003825D01*
Y003842D02*
Y003858D01*
Y003850D01*
X007656D01*
X007665Y003842D01*
X004750Y005980D02*
X004790Y005920D01*
Y005980D02*
X004750Y005920D01*
X004810Y005970D02*
X004820Y005980D01*
X004840D01*
X004850Y005970D01*
Y005960D01*
X004840Y005950D01*
X004830D01*
X004840D01*
X004850Y005940D01*
Y005930D01*
X004840Y005920D01*
X004820D01*
X004810Y005930D01*
X006250Y005505D02*
Y005455D01*
X006260Y005445D01*
X006280D01*
X006290Y005455D01*
Y005505D01*
X006310Y005455D02*
X006320Y005445D01*
X006340D01*
X006350Y005455D01*
Y005495D01*
X006340Y005505D01*
X006320D01*
X006310Y005495D01*
Y005485D01*
X006320Y005475D01*
X006350D01*
X006275Y004105D02*
Y004055D01*
X006285Y004045D01*
X006305D01*
X006315Y004055D01*
Y004105D01*
X006335Y004095D02*
X006345Y004105D01*
X006365D01*
X006375Y004095D01*
Y004085D01*
X006365Y004075D01*
X006375Y004065D01*
Y004055D01*
X006365Y004045D01*
X006345D01*
X006335Y004055D01*
Y004065D01*
X006345Y004075D01*
X006335Y004085D01*
Y004095D01*
X006345Y004075D02*
X006365D01*
X007706Y003154D02*
X007656D01*
Y003179D01*
X007665Y003188D01*
X007681D01*
X007690Y003179D01*
Y003154D01*
Y003171D02*
X007706Y003188D01*
X007656Y003238D02*
X007665Y003221D01*
X007681Y003204D01*
X007698D01*
X007706Y003213D01*
Y003229D01*
X007698Y003238D01*
X007690D01*
X007681Y003229D01*
Y003204D01*
X007706Y003254D02*
Y003271D01*
Y003263D01*
X007656D01*
X007665Y003254D01*
X007706Y002958D02*
X007656D01*
Y002983D01*
X007665Y002992D01*
X007681D01*
X007690Y002983D01*
Y002958D01*
Y002975D02*
X007706Y002992D01*
X007656Y003042D02*
Y003008D01*
X007681D01*
X007673Y003025D01*
Y003033D01*
X007681Y003042D01*
X007698D01*
X007706Y003033D01*
Y003017D01*
X007698Y003008D01*
Y003058D02*
X007706Y003067D01*
Y003083D01*
X007698Y003092D01*
X007665D01*
X007656Y003083D01*
Y003067D01*
X007665Y003058D01*
X007673D01*
X007681Y003067D01*
Y003092D01*
X007706Y002744D02*
X007656D01*
Y002769D01*
X007665Y002777D01*
X007681D01*
X007690Y002769D01*
Y002744D01*
Y002761D02*
X007706Y002777D01*
X007656Y002827D02*
Y002794D01*
X007681D01*
X007673Y002811D01*
Y002819D01*
X007681Y002827D01*
X007698D01*
X007706Y002819D01*
Y002802D01*
X007698Y002794D01*
X007665Y002844D02*
X007656Y002852D01*
Y002869D01*
X007665Y002877D01*
X007673D01*
X007681Y002869D01*
X007690Y002877D01*
X007698D01*
X007706Y002869D01*
Y002852D01*
X007698Y002844D01*
X007690D01*
X007681Y002852D01*
X007673Y002844D01*
X007665D01*
X007681Y002852D02*
Y002869D01*
X007706Y002548D02*
X007656D01*
Y002573D01*
X007665Y002581D01*
X007681D01*
X007690Y002573D01*
Y002548D01*
Y002565D02*
X007706Y002581D01*
X007656Y002631D02*
Y002598D01*
X007681D01*
X007673Y002615D01*
Y002623D01*
X007681Y002631D01*
X007698D01*
X007706Y002623D01*
Y002606D01*
X007698Y002598D01*
X007656Y002681D02*
X007665Y002664D01*
X007681Y002648D01*
X007698D01*
X007706Y002656D01*
Y002673D01*
X007698Y002681D01*
X007690D01*
X007681Y002673D01*
Y002648D01*
X001030Y000956D02*
X000970D01*
Y000986D01*
X000980Y000996D01*
X001000D01*
X001010Y000986D01*
Y000956D01*
Y000976D02*
X001030Y000996D01*
Y001045D02*
X000970D01*
X001000Y001016D01*
Y001055D01*
X000980Y001075D02*
X000970Y001085D01*
Y001105D01*
X000980Y001115D01*
X001020D01*
X001030Y001105D01*
Y001085D01*
X001020Y001075D01*
X000980D01*
X000845Y000966D02*
X000785D01*
Y000996D01*
X000795Y001006D01*
X000815D01*
X000825Y000996D01*
Y000966D01*
Y000986D02*
X000845Y001006D01*
X000795Y001026D02*
X000785Y001036D01*
Y001055D01*
X000795Y001065D01*
X000805D01*
X000815Y001055D01*
Y001045D01*
Y001055D01*
X000825Y001065D01*
X000835D01*
X000845Y001055D01*
Y001036D01*
X000835Y001026D01*
Y001085D02*
X000845Y001095D01*
Y001115D01*
X000835Y001125D01*
X000795D01*
X000785Y001115D01*
Y001095D01*
X000795Y001085D01*
X000805D01*
X000815Y001095D01*
Y001125D01*
X005900Y004788D02*
Y004848D01*
X005930D01*
X005940Y004838D01*
Y004818D01*
X005930Y004808D01*
X005900D01*
X005920D02*
X005940Y004788D01*
X006000D02*
X005960D01*
X006000Y004828D01*
Y004838D01*
X005990Y004848D01*
X005970D01*
X005960Y004838D01*
X006050Y004788D02*
Y004848D01*
X006020Y004818D01*
X006060D01*
X005900Y004620D02*
Y004680D01*
X005930D01*
X005940Y004670D01*
Y004650D01*
X005930Y004640D01*
X005900D01*
X005920D02*
X005940Y004620D01*
X006000D02*
X005960D01*
X006000Y004660D01*
Y004670D01*
X005990Y004680D01*
X005970D01*
X005960Y004670D01*
X006060Y004620D02*
X006020D01*
X006060Y004660D01*
Y004670D01*
X006050Y004680D01*
X006030D01*
X006020Y004670D01*
X007228Y000842D02*
Y000902D01*
X007258D01*
X007268Y000892D01*
Y000872D01*
X007258Y000862D01*
X007228D01*
X007248D02*
X007268Y000842D01*
X007288D02*
X007308D01*
X007298D01*
Y000902D01*
X007288Y000892D01*
X007338Y000842D02*
X007358D01*
X007348D01*
Y000902D01*
X007338Y000892D01*
X006430Y000650D02*
X006370D01*
Y000680D01*
X006380Y000690D01*
X006400D01*
X006410Y000680D01*
Y000650D01*
Y000670D02*
X006430Y000690D01*
X006420Y000710D02*
X006430Y000720D01*
Y000740D01*
X006420Y000750D01*
X006380D01*
X006370Y000740D01*
Y000720D01*
X006380Y000710D01*
X006390D01*
X006400Y000720D01*
Y000750D01*
X006255Y000650D02*
X006195D01*
Y000680D01*
X006205Y000690D01*
X006225D01*
X006235Y000680D01*
Y000650D01*
Y000670D02*
X006255Y000690D01*
X006205Y000710D02*
X006195Y000720D01*
Y000740D01*
X006205Y000750D01*
X006215D01*
X006225Y000740D01*
X006235Y000750D01*
X006245D01*
X006255Y000740D01*
Y000720D01*
X006245Y000710D01*
X006235D01*
X006225Y000720D01*
X006215Y000710D01*
X006205D01*
X006225Y000720D02*
Y000740D01*
X006080Y000650D02*
X006020D01*
Y000680D01*
X006030Y000690D01*
X006050D01*
X006060Y000680D01*
Y000650D01*
Y000670D02*
X006080Y000690D01*
X006020Y000710D02*
Y000750D01*
X006030D01*
X006070Y000710D01*
X006080D01*
X005880Y000638D02*
X005820D01*
Y000668D01*
X005830Y000678D01*
X005850D01*
X005860Y000668D01*
Y000638D01*
Y000658D02*
X005880Y000678D01*
X005820Y000738D02*
X005830Y000718D01*
X005850Y000698D01*
X005870D01*
X005880Y000708D01*
Y000728D01*
X005870Y000738D01*
X005860D01*
X005850Y000728D01*
Y000698D01*
X005705Y000650D02*
X005645D01*
Y000680D01*
X005655Y000690D01*
X005675D01*
X005685Y000680D01*
Y000650D01*
Y000670D02*
X005705Y000690D01*
X005645Y000750D02*
Y000710D01*
X005675D01*
X005665Y000730D01*
Y000740D01*
X005675Y000750D01*
X005695D01*
X005705Y000740D01*
Y000720D01*
X005695Y000710D01*
X005530Y000621D02*
X005470D01*
Y000651D01*
X005480Y000661D01*
X005500D01*
X005510Y000651D01*
Y000621D01*
Y000641D02*
X005530Y000661D01*
Y000711D02*
X005470D01*
X005500Y000681D01*
Y000721D01*
X003720Y006080D02*
Y006140D01*
X003750D01*
X003760Y006130D01*
Y006110D01*
X003750Y006100D01*
X003720D01*
X003740D02*
X003760Y006080D01*
X003780Y006130D02*
X003790Y006140D01*
X003810D01*
X003820Y006130D01*
Y006120D01*
X003810Y006110D01*
X003800D01*
X003810D01*
X003820Y006100D01*
Y006090D01*
X003810Y006080D01*
X003790D01*
X003780Y006090D01*
X005670Y005320D02*
X005660Y005330D01*
X005640D01*
X005630Y005320D01*
Y005280D01*
X005640Y005270D01*
X005660D01*
X005670Y005280D01*
X005720Y005270D02*
Y005330D01*
X005690Y005300D01*
X005730D01*
X005750Y005270D02*
X005770D01*
X005760D01*
Y005330D01*
X005750Y005320D01*
X007589Y002575D02*
X007599Y002585D01*
Y002605D01*
X007589Y002615D01*
X007549D01*
X007539Y002605D01*
Y002585D01*
X007549Y002575D01*
X007589Y002555D02*
X007599Y002545D01*
Y002525D01*
X007589Y002515D01*
X007579D01*
X007569Y002525D01*
Y002535D01*
Y002525D01*
X007559Y002515D01*
X007549D01*
X007539Y002525D01*
Y002545D01*
X007549Y002555D01*
Y002495D02*
X007539Y002485D01*
Y002465D01*
X007549Y002455D01*
X007589D01*
X007599Y002465D01*
Y002485D01*
X007589Y002495D01*
X007579D01*
X007569Y002485D01*
Y002455D01*
X007665Y003567D02*
X007656Y003558D01*
Y003542D01*
X007665Y003533D01*
X007698D01*
X007706Y003542D01*
Y003558D01*
X007698Y003567D01*
X007665Y003583D02*
X007656Y003592D01*
Y003608D01*
X007665Y003617D01*
X007673D01*
X007681Y003608D01*
Y003600D01*
Y003608D01*
X007690Y003617D01*
X007698D01*
X007706Y003608D01*
Y003592D01*
X007698Y003583D01*
X007665Y003633D02*
X007656Y003642D01*
Y003658D01*
X007665Y003667D01*
X007673D01*
X007681Y003658D01*
X007690Y003667D01*
X007698D01*
X007706Y003658D01*
Y003642D01*
X007698Y003633D01*
X007690D01*
X007681Y003642D01*
X007673Y003633D01*
X007665D01*
X007681Y003642D02*
Y003658D01*
X007665Y003382D02*
X007656Y003373D01*
Y003357D01*
X007665Y003348D01*
X007698D01*
X007706Y003357D01*
Y003373D01*
X007698Y003382D01*
X007665Y003398D02*
X007656Y003407D01*
Y003423D01*
X007665Y003432D01*
X007673D01*
X007681Y003423D01*
Y003415D01*
Y003423D01*
X007690Y003432D01*
X007698D01*
X007706Y003423D01*
Y003407D01*
X007698Y003398D01*
X007656Y003448D02*
Y003482D01*
X007665D01*
X007698Y003448D01*
X007706D01*
X000580Y001630D02*
X000570Y001640D01*
X000550D01*
X000540Y001630D01*
Y001590D01*
X000550Y001580D01*
X000570D01*
X000580Y001590D01*
X000640Y001580D02*
X000600D01*
X000640Y001620D01*
Y001630D01*
X000630Y001640D01*
X000610D01*
X000600Y001630D01*
X000660Y001640D02*
X000700D01*
Y001630D01*
X000660Y001590D01*
Y001580D01*
X003530Y006130D02*
X003520Y006140D01*
X003500D01*
X003490Y006130D01*
Y006090D01*
X003500Y006080D01*
X003520D01*
X003530Y006090D01*
X003590Y006080D02*
X003550D01*
X003590Y006120D01*
Y006130D01*
X003580Y006140D01*
X003560D01*
X003550Y006130D01*
X003650Y006140D02*
X003630Y006130D01*
X003610Y006110D01*
Y006090D01*
X003620Y006080D01*
X003640D01*
X003650Y006090D01*
Y006100D01*
X003640Y006110D01*
X003610D01*
X005940Y004999D02*
X005930Y005009D01*
X005910D01*
X005900Y004999D01*
Y004959D01*
X005910Y004949D01*
X005930D01*
X005940Y004959D01*
X006000Y004949D02*
X005960D01*
X006000Y004989D01*
Y004999D01*
X005990Y005009D01*
X005970D01*
X005960Y004999D01*
X006060Y005009D02*
X006020D01*
Y004979D01*
X006040Y004989D01*
X006050D01*
X006060Y004979D01*
Y004959D01*
X006050Y004949D01*
X006030D01*
X006020Y004959D01*
X005740Y001890D02*
X005730Y001900D01*
X005710D01*
X005700Y001890D01*
Y001850D01*
X005710Y001840D01*
X005730D01*
X005740Y001850D01*
X005800Y001840D02*
X005760D01*
X005800Y001880D01*
Y001890D01*
X005790Y001900D01*
X005770D01*
X005760Y001890D01*
X005850Y001840D02*
Y001900D01*
X005820Y001870D01*
X005860D01*
X005740Y002220D02*
X005730Y002230D01*
X005710D01*
X005700Y002220D01*
Y002180D01*
X005710Y002170D01*
X005730D01*
X005740Y002180D01*
X005800Y002170D02*
X005760D01*
X005800Y002210D01*
Y002220D01*
X005790Y002230D01*
X005770D01*
X005760Y002220D01*
X005820Y002170D02*
X005840D01*
X005830D01*
Y002230D01*
X005820Y002220D01*
X005535Y003920D02*
X005525Y003930D01*
X005505D01*
X005495Y003920D01*
Y003880D01*
X005505Y003870D01*
X005525D01*
X005535Y003880D01*
X005595Y003870D02*
X005555D01*
X005595Y003910D01*
Y003920D01*
X005585Y003930D01*
X005565D01*
X005555Y003920D01*
X005615D02*
X005625Y003930D01*
X005645D01*
X005655Y003920D01*
Y003880D01*
X005645Y003870D01*
X005625D01*
X005615Y003880D01*
Y003920D01*
X000840Y004945D02*
X000830Y004955D01*
X000810D01*
X000800Y004945D01*
Y004905D01*
X000810Y004895D01*
X000830D01*
X000840Y004905D01*
X000860Y004895D02*
X000880D01*
X000870D01*
Y004955D01*
X000860Y004945D01*
X000910D02*
X000920Y004955D01*
X000940D01*
X000950Y004945D01*
Y004935D01*
X000940Y004925D01*
X000950Y004915D01*
Y004905D01*
X000940Y004895D01*
X000920D01*
X000910Y004905D01*
Y004915D01*
X000920Y004925D01*
X000910Y004935D01*
Y004945D01*
X000920Y004925D02*
X000940D01*
X001065Y005470D02*
X001055Y005480D01*
X001035D01*
X001025Y005470D01*
Y005430D01*
X001035Y005420D01*
X001055D01*
X001065Y005430D01*
X001085Y005420D02*
X001105D01*
X001095D01*
Y005480D01*
X001085Y005470D01*
X001135Y005480D02*
X001175D01*
Y005470D01*
X001135Y005430D01*
Y005420D01*
X005945Y004320D02*
X005935Y004330D01*
X005915D01*
X005905Y004320D01*
Y004280D01*
X005915Y004270D01*
X005935D01*
X005945Y004280D01*
X005965Y004270D02*
X005985D01*
X005975D01*
Y004330D01*
X005965Y004320D01*
X006055Y004330D02*
X006035Y004320D01*
X006015Y004300D01*
Y004280D01*
X006025Y004270D01*
X006045D01*
X006055Y004280D01*
Y004290D01*
X006045Y004300D01*
X006015D01*
X005945Y004495D02*
X005935Y004505D01*
X005915D01*
X005905Y004495D01*
Y004455D01*
X005915Y004445D01*
X005935D01*
X005945Y004455D01*
X005965Y004445D02*
X005985D01*
X005975D01*
Y004505D01*
X005965Y004495D01*
X006055Y004505D02*
X006015D01*
Y004475D01*
X006035Y004485D01*
X006045D01*
X006055Y004475D01*
Y004455D01*
X006045Y004445D01*
X006025D01*
X006015Y004455D01*
X005945Y004170D02*
X005935Y004180D01*
X005915D01*
X005905Y004170D01*
Y004130D01*
X005915Y004120D01*
X005935D01*
X005945Y004130D01*
X005965Y004120D02*
X005985D01*
X005975D01*
Y004180D01*
X005965Y004170D01*
X006045Y004120D02*
Y004180D01*
X006015Y004150D01*
X006055D01*
M02*
