G04*
G04 #@! TF.GenerationSoftware,Altium Limited,Altium Designer,23.9.2 (47)*
G04*
G04 Layer_Physical_Order=2*
G04 Layer_Color=32768*
%FSAX42Y42*%
%MOMM*%
G71*
G04*
G04 #@! TF.SameCoordinates,D91542C1-7066-4D45-8213-C6E654BE7210*
G04*
G04*
G04 #@! TF.FilePolarity,Negative*
G04*
G01*
G75*
%ADD15C,0.25*%
%ADD50C,0.25*%
%ADD66C,1.02*%
%ADD67C,1.72*%
G04:AMPARAMS|DCode=68|XSize=2.224mm|YSize=2.224mm|CornerRadius=0mm|HoleSize=0mm|Usage=FLASHONLY|Rotation=0.000|XOffset=0mm|YOffset=0mm|HoleType=Round|Shape=Relief|Width=0.25mm|Gap=0.25mm|Entries=4|*
%AMTHD68*
7,0,0,2.22,1.72,0.25,45*
%
%ADD68THD68*%
G04:AMPARAMS|DCode=69|XSize=2.524mm|YSize=2.524mm|CornerRadius=0mm|HoleSize=0mm|Usage=FLASHONLY|Rotation=0.000|XOffset=0mm|YOffset=0mm|HoleType=Round|Shape=Relief|Width=0.25mm|Gap=0.25mm|Entries=4|*
%AMTHD69*
7,0,0,2.52,2.02,0.25,45*
%
%ADD69THD69*%
G04:AMPARAMS|DCode=70|XSize=2.024mm|YSize=2.024mm|CornerRadius=0mm|HoleSize=0mm|Usage=FLASHONLY|Rotation=0.000|XOffset=0mm|YOffset=0mm|HoleType=Round|Shape=Relief|Width=0.25mm|Gap=0.25mm|Entries=4|*
%AMTHD70*
7,0,0,2.02,1.52,0.25,45*
%
%ADD70THD70*%
%ADD71C,1.88*%
G04:AMPARAMS|DCode=72|XSize=2.3876mm|YSize=2.3876mm|CornerRadius=0mm|HoleSize=0mm|Usage=FLASHONLY|Rotation=0.000|XOffset=0mm|YOffset=0mm|HoleType=Round|Shape=Relief|Width=0.25mm|Gap=0.25mm|Entries=4|*
%AMTHD72*
7,0,0,2.39,1.88,0.25,45*
%
%ADD72THD72*%
G04:AMPARAMS|DCode=73|XSize=1.824mm|YSize=1.824mm|CornerRadius=0mm|HoleSize=0mm|Usage=FLASHONLY|Rotation=0.000|XOffset=0mm|YOffset=0mm|HoleType=Round|Shape=Relief|Width=0.25mm|Gap=0.25mm|Entries=4|*
%AMTHD73*
7,0,0,1.82,1.32,0.25,45*
%
%ADD73THD73*%
%ADD74C,1.32*%
%ADD75C,1.52*%
%ADD76C,4.02*%
D15*
X003940Y001980D02*
X004290Y001630D01*
X003297Y003420D02*
X003540D01*
X003940Y003020D01*
Y001980D02*
Y003020D01*
X002914Y001595D02*
X002915D01*
X003650Y000860D01*
X004290Y001630D02*
X004790Y001130D01*
X003650Y000860D02*
X003920Y000590D01*
X004100D01*
X001930Y003420D02*
X003297D01*
X001930D02*
Y005550D01*
X001200D02*
X001930D01*
X001200Y005250D02*
Y005550D01*
X000117Y001535D02*
Y002520D01*
X001000D01*
X001000Y005250D02*
X001200D01*
X001450Y000890D02*
Y001595D01*
X002914D01*
X000740Y000890D02*
Y001595D01*
X000127D02*
X000740D01*
Y000890D02*
X001450D01*
X001150Y001310D02*
X001155D01*
X001000Y005250D02*
X001000Y002520D01*
D50*
X004790Y001130D02*
X006100D01*
X004170Y000590D02*
X006300D01*
X004100D02*
X004170D01*
X006100Y001130D02*
X007110Y002140D01*
X007490Y002520D01*
X008670D01*
X007820Y002110D02*
X008680D01*
X006300Y000590D02*
X007820Y002110D01*
D66*
X001594Y000098D02*
G03*
X001807Y000010I000212J000212D01*
G01*
X003776D02*
G03*
X004036Y000160I000000J000300D01*
G01*
X004729D02*
G03*
X004036Y000160I-000346J-000200D01*
G01*
X004729D02*
G03*
X004989Y000010I000260J000150D01*
G01*
X006958D02*
G03*
X007170Y000098I-000000J000300D01*
G01*
X008594Y001522D02*
G03*
X008682Y001734I-000212J000212D01*
G01*
Y004486D02*
G03*
X008594Y004698I-000300J-000000D01*
G01*
X007170Y006122D02*
G03*
X006958Y006210I-000212J-000212D01*
G01*
X004989Y006210D02*
G03*
X004729Y006060I000000J-000300D01*
G01*
X004036Y006060D02*
G03*
X004729Y006060I000346J000200D01*
G01*
X004036Y006060D02*
G03*
X003776Y006210I-000260J-000150D01*
G01*
X001807Y006210D02*
G03*
X001594Y006122I000000J-000300D01*
G01*
X000170Y004698D02*
G03*
X000082Y004486I000212J-000212D01*
G01*
Y001734D02*
G03*
X000170Y001522I000300J000000D01*
G01*
X001594Y000098D01*
X000082Y001734D02*
Y004486D01*
X000170Y004698D02*
X001594Y006122D01*
X001807Y006210D02*
X003776D01*
Y006210D02*
Y006210D01*
X004036Y006060D02*
X004036Y006060D01*
X004729D02*
X004729Y006060D01*
X004989Y006210D02*
Y006210D01*
X006958D01*
X007170Y006122D02*
X007170D01*
X008594Y004698D01*
X008682Y001734D02*
Y004486D01*
X007170Y000098D02*
X008594Y001522D01*
X007170Y000098D02*
X007170D01*
X004989Y000010D02*
X006958D01*
X004729Y000160D02*
X004729D01*
X004036D02*
X004036D01*
X001807Y000010D02*
X003776D01*
D67*
X000532Y003610D02*
D03*
X000332D02*
D03*
X000532Y003810D02*
D03*
X000332D02*
D03*
X000532Y004010D02*
D03*
X000332D02*
D03*
X000532Y004210D02*
D03*
X000332D02*
D03*
X000532Y004410D02*
D03*
X000332D02*
D03*
X000532Y004610D02*
D03*
X000332D02*
D03*
Y003410D02*
D03*
X000532D02*
D03*
X000332Y003210D02*
D03*
X000532D02*
D03*
X000332Y003010D02*
D03*
X000532D02*
D03*
Y002810D02*
D03*
X000332D02*
D03*
X000532Y002210D02*
D03*
X000332D02*
D03*
X008432Y002010D02*
D03*
X008232D02*
D03*
X008432Y002610D02*
D03*
X008232D02*
D03*
Y002810D02*
D03*
X008432D02*
D03*
X008232Y003010D02*
D03*
X008432D02*
D03*
X008232Y003210D02*
D03*
X008432D02*
D03*
Y004410D02*
D03*
X008232D02*
D03*
X008432Y004210D02*
D03*
X008232D02*
D03*
X008432Y004010D02*
D03*
X008232D02*
D03*
X008432Y003810D02*
D03*
X008232D02*
D03*
D68*
X000332Y002610D02*
D03*
X000532D02*
D03*
X000332Y002410D02*
D03*
X000532D02*
D03*
X008232Y002210D02*
D03*
X008432D02*
D03*
X008232Y002410D02*
D03*
X008432D02*
D03*
X008432Y003610D02*
D03*
X008232D02*
D03*
X008432Y003410D02*
D03*
X008232D02*
D03*
D69*
X004755Y001810D02*
D03*
Y002543D02*
D03*
Y003277D02*
D03*
Y004010D02*
D03*
Y004800D02*
D03*
D70*
X004655Y001940D02*
D03*
X004855D02*
D03*
Y001680D02*
D03*
X004655D02*
D03*
Y002413D02*
D03*
X004855D02*
D03*
Y002673D02*
D03*
X004655D02*
D03*
Y003407D02*
D03*
X004855D02*
D03*
Y003147D02*
D03*
X004655D02*
D03*
Y003880D02*
D03*
X004855D02*
D03*
Y004140D02*
D03*
X004655D02*
D03*
Y004670D02*
D03*
X004855D02*
D03*
Y004930D02*
D03*
X004655D02*
D03*
D71*
X005800Y005910D02*
D03*
Y005710D02*
D03*
X005400Y005910D02*
D03*
X005200D02*
D03*
X005000D02*
D03*
Y005710D02*
D03*
X006000Y005910D02*
D03*
Y005710D02*
D03*
D72*
X005600Y005910D02*
D03*
Y005710D02*
D03*
X005400D02*
D03*
X005200D02*
D03*
D73*
X004110Y002380D02*
D03*
X000588Y004807D02*
D03*
X001400Y005720D02*
D03*
X000830Y001080D02*
D03*
X001290Y003710D02*
D03*
X001285Y004130D02*
D03*
X002200Y001380D02*
D03*
X007180Y002370D02*
D03*
X007270Y000800D02*
D03*
X001285Y001304D02*
D03*
X003576Y006080D02*
D03*
X003200Y005620D02*
D03*
X005414Y003091D02*
D03*
X002870Y001306D02*
D03*
X003047D02*
D03*
X001285Y003361D02*
D03*
Y005102D02*
D03*
Y003020D02*
D03*
Y002662D02*
D03*
X002195Y001850D02*
D03*
X007220Y003280D02*
D03*
X006220Y003030D02*
D03*
X005430Y003767D02*
D03*
X004830Y001240D02*
D03*
X007460Y004020D02*
D03*
X006960Y004890D02*
D03*
X005600Y005269D02*
D03*
X004010Y000670D02*
D03*
X002330Y000510D02*
D03*
X003650Y004600D02*
D03*
X002850Y004590D02*
D03*
X003740Y003775D02*
D03*
X005410Y002180D02*
D03*
X005870Y004130D02*
D03*
X005570Y001650D02*
D03*
X003545Y005577D02*
D03*
X002400Y000160D02*
D03*
X002570Y003550D02*
D03*
X002070Y004820D02*
D03*
X001285Y005450D02*
D03*
Y004754D02*
D03*
Y004406D02*
D03*
Y001620D02*
D03*
Y001980D02*
D03*
Y002340D02*
D03*
Y000954D02*
D03*
D74*
X003134Y002260D02*
D03*
X003872Y002699D02*
D03*
X003744D02*
D03*
X000670Y004930D02*
D03*
X000450Y004760D02*
D03*
X000800Y005160D02*
D03*
X000630Y001990D02*
D03*
X000470Y001440D02*
D03*
Y001667D02*
D03*
X000590Y001785D02*
D03*
X001010Y001080D02*
D03*
X001925Y003947D02*
D03*
X003100Y003750D02*
D03*
X001110Y000800D02*
D03*
X001190Y000680D02*
D03*
X003010Y003650D02*
D03*
X002860Y002260D02*
D03*
X002747Y002720D02*
D03*
X002650D02*
D03*
X002550D02*
D03*
X002350D02*
D03*
X002950D02*
D03*
X002848D02*
D03*
X002450D02*
D03*
X003350D02*
D03*
X003550D02*
D03*
X003450D02*
D03*
X001285Y004620D02*
D03*
X007110Y002140D02*
D03*
X007050Y000780D02*
D03*
X002350Y005870D02*
D03*
X007030Y003770D02*
D03*
X007470Y002200D02*
D03*
Y002360D02*
D03*
X003751Y006080D02*
D03*
X004490Y002663D02*
D03*
X004489Y004135D02*
D03*
X001285Y003191D02*
D03*
X001950Y002556D02*
D03*
Y002926D02*
D03*
Y003050D02*
D03*
X002770Y001390D02*
D03*
X003556Y000509D02*
D03*
X007030Y003330D02*
D03*
X004700Y005750D02*
D03*
X005580Y002820D02*
D03*
Y002950D02*
D03*
Y003360D02*
D03*
Y003460D02*
D03*
X005430Y003567D02*
D03*
X004350Y001620D02*
D03*
X006390Y004680D02*
D03*
X006000Y004380D02*
D03*
X001950Y001320D02*
D03*
X003010Y003280D02*
D03*
X003740Y003575D02*
D03*
X004893Y003669D02*
D03*
X004620Y003756D02*
D03*
X005460Y002350D02*
D03*
X005500Y003870D02*
D03*
X005430Y004020D02*
D03*
X005580Y003967D02*
D03*
X004870Y002290D02*
D03*
X004567Y004297D02*
D03*
X004876Y002836D02*
D03*
X004890Y002090D02*
D03*
X005414Y001750D02*
D03*
Y003213D02*
D03*
Y004736D02*
D03*
X004490Y004926D02*
D03*
Y001934D02*
D03*
Y003400D02*
D03*
X004420Y004528D02*
D03*
Y002280D02*
D03*
Y003010D02*
D03*
Y003741D02*
D03*
X001950Y002185D02*
D03*
Y001567D02*
D03*
X004203Y005680D02*
D03*
X006051Y001650D02*
D03*
X006169D02*
D03*
X006287D02*
D03*
X001950Y001938D02*
D03*
X002440Y005870D02*
D03*
X004121Y005680D02*
D03*
X001495Y000585D02*
D03*
X002690Y003950D02*
D03*
X004040Y005680D02*
D03*
X001950Y002432D02*
D03*
Y002679D02*
D03*
Y001691D02*
D03*
X003445Y005577D02*
D03*
X001950Y001814D02*
D03*
X004610Y005680D02*
D03*
X002820Y003950D02*
D03*
X002794Y005870D02*
D03*
X001950Y001444D02*
D03*
X004447Y005680D02*
D03*
X005814Y001650D02*
D03*
X004529Y005680D02*
D03*
X001950Y002309D02*
D03*
X004284Y005680D02*
D03*
X002529Y005870D02*
D03*
X002617D02*
D03*
X004366Y005680D02*
D03*
X003060Y005870D02*
D03*
X001950Y002061D02*
D03*
X002706Y005870D02*
D03*
X005932Y001650D02*
D03*
X001950Y002803D02*
D03*
X002570Y003870D02*
D03*
X002883Y005870D02*
D03*
X002971D02*
D03*
X003740Y004390D02*
D03*
X005696Y001650D02*
D03*
X005862Y000590D02*
D03*
X002570Y003735D02*
D03*
X003740Y004510D02*
D03*
X003090D02*
D03*
X002610D02*
D03*
X006044Y000590D02*
D03*
X006225D02*
D03*
X006406D02*
D03*
X005681D02*
D03*
X005500D02*
D03*
X002500Y000510D02*
D03*
X002676D02*
D03*
X003732D02*
D03*
X003380D02*
D03*
X003204D02*
D03*
X003028D02*
D03*
X002852D02*
D03*
X002400Y000290D02*
D03*
X002600D02*
D03*
X005728Y000770D02*
D03*
X006480D02*
D03*
X007690D02*
D03*
X007680Y003210D02*
D03*
Y003010D02*
D03*
D75*
X007360Y004450D02*
D03*
Y004270D02*
D03*
X002660Y001550D02*
D03*
X007170Y005040D02*
D03*
X005950Y005150D02*
D03*
X002200Y001984D02*
D03*
D76*
X001882Y005910D02*
D03*
Y000310D02*
D03*
X006882D02*
D03*
Y005910D02*
D03*
M02*
