G04*
G04 #@! TF.GenerationSoftware,Altium Limited,Altium Designer,20.1.10 (176)*
G04*
G04 Layer_Physical_Order=3*
G04 Layer_Color=128*
%FSAX42Y42*%
%MOMM*%
G71*
G04*
G04 #@! TF.SameCoordinates,1BA63ED6-0030-4306-BA36-9B072EE6F18F*
G04*
G04*
G04 #@! TF.FilePolarity,Negative*
G04*
G01*
G75*
%ADD14C,0.25*%
%ADD61C,1.02*%
%ADD62C,1.72*%
G04:AMPARAMS|DCode=63|XSize=2.224mm|YSize=2.224mm|CornerRadius=0mm|HoleSize=0mm|Usage=FLASHONLY|Rotation=0.000|XOffset=0mm|YOffset=0mm|HoleType=Round|Shape=Relief|Width=0.25mm|Gap=0.25mm|Entries=4|*
%AMTHD63*
7,0,0,2.22,1.72,0.25,45*
%
%ADD63THD63*%
%ADD64C,1.87*%
G04:AMPARAMS|DCode=66|XSize=2.024mm|YSize=2.024mm|CornerRadius=0mm|HoleSize=0mm|Usage=FLASHONLY|Rotation=0.000|XOffset=0mm|YOffset=0mm|HoleType=Round|Shape=Relief|Width=0.25mm|Gap=0.25mm|Entries=4|*
%AMTHD66*
7,0,0,2.02,1.52,0.25,45*
%
%ADD66THD66*%
%ADD67C,1.88*%
G04:AMPARAMS|DCode=68|XSize=2.3876mm|YSize=2.3876mm|CornerRadius=0mm|HoleSize=0mm|Usage=FLASHONLY|Rotation=0.000|XOffset=0mm|YOffset=0mm|HoleType=Round|Shape=Relief|Width=0.25mm|Gap=0.25mm|Entries=4|*
%AMTHD68*
7,0,0,2.39,1.88,0.25,45*
%
%ADD68THD68*%
%ADD69C,1.32*%
G04:AMPARAMS|DCode=70|XSize=1.824mm|YSize=1.824mm|CornerRadius=0mm|HoleSize=0mm|Usage=FLASHONLY|Rotation=0.000|XOffset=0mm|YOffset=0mm|HoleType=Round|Shape=Relief|Width=0.25mm|Gap=0.25mm|Entries=4|*
%AMTHD70*
7,0,0,1.82,1.32,0.25,45*
%
%ADD70THD70*%
%ADD71C,1.52*%
%ADD72C,4.02*%
%ADD73C,2.02*%
D14*
X000100Y002312D02*
Y002350D01*
X000120Y001900D02*
Y001970D01*
X001450Y003050D02*
Y003350D01*
X000100Y002312D02*
X000416D01*
X001450Y003050D01*
X002800D02*
X003230D01*
X002800D02*
Y003350D01*
X001450D02*
X002800D01*
X003230Y001882D02*
Y003050D01*
X000120Y001785D02*
Y001900D01*
X000074Y001882D02*
X000555D01*
X004310Y000360D02*
X004340D01*
X002698Y000942D02*
Y001680D01*
X002200D02*
X002698D01*
X004070Y000600D02*
X004310Y000360D01*
X003950Y000600D02*
X004070D01*
X002200D02*
X003950D01*
X002200D02*
Y000943D01*
Y001680D01*
X007059Y000943D02*
X007990Y001873D01*
X002698Y000943D02*
X007059Y000943D01*
X007040Y004670D02*
X007830Y005460D01*
X007040Y004100D02*
Y004670D01*
Y004100D02*
X007990D01*
Y001873D02*
Y004100D01*
X000555Y001882D02*
X003230Y001882D01*
D61*
X001594Y000098D02*
G03*
X001807Y000010I000212J000212D01*
G01*
X003776D02*
G03*
X004036Y000160I000000J000300D01*
G01*
X004729D02*
G03*
X004036Y000160I-000346J-000200D01*
G01*
X004729D02*
G03*
X004989Y000010I000260J000150D01*
G01*
X006958D02*
G03*
X007170Y000098I-000000J000300D01*
G01*
X008594Y001522D02*
G03*
X008682Y001734I-000212J000212D01*
G01*
Y004486D02*
G03*
X008594Y004698I-000300J-000000D01*
G01*
X007170Y006122D02*
G03*
X006958Y006210I-000212J-000212D01*
G01*
X004989Y006210D02*
G03*
X004729Y006060I000000J-000300D01*
G01*
X004036Y006060D02*
G03*
X004729Y006060I000346J000200D01*
G01*
X004036Y006060D02*
G03*
X003776Y006210I-000260J-000150D01*
G01*
X001807Y006210D02*
G03*
X001594Y006122I000000J-000300D01*
G01*
X000170Y004698D02*
G03*
X000082Y004486I000212J-000212D01*
G01*
Y001734D02*
G03*
X000170Y001522I000300J000000D01*
G01*
X001594Y000098D01*
X000082Y001734D02*
Y004486D01*
X000170Y004698D02*
X001594Y006122D01*
X001807Y006210D02*
X003776D01*
Y006210D02*
Y006210D01*
X004036Y006060D02*
X004036Y006060D01*
X004729D02*
X004729Y006060D01*
X004989Y006210D02*
Y006210D01*
X006958D01*
X007170Y006122D02*
X007170D01*
X008594Y004698D01*
X008682Y001734D02*
Y004486D01*
X007170Y000098D02*
X008594Y001522D01*
X007170Y000098D02*
X007170D01*
X004989Y000010D02*
X006958D01*
X004729Y000160D02*
X004729D01*
X004036D02*
X004036D01*
X001807Y000010D02*
X003776D01*
D62*
X008232Y002210D02*
D03*
X008432D02*
D03*
X008232Y002410D02*
D03*
X008432D02*
D03*
X008232Y002610D02*
D03*
X008432D02*
D03*
X008232Y002810D02*
D03*
X008432D02*
D03*
Y004010D02*
D03*
X008232D02*
D03*
X008432Y003810D02*
D03*
X008232D02*
D03*
X008432Y003610D02*
D03*
X008232D02*
D03*
X008432Y003410D02*
D03*
X008232D02*
D03*
X008432Y003210D02*
D03*
X008232D02*
D03*
X008432Y003010D02*
D03*
X008232D02*
D03*
X000532Y002210D02*
D03*
Y002410D02*
D03*
Y002610D02*
D03*
X000332D02*
D03*
X000532Y002810D02*
D03*
X000332D02*
D03*
Y004010D02*
D03*
X000532D02*
D03*
X000332Y003810D02*
D03*
X000532D02*
D03*
X000332Y003610D02*
D03*
X000532D02*
D03*
X000332Y003410D02*
D03*
X000532D02*
D03*
X000332Y003210D02*
D03*
X000532D02*
D03*
X000332Y003010D02*
D03*
X000532D02*
D03*
D63*
X000332Y002210D02*
D03*
Y002410D02*
D03*
D64*
X008332Y004110D02*
D03*
Y002110D02*
D03*
X000432Y004110D02*
D03*
Y002110D02*
D03*
D66*
X002540Y001550D02*
D03*
X007980Y004290D02*
D03*
Y004510D02*
D03*
X002200Y002134D02*
D03*
D67*
X005600Y005910D02*
D03*
Y005710D02*
D03*
X005400Y005910D02*
D03*
Y005710D02*
D03*
X005200Y005910D02*
D03*
Y005710D02*
D03*
X005000Y005910D02*
D03*
Y005710D02*
D03*
X006000Y005910D02*
D03*
Y005710D02*
D03*
D68*
X005800Y005910D02*
D03*
Y005710D02*
D03*
D69*
X000450Y002000D02*
D03*
X000600Y001408D02*
D03*
X000755D02*
D03*
X000945D02*
D03*
X000330Y004330D02*
D03*
X000550Y002060D02*
D03*
X005414Y003091D02*
D03*
X002870Y001306D02*
D03*
X003047D02*
D03*
X002195Y001542D02*
D03*
X001285Y003361D02*
D03*
X000635Y003910D02*
D03*
X001285Y005102D02*
D03*
Y003020D02*
D03*
X001950Y002556D02*
D03*
X001285Y002662D02*
D03*
X001950Y002926D02*
D03*
Y003050D02*
D03*
X002195Y002000D02*
D03*
X007220Y003280D02*
D03*
X004700Y005750D02*
D03*
X005580Y002820D02*
D03*
Y002950D02*
D03*
X006220Y003030D02*
D03*
X005580Y003360D02*
D03*
Y003460D02*
D03*
X005430Y003767D02*
D03*
X000530Y004660D02*
D03*
X004830Y001240D02*
D03*
X004350Y001620D02*
D03*
X007460Y004020D02*
D03*
X006960Y004890D02*
D03*
X006390Y004680D02*
D03*
X006000Y004380D02*
D03*
X005600Y005269D02*
D03*
X004010Y000670D02*
D03*
X002330Y000510D02*
D03*
X001950Y001320D02*
D03*
X003650Y004600D02*
D03*
X002850Y004590D02*
D03*
X000462Y001630D02*
D03*
Y001480D02*
D03*
X003740Y003775D02*
D03*
X004893Y003669D02*
D03*
X004620Y003756D02*
D03*
X005410Y002180D02*
D03*
X007620Y002480D02*
D03*
X005870Y004130D02*
D03*
X005500Y003870D02*
D03*
X005580Y003967D02*
D03*
X007225Y000770D02*
D03*
X005570Y001650D02*
D03*
X004567Y004297D02*
D03*
X004876Y002836D02*
D03*
X004890Y002090D02*
D03*
X004420Y004528D02*
D03*
Y002280D02*
D03*
Y003010D02*
D03*
Y003741D02*
D03*
X001950Y002185D02*
D03*
Y001567D02*
D03*
X002950Y002610D02*
D03*
X004203Y005680D02*
D03*
X006051Y001650D02*
D03*
X006169D02*
D03*
X006287D02*
D03*
X001950Y001938D02*
D03*
X002370Y005870D02*
D03*
X003545Y005577D02*
D03*
X004121Y005680D02*
D03*
X001495Y000585D02*
D03*
X002690Y003950D02*
D03*
X004040Y005680D02*
D03*
X001950Y002432D02*
D03*
X002647Y002610D02*
D03*
X002340D02*
D03*
X001950Y002679D02*
D03*
Y001691D02*
D03*
Y001814D02*
D03*
X004610Y005680D02*
D03*
X002446Y002610D02*
D03*
X002820Y003950D02*
D03*
X002764Y005870D02*
D03*
X003650Y002610D02*
D03*
X001950Y001444D02*
D03*
X004447Y005680D02*
D03*
X005814Y001650D02*
D03*
X004529Y005680D02*
D03*
X003350Y002610D02*
D03*
X001950Y002309D02*
D03*
X004284Y005680D02*
D03*
X002469Y005870D02*
D03*
X002567D02*
D03*
X004366Y005680D02*
D03*
X001493Y005725D02*
D03*
X003100Y002480D02*
D03*
X003060Y005870D02*
D03*
X001950Y002061D02*
D03*
X002848Y002610D02*
D03*
X002666Y005870D02*
D03*
X005932Y001650D02*
D03*
X003751Y002610D02*
D03*
X002747D02*
D03*
X003450D02*
D03*
X001950Y002803D02*
D03*
X002570Y003870D02*
D03*
X002863Y005870D02*
D03*
X002961D02*
D03*
X003740Y004280D02*
D03*
Y004390D02*
D03*
X003550Y002610D02*
D03*
X005696Y001650D02*
D03*
X002546Y002610D02*
D03*
X003551Y006060D02*
D03*
X003737D02*
D03*
X003180D02*
D03*
X003922D02*
D03*
X003366D02*
D03*
X005862Y000590D02*
D03*
X000272Y001660D02*
D03*
X002400Y000160D02*
D03*
X002570Y003550D02*
D03*
X001285Y004130D02*
D03*
Y003720D02*
D03*
X002070Y004820D02*
D03*
X006044Y000590D02*
D03*
X006225D02*
D03*
X006406D02*
D03*
X005681D02*
D03*
X005500D02*
D03*
X001285Y005450D02*
D03*
X002400Y000290D02*
D03*
X002600D02*
D03*
X005728Y000770D02*
D03*
X006480D02*
D03*
X007098D02*
D03*
X007690D02*
D03*
X007680Y003210D02*
D03*
Y003010D02*
D03*
X007800Y002420D02*
D03*
X001285Y004754D02*
D03*
Y004406D02*
D03*
Y001304D02*
D03*
Y001620D02*
D03*
Y001980D02*
D03*
Y002340D02*
D03*
Y000954D02*
D03*
D70*
X000514Y001820D02*
D03*
X007800Y001870D02*
D03*
X004490Y002663D02*
D03*
X004489Y004135D02*
D03*
X001285Y003191D02*
D03*
X001925Y003947D02*
D03*
X002770Y001390D02*
D03*
X003556Y000509D02*
D03*
X007030Y003330D02*
D03*
X005430Y003567D02*
D03*
X007700Y003620D02*
D03*
X005950Y005150D02*
D03*
X007180Y005147D02*
D03*
X003010Y003280D02*
D03*
X003740Y003575D02*
D03*
X005460Y002350D02*
D03*
X005430Y004020D02*
D03*
X004870Y002290D02*
D03*
X005414Y001750D02*
D03*
Y003213D02*
D03*
Y004736D02*
D03*
X004490Y004926D02*
D03*
Y001934D02*
D03*
Y003400D02*
D03*
X003445Y005577D02*
D03*
X000600Y004767D02*
D03*
X002570Y003735D02*
D03*
X003740Y004510D02*
D03*
X003090D02*
D03*
X002610D02*
D03*
X002500Y000510D02*
D03*
X002676D02*
D03*
X003732D02*
D03*
X003380D02*
D03*
X003204D02*
D03*
X003028D02*
D03*
X002852D02*
D03*
D71*
X004655Y001940D02*
D03*
X004855D02*
D03*
Y001680D02*
D03*
X004655D02*
D03*
Y002413D02*
D03*
X004855D02*
D03*
Y002673D02*
D03*
X004655D02*
D03*
Y003407D02*
D03*
X004855D02*
D03*
Y003147D02*
D03*
X004655D02*
D03*
Y003880D02*
D03*
X004855D02*
D03*
Y004140D02*
D03*
X004655D02*
D03*
Y004670D02*
D03*
X004855D02*
D03*
Y004930D02*
D03*
X004655D02*
D03*
D72*
X006882Y000310D02*
D03*
X001882D02*
D03*
Y005910D02*
D03*
X006882D02*
D03*
D73*
X004755Y001810D02*
D03*
Y002543D02*
D03*
Y003277D02*
D03*
Y004010D02*
D03*
Y004800D02*
D03*
M02*
