G04*
G04 #@! TF.GenerationSoftware,Altium Limited,Altium Designer,23.9.2 (47)*
G04*
G04 Layer_Color=16711935*
%FSAX42Y42*%
%MOMM*%
G71*
G04*
G04 #@! TF.SameCoordinates,ED947BB0-FBEA-436B-BB51-AA8F8EE6EC71*
G04*
G04*
G04 #@! TF.FilePolarity,Positive*
G04*
G01*
G75*
%ADD13C,0.20*%
D13*
X008681Y004486D02*
G03*
X008593Y004698I-000300J-000000D01*
G01*
X004035Y006060D02*
G03*
X004727Y006060I000346J000200D01*
G01*
X004035Y006060D02*
G03*
X003775Y006210I-000260J-000150D01*
G01*
X001805Y006210D02*
G03*
X001593Y006122I000000J-000300D01*
G01*
X000169Y004698D02*
G03*
X000081Y004486I000212J-000212D01*
G01*
Y001734D02*
G03*
X000169Y001522I000300J000000D01*
G01*
X001593Y000098D02*
G03*
X001805Y000010I000212J000212D01*
G01*
X003775D02*
G03*
X004035Y000160I000000J000300D01*
G01*
X004727D02*
G03*
X004035Y000160I-000346J-000200D01*
G01*
X004727D02*
G03*
X004987Y000010I000260J000150D01*
G01*
X006957D02*
G03*
X007169Y000098I-000000J000300D01*
G01*
X008593Y001522D02*
G03*
X008681Y001734I-000212J000212D01*
G01*
X007169Y006122D02*
G03*
X006957Y006210I-000212J-000212D01*
G01*
X004987Y006210D02*
G03*
X004727Y006060I000000J-000300D01*
G01*
X008274Y004010D02*
G03*
X008274Y004010I-000043J000000D01*
G01*
X008474D02*
G03*
X008474Y004010I-000043J000000D01*
G01*
X008274Y003610D02*
G03*
X008274Y003610I-000043J000000D01*
G01*
X008474Y003810D02*
G03*
X008474Y003810I-000043J000000D01*
G01*
X008274D02*
G03*
X008274Y003810I-000043J000000D01*
G01*
X008474Y003610D02*
G03*
X008474Y003610I-000043J000000D01*
G01*
X008274Y003210D02*
G03*
X008274Y003210I-000043J000000D01*
G01*
X008474Y003410D02*
G03*
X008474Y003410I-000043J000000D01*
G01*
X008274D02*
G03*
X008274Y003410I-000043J000000D01*
G01*
X008474Y003210D02*
G03*
X008474Y003210I-000043J000000D01*
G01*
X008274Y002210D02*
G03*
X008274Y002210I-000043J000000D01*
G01*
X008474D02*
G03*
X008474Y002210I-000043J000000D01*
G01*
X008274Y002410D02*
G03*
X008274Y002410I-000043J000000D01*
G01*
X008474D02*
G03*
X008474Y002410I-000043J000000D01*
G01*
Y002610D02*
G03*
X008474Y002610I-000043J000000D01*
G01*
Y002810D02*
G03*
X008474Y002810I-000043J000000D01*
G01*
X008274Y003010D02*
G03*
X008274Y003010I-000043J000000D01*
G01*
X008474D02*
G03*
X008474Y003010I-000043J000000D01*
G01*
X008274Y002610D02*
G03*
X008274Y002610I-000043J000000D01*
G01*
Y002810D02*
G03*
X008274Y002810I-000043J000000D01*
G01*
X002031Y000310D02*
G03*
X002031Y000310I-000150J000000D01*
G01*
X007031D02*
G03*
X007031Y000310I-000150J000000D01*
G01*
Y005910D02*
G03*
X007031Y005910I-000150J000000D01*
G01*
X002031D02*
G03*
X002031Y005910I-000150J000000D01*
G01*
X000574Y002810D02*
G03*
X000574Y002810I-000043J000000D01*
G01*
Y002610D02*
G03*
X000574Y002610I-000043J000000D01*
G01*
X000374Y003010D02*
G03*
X000374Y003010I-000043J000000D01*
G01*
X000574D02*
G03*
X000574Y003010I-000043J000000D01*
G01*
X000374Y002810D02*
G03*
X000374Y002810I-000043J000000D01*
G01*
Y002610D02*
G03*
X000374Y002610I-000043J000000D01*
G01*
Y002410D02*
G03*
X000374Y002410I-000043J000000D01*
G01*
X000574D02*
G03*
X000574Y002410I-000043J000000D01*
G01*
X000374Y002210D02*
G03*
X000374Y002210I-000043J000000D01*
G01*
X000574D02*
G03*
X000574Y002210I-000043J000000D01*
G01*
X000374Y003210D02*
G03*
X000374Y003210I-000043J000000D01*
G01*
X000574Y003410D02*
G03*
X000574Y003410I-000043J000000D01*
G01*
X000374D02*
G03*
X000374Y003410I-000043J000000D01*
G01*
X000574Y003210D02*
G03*
X000574Y003210I-000043J000000D01*
G01*
X000374Y003610D02*
G03*
X000374Y003610I-000043J000000D01*
G01*
X000574Y003810D02*
G03*
X000574Y003810I-000043J000000D01*
G01*
X000374D02*
G03*
X000374Y003810I-000043J000000D01*
G01*
X000574Y003610D02*
G03*
X000574Y003610I-000043J000000D01*
G01*
X000374Y004010D02*
G03*
X000374Y004010I-000043J000000D01*
G01*
X000574D02*
G03*
X000574Y004010I-000043J000000D01*
G01*
X004036Y006060D02*
G03*
X003776Y006210I-000260J-000150D01*
G01*
X008682Y004486D02*
G03*
X008594Y004698I-000300J-000000D01*
G01*
X004036Y006060D02*
G03*
X004729Y006060I000346J000200D01*
G01*
X001807Y006210D02*
G03*
X001594Y006122I000000J-000300D01*
G01*
X000170Y004698D02*
G03*
X000082Y004486I000212J-000212D01*
G01*
Y001734D02*
G03*
X000170Y001522I000300J000000D01*
G01*
X001594Y000098D02*
G03*
X001807Y000010I000212J000212D01*
G01*
X003776D02*
G03*
X004036Y000160I000000J000300D01*
G01*
X004729D02*
G03*
X004036Y000160I-000346J-000200D01*
G01*
X004729D02*
G03*
X004989Y000010I000260J000150D01*
G01*
X006958D02*
G03*
X007170Y000098I-000000J000300D01*
G01*
X008594Y001522D02*
G03*
X008682Y001734I-000212J000212D01*
G01*
X007170Y006122D02*
G03*
X006958Y006210I-000212J-000212D01*
G01*
X004989D02*
G03*
X004729Y006060I000000J-000300D01*
G01*
X008681Y001734D02*
Y004486D01*
X007169Y006122D02*
X008593Y004698D01*
X001805Y006210D02*
X003775D01*
X000169Y004698D02*
X001593Y006122D01*
X000081Y001734D02*
Y004486D01*
X000169Y001522D02*
X001593Y000098D01*
X001805Y000010D02*
X003775D01*
X004987D02*
X006957D01*
X007169Y000098D02*
X008593Y001522D01*
X004987Y006210D02*
X006957D01*
X008682Y001734D02*
Y004486D01*
X007170Y006122D02*
X008594Y004698D01*
X001807Y006210D02*
X003776D01*
X000170Y004698D02*
X001594Y006122D01*
X000082Y001734D02*
Y004486D01*
X000170Y001522D02*
X001594Y000098D01*
X001807Y000010D02*
X003776D01*
X004989D02*
X006958D01*
X007170Y000098D02*
X008594Y001522D01*
X004989Y006210D02*
X006958D01*
M02*
