G04*
G04 #@! TF.GenerationSoftware,Altium Limited,Altium Designer,22.1.2 (22)*
G04*
G04 Layer_Color=32896*
%FSAX42Y42*%
%MOMM*%
G71*
G04*
G04 #@! TF.SameCoordinates,034806BB-B1BB-4671-9D6B-E9DA0DB7271A*
G04*
G04*
G04 #@! TF.FilePolarity,Positive*
G04*
G01*
G75*
%ADD12C,0.40*%
%ADD13C,0.20*%
%ADD14C,0.15*%
%ADD15C,0.25*%
%ADD17C,0.10*%
%ADD51C,0.30*%
%ADD53C,0.50*%
D12*
X002570Y001012D02*
G03*
X002570Y001012I-000020J000000D01*
G01*
D13*
X003164Y002782D02*
G03*
X003075Y002782I-000044J-000007D01*
G01*
X006850Y002920D02*
X008100D01*
X006850Y001360D02*
X008100D01*
X006850Y002510D02*
X008100D01*
Y000950D02*
Y002920D01*
X006850Y001050D02*
Y002920D01*
Y001050D02*
X006950Y000950D01*
X008100D01*
X005480Y002920D02*
X006730D01*
X005480Y001360D02*
X006730D01*
X005480Y002510D02*
X006730D01*
Y000950D02*
Y002920D01*
X005480Y001050D02*
Y002920D01*
Y001050D02*
X005580Y000950D01*
X006730D01*
X005065Y001556D02*
Y002065D01*
X004455Y001556D02*
X005065D01*
X004455Y002065D02*
X005065D01*
X004455Y001556D02*
Y002065D01*
Y002289D02*
Y002798D01*
X005065D01*
X004455Y002289D02*
X005065D01*
Y002798D01*
Y003023D02*
Y003532D01*
X004455Y003023D02*
X005065D01*
X004455Y003532D02*
X005065D01*
X004455Y003023D02*
Y003532D01*
Y003756D02*
Y004265D01*
X005065D01*
X004455Y003756D02*
X005065D01*
Y004265D01*
X004455Y004546D02*
Y005055D01*
X005065D01*
X004455Y004546D02*
X005065D01*
Y005055D01*
X003164Y002782D02*
X004244D01*
X001958D02*
X002529D01*
X003075D01*
X001958D02*
Y005068D01*
X004244D01*
Y002782D02*
Y005068D01*
X003256Y002545D02*
Y002645D01*
X003206D01*
X003190Y002628D01*
Y002595D01*
X003206Y002578D01*
X003256D01*
X003223D02*
X003190Y002545D01*
X003090Y002645D02*
X003123Y002628D01*
X003156Y002595D01*
Y002562D01*
X003140Y002545D01*
X003106D01*
X003090Y002562D01*
Y002578D01*
X003106Y002595D01*
X003156D01*
X003006Y002545D02*
Y002645D01*
X003056Y002595D01*
X002990D01*
D14*
X002797Y002633D02*
X002924D01*
X002797Y002316D02*
X002924D01*
X002784Y002507D02*
X002784Y002443D01*
X002936Y002443D02*
X002936Y002507D01*
X003103Y002633D02*
X003167D01*
X003103Y002481D02*
X003167D01*
X003294Y002494D02*
Y002621D01*
X002976Y002494D02*
Y002621D01*
X003294Y002326D02*
Y002453D01*
X002976Y002326D02*
Y002453D01*
X003103Y002466D02*
X003167D01*
X003103Y002314D02*
X003167D01*
X003986Y002443D02*
Y002507D01*
X003834Y002443D02*
Y002507D01*
X003847Y002316D02*
X003974D01*
X003847Y002633D02*
X003974D01*
X003813Y002443D02*
Y002507D01*
X003660Y002443D02*
Y002507D01*
X003673Y002316D02*
X003800D01*
X003673Y002633D02*
X003800D01*
X003640Y002443D02*
Y002507D01*
X003487Y002443D02*
Y002507D01*
X003500Y002316D02*
X003627D01*
X003500Y002633D02*
X003627D01*
X000754Y004866D02*
Y004929D01*
X000906Y004866D02*
Y004929D01*
X000766Y005056D02*
X000894D01*
X000766Y004739D02*
X000894D01*
X000766Y001227D02*
X000894D01*
X000766Y001544D02*
X000894D01*
X000906Y001353D02*
Y001417D01*
X000754Y001353D02*
Y001417D01*
X000927Y004257D02*
X001053D01*
X000927Y004575D02*
X001053D01*
X001066Y004384D02*
Y004448D01*
X000914Y004384D02*
Y004448D01*
X001086Y001353D02*
Y001416D01*
X000934Y001353D02*
Y001416D01*
X000947Y001226D02*
X001073D01*
X000947Y001544D02*
X001073D01*
X001316Y005212D02*
Y005340D01*
X001634Y005212D02*
Y005340D01*
X001444Y005200D02*
X001507D01*
X001444Y005352D02*
X001507D01*
X001316Y005387D02*
Y005514D01*
X001634Y005387D02*
Y005514D01*
X001444Y005374D02*
X001507D01*
X001444Y005526D02*
X001507D01*
X000574Y001353D02*
Y001417D01*
X000726Y001353D02*
Y001417D01*
X000586Y001544D02*
X000714D01*
X000586Y001227D02*
X000714D01*
X000947Y004739D02*
X001074D01*
X000947Y005056D02*
X001074D01*
X001086Y004866D02*
Y004929D01*
X000934Y004866D02*
Y004929D01*
X002076Y000757D02*
X002203D01*
X002076Y001074D02*
X002203D01*
X002216Y000884D02*
Y000947D01*
X002064Y000884D02*
Y000947D01*
X003226Y000786D02*
Y000914D01*
X002908Y000786D02*
Y000914D01*
X003035Y000926D02*
X003099D01*
X003035Y000774D02*
X003099D01*
X003326Y002633D02*
X003453D01*
X003326Y002316D02*
X003453D01*
X003314Y002443D02*
Y002507D01*
X003466Y002443D02*
Y002507D01*
X004613Y002104D02*
X004676D01*
X004613Y002256D02*
X004676D01*
X004486Y002117D02*
Y002243D01*
X004803Y002117D02*
Y002243D01*
X004613Y002844D02*
X004676D01*
X004613Y002996D02*
X004676D01*
X004486Y002857D02*
Y002983D01*
X004803Y002857D02*
Y002983D01*
X004613Y003544D02*
X004676D01*
X004613Y003696D02*
X004676D01*
X004486Y003556D02*
Y003683D01*
X004803Y003556D02*
Y003683D01*
X004613Y004364D02*
X004676D01*
X004613Y004516D02*
X004676D01*
X004486Y004376D02*
Y004503D01*
X004803Y004376D02*
Y004503D01*
X005306Y005363D02*
Y005427D01*
X005154Y005363D02*
Y005427D01*
X005167Y005237D02*
X005294D01*
X005167Y005554D02*
X005294D01*
X001444Y005178D02*
X001507D01*
X001444Y005026D02*
X001507D01*
X001634Y005038D02*
Y005165D01*
X001316Y005038D02*
Y005165D01*
X001444Y004830D02*
X001507D01*
X001444Y004678D02*
X001507D01*
X001634Y004690D02*
Y004817D01*
X001316Y004690D02*
Y004817D01*
X001444Y004482D02*
X001507D01*
X001444Y004329D02*
X001507D01*
X001634Y004342D02*
Y004469D01*
X001316Y004342D02*
Y004469D01*
X002414Y001756D02*
X002477D01*
X002414Y001604D02*
X002477D01*
X002604Y001617D02*
Y001743D01*
X002286Y001617D02*
Y001743D01*
X002414Y001589D02*
X002477D01*
X002414Y001436D02*
X002477D01*
X002604Y001449D02*
Y001576D01*
X002286Y001449D02*
Y001576D01*
X007246Y004343D02*
Y004406D01*
X007094Y004343D02*
Y004406D01*
X007107Y004216D02*
X007233D01*
X007107Y004533D02*
X007233D01*
X004286Y005003D02*
Y005067D01*
X004134Y005003D02*
Y005067D01*
X004147Y004876D02*
X004274D01*
X004147Y005194D02*
X004274D01*
X002082Y005086D02*
X002146D01*
X002082Y005238D02*
X002146D01*
X001955Y005098D02*
Y005225D01*
X002273Y005098D02*
Y005225D01*
X003964Y005003D02*
Y005067D01*
X004116Y005003D02*
Y005067D01*
X003976Y005194D02*
X004103D01*
X003976Y004876D02*
X004103D01*
X007094Y004696D02*
Y004759D01*
X007246Y004696D02*
Y004759D01*
X007107Y004886D02*
X007233D01*
X007107Y004569D02*
X007233D01*
X001444Y004134D02*
X001507D01*
X001444Y003981D02*
X001507D01*
X001634Y003994D02*
Y004121D01*
X001316Y003994D02*
Y004121D01*
X001444Y003785D02*
X001507D01*
X001444Y003633D02*
X001507D01*
X001634Y003646D02*
Y003773D01*
X001316Y003646D02*
Y003773D01*
X001444Y003437D02*
X001507D01*
X001444Y003285D02*
X001507D01*
X001634Y003298D02*
Y003425D01*
X001316Y003298D02*
Y003425D01*
X001444Y003089D02*
X001507D01*
X001444Y002937D02*
X001507D01*
X001634Y002949D02*
Y003076D01*
X001316Y002949D02*
Y003076D01*
X001444Y002741D02*
X001507D01*
X001444Y002589D02*
X001507D01*
X001634Y002601D02*
Y002728D01*
X001316Y002601D02*
Y002728D01*
X001444Y002393D02*
X001507D01*
X001444Y002240D02*
X001507D01*
X001634Y002253D02*
Y002380D01*
X001316Y002253D02*
Y002380D01*
X001444Y002045D02*
X001507D01*
X001444Y001892D02*
X001507D01*
X001634Y001905D02*
Y002032D01*
X001316Y001905D02*
Y002032D01*
X001444Y001697D02*
X001507D01*
X001444Y001544D02*
X001507D01*
X001634Y001557D02*
Y001684D01*
X001316Y001557D02*
Y001684D01*
X001444Y001348D02*
X001507D01*
X001444Y001196D02*
X001507D01*
X001634Y001209D02*
Y001336D01*
X001316Y001209D02*
Y001336D01*
X001444Y001000D02*
X001507D01*
X001444Y000848D02*
X001507D01*
X001634Y000861D02*
Y000988D01*
X001316Y000861D02*
Y000988D01*
X005903Y003618D02*
X005967D01*
X005903Y003770D02*
X005967D01*
X005776Y003631D02*
Y003758D01*
X006094Y003631D02*
Y003758D01*
Y003455D02*
Y003582D01*
X005776Y003455D02*
Y003582D01*
X005903Y003595D02*
X005967D01*
X005903Y003442D02*
X005967D01*
X005903Y003266D02*
X005967D01*
X005903Y003419D02*
X005967D01*
X005776Y003279D02*
Y003406D01*
X006094Y003279D02*
Y003406D01*
X005903Y003794D02*
X005967D01*
X005903Y003946D02*
X005967D01*
X005776Y003806D02*
Y003933D01*
X006094Y003806D02*
Y003933D01*
X002132Y001436D02*
X002259D01*
X002132Y001754D02*
X002259D01*
X002271Y001564D02*
Y001627D01*
X002119Y001564D02*
Y001627D01*
X003226Y000620D02*
Y000747D01*
X002908Y000620D02*
Y000747D01*
X003035Y000759D02*
X003099D01*
X003035Y000607D02*
X003099D01*
X003241Y000734D02*
Y000797D01*
X003393Y000734D02*
Y000797D01*
X003254Y000924D02*
X003381D01*
X003254Y000607D02*
X003381D01*
X003421D02*
X003548D01*
X003421Y000924D02*
X003548D01*
X003561Y000734D02*
Y000797D01*
X003408Y000734D02*
Y000797D01*
X006780Y004343D02*
Y004406D01*
X006628Y004343D02*
Y004406D01*
X006641Y004216D02*
X006768D01*
X006641Y004533D02*
X006768D01*
X007013Y004343D02*
Y004406D01*
X006861Y004343D02*
Y004406D01*
X006874Y004216D02*
X007001D01*
X006874Y004533D02*
X007001D01*
X006395Y004343D02*
Y004406D01*
X006547Y004343D02*
Y004406D01*
X006408Y004533D02*
X006535D01*
X006408Y004216D02*
X006535D01*
X003624Y005363D02*
Y005427D01*
X003776Y005363D02*
Y005427D01*
X003637Y005554D02*
X003763D01*
X003637Y005237D02*
X003763D01*
X003794Y005363D02*
Y005427D01*
X003946Y005363D02*
Y005427D01*
X003806Y005554D02*
X003933D01*
X003806Y005237D02*
X003933D01*
X003964Y005363D02*
Y005427D01*
X004116Y005363D02*
Y005427D01*
X003976Y005554D02*
X004103D01*
X003976Y005237D02*
X004103D01*
X004134Y005363D02*
Y005427D01*
X004286Y005363D02*
Y005427D01*
X004147Y005554D02*
X004274D01*
X004147Y005237D02*
X004274D01*
X004304Y005363D02*
Y005427D01*
X004456Y005363D02*
Y005427D01*
X004317Y005554D02*
X004444D01*
X004317Y005237D02*
X004444D01*
X004474Y005363D02*
Y005427D01*
X004626Y005363D02*
Y005427D01*
X004487Y005554D02*
X004613D01*
X004487Y005237D02*
X004613D01*
X004644Y005363D02*
Y005427D01*
X004796Y005363D02*
Y005427D01*
X004656Y005554D02*
X004783D01*
X004656Y005237D02*
X004783D01*
X004826D02*
X004953D01*
X004826Y005554D02*
X004953D01*
X004966Y005363D02*
Y005427D01*
X004814Y005363D02*
Y005427D01*
X004997Y005554D02*
X005124D01*
X004997Y005237D02*
X005124D01*
X004984Y005363D02*
Y005427D01*
X005136Y005363D02*
Y005427D01*
X001316Y004516D02*
Y004643D01*
X001634Y004516D02*
Y004643D01*
X001444Y004503D02*
X001507D01*
X001444Y004656D02*
X001507D01*
X001444Y004308D02*
X001507D01*
X001444Y004155D02*
X001507D01*
X001634Y004168D02*
Y004295D01*
X001316Y004168D02*
Y004295D01*
X002306Y000757D02*
X002433D01*
X002306Y001074D02*
X002433D01*
X002445Y000884D02*
Y000947D01*
X002293Y000884D02*
Y000947D01*
X001316Y001035D02*
Y001162D01*
X001634Y001035D02*
Y001162D01*
X001444Y001022D02*
X001507D01*
X001444Y001174D02*
X001507D01*
X001316Y002427D02*
Y002554D01*
X001634Y002427D02*
Y002554D01*
X001444Y002415D02*
X001507D01*
X001444Y002567D02*
X001507D01*
X001316Y001383D02*
Y001510D01*
X001634Y001383D02*
Y001510D01*
X001444Y001370D02*
X001507D01*
X001444Y001522D02*
X001507D01*
X001316Y002079D02*
Y002206D01*
X001634Y002079D02*
Y002206D01*
X001444Y002066D02*
X001507D01*
X001444Y002219D02*
X001507D01*
X001316Y001731D02*
Y001858D01*
X001634Y001731D02*
Y001858D01*
X001444Y001718D02*
X001507D01*
X001444Y001871D02*
X001507D01*
X001316Y002775D02*
Y002902D01*
X001634Y002775D02*
Y002902D01*
X001444Y002763D02*
X001507D01*
X001444Y002915D02*
X001507D01*
X001316Y003472D02*
Y003599D01*
X001634Y003472D02*
Y003599D01*
X001444Y003459D02*
X001507D01*
X001444Y003611D02*
X001507D01*
X007954Y003074D02*
Y003137D01*
X008106Y003074D02*
Y003137D01*
X007967Y003264D02*
X008093D01*
X007967Y002947D02*
X008093D01*
X007954Y002683D02*
Y002747D01*
X008106Y002683D02*
Y002747D01*
X007967Y002874D02*
X008093D01*
X007967Y002556D02*
X008093D01*
X001316Y000686D02*
Y000814D01*
X001634Y000686D02*
Y000814D01*
X001444Y000674D02*
X001507D01*
X001444Y000826D02*
X001507D01*
X001316Y004864D02*
Y004991D01*
X001634Y004864D02*
Y004991D01*
X001444Y004852D02*
X001507D01*
X001444Y005004D02*
X001507D01*
X001316Y003820D02*
Y003947D01*
X001634Y003820D02*
Y003947D01*
X001444Y003807D02*
X001507D01*
X001444Y003960D02*
X001507D01*
X001316Y003124D02*
Y003251D01*
X001634Y003124D02*
Y003251D01*
X001444Y003111D02*
X001507D01*
X001444Y003263D02*
X001507D01*
D15*
X006828Y005216D02*
G03*
X006828Y005216I-000015J000000D01*
G01*
X007004Y001100D02*
G03*
X007004Y001100I-000014J000000D01*
G01*
X005634D02*
G03*
X005634Y001100I-000014J000000D01*
G01*
X003738Y000993D02*
Y002213D01*
X002785D02*
X003738D01*
X002912Y000993D02*
X003738D01*
X002785Y001120D02*
X002912Y000993D01*
X002785Y001120D02*
Y002213D01*
X006488Y004801D02*
Y005064D01*
X007032Y004801D02*
Y005064D01*
X006625Y004554D02*
X006888D01*
X006625Y005309D02*
X006888D01*
D17*
X002910Y002690D02*
Y002750D01*
X002880D01*
X002870Y002740D01*
Y002720D01*
X002880Y002710D01*
X002910D01*
X002890D02*
X002870Y002690D01*
X002850Y002750D02*
X002810D01*
Y002740D01*
X002850Y002700D01*
Y002690D01*
X002930Y002537D02*
X002870D01*
Y002507D01*
X002880Y002497D01*
X002900D01*
X002910Y002507D01*
Y002537D01*
Y002517D02*
X002930Y002497D01*
X002870Y002437D02*
X002880Y002457D01*
X002900Y002477D01*
X002920D01*
X002930Y002467D01*
Y002447D01*
X002920Y002437D01*
X002910D01*
X002900Y002447D01*
Y002477D01*
X004060Y002680D02*
Y002740D01*
X004030D01*
X004020Y002730D01*
Y002710D01*
X004030Y002700D01*
X004060D01*
X004040D02*
X004020Y002680D01*
X003960D02*
X004000D01*
X003960Y002720D01*
Y002730D01*
X003970Y002740D01*
X003990D01*
X004000Y002730D01*
X003940Y002740D02*
X003900D01*
Y002730D01*
X003940Y002690D01*
Y002680D01*
X003843D02*
Y002740D01*
X003813D01*
X003803Y002730D01*
Y002710D01*
X003813Y002700D01*
X003843D01*
X003823D02*
X003803Y002680D01*
X003743D02*
X003783D01*
X003743Y002720D01*
Y002730D01*
X003753Y002740D01*
X003773D01*
X003783Y002730D01*
X003683Y002740D02*
X003703Y002730D01*
X003723Y002710D01*
Y002690D01*
X003713Y002680D01*
X003693D01*
X003683Y002690D01*
Y002700D01*
X003693Y002710D01*
X003723D01*
X003597Y002680D02*
Y002740D01*
X003567D01*
X003557Y002730D01*
Y002710D01*
X003567Y002700D01*
X003597D01*
X003577D02*
X003557Y002680D01*
X003497D02*
X003537D01*
X003497Y002720D01*
Y002730D01*
X003507Y002740D01*
X003527D01*
X003537Y002730D01*
X000490Y004820D02*
X000450Y004760D01*
Y004820D02*
X000490Y004760D01*
X000390D02*
X000430D01*
X000390Y004800D01*
Y004810D01*
X000400Y004820D01*
X000420D01*
X000430Y004810D01*
X001886Y005240D02*
Y005300D01*
X001856D01*
X001846Y005290D01*
Y005270D01*
X001856Y005260D01*
X001886D01*
X001866D02*
X001846Y005240D01*
X001786Y005300D02*
X001806Y005290D01*
X001826Y005270D01*
Y005250D01*
X001816Y005240D01*
X001796D01*
X001786Y005250D01*
Y005260D01*
X001796Y005270D01*
X001826D01*
X001766Y005290D02*
X001756Y005300D01*
X001736D01*
X001726Y005290D01*
Y005280D01*
X001736Y005270D01*
X001746D01*
X001736D01*
X001726Y005260D01*
Y005250D01*
X001736Y005240D01*
X001756D01*
X001766Y005250D01*
X001846Y005466D02*
X001856Y005476D01*
X001876D01*
X001886Y005466D01*
Y005426D01*
X001876Y005416D01*
X001856D01*
X001846Y005426D01*
X001796Y005416D02*
Y005476D01*
X001826Y005446D01*
X001786D01*
X001766Y005426D02*
X001756Y005416D01*
X001736D01*
X001726Y005426D01*
Y005466D01*
X001736Y005476D01*
X001756D01*
X001766Y005466D01*
Y005456D01*
X001756Y005446D01*
X001726D01*
X003370Y002680D02*
Y002740D01*
X003340D01*
X003330Y002730D01*
Y002710D01*
X003340Y002700D01*
X003370D01*
X003350D02*
X003330Y002680D01*
X003310D02*
X003290D01*
X003300D01*
Y002740D01*
X003310Y002730D01*
X004130Y002346D02*
Y002296D01*
X004120Y002286D01*
X004100D01*
X004090Y002296D01*
Y002346D01*
X004070Y002286D02*
X004050D01*
X004060D01*
Y002346D01*
X004070Y002336D01*
X004020D02*
X004010Y002346D01*
X003990D01*
X003980Y002336D01*
Y002296D01*
X003990Y002286D01*
X004010D01*
X004020Y002296D01*
Y002336D01*
X001886Y004895D02*
Y004955D01*
X001856D01*
X001846Y004945D01*
Y004925D01*
X001856Y004915D01*
X001886D01*
X001866D02*
X001846Y004895D01*
X001786Y004955D02*
X001806Y004945D01*
X001826Y004925D01*
Y004905D01*
X001816Y004895D01*
X001796D01*
X001786Y004905D01*
Y004915D01*
X001796Y004925D01*
X001826D01*
X001726Y004895D02*
X001766D01*
X001726Y004935D01*
Y004945D01*
X001736Y004955D01*
X001756D01*
X001766Y004945D01*
X001886Y004547D02*
Y004607D01*
X001856D01*
X001846Y004597D01*
Y004577D01*
X001856Y004567D01*
X001886D01*
X001866D02*
X001846Y004547D01*
X001786Y004607D02*
X001806Y004597D01*
X001826Y004577D01*
Y004557D01*
X001816Y004547D01*
X001796D01*
X001786Y004557D01*
Y004567D01*
X001796Y004577D01*
X001826D01*
X001766Y004547D02*
X001746D01*
X001756D01*
Y004607D01*
X001766Y004597D01*
X001886Y004199D02*
Y004259D01*
X001856D01*
X001846Y004249D01*
Y004229D01*
X001856Y004219D01*
X001886D01*
X001866D02*
X001846Y004199D01*
X001786Y004259D02*
X001806Y004249D01*
X001826Y004229D01*
Y004209D01*
X001816Y004199D01*
X001796D01*
X001786Y004209D01*
Y004219D01*
X001796Y004229D01*
X001826D01*
X001766Y004249D02*
X001756Y004259D01*
X001736D01*
X001726Y004249D01*
Y004209D01*
X001736Y004199D01*
X001756D01*
X001766Y004209D01*
Y004249D01*
X001846Y005117D02*
X001856Y005127D01*
X001876D01*
X001886Y005117D01*
Y005077D01*
X001876Y005067D01*
X001856D01*
X001846Y005077D01*
X001796Y005067D02*
Y005127D01*
X001826Y005097D01*
X001786D01*
X001766Y005117D02*
X001756Y005127D01*
X001736D01*
X001726Y005117D01*
Y005107D01*
X001736Y005097D01*
X001726Y005087D01*
Y005077D01*
X001736Y005067D01*
X001756D01*
X001766Y005077D01*
Y005087D01*
X001756Y005097D01*
X001766Y005107D01*
Y005117D01*
X001756Y005097D02*
X001736D01*
X001846Y004769D02*
X001856Y004779D01*
X001876D01*
X001886Y004769D01*
Y004729D01*
X001876Y004719D01*
X001856D01*
X001846Y004729D01*
X001796Y004719D02*
Y004779D01*
X001826Y004749D01*
X001786D01*
X001766Y004779D02*
X001726D01*
Y004769D01*
X001766Y004729D01*
Y004719D01*
X001846Y004421D02*
X001856Y004431D01*
X001876D01*
X001886Y004421D01*
Y004381D01*
X001876Y004371D01*
X001856D01*
X001846Y004381D01*
X001796Y004371D02*
Y004431D01*
X001826Y004401D01*
X001786D01*
X001726Y004431D02*
X001746Y004421D01*
X001766Y004401D01*
Y004381D01*
X001756Y004371D01*
X001736D01*
X001726Y004381D01*
Y004391D01*
X001736Y004401D01*
X001766D01*
X001886Y003851D02*
Y003911D01*
X001856D01*
X001846Y003901D01*
Y003881D01*
X001856Y003871D01*
X001886D01*
X001866D02*
X001846Y003851D01*
X001786D02*
X001826D01*
X001786Y003891D01*
Y003901D01*
X001796Y003911D01*
X001816D01*
X001826Y003901D01*
X001726Y003911D02*
X001766D01*
Y003881D01*
X001746Y003891D01*
X001736D01*
X001726Y003881D01*
Y003861D01*
X001736Y003851D01*
X001756D01*
X001766Y003861D01*
X001886Y003503D02*
Y003563D01*
X001856D01*
X001846Y003553D01*
Y003533D01*
X001856Y003523D01*
X001886D01*
X001866D02*
X001846Y003503D01*
X001786D02*
X001826D01*
X001786Y003543D01*
Y003553D01*
X001796Y003563D01*
X001816D01*
X001826Y003553D01*
X001736Y003503D02*
Y003563D01*
X001766Y003533D01*
X001726D01*
X001886Y003155D02*
Y003215D01*
X001856D01*
X001846Y003205D01*
Y003185D01*
X001856Y003175D01*
X001886D01*
X001866D02*
X001846Y003155D01*
X001786D02*
X001826D01*
X001786Y003195D01*
Y003205D01*
X001796Y003215D01*
X001816D01*
X001826Y003205D01*
X001766D02*
X001756Y003215D01*
X001736D01*
X001726Y003205D01*
Y003195D01*
X001736Y003185D01*
X001746D01*
X001736D01*
X001726Y003175D01*
Y003165D01*
X001736Y003155D01*
X001756D01*
X001766Y003165D01*
X001886Y002806D02*
Y002866D01*
X001856D01*
X001846Y002856D01*
Y002836D01*
X001856Y002826D01*
X001886D01*
X001866D02*
X001846Y002806D01*
X001786D02*
X001826D01*
X001786Y002846D01*
Y002856D01*
X001796Y002866D01*
X001816D01*
X001826Y002856D01*
X001726Y002806D02*
X001766D01*
X001726Y002846D01*
Y002856D01*
X001736Y002866D01*
X001756D01*
X001766Y002856D01*
X001886Y002458D02*
Y002518D01*
X001856D01*
X001846Y002508D01*
Y002488D01*
X001856Y002478D01*
X001886D01*
X001866D02*
X001846Y002458D01*
X001786D02*
X001826D01*
X001786Y002498D01*
Y002508D01*
X001796Y002518D01*
X001816D01*
X001826Y002508D01*
X001766Y002458D02*
X001746D01*
X001756D01*
Y002518D01*
X001766Y002508D01*
X001886Y002110D02*
Y002170D01*
X001856D01*
X001846Y002160D01*
Y002140D01*
X001856Y002130D01*
X001886D01*
X001866D02*
X001846Y002110D01*
X001786D02*
X001826D01*
X001786Y002150D01*
Y002160D01*
X001796Y002170D01*
X001816D01*
X001826Y002160D01*
X001766D02*
X001756Y002170D01*
X001736D01*
X001726Y002160D01*
Y002120D01*
X001736Y002110D01*
X001756D01*
X001766Y002120D01*
Y002160D01*
X001886Y001762D02*
Y001822D01*
X001856D01*
X001846Y001812D01*
Y001792D01*
X001856Y001782D01*
X001886D01*
X001866D02*
X001846Y001762D01*
X001826D02*
X001806D01*
X001816D01*
Y001822D01*
X001826Y001812D01*
X001776Y001772D02*
X001766Y001762D01*
X001746D01*
X001736Y001772D01*
Y001812D01*
X001746Y001822D01*
X001766D01*
X001776Y001812D01*
Y001802D01*
X001766Y001792D01*
X001736D01*
X001886Y001414D02*
Y001474D01*
X001856D01*
X001846Y001464D01*
Y001444D01*
X001856Y001434D01*
X001886D01*
X001866D02*
X001846Y001414D01*
X001826D02*
X001806D01*
X001816D01*
Y001474D01*
X001826Y001464D01*
X001776D02*
X001766Y001474D01*
X001746D01*
X001736Y001464D01*
Y001454D01*
X001746Y001444D01*
X001736Y001434D01*
Y001424D01*
X001746Y001414D01*
X001766D01*
X001776Y001424D01*
Y001434D01*
X001766Y001444D01*
X001776Y001454D01*
Y001464D01*
X001766Y001444D02*
X001746D01*
X001846Y004073D02*
X001856Y004083D01*
X001876D01*
X001886Y004073D01*
Y004033D01*
X001876Y004023D01*
X001856D01*
X001846Y004033D01*
X001826Y004023D02*
X001806D01*
X001816D01*
Y004083D01*
X001826Y004073D01*
X001776D02*
X001766Y004083D01*
X001746D01*
X001736Y004073D01*
Y004033D01*
X001746Y004023D01*
X001766D01*
X001776Y004033D01*
Y004073D01*
X001846Y003724D02*
X001856Y003734D01*
X001876D01*
X001886Y003724D01*
Y003685D01*
X001876Y003675D01*
X001856D01*
X001846Y003685D01*
X001826D02*
X001816Y003675D01*
X001796D01*
X001786Y003685D01*
Y003724D01*
X001796Y003734D01*
X001816D01*
X001826Y003724D01*
Y003714D01*
X001816Y003704D01*
X001786D01*
X001846Y003376D02*
X001856Y003386D01*
X001876D01*
X001886Y003376D01*
Y003336D01*
X001876Y003326D01*
X001856D01*
X001846Y003336D01*
X001826Y003376D02*
X001816Y003386D01*
X001796D01*
X001786Y003376D01*
Y003366D01*
X001796Y003356D01*
X001786Y003346D01*
Y003336D01*
X001796Y003326D01*
X001816D01*
X001826Y003336D01*
Y003346D01*
X001816Y003356D01*
X001826Y003366D01*
Y003376D01*
X001816Y003356D02*
X001796D01*
X001846Y003028D02*
X001856Y003038D01*
X001876D01*
X001886Y003028D01*
Y002988D01*
X001876Y002978D01*
X001856D01*
X001846Y002988D01*
X001826Y003038D02*
X001786D01*
Y003028D01*
X001826Y002988D01*
Y002978D01*
X001846Y002680D02*
X001856Y002690D01*
X001876D01*
X001886Y002680D01*
Y002640D01*
X001876Y002630D01*
X001856D01*
X001846Y002640D01*
X001786Y002690D02*
X001806Y002680D01*
X001826Y002660D01*
Y002640D01*
X001816Y002630D01*
X001796D01*
X001786Y002640D01*
Y002650D01*
X001796Y002660D01*
X001826D01*
X001846Y002332D02*
X001856Y002342D01*
X001876D01*
X001886Y002332D01*
Y002292D01*
X001876Y002282D01*
X001856D01*
X001846Y002292D01*
X001786Y002342D02*
X001826D01*
Y002312D01*
X001806Y002322D01*
X001796D01*
X001786Y002312D01*
Y002292D01*
X001796Y002282D01*
X001816D01*
X001826Y002292D01*
X001846Y001984D02*
X001856Y001994D01*
X001876D01*
X001886Y001984D01*
Y001944D01*
X001876Y001934D01*
X001856D01*
X001846Y001944D01*
X001796Y001934D02*
Y001994D01*
X001826Y001964D01*
X001786D01*
X001846Y001636D02*
X001856Y001646D01*
X001876D01*
X001886Y001636D01*
Y001596D01*
X001876Y001586D01*
X001856D01*
X001846Y001596D01*
X001826Y001636D02*
X001816Y001646D01*
X001796D01*
X001786Y001636D01*
Y001626D01*
X001796Y001616D01*
X001806D01*
X001796D01*
X001786Y001606D01*
Y001596D01*
X001796Y001586D01*
X001816D01*
X001826Y001596D01*
X001846Y001287D02*
X001856Y001297D01*
X001876D01*
X001886Y001287D01*
Y001247D01*
X001876Y001237D01*
X001856D01*
X001846Y001247D01*
X001786Y001237D02*
X001826D01*
X001786Y001277D01*
Y001287D01*
X001796Y001297D01*
X001816D01*
X001826Y001287D01*
X006980Y005445D02*
X006990Y005455D01*
X007010D01*
X007020Y005445D01*
Y005405D01*
X007010Y005395D01*
X006990D01*
X006980Y005405D01*
Y005425D01*
X007000D01*
X006960Y005455D02*
Y005395D01*
Y005415D01*
X006920Y005455D01*
X006950Y005425D01*
X006920Y005395D01*
X006900D02*
X006880D01*
X006890D01*
Y005455D01*
X006900Y005445D01*
X005300Y001905D02*
Y001855D01*
X005290Y001845D01*
X005270D01*
X005260Y001855D01*
Y001905D01*
X005240D02*
X005200D01*
Y001895D01*
X005240Y001855D01*
Y001845D01*
X005300Y002630D02*
Y002580D01*
X005290Y002570D01*
X005270D01*
X005260Y002580D01*
Y002630D01*
X005200D02*
X005220Y002620D01*
X005240Y002600D01*
Y002580D01*
X005230Y002570D01*
X005210D01*
X005200Y002580D01*
Y002590D01*
X005210Y002600D01*
X005240D01*
X005300Y003355D02*
Y003305D01*
X005290Y003295D01*
X005270D01*
X005260Y003305D01*
Y003355D01*
X005200D02*
X005240D01*
Y003325D01*
X005220Y003335D01*
X005210D01*
X005200Y003325D01*
Y003305D01*
X005210Y003295D01*
X005230D01*
X005240Y003305D01*
X005300Y004080D02*
Y004030D01*
X005290Y004020D01*
X005270D01*
X005260Y004030D01*
Y004080D01*
X005210Y004020D02*
Y004080D01*
X005240Y004050D01*
X005200D01*
X005300Y004880D02*
Y004830D01*
X005290Y004820D01*
X005270D01*
X005260Y004830D01*
Y004880D01*
X005240Y004870D02*
X005230Y004880D01*
X005210D01*
X005200Y004870D01*
Y004860D01*
X005210Y004850D01*
X005220D01*
X005210D01*
X005200Y004840D01*
Y004830D01*
X005210Y004820D01*
X005230D01*
X005240Y004830D01*
X003000Y005205D02*
Y005155D01*
X002990Y005145D01*
X002970D01*
X002960Y005155D01*
Y005205D01*
X002900Y005145D02*
X002940D01*
X002900Y005185D01*
Y005195D01*
X002910Y005205D01*
X002930D01*
X002940Y005195D01*
X006160Y003030D02*
X006120D01*
X006140D01*
Y002970D01*
X006060D02*
X006100D01*
X006060Y003010D01*
Y003020D01*
X006070Y003030D01*
X006090D01*
X006100Y003020D01*
X007515Y003030D02*
X007475D01*
X007495D01*
Y002970D01*
X007455D02*
X007435D01*
X007445D01*
Y003030D01*
X007455Y003020D01*
X002830Y000645D02*
Y000705D01*
X002800D01*
X002790Y000695D01*
Y000675D01*
X002800Y000665D01*
X002830D01*
X002810D02*
X002790Y000645D01*
X002730Y000705D02*
X002770D01*
Y000675D01*
X002750Y000685D01*
X002740D01*
X002730Y000675D01*
Y000655D01*
X002740Y000645D01*
X002760D01*
X002770Y000655D01*
X002710D02*
X002700Y000645D01*
X002680D01*
X002670Y000655D01*
Y000695D01*
X002680Y000705D01*
X002700D01*
X002710Y000695D01*
Y000685D01*
X002700Y000675D01*
X002670D01*
X003605Y000470D02*
Y000530D01*
X003575D01*
X003565Y000520D01*
Y000500D01*
X003575Y000490D01*
X003605D01*
X003585D02*
X003565Y000470D01*
X003505Y000530D02*
X003545D01*
Y000500D01*
X003525Y000510D01*
X003515D01*
X003505Y000500D01*
Y000480D01*
X003515Y000470D01*
X003535D01*
X003545Y000480D01*
X003485Y000520D02*
X003475Y000530D01*
X003455D01*
X003445Y000520D01*
Y000510D01*
X003455Y000500D01*
X003445Y000490D01*
Y000480D01*
X003455Y000470D01*
X003475D01*
X003485Y000480D01*
Y000490D01*
X003475Y000500D01*
X003485Y000510D01*
Y000520D01*
X003475Y000500D02*
X003455D01*
X003355Y000470D02*
Y000530D01*
X003325D01*
X003315Y000520D01*
Y000500D01*
X003325Y000490D01*
X003355D01*
X003335D02*
X003315Y000470D01*
X003255Y000530D02*
X003295D01*
Y000500D01*
X003275Y000510D01*
X003265D01*
X003255Y000500D01*
Y000480D01*
X003265Y000470D01*
X003285D01*
X003295Y000480D01*
X003235Y000530D02*
X003195D01*
Y000520D01*
X003235Y000480D01*
Y000470D01*
X002830Y000820D02*
Y000880D01*
X002800D01*
X002790Y000870D01*
Y000850D01*
X002800Y000840D01*
X002830D01*
X002810D02*
X002790Y000820D01*
X002730Y000880D02*
X002770D01*
Y000850D01*
X002750Y000860D01*
X002740D01*
X002730Y000850D01*
Y000830D01*
X002740Y000820D01*
X002760D01*
X002770Y000830D01*
X002670Y000880D02*
X002690Y000870D01*
X002710Y000850D01*
Y000830D01*
X002700Y000820D01*
X002680D01*
X002670Y000830D01*
Y000840D01*
X002680Y000850D01*
X002710D01*
X007030Y004070D02*
Y004130D01*
X007000D01*
X006990Y004120D01*
Y004100D01*
X007000Y004090D01*
X007030D01*
X007010D02*
X006990Y004070D01*
X006930Y004130D02*
X006970D01*
Y004100D01*
X006950Y004110D01*
X006940D01*
X006930Y004100D01*
Y004080D01*
X006940Y004070D01*
X006960D01*
X006970Y004080D01*
X006870Y004130D02*
X006910D01*
Y004100D01*
X006890Y004110D01*
X006880D01*
X006870Y004100D01*
Y004080D01*
X006880Y004070D01*
X006900D01*
X006910Y004080D01*
X006780Y004070D02*
Y004130D01*
X006750D01*
X006740Y004120D01*
Y004100D01*
X006750Y004090D01*
X006780D01*
X006760D02*
X006740Y004070D01*
X006680Y004130D02*
X006720D01*
Y004100D01*
X006700Y004110D01*
X006690D01*
X006680Y004100D01*
Y004080D01*
X006690Y004070D01*
X006710D01*
X006720Y004080D01*
X006630Y004070D02*
Y004130D01*
X006660Y004100D01*
X006620D01*
X006330Y004345D02*
Y004405D01*
X006300D01*
X006290Y004395D01*
Y004375D01*
X006300Y004365D01*
X006330D01*
X006310D02*
X006290Y004345D01*
X006230Y004405D02*
X006270D01*
Y004375D01*
X006250Y004385D01*
X006240D01*
X006230Y004375D01*
Y004355D01*
X006240Y004345D01*
X006260D01*
X006270Y004355D01*
X006210Y004395D02*
X006200Y004405D01*
X006180D01*
X006170Y004395D01*
Y004385D01*
X006180Y004375D01*
X006190D01*
X006180D01*
X006170Y004365D01*
Y004355D01*
X006180Y004345D01*
X006200D01*
X006210Y004355D01*
X008080Y003445D02*
Y003505D01*
X008050D01*
X008040Y003495D01*
Y003475D01*
X008050Y003465D01*
X008080D01*
X008060D02*
X008040Y003445D01*
X007980Y003505D02*
X008020D01*
Y003475D01*
X008000Y003485D01*
X007990D01*
X007980Y003475D01*
Y003455D01*
X007990Y003445D01*
X008010D01*
X008020Y003455D01*
X007960Y003445D02*
X007940D01*
X007950D01*
Y003505D01*
X007960Y003495D01*
X008080Y003345D02*
Y003405D01*
X008050D01*
X008040Y003395D01*
Y003375D01*
X008050Y003365D01*
X008080D01*
X008060D02*
X008040Y003345D01*
X007990D02*
Y003405D01*
X008020Y003375D01*
X007980D01*
X007960Y003395D02*
X007950Y003405D01*
X007930D01*
X007920Y003395D01*
Y003385D01*
X007930Y003375D01*
X007920Y003365D01*
Y003355D01*
X007930Y003345D01*
X007950D01*
X007960Y003355D01*
Y003365D01*
X007950Y003375D01*
X007960Y003385D01*
Y003395D01*
X007950Y003375D02*
X007930D01*
X006005Y004004D02*
Y004064D01*
X005975D01*
X005965Y004054D01*
Y004034D01*
X005975Y004024D01*
X006005D01*
X005985D02*
X005965Y004004D01*
X005915D02*
Y004064D01*
X005945Y004034D01*
X005905D01*
X005845Y004064D02*
X005865Y004054D01*
X005885Y004034D01*
Y004014D01*
X005875Y004004D01*
X005855D01*
X005845Y004014D01*
Y004024D01*
X005855Y004034D01*
X005885D01*
X006330Y003670D02*
Y003730D01*
X006300D01*
X006290Y003720D01*
Y003700D01*
X006300Y003690D01*
X006330D01*
X006310D02*
X006290Y003670D01*
X006240D02*
Y003730D01*
X006270Y003700D01*
X006230D01*
X006170Y003730D02*
X006210D01*
Y003700D01*
X006190Y003710D01*
X006180D01*
X006170Y003700D01*
Y003680D01*
X006180Y003670D01*
X006200D01*
X006210Y003680D01*
X006330Y003495D02*
Y003555D01*
X006300D01*
X006290Y003545D01*
Y003525D01*
X006300Y003515D01*
X006330D01*
X006310D02*
X006290Y003495D01*
X006240D02*
Y003555D01*
X006270Y003525D01*
X006230D01*
X006180Y003495D02*
Y003555D01*
X006210Y003525D01*
X006170D01*
X006005Y003145D02*
Y003205D01*
X005975D01*
X005965Y003195D01*
Y003175D01*
X005975Y003165D01*
X006005D01*
X005985D02*
X005965Y003145D01*
X005915D02*
Y003205D01*
X005945Y003175D01*
X005905D01*
X005885Y003195D02*
X005875Y003205D01*
X005855D01*
X005845Y003195D01*
Y003185D01*
X005855Y003175D01*
X005865D01*
X005855D01*
X005845Y003165D01*
Y003155D01*
X005855Y003145D01*
X005875D01*
X005885Y003155D01*
X000970Y001610D02*
X001030D01*
Y001640D01*
X001020Y001650D01*
X001000D01*
X000990Y001640D01*
Y001610D01*
Y001630D02*
X000970Y001650D01*
Y001700D02*
X001030D01*
X001000Y001670D01*
Y001710D01*
X000970Y001770D02*
Y001730D01*
X001010Y001770D01*
X001020D01*
X001030Y001760D01*
Y001740D01*
X001020Y001730D01*
X002359Y001143D02*
Y001203D01*
X002329D01*
X002319Y001193D01*
Y001173D01*
X002329Y001163D01*
X002359D01*
X002339D02*
X002319Y001143D01*
X002299Y001193D02*
X002289Y001203D01*
X002269D01*
X002259Y001193D01*
Y001183D01*
X002269Y001173D01*
X002279D01*
X002269D01*
X002259Y001163D01*
Y001153D01*
X002269Y001143D01*
X002289D01*
X002299Y001153D01*
X002239D02*
X002229Y001143D01*
X002209D01*
X002199Y001153D01*
Y001193D01*
X002209Y001203D01*
X002229D01*
X002239Y001193D01*
Y001183D01*
X002229Y001173D01*
X002199D01*
X003670Y005620D02*
X003730D01*
Y005650D01*
X003720Y005660D01*
X003700D01*
X003690Y005650D01*
Y005620D01*
Y005640D02*
X003670Y005660D01*
X003720Y005680D02*
X003730Y005690D01*
Y005710D01*
X003720Y005720D01*
X003710D01*
X003700Y005710D01*
Y005700D01*
Y005710D01*
X003690Y005720D01*
X003680D01*
X003670Y005710D01*
Y005690D01*
X003680Y005680D01*
X003720Y005740D02*
X003730Y005750D01*
Y005770D01*
X003720Y005780D01*
X003710D01*
X003700Y005770D01*
X003690Y005780D01*
X003680D01*
X003670Y005770D01*
Y005750D01*
X003680Y005740D01*
X003690D01*
X003700Y005750D01*
X003710Y005740D01*
X003720D01*
X003700Y005750D02*
Y005770D01*
X003845Y005620D02*
X003905D01*
Y005650D01*
X003895Y005660D01*
X003875D01*
X003865Y005650D01*
Y005620D01*
Y005640D02*
X003845Y005660D01*
X003895Y005680D02*
X003905Y005690D01*
Y005710D01*
X003895Y005720D01*
X003885D01*
X003875Y005710D01*
Y005700D01*
Y005710D01*
X003865Y005720D01*
X003855D01*
X003845Y005710D01*
Y005690D01*
X003855Y005680D01*
X003905Y005740D02*
Y005780D01*
X003895D01*
X003855Y005740D01*
X003845D01*
X004020Y005620D02*
X004080D01*
Y005650D01*
X004070Y005660D01*
X004050D01*
X004040Y005650D01*
Y005620D01*
Y005640D02*
X004020Y005660D01*
X004070Y005680D02*
X004080Y005690D01*
Y005710D01*
X004070Y005720D01*
X004060D01*
X004050Y005710D01*
Y005700D01*
Y005710D01*
X004040Y005720D01*
X004030D01*
X004020Y005710D01*
Y005690D01*
X004030Y005680D01*
X004080Y005780D02*
X004070Y005760D01*
X004050Y005740D01*
X004030D01*
X004020Y005750D01*
Y005770D01*
X004030Y005780D01*
X004040D01*
X004050Y005770D01*
Y005740D01*
X004195Y005620D02*
X004255D01*
Y005650D01*
X004245Y005660D01*
X004225D01*
X004215Y005650D01*
Y005620D01*
Y005640D02*
X004195Y005660D01*
X004245Y005680D02*
X004255Y005690D01*
Y005710D01*
X004245Y005720D01*
X004235D01*
X004225Y005710D01*
Y005700D01*
Y005710D01*
X004215Y005720D01*
X004205D01*
X004195Y005710D01*
Y005690D01*
X004205Y005680D01*
X004255Y005780D02*
Y005740D01*
X004225D01*
X004235Y005760D01*
Y005770D01*
X004225Y005780D01*
X004205D01*
X004195Y005770D01*
Y005750D01*
X004205Y005740D01*
X004345Y005620D02*
X004405D01*
Y005650D01*
X004395Y005660D01*
X004375D01*
X004365Y005650D01*
Y005620D01*
Y005640D02*
X004345Y005660D01*
X004395Y005680D02*
X004405Y005690D01*
Y005710D01*
X004395Y005720D01*
X004385D01*
X004375Y005710D01*
Y005700D01*
Y005710D01*
X004365Y005720D01*
X004355D01*
X004345Y005710D01*
Y005690D01*
X004355Y005680D01*
X004345Y005770D02*
X004405D01*
X004375Y005740D01*
Y005780D01*
X004520Y005620D02*
X004580D01*
Y005650D01*
X004570Y005660D01*
X004550D01*
X004540Y005650D01*
Y005620D01*
Y005640D02*
X004520Y005660D01*
X004570Y005680D02*
X004580Y005690D01*
Y005710D01*
X004570Y005720D01*
X004560D01*
X004550Y005710D01*
Y005700D01*
Y005710D01*
X004540Y005720D01*
X004530D01*
X004520Y005710D01*
Y005690D01*
X004530Y005680D01*
X004570Y005740D02*
X004580Y005750D01*
Y005770D01*
X004570Y005780D01*
X004560D01*
X004550Y005770D01*
Y005760D01*
Y005770D01*
X004540Y005780D01*
X004530D01*
X004520Y005770D01*
Y005750D01*
X004530Y005740D01*
X004695Y005620D02*
X004755D01*
Y005650D01*
X004745Y005660D01*
X004725D01*
X004715Y005650D01*
Y005620D01*
Y005640D02*
X004695Y005660D01*
X004745Y005680D02*
X004755Y005690D01*
Y005710D01*
X004745Y005720D01*
X004735D01*
X004725Y005710D01*
Y005700D01*
Y005710D01*
X004715Y005720D01*
X004705D01*
X004695Y005710D01*
Y005690D01*
X004705Y005680D01*
X004695Y005780D02*
Y005740D01*
X004735Y005780D01*
X004745D01*
X004755Y005770D01*
Y005750D01*
X004745Y005740D01*
X004942Y005131D02*
Y005191D01*
X004912D01*
X004902Y005181D01*
Y005161D01*
X004912Y005151D01*
X004942D01*
X004922D02*
X004902Y005131D01*
X004882Y005181D02*
X004872Y005191D01*
X004852D01*
X004842Y005181D01*
Y005171D01*
X004852Y005161D01*
X004862D01*
X004852D01*
X004842Y005151D01*
Y005141D01*
X004852Y005131D01*
X004872D01*
X004882Y005141D01*
X004822Y005131D02*
X004802D01*
X004812D01*
Y005191D01*
X004822Y005181D01*
X005161Y005131D02*
Y005191D01*
X005131D01*
X005121Y005181D01*
Y005161D01*
X005131Y005151D01*
X005161D01*
X005141D02*
X005121Y005131D01*
X005061D02*
X005101D01*
X005061Y005171D01*
Y005181D01*
X005071Y005191D01*
X005091D01*
X005101Y005181D01*
X005041Y005141D02*
X005031Y005131D01*
X005011D01*
X005001Y005141D01*
Y005181D01*
X005011Y005191D01*
X005031D01*
X005041Y005181D01*
Y005171D01*
X005031Y005161D01*
X005001D01*
X001886Y001066D02*
Y001126D01*
X001856D01*
X001846Y001116D01*
Y001096D01*
X001856Y001086D01*
X001886D01*
X001866D02*
X001846Y001066D01*
X001826D02*
X001806D01*
X001816D01*
Y001126D01*
X001826Y001116D01*
X001776Y001126D02*
X001736D01*
Y001116D01*
X001776Y001076D01*
Y001066D01*
X001886Y000718D02*
Y000777D01*
X001856D01*
X001846Y000767D01*
Y000747D01*
X001856Y000738D01*
X001886D01*
X001866D02*
X001846Y000718D01*
X001826D02*
X001806D01*
X001816D01*
Y000777D01*
X001826Y000767D01*
X001736Y000777D02*
X001756Y000767D01*
X001776Y000747D01*
Y000728D01*
X001766Y000718D01*
X001746D01*
X001736Y000728D01*
Y000738D01*
X001746Y000747D01*
X001776D01*
X002040Y001630D02*
Y001570D01*
X002000D01*
X001980D02*
X001960D01*
X001970D01*
Y001630D01*
X001980Y001620D01*
X002065Y001870D02*
X002075Y001880D01*
X002095D01*
X002105Y001870D01*
Y001830D01*
X002095Y001820D01*
X002075D01*
X002065Y001830D01*
X002015Y001820D02*
Y001880D01*
X002045Y001850D01*
X002005D01*
X001945Y001880D02*
X001985D01*
Y001850D01*
X001965Y001860D01*
X001955D01*
X001945Y001850D01*
Y001830D01*
X001955Y001820D01*
X001975D01*
X001985Y001830D01*
X002065Y001345D02*
X002075Y001355D01*
X002095D01*
X002105Y001345D01*
Y001305D01*
X002095Y001295D01*
X002075D01*
X002065Y001305D01*
X002015Y001295D02*
Y001355D01*
X002045Y001325D01*
X002005D01*
X001955Y001295D02*
Y001355D01*
X001985Y001325D01*
X001945D01*
X007440Y004395D02*
X007450Y004405D01*
X007470D01*
X007480Y004395D01*
Y004355D01*
X007470Y004345D01*
X007450D01*
X007440Y004355D01*
X007390Y004345D02*
Y004405D01*
X007420Y004375D01*
X007380D01*
X007320Y004345D02*
X007360D01*
X007320Y004385D01*
Y004395D01*
X007330Y004405D01*
X007350D01*
X007360Y004395D01*
X004965Y002195D02*
X004975Y002205D01*
X004995D01*
X005005Y002195D01*
Y002155D01*
X004995Y002145D01*
X004975D01*
X004965Y002155D01*
X004945Y002195D02*
X004935Y002205D01*
X004915D01*
X004905Y002195D01*
Y002185D01*
X004915Y002175D01*
X004925D01*
X004915D01*
X004905Y002165D01*
Y002155D01*
X004915Y002145D01*
X004935D01*
X004945Y002155D01*
X004885Y002195D02*
X004875Y002205D01*
X004855D01*
X004845Y002195D01*
Y002185D01*
X004855Y002175D01*
X004845Y002165D01*
Y002155D01*
X004855Y002145D01*
X004875D01*
X004885Y002155D01*
Y002165D01*
X004875Y002175D01*
X004885Y002185D01*
Y002195D01*
X004875Y002175D02*
X004855D01*
X004965Y002945D02*
X004975Y002955D01*
X004995D01*
X005005Y002945D01*
Y002905D01*
X004995Y002895D01*
X004975D01*
X004965Y002905D01*
X004945Y002945D02*
X004935Y002955D01*
X004915D01*
X004905Y002945D01*
Y002935D01*
X004915Y002925D01*
X004925D01*
X004915D01*
X004905Y002915D01*
Y002905D01*
X004915Y002895D01*
X004935D01*
X004945Y002905D01*
X004885Y002955D02*
X004845D01*
Y002945D01*
X004885Y002905D01*
Y002895D01*
X004965Y003635D02*
X004975Y003645D01*
X004995D01*
X005005Y003635D01*
Y003595D01*
X004995Y003585D01*
X004975D01*
X004965Y003595D01*
X004945Y003635D02*
X004935Y003645D01*
X004915D01*
X004905Y003635D01*
Y003625D01*
X004915Y003615D01*
X004925D01*
X004915D01*
X004905Y003605D01*
Y003595D01*
X004915Y003585D01*
X004935D01*
X004945Y003595D01*
X004845Y003645D02*
X004865Y003635D01*
X004885Y003615D01*
Y003595D01*
X004875Y003585D01*
X004855D01*
X004845Y003595D01*
Y003605D01*
X004855Y003615D01*
X004885D01*
X004965Y004470D02*
X004975Y004480D01*
X004995D01*
X005005Y004470D01*
Y004430D01*
X004995Y004420D01*
X004975D01*
X004965Y004430D01*
X004945Y004470D02*
X004935Y004480D01*
X004915D01*
X004905Y004470D01*
Y004460D01*
X004915Y004450D01*
X004925D01*
X004915D01*
X004905Y004440D01*
Y004430D01*
X004915Y004420D01*
X004935D01*
X004945Y004430D01*
X004845Y004480D02*
X004885D01*
Y004450D01*
X004865Y004460D01*
X004855D01*
X004845Y004450D01*
Y004430D01*
X004855Y004420D01*
X004875D01*
X004885Y004430D01*
X005395Y005385D02*
X005405Y005375D01*
Y005355D01*
X005395Y005345D01*
X005355D01*
X005345Y005355D01*
Y005375D01*
X005355Y005385D01*
X005395Y005405D02*
X005405Y005415D01*
Y005435D01*
X005395Y005445D01*
X005385D01*
X005375Y005435D01*
Y005425D01*
Y005435D01*
X005365Y005445D01*
X005355D01*
X005345Y005435D01*
Y005415D01*
X005355Y005405D01*
X005345Y005495D02*
X005405D01*
X005375Y005465D01*
Y005505D01*
X004440Y005170D02*
X004450Y005180D01*
X004470D01*
X004480Y005170D01*
Y005130D01*
X004470Y005120D01*
X004450D01*
X004440Y005130D01*
X004420Y005170D02*
X004410Y005180D01*
X004390D01*
X004380Y005170D01*
Y005160D01*
X004390Y005150D01*
X004400D01*
X004390D01*
X004380Y005140D01*
Y005130D01*
X004390Y005120D01*
X004410D01*
X004420Y005130D01*
X004360Y005170D02*
X004350Y005180D01*
X004330D01*
X004320Y005170D01*
Y005160D01*
X004330Y005150D01*
X004340D01*
X004330D01*
X004320Y005140D01*
Y005130D01*
X004330Y005120D01*
X004350D01*
X004360Y005130D01*
X002150Y005332D02*
X002160Y005342D01*
X002180D01*
X002190Y005332D01*
Y005292D01*
X002180Y005282D01*
X002160D01*
X002150Y005292D01*
X002130Y005332D02*
X002120Y005342D01*
X002100D01*
X002090Y005332D01*
Y005322D01*
X002100Y005312D01*
X002110D01*
X002100D01*
X002090Y005302D01*
Y005292D01*
X002100Y005282D01*
X002120D01*
X002130Y005292D01*
X002030Y005282D02*
X002070D01*
X002030Y005322D01*
Y005332D01*
X002040Y005342D01*
X002060D01*
X002070Y005332D01*
X003880Y005170D02*
X003890Y005180D01*
X003910D01*
X003920Y005170D01*
Y005130D01*
X003910Y005120D01*
X003890D01*
X003880Y005130D01*
X003860Y005170D02*
X003850Y005180D01*
X003830D01*
X003820Y005170D01*
Y005160D01*
X003830Y005150D01*
X003840D01*
X003830D01*
X003820Y005140D01*
Y005130D01*
X003830Y005120D01*
X003850D01*
X003860Y005130D01*
X003800Y005120D02*
X003780D01*
X003790D01*
Y005180D01*
X003800Y005170D01*
X000670Y001650D02*
X000680Y001640D01*
Y001620D01*
X000670Y001610D01*
X000630D01*
X000620Y001620D01*
Y001640D01*
X000630Y001650D01*
X000670Y001670D02*
X000680Y001680D01*
Y001700D01*
X000670Y001710D01*
X000660D01*
X000650Y001700D01*
Y001690D01*
Y001700D01*
X000640Y001710D01*
X000630D01*
X000620Y001700D01*
Y001680D01*
X000630Y001670D01*
X000670Y001730D02*
X000680Y001740D01*
Y001760D01*
X000670Y001770D01*
X000630D01*
X000620Y001760D01*
Y001740D01*
X000630Y001730D01*
X000670D01*
X000845Y001650D02*
X000855Y001640D01*
Y001620D01*
X000845Y001610D01*
X000805D01*
X000795Y001620D01*
Y001640D01*
X000805Y001650D01*
X000795Y001710D02*
Y001670D01*
X000835Y001710D01*
X000845D01*
X000855Y001700D01*
Y001680D01*
X000845Y001670D01*
X000855Y001770D02*
Y001730D01*
X000825D01*
X000835Y001750D01*
Y001760D01*
X000825Y001770D01*
X000805D01*
X000795Y001760D01*
Y001740D01*
X000805Y001730D01*
X000850Y005160D02*
X000860Y005170D01*
X000880D01*
X000890Y005160D01*
Y005120D01*
X000880Y005110D01*
X000860D01*
X000850Y005120D01*
X000790Y005110D02*
X000830D01*
X000790Y005150D01*
Y005160D01*
X000800Y005170D01*
X000820D01*
X000830Y005160D01*
X000740Y005110D02*
Y005170D01*
X000770Y005140D01*
X000730D01*
X001070Y005160D02*
X001080Y005170D01*
X001100D01*
X001110Y005160D01*
Y005120D01*
X001100Y005110D01*
X001080D01*
X001070Y005120D01*
X001010Y005110D02*
X001050D01*
X001010Y005150D01*
Y005160D01*
X001020Y005170D01*
X001040D01*
X001050Y005160D01*
X000990Y005110D02*
X000970D01*
X000980D01*
Y005170D01*
X000990Y005160D01*
X002095Y001193D02*
X002105Y001203D01*
X002125D01*
X002135Y001193D01*
Y001153D01*
X002125Y001143D01*
X002105D01*
X002095Y001153D01*
X002075Y001143D02*
X002055D01*
X002065D01*
Y001203D01*
X002075Y001193D01*
X001985Y001203D02*
X002025D01*
Y001173D01*
X002005Y001183D01*
X001995D01*
X001985Y001173D01*
Y001153D01*
X001995Y001143D01*
X002015D01*
X002025Y001153D01*
X001025Y004190D02*
X001035Y004200D01*
X001055D01*
X001065Y004190D01*
Y004150D01*
X001055Y004140D01*
X001035D01*
X001025Y004150D01*
X001005Y004140D02*
X000985D01*
X000995D01*
Y004200D01*
X001005Y004190D01*
X000925Y004140D02*
Y004200D01*
X000955Y004170D01*
X000915D01*
X007235Y004995D02*
X007245Y005005D01*
X007265D01*
X007275Y004995D01*
Y004955D01*
X007265Y004945D01*
X007245D01*
X007235Y004955D01*
X007215Y004945D02*
X007195D01*
X007205D01*
Y005005D01*
X007215Y004995D01*
X007165D02*
X007155Y005005D01*
X007135D01*
X007125Y004995D01*
Y004985D01*
X007135Y004975D01*
X007145D01*
X007135D01*
X007125Y004965D01*
Y004955D01*
X007135Y004945D01*
X007155D01*
X007165Y004955D01*
X001846Y000939D02*
X001856Y000949D01*
X001876D01*
X001886Y000939D01*
Y000899D01*
X001876Y000889D01*
X001856D01*
X001846Y000899D01*
X001826Y000889D02*
X001806D01*
X001816D01*
Y000949D01*
X001826Y000939D01*
D51*
X005133Y002083D02*
G03*
X005133Y002083I-000018J000000D01*
G01*
Y002816D02*
G03*
X005133Y002816I-000018J000000D01*
G01*
Y003549D02*
G03*
X005133Y003549I-000018J000000D01*
G01*
Y004283D02*
G03*
X005133Y004283I-000018J000000D01*
G01*
Y005072D02*
G03*
X005133Y005072I-000018J000000D01*
G01*
X003072Y003177D02*
G03*
X003072Y003177I-000020J000000D01*
G01*
D53*
X004230Y000520D02*
Y001050D01*
Y000520D02*
X005362D01*
Y001050D01*
X004230D02*
X005362D01*
M02*
